<svg width="30" height="30" viewBox="0 0 30 30" fill="none" xmlns="http://www.w3.org/2000/svg">
<rect width="30" height="30" rx="8" fill="#AB47FF"/>
<path d="M7.62813 14.6522C7.63564 14.6153 7.63564 14.6153 7.64331 14.5777C7.95303 13.0696 8.79697 11.6451 10.0217 10.7026C10.0493 10.6813 10.0493 10.6813 10.0774 10.6596C10.9614 9.98454 11.963 9.54936 13.0574 9.35679C13.0939 9.35019 13.1303 9.34359 13.1679 9.33679C13.4235 9.29772 13.6785 9.29067 13.9367 9.28731C13.971 9.28654 14.0053 9.28578 14.0407 9.28499C14.0695 9.28493 14.0957 9.28488 14.1196 9.28494C14.3916 9.28558 14.5889 9.53046 14.5858 9.80243C14.5859 9.82657 14.5859 9.85071 14.586 9.87558C14.5862 9.95639 14.5857 10.0372 14.5852 10.118C14.5852 10.176 14.5852 10.2339 14.5852 10.2919C14.5853 10.4492 14.5848 10.6065 14.5841 10.7639C14.5836 10.9283 14.5835 11.0927 14.5834 11.2572C14.5832 11.5685 14.5824 11.8799 14.5816 12.1912C14.5806 12.5457 14.5801 12.9002 14.5797 13.2546C14.5788 13.9534 14.5773 14.6522 14.5755 15.351C14.5754 15.4013 14.6162 15.442 14.6664 15.4418C15.398 15.4392 16.1295 15.4373 16.8611 15.4361C17.2149 15.4355 17.5687 15.4347 17.9225 15.4333C18.2308 15.4322 18.5391 15.4314 18.8475 15.4312C19.0107 15.431 19.174 15.4306 19.3373 15.4298C19.491 15.429 19.6446 15.4288 19.7983 15.4289C19.8547 15.4289 19.9111 15.4287 19.9675 15.4282C20.0446 15.4276 20.1216 15.4278 20.1986 15.4281C20.2321 15.4276 20.2321 15.4276 20.2662 15.4271C20.2858 15.4273 20.3043 15.4281 20.3219 15.4295C20.5397 15.4471 20.7155 15.6463 20.7177 15.8648C20.7182 15.9114 20.7182 15.9114 20.7188 15.959C20.7185 15.9924 20.7182 16.0258 20.7179 16.0602C20.7176 16.0951 20.7174 16.1301 20.7171 16.1661C20.6983 17.1897 20.3971 18.1721 19.917 19.07C19.9076 19.0875 19.8983 19.1051 19.8887 19.1232C19.3286 20.1684 18.4332 21.06 17.4067 21.6446C17.3867 21.656 17.3667 21.6674 17.3461 21.6792C16.4842 22.1656 15.4736 22.4935 14.4781 22.499C14.4529 22.4992 14.4277 22.4994 14.4018 22.4996C13.3733 22.5061 13.3733 22.5061 12.9115 22.4052C12.884 22.3997 12.8566 22.3942 12.8284 22.3886C11.6756 22.1551 10.6165 21.6223 9.74284 20.834C9.70382 20.799 9.66415 20.7647 9.62442 20.7305C9.50129 20.6241 9.39052 20.5139 9.28578 20.3893C9.25018 20.3475 9.21348 20.3067 9.17586 20.2668C8.35969 19.3981 7.869 18.2649 7.62813 17.1098C7.62285 17.0858 7.61757 17.0618 7.61213 17.0371C7.45388 16.2943 7.46668 15.393 7.62813 14.6522ZM8.56219 17.139C8.56876 17.1655 8.57533 17.1919 8.58209 17.2191C8.82275 18.167 9.27351 19.0196 9.93548 19.7388C9.98166 19.7895 10.0249 19.8408 10.0673 19.8947C10.1604 20.0023 10.2626 20.091 10.372 20.1817C10.3874 20.1947 10.4028 20.2076 10.4188 20.2209C10.7688 20.5124 11.1328 20.7649 11.5395 20.9717C11.5568 20.9805 11.574 20.9894 11.5918 20.9985C12.0926 21.2533 12.6216 21.4271 13.1742 21.5275C13.2007 21.5327 13.2273 21.5379 13.2547 21.5432C13.5375 21.5933 13.8165 21.5977 14.1028 21.597C14.1278 21.597 14.1529 21.597 14.1787 21.597C14.5928 21.596 14.9885 21.5656 15.3926 21.469C15.4158 21.4637 15.439 21.4584 15.4629 21.4529C16.3821 21.2374 17.1985 20.7733 17.9029 20.1525C17.9237 20.1352 17.9445 20.1179 17.9659 20.1001C18.4217 19.7193 18.7718 19.2279 19.0705 18.7189C19.0809 18.7012 19.0914 18.6835 19.1022 18.6652C19.3569 18.2282 19.5308 17.7457 19.6543 17.2561C19.6623 17.2264 19.6703 17.1967 19.6785 17.1661C19.7275 16.9735 19.7541 16.7828 19.7735 16.5853C19.7761 16.5597 19.7787 16.5341 19.7814 16.5077C19.7847 16.4752 19.788 16.4427 19.7912 16.4102C19.7961 16.3618 19.7581 16.3198 19.7094 16.3197C18.981 16.3179 18.2527 16.3157 17.5243 16.313C17.172 16.3117 16.8198 16.3105 16.4675 16.3097C16.1605 16.3091 15.8536 16.3081 15.5466 16.3067C15.384 16.306 15.2215 16.3055 15.0589 16.3053C14.9059 16.3051 14.7529 16.3045 14.6 16.3036C14.5438 16.3034 14.4876 16.3033 14.4314 16.3033C14.3547 16.3034 14.2781 16.3029 14.2015 16.3023C14.168 16.3025 14.168 16.3025 14.1339 16.3027C13.9071 16.2997 13.7207 16.1112 13.7172 15.8844C13.7169 15.8626 13.717 15.8401 13.7171 15.8168C13.7169 15.7928 13.7167 15.7688 13.7165 15.744C13.716 15.6636 13.7161 15.5832 13.7161 15.5028C13.7159 15.4451 13.7156 15.3875 13.7152 15.3298C13.7144 15.1733 13.7142 15.0167 13.714 14.8602C13.7137 14.6966 13.713 14.533 13.7122 14.3694C13.711 14.0596 13.7101 13.7497 13.7095 13.4399C13.7087 13.0872 13.7074 12.7345 13.7061 12.3818C13.7037 11.7457 13.7018 11.1096 13.7002 10.4734C13.6999 10.3298 13.5756 10.2178 13.4328 10.2326C13.3952 10.2364 13.3952 10.2364 13.3569 10.2403C13.1815 10.2585 13.0113 10.2841 12.8403 10.3277C12.8152 10.334 12.79 10.3402 12.7641 10.3467C11.3034 10.7226 10.0184 11.6572 9.23812 12.9566C8.87816 13.5678 8.62727 14.2155 8.50382 14.9155C8.49844 14.9454 8.49307 14.9753 8.48754 15.0061C8.44028 15.2975 8.43379 15.5848 8.43449 15.8792C8.43451 15.9169 8.43451 15.9169 8.43454 15.9553C8.43571 16.3599 8.46232 16.7454 8.56219 17.139Z" fill="white"/>
<path d="M15.4378 14.0372C15.4376 14.0105 15.4374 13.9839 15.4373 13.9564C15.4369 13.8671 15.4371 13.7778 15.4373 13.6885C15.4371 13.6245 15.4369 13.5605 15.4367 13.4965C15.4361 13.3226 15.4362 13.1487 15.4363 12.9748C15.4364 12.8296 15.4363 12.6845 15.4361 12.5394C15.4357 12.1775 15.4358 11.8156 15.4361 11.4537C15.4364 11.1395 15.436 10.8253 15.4353 10.511C15.4346 10.1883 15.4343 9.86557 15.4345 9.54283C15.4346 9.36168 15.4346 9.18053 15.4341 8.99938C15.4336 8.82905 15.4337 8.65873 15.4343 8.4884C15.4344 8.42586 15.4343 8.36333 15.434 8.3008C15.4336 8.21547 15.4339 8.13017 15.4344 8.04484C15.4342 8.02006 15.4339 7.99529 15.4336 7.96977C15.4339 7.94598 15.4348 7.92376 15.4364 7.90275C15.4539 7.6813 15.6547 7.50284 15.8769 7.50206C15.9248 7.50179 15.9248 7.50179 15.9736 7.50151C16.0076 7.50192 16.0416 7.50233 16.0767 7.50275C16.112 7.50305 16.1473 7.50334 16.1836 7.50365C16.4995 7.50904 16.8032 7.53994 17.1129 7.60149C17.1409 7.60699 17.169 7.61249 17.1978 7.61816C18.3497 7.85197 19.4085 8.38496 20.2815 9.17269C20.3205 9.20771 20.3602 9.24199 20.3999 9.2762C20.523 9.38264 20.6338 9.49281 20.7386 9.61745C20.7742 9.65921 20.8109 9.70003 20.8485 9.73997C21.889 10.8473 22.4782 12.4234 22.4965 13.9337C22.4975 13.9845 22.4975 13.9845 22.4985 14.0362C22.4985 14.0508 22.4984 14.065 22.4983 14.079C22.4957 14.3663 22.245 14.5779 21.9576 14.5759C21.931 14.5761 21.9044 14.5762 21.877 14.5764C21.7879 14.5768 21.6988 14.5766 21.6097 14.5764C21.5459 14.5766 21.482 14.5768 21.4181 14.577C21.2446 14.5775 21.0711 14.5775 20.8976 14.5773C20.7528 14.5772 20.608 14.5774 20.4632 14.5776C20.1022 14.578 19.7411 14.5779 19.38 14.5776C19.0665 14.5773 18.753 14.5776 18.4395 14.5783C18.1175 14.5791 17.7955 14.5793 17.4735 14.5791C17.2928 14.579 17.1121 14.5791 16.9313 14.5796C16.7614 14.5801 16.5915 14.58 16.4215 14.5794C16.3591 14.5793 16.2967 14.5794 16.2344 14.5797C16.1492 14.5801 16.0641 14.5797 15.979 14.5792C15.9543 14.5795 15.9295 14.5798 15.9041 14.5801C15.637 14.5767 15.4351 14.3365 15.4375 14.0694C15.4376 14.0588 15.4377 14.0481 15.4378 14.0372ZM16.3248 11.1923C16.3248 12.57 17.4416 13.6869 18.8193 13.6869C19.4462 13.6869 20.0764 13.6869 20.7122 13.6869C21.1775 13.6869 21.5454 13.2863 21.4585 12.8293C21.4493 12.7917 21.4493 12.7917 21.4398 12.7534C21.3187 12.2821 21.1414 11.8311 20.9075 11.4048C20.8901 11.373 20.8726 11.3412 20.8546 11.3084C20.7466 11.118 20.6286 10.9374 20.4989 10.7612C20.4878 10.7461 20.4767 10.7309 20.4652 10.7153C20.3146 10.5112 20.1586 10.321 19.9735 10.1468C19.8275 10.0005 19.8275 10.0005 19.7726 9.94236C19.0962 9.23893 18.1522 8.79492 17.2205 8.55416C17.1815 8.54386 17.1815 8.54386 17.1416 8.53334C16.713 8.42926 16.3248 8.80491 16.3248 9.24601C16.3248 9.89271 16.3248 10.5406 16.3248 11.1923Z" fill="white"/>
</svg>
