<svg width="512" height="512" version="1.1" xmlns="http://www.w3.org/2000/svg" desc="Created with imagetracer.js version 1.2.6" ><path fill="#00B53F" stroke="#00B53F" stroke-width="1" opacity="0" d="M 0 0 L 511.5 0 L 512 0.5 L 512 97 L 394.5 97 L 394 97.5 L 394 130 L 455 130.5 L 301.5 283 L 204.5 187 L 0 390.5 L 0 0 Z " /><path fill="#00B53F" stroke="#00B53F" stroke-width="1" opacity="0" d="M 478.5 154 L 479 215 L 511.5 215 L 512 215.5 L 512 512 L 0.5 512 L 0 511.5 L 0 392.5 L 23.5 415 L 204.5 234 L 302.5 330 L 478.5 154 Z " /><path fill="#00B53F" stroke="#00B53F" stroke-width="1" opacity="0.8666666666666667" d="M 478.5 153 L 302.5 330 L 205 233.5 L 301.5 329 L 478.5 153 Z " /><path fill="#00B53F" stroke="#00B53F" stroke-width="1" opacity="0.8666666666666667" d="M 204.5 187 L 0.5 392 L 204.5 187 Z " /><path fill="#00B53F" stroke="#00B53F" stroke-width="1" opacity="1" d="M 394 97 L 512 97 L 512 215 L 479 215 L 479 153.5 L 302.5 329 L 205.5 233 L 23.5 415 L 1 392.5 L 205.5 187 L 302.5 283 L 454.5 130 L 394 130 L 394 97 Z " /></svg>