<?xml version="1.0" encoding="UTF-8"?>
<svg version="1.1" xmlns="http://www.w3.org/2000/svg" width="512" height="512">
<path d="M0 0 C4.49903217 4.27408056 7.39108511 8.43357034 7.6241985 14.7291891 C7.62895713 16.15485845 7.62812173 17.58055255 7.62304783 19.00622082 C7.62420167 19.79477611 7.62535552 20.58333141 7.62654433 21.39578232 C7.62920876 24.06019629 7.62469022 26.72455085 7.62025452 29.38896179 C7.62069025 31.30958327 7.62156521 33.23020469 7.62284368 35.1508258 C7.62508816 40.44578711 7.62106799 45.74072834 7.61606562 51.03568709 C7.61176064 56.73916412 7.61320758 62.44263996 7.6139679 68.14611816 C7.6144931 78.03351295 7.61134666 87.92090116 7.60573006 97.8082943 C7.59761458 112.10393347 7.59499979 126.39956945 7.59374207 140.69521067 C7.59155162 163.88705966 7.58490031 187.0789049 7.57543945 210.27075195 C7.56625788 232.80395489 7.55917287 255.33715689 7.55493164 277.87036133 C7.55473435 278.91187346 7.55473435 278.91187346 7.55453308 279.97442624 C7.55321458 286.94716834 7.55193876 293.91991044 7.55069422 300.89265255 C7.54024978 359.38677072 7.52252538 417.88088527 7.5 476.375 C18.06 476.375 28.62 476.375 39.5 476.375 C39.49000725 472.90298317 39.49000725 472.90298317 39.47981262 469.36082458 C39.41852553 447.56840807 39.37387048 425.7760029 39.34456348 403.98351955 C39.32909524 392.77926163 39.30800646 381.57506694 39.27368164 370.37084961 C39.24377807 360.60514902 39.22442469 350.83949423 39.21773452 341.07374913 C39.2138239 335.90295909 39.20463415 330.73230009 39.18280983 325.56155205 C39.16242963 320.69346003 39.15616934 315.82555289 39.16067696 310.95742226 C39.15985245 309.17202627 39.15389595 307.38662402 39.14238358 305.60126495 C39.12741534 303.1599711 39.13106196 300.71937148 39.13923645 298.27806091 C39.13049793 297.57473442 39.1217594 296.87140793 39.11275607 296.14676851 C39.16974103 289.83260209 40.78227612 285.35698909 44.9375 280.5625 C49.55870213 276.61757135 53.02831037 276.07677677 59.01904297 276.08447266 C59.77076782 276.07775543 60.52249268 276.07103821 61.29699707 276.06411743 C63.7787947 276.0451403 66.26032185 276.0412134 68.7421875 276.0390625 C70.47087718 276.03263432 72.19956577 276.02590594 73.92825317 276.01889038 C77.55131553 276.0069183 81.17428254 276.00320948 84.79736328 276.00439453 C89.43337797 276.0045977 94.06877954 275.97729719 98.70464897 275.94285011 C102.27522575 275.92058081 105.84565499 275.916557 109.4162941 275.91761398 C111.1250838 275.91525801 112.83387757 275.90643463 114.54259872 275.89094925 C116.93622155 275.87128821 119.32852252 275.87712681 121.72216797 275.88916016 C122.42366974 275.87792114 123.12517151 275.86668213 123.84793091 275.85510254 C128.84535757 275.91874115 131.63649899 277.27407818 135.5 280.375 C139.90003795 285.36963768 140.64623778 288.28279344 140.62025452 294.79067993 C140.62153615 295.9509303 140.62153615 295.9509303 140.62284368 297.13462007 C140.6244978 299.74032327 140.61897821 302.34596284 140.61352539 304.95166016 C140.61324348 306.81400043 140.61340133 308.67634082 140.6139679 310.53868103 C140.61425571 315.60659246 140.60836152 320.67448039 140.60139394 325.74238634 C140.59515778 331.03417881 140.59455639 336.32597176 140.59336853 341.61776733 C140.59025599 351.64396629 140.58204364 361.67015438 140.57201904 371.69634855 C140.56085551 383.10851007 140.55534685 394.5206721 140.55032361 405.93283772 C140.53986097 429.41356471 140.52206242 452.89428129 140.5 476.375 C151.39 476.375 162.28 476.375 173.5 476.375 C173.48889694 472.35872437 173.47779388 468.34244873 173.46635437 464.20446777 C173.36686462 427.37661843 173.29221759 390.54878586 173.24467335 353.7208316 C173.2384198 348.89429112 173.23194819 344.06775095 173.2253418 339.24121094 C173.22337447 337.79989173 173.22337447 337.79989173 173.2213674 336.32945496 C173.19960932 320.76988126 173.16018556 305.21039991 173.11423602 289.65088099 C173.0674826 273.68603293 173.03970696 257.72123324 173.02955753 241.75631952 C173.02269606 231.90463249 173.00102285 222.05320647 172.96041767 212.20159978 C172.93399307 205.44648358 172.92599836 198.69150238 172.93249311 191.93633825 C172.93569647 188.03855524 172.93077741 184.14122841 172.90397263 180.24352646 C172.87959591 176.67278311 172.87844016 173.10280159 172.89550553 169.53202277 C172.89861019 167.63309989 172.87708434 165.73418565 172.85459346 163.83539343 C172.91628617 156.78579008 173.68727124 151.74352282 178.5 146.375 C183.64064053 142.48817423 188.22453743 142.24792876 194.54418945 142.21386719 C195.24554016 142.20890228 195.94689087 142.20393738 196.66949463 142.19882202 C198.98410025 142.18424676 201.29863732 142.177406 203.61328125 142.171875 C205.22747295 142.16611952 206.84166464 142.16036184 208.45585632 142.15460205 C211.83930783 142.14410511 215.22273568 142.13825397 218.60620117 142.13476562 C222.93036381 142.12928506 227.25421093 142.10526104 231.57827473 142.07679367 C234.91296792 142.05812044 238.24758584 142.05295919 241.58232689 142.05142975 C243.17585156 142.04841302 244.76937521 142.04041773 246.36284828 142.02724457 C248.59801499 142.01008613 250.83242013 142.01208774 253.06762695 142.01855469 C254.33685501 142.01490906 255.60608307 142.01126343 256.91377258 142.00750732 C261.75524081 142.50362871 265.73077265 143.8242828 269.4609375 147.09375 C269.92757813 147.6815625 270.39421875 148.269375 270.875 148.875 C271.35710937 149.4628125 271.83921875 150.050625 272.3359375 150.65625 C274.58006979 153.96973391 274.624559 156.88116207 274.62304783 160.75731945 C274.62503888 161.88146258 274.62702993 163.0056057 274.62908131 164.16381377 C274.62616847 165.40406965 274.62325563 166.64432553 274.62025452 167.92216492 C274.62153615 169.89224029 274.62153615 169.89224029 274.62284368 171.90211517 C274.62508559 175.55525326 274.62107149 179.20836219 274.61606562 182.86149657 C274.61175697 186.79808594 274.61320784 190.73467359 274.6139679 194.67126465 C274.61449287 201.49420755 274.61134886 208.31714091 274.60573006 215.14008141 C274.59761143 225.00497181 274.59499946 234.86985758 274.59374207 244.73475096 C274.59155212 260.73894141 274.58489358 276.74312677 274.57543945 292.74731445 C274.56626386 308.29614232 274.55918375 323.8449688 274.55493164 339.39379883 C274.55453756 340.83085494 274.55453756 340.83085494 274.55413551 342.29694249 C274.55283049 347.10301746 274.55156678 351.90909243 274.55032361 356.7151674 C274.53995277 396.60178201 274.52206126 436.48839028 274.5 476.375 C285.06 476.375 295.62 476.375 306.5 476.375 C306.49000725 471.66603455 306.49000725 471.66603455 306.47981262 466.86193848 C306.42010028 438.06583241 306.37532146 409.26974317 306.34680401 380.47359052 C306.34305195 376.69853939 306.33916897 372.92348841 306.33520508 369.1484375 C306.33441815 368.39690106 306.33363122 367.64536462 306.33282044 366.87105435 C306.31977081 354.70643347 306.29611942 342.54185518 306.26854161 330.37725955 C306.24047507 317.89284658 306.2238211 305.40845589 306.21773452 292.92401266 C306.21362066 285.22204951 306.20063301 277.52020673 306.1762506 269.81828064 C306.15850013 263.90985077 306.15663754 258.0014825 306.16067696 252.09302521 C306.15985156 249.67109181 306.15388331 247.24915386 306.14238358 244.82724762 C306.12744705 241.51930795 306.13105104 238.21188235 306.13923645 234.90393066 C306.13049793 233.94671443 306.1217594 232.98949819 306.11275607 232.00327539 C306.15640259 225.47257662 306.87410241 219.52010916 311.21875 214.31640625 C311.8065625 213.86136719 312.394375 213.40632812 313 212.9375 C313.5878125 212.46441406 314.175625 211.99132812 314.78125 211.50390625 C318.56988571 209.01546143 322.36998097 209.22091317 326.72192383 209.21386719 C327.45399551 209.20890228 328.1860672 209.20393738 328.94032288 209.19882202 C331.36256857 209.18421567 333.78474875 209.17740065 336.20703125 209.171875 C337.89230857 209.1661219 339.57758587 209.16036419 341.26286316 209.15460205 C344.79772242 209.14409614 348.33255896 209.13825092 351.86743164 209.13476562 C356.39013301 209.12928442 360.91253279 209.10526278 365.43513966 209.07679367 C368.9173418 209.05814058 372.39947171 209.05296025 375.88171959 209.05142975 C377.54863825 209.04840827 379.21555579 209.0403968 380.88242531 209.02724457 C383.21847889 209.01012929 385.55380119 209.01207747 387.88989258 209.01855469 C388.57426392 209.0093399 389.25863525 209.00012512 389.96374512 208.9906311 C394.53485678 209.03019854 397.61346797 209.99153778 401.5 212.375 C408.23670489 219.26481182 408.79600311 225.48971263 408.74050903 234.66342163 C408.74307231 236.21469425 408.74307231 236.21469425 408.74568737 237.7973057 C408.74898055 241.26126266 408.73798121 244.72502574 408.72705078 248.18896484 C408.72648663 250.67257686 408.7268033 253.15618921 408.72793579 255.63980103 C408.72839117 260.98614366 408.72271979 266.33242598 408.71146011 271.6787529 C408.69519124 279.40859034 408.68999569 287.13840418 408.68748413 294.86825688 C408.68310921 307.41006876 408.6698056 319.9518546 408.65087891 332.49365234 C408.63251487 344.67529165 408.61836093 356.85692387 408.60986328 369.03857422 C408.60933783 369.78972076 408.60881239 370.54086731 408.60827102 371.31477587 C408.6056609 375.08313797 408.6031335 378.85150013 408.60064721 382.61986232 C408.57992102 413.87159382 408.5445521 445.12329295 408.5 476.375 C409.28403198 476.36611755 410.06806396 476.35723511 410.87585449 476.3480835 C418.29026443 476.26769921 425.70446095 476.20691535 433.11919403 476.16775131 C436.93056435 476.14693921 440.74157246 476.11874003 444.55273438 476.07324219 C448.23563664 476.02955421 451.91819208 476.00581501 455.60133362 475.99549103 C457.00148472 475.9881405 458.40161836 475.97378702 459.80162048 475.95207977 C467.78164105 475.83334889 473.74371845 475.89737965 480.5 480.375 C485.42349371 485.677224 485.85826982 489.24071974 485.7734375 496.32421875 C485.36730315 500.85551768 484.37983145 502.83059207 481.5 506.375 C476.16613875 510.05919008 472.40868992 510.95667032 466.00570679 510.87836456 C464.75578253 510.88708521 464.75578253 510.88708521 463.48060727 510.89598203 C460.68778557 510.91058242 457.89584267 510.89669663 455.10302734 510.88293457 C453.08081806 510.88754346 451.05861212 510.8938963 449.03641319 510.90184355 C443.47888072 510.9185615 437.92162255 510.91027917 432.36408901 510.89789867 C426.37081977 510.88886066 420.3775982 510.90281172 414.38433838 510.91381836 C403.32202927 510.93059228 392.25979574 510.92911727 381.1974861 510.91817249 C370.97806322 510.90811124 360.75867243 510.905483 350.53924561 510.91026306 C349.5225263 510.91072137 349.5225263 510.91072137 348.48526721 510.91118894 C345.7338209 510.91243429 342.9823746 510.91370789 340.23092832 510.915028 C314.41893701 510.92726469 288.60700147 510.91616907 262.79501876 510.89464041 C239.86136284 510.8756579 216.92779577 510.87735641 193.99414062 510.89648438 C168.22943827 510.91790176 142.46478518 510.92639688 116.70007515 510.91403532 C113.95363491 510.91275245 111.20719466 510.91150109 108.46075439 510.91026306 C107.78450812 510.90994675 107.10826185 510.90963044 106.41152327 510.90930455 C96.19838725 510.90475418 85.98528685 510.91007664 75.77215576 510.92018127 C64.15964573 510.93161312 52.54722025 510.92838469 40.93471956 510.9070583 C35.00781327 510.89653291 29.08108746 510.89245156 23.15418243 510.90565491 C17.73099611 510.91755356 12.30815796 510.91105772 6.88500333 510.8897447 C4.92077074 510.88526795 2.95650887 510.88756886 0.99229503 510.89724785 C-1.67412598 510.90938153 -4.33934867 510.89696758 -7.00570679 510.87836456 C-7.77144603 510.88772923 -8.53718526 510.89709389 -9.32612872 510.90674233 C-14.5357201 510.833912 -18.48113906 509.816117 -22.5 506.375 C-26.55737081 501.63641975 -27.0772855 496.92514738 -27.00336456 490.88070679 C-27.00917833 490.04742395 -27.01499209 489.21414111 -27.02098203 488.35560727 C-27.03558242 485.56278557 -27.02169663 482.77084267 -27.00793457 479.97802734 C-27.01254346 477.95581806 -27.0188963 475.93361212 -27.02684355 473.91141319 C-27.0435615 468.35388072 -27.03527917 462.79662255 -27.02289867 457.23908901 C-27.01386066 451.24581977 -27.02781172 445.2525982 -27.03881836 439.25933838 C-27.05559228 428.19702927 -27.05411727 417.13479574 -27.04317249 406.0724861 C-27.03311124 395.85306322 -27.030483 385.63367243 -27.03526306 375.41424561 C-27.0355686 374.73643273 -27.03587414 374.05861986 -27.03618894 373.36026721 C-27.03743429 370.6088209 -27.03870789 367.8573746 -27.040028 365.10592832 C-27.05226469 339.29393701 -27.04116907 313.48200147 -27.01964041 287.67001876 C-27.0006579 264.73636284 -27.00235641 241.80279577 -27.02148438 218.86914062 C-27.04290176 193.10443827 -27.05139688 167.33978518 -27.03903532 141.57507515 C-27.03775245 138.82863491 -27.03650109 136.08219466 -27.03526306 133.33575439 C-27.03494675 132.65950812 -27.03463044 131.98326185 -27.03430455 131.28652327 C-27.02975418 121.07338725 -27.03507664 110.86028685 -27.04518127 100.64715576 C-27.05661312 89.03464573 -27.05338469 77.42222025 -27.0320583 65.80971956 C-27.02153291 59.88281327 -27.01745156 53.95608746 -27.03065491 48.02918243 C-27.04255356 42.60599611 -27.03605772 37.18315796 -27.0147447 31.76000333 C-27.01026795 29.79577074 -27.01256886 27.83150887 -27.02224785 25.86729503 C-27.03438153 23.20087402 -27.02196758 20.53565133 -27.00336456 17.86929321 C-27.01272923 17.10355397 -27.02209389 16.33781474 -27.03174233 15.54887128 C-26.9553036 10.08116863 -25.61706708 6.88779737 -22.5 2.375 C-15.97896403 -2.92334172 -7.62106107 -3.53834978 0 0 Z M207.5 177.375 C207.5 276.045 207.5 374.715 207.5 476.375 C218.39 476.375 229.28 476.375 240.5 476.375 C240.5 377.705 240.5 279.035 240.5 177.375 C229.61 177.375 218.72 177.375 207.5 177.375 Z M341.5 243.375 C341.5 320.265 341.5 397.155 341.5 476.375 C352.06 476.375 362.62 476.375 373.5 476.375 C373.5 399.485 373.5 322.595 373.5 243.375 C362.94 243.375 352.38 243.375 341.5 243.375 Z M74.5 310.375 C74.5 365.155 74.5 419.935 74.5 476.375 C85.06 476.375 95.62 476.375 106.5 476.375 C106.5 421.595 106.5 366.815 106.5 310.375 C95.94 310.375 85.38 310.375 74.5 310.375 Z " fill="#ffffff" transform="translate(26.5,1.625)"/>
</svg>
