<svg width="512" height="512" version="1.1" xmlns="http://www.w3.org/2000/svg" desc="Created with imagetracer.js version 1.2.6" ><path fill="rgb(0,0,0)" stroke="rgb(0,0,0)" stroke-width="1" opacity="0" d="M 0 0 L 512 0 L 512 235.5 L 511 235.5 Q 508.9 220.1 498.5 213 L 490 207.5 L 488 189.5 L 484 169.5 L 473 138.5 Q 454.5 98.5 423.5 71 Q 388.8 38.7 335.5 25 L 319.5 22 L 298.5 21 L 297.5 20 L 214.5 20 L 213.5 21 L 192.5 22 L 172.5 26 L 138.5 38 Q 99.3 56.8 72 87.5 Q 49.8 112.3 36 145.5 L 28 169.5 L 24 188.5 L 23 205.5 L 20.5 209 Q 12.8 212.3 8 218.5 Q 2 225 0.5 236 L 0 0 Z " /><path fill="rgb(0,0,0)" stroke="rgb(0,0,0)" stroke-width="1" opacity="0" d="M 221.5 50 L 290.5 50 L 291.5 51 L 308.5 51 L 338.5 57 Q 389.6 73.4 420 110.5 Q 436.4 129.6 447 154.5 L 456 182.5 L 459 205 L 430 205 L 430 183.5 Q 426.3 165.3 413.5 156 L 407.5 152 L 394.5 148 L 117.5 148 Q 99.3 151.8 90 164.5 L 83 178.5 L 82 183.5 L 82 205 L 53.5 205 Q 52.4 204.9 53 199.5 L 58 174.5 L 70 143.5 Q 86.5 112 112.5 90 Q 134.7 71.2 164.5 60 L 190.5 53 L 202.5 52 L 203.5 51 L 220.5 51 L 221.5 50 Z " /><path fill="rgb(0,0,0)" stroke="rgb(0,0,0)" stroke-width="1" opacity="0" d="M 121.5 178 L 390.5 178 L 398 182.5 L 400 187.5 L 400 388.5 L 395.5 395 L 391.5 397 L 307.5 397 Q 299.6 399.1 296 405.5 L 257 453 Q 254.3 454.1 255 451.5 L 209.5 399 L 204.5 397 L 120.5 397 L 114 392.5 L 112 388.5 L 112 187.5 L 116.5 180 L 121.5 178 Z M 193 233 L 185 237 L 180 245 Q 179 253 182 257 L 191 263 Q 200 264 205 260 L 210 252 Q 211 244 208 241 Q 204 233 193 233 Z M 309 233 L 302 236 L 296 245 Q 295 253 298 257 L 307 263 Q 316 264 321 260 L 326 252 Q 327 244 324 241 Q 320 233 309 233 Z M 188 298 L 182 301 L 176 311 L 176 316 L 180 324 Q 194 337 214 346 L 231 352 L 247 355 L 266 355 L 289 350 Q 313 341 331 325 L 336 316 L 336 311 L 332 303 L 325 298 Q 317 297 313 300 Q 300 313 283 320 L 262 325 L 244 324 L 230 320 Q 212 313 200 300 Q 196 297 188 298 Z " /><path fill="rgb(0,0,0)" stroke="rgb(0,0,0)" stroke-width="1" opacity="0" d="M 35.5 235 L 82 235 L 82 326 L 34.5 326 L 31 323.5 L 30 321.5 L 30 240.5 L 33.5 236 L 35.5 235 Z " /><path fill="rgb(0,0,0)" stroke="rgb(0,0,0)" stroke-width="1" opacity="0" d="M 430 235 L 476.5 235 L 481 238.5 L 482 240.5 L 482 321.5 L 479.5 325 L 477.5 326 L 430 326 L 430 235 Z " /><path fill="rgb(0,0,0)" stroke="rgb(0,0,0)" stroke-width="1" opacity="0" d="M 0.5 326 Q 3.9 342.1 15.5 350 L 22.5 354 L 35.5 357 L 82 357 L 82 391.5 L 83 396.5 L 87 406.5 L 94 416 L 106.5 424 L 116.5 427 L 194.5 427 L 196 428.5 L 248.5 490 L 257.5 492 L 263.5 490 L 272 481.5 L 317.5 427 L 395.5 427 Q 414.1 423.1 423 409.5 L 427 402.5 L 430 391.5 L 430 357 L 476.5 357 Q 478 354.5 483.5 356 Q 497.6 352.1 505 341.5 Q 510.1 335.6 511.5 326 L 512 512 L 0 512 L 0.5 326 Z " /><path fill="rgb(0,0,0)" stroke="rgb(0,0,0)" stroke-width="1" opacity="0.8156862745098039" d="M 214.5 20 L 298 20.5 L 214.5 21 L 214.5 20 Z " /><path fill="rgb(0,0,0)" stroke="rgb(0,0,0)" stroke-width="1" opacity="0.8156862745098039" d="M 200.5 21 L 206 21.5 L 200.5 22 L 200.5 21 Z " /><path fill="rgb(0,0,0)" stroke="rgb(0,0,0)" stroke-width="1" opacity="0.8156862745098039" d="M 306.5 21 L 312 21.5 L 306.5 22 L 306.5 21 Z " /><path fill="rgb(0,0,0)" stroke="rgb(0,0,0)" stroke-width="1" opacity="0.8156862745098039" d="M 192.5 22 L 196 22.5 L 192.5 23 L 192.5 22 Z " /><path fill="rgb(0,0,0)" stroke="rgb(0,0,0)" stroke-width="1" opacity="0.8156862745098039" d="M 316.5 22 L 320 22.5 L 316.5 23 L 316.5 22 Z " /><path fill="rgb(0,0,0)" stroke="rgb(0,0,0)" stroke-width="1" opacity="0.8156862745098039" d="M 323.5 23 L 326 23.5 L 323.5 24 L 323.5 23 Z " /><path fill="rgb(0,0,0)" stroke="rgb(0,0,0)" stroke-width="1" opacity="0.8156862745098039" d="M 333.5 25 L 336 25.5 L 333.5 26 L 333.5 25 Z " /><path fill="rgb(0,0,0)" stroke="rgb(0,0,0)" stroke-width="1" opacity="0.8156862745098039" d="M 138.5 38 L 140 38.5 L 134.5 41 L 134.5 40 L 138.5 38 Z " /><path fill="rgb(0,0,0)" stroke="rgb(0,0,0)" stroke-width="1" opacity="0.8156862745098039" d="M 383.5 43 L 384.5 45 L 383.5 43 Z " /><path fill="rgb(0,0,0)" stroke="rgb(0,0,0)" stroke-width="1" opacity="0.8156862745098039" d="M 390.5 47 L 391.5 49 L 390.5 47 Z " /><path fill="rgb(0,0,0)" stroke="rgb(0,0,0)" stroke-width="1" opacity="0.8156862745098039" d="M 116.5 50 L 115.5 52 L 116.5 50 Z " /><path fill="rgb(0,0,0)" stroke="rgb(0,0,0)" stroke-width="1" opacity="0.8156862745098039" d="M 209.5 50 L 221 50.5 L 209.5 51 L 209.5 50 Z " /><path fill="rgb(0,0,0)" stroke="rgb(0,0,0)" stroke-width="1" opacity="0.8156862745098039" d="M 291.5 50 L 303 50.5 L 291.5 51 L 291.5 50 Z " /><path fill="rgb(0,0,0)" stroke="rgb(0,0,0)" stroke-width="1" opacity="0.8156862745098039" d="M 395.5 50 L 396.5 52 L 395.5 50 Z " /><path fill="rgb(0,0,0)" stroke="rgb(0,0,0)" stroke-width="1" opacity="0.8156862745098039" d="M 199.5 51 L 203 51.5 L 199.5 52 L 199.5 51 Z " /><path fill="rgb(0,0,0)" stroke="rgb(0,0,0)" stroke-width="1" opacity="0.8156862745098039" d="M 309.5 51 L 313 51.5 L 309.5 52 L 309.5 51 Z " /><path fill="rgb(0,0,0)" stroke="rgb(0,0,0)" stroke-width="1" opacity="0.8156862745098039" d="M 113.5 52 L 112.5 54 L 113.5 52 Z " /><path fill="rgb(0,0,0)" stroke="rgb(0,0,0)" stroke-width="1" opacity="0.8156862745098039" d="M 193.5 52 L 196 52.5 L 193.5 53 L 193.5 52 Z " /><path fill="rgb(0,0,0)" stroke="rgb(0,0,0)" stroke-width="1" opacity="0.8156862745098039" d="M 316.5 52 L 319 52.5 L 316.5 53 L 316.5 52 Z " /><path fill="rgb(0,0,0)" stroke="rgb(0,0,0)" stroke-width="1" opacity="0.8156862745098039" d="M 398.5 52 L 399.5 54 L 398.5 52 Z " /><path fill="rgb(0,0,0)" stroke="rgb(0,0,0)" stroke-width="1" opacity="0.8156862745098039" d="M 187.5 53 L 190 53.5 L 187.5 54 L 187.5 53 Z " /><path fill="rgb(0,0,0)" stroke="rgb(0,0,0)" stroke-width="1" opacity="0.8156862745098039" d="M 322.5 53 L 325 53.5 L 322.5 54 L 322.5 53 Z " /><path fill="rgb(0,0,0)" stroke="rgb(0,0,0)" stroke-width="1" opacity="0.8156862745098039" d="M 110.5 54 L 109.5 56 L 110.5 54 Z " /><path fill="rgb(0,0,0)" stroke="rgb(0,0,0)" stroke-width="1" opacity="0.8156862745098039" d="M 401.5 54 L 402.5 56 L 401.5 54 Z " /><path fill="rgb(0,0,0)" stroke="rgb(0,0,0)" stroke-width="1" opacity="0.8156862745098039" d="M 107.5 56 L 106.5 58 L 107.5 56 Z " /><path fill="rgb(0,0,0)" stroke="rgb(0,0,0)" stroke-width="1" opacity="0.8156862745098039" d="M 404.5 56 L 405.5 58 L 404.5 56 Z " /><path fill="rgb(0,0,0)" stroke="rgb(0,0,0)" stroke-width="1" opacity="0.8156862745098039" d="M 407.5 58 L 409.5 61 L 407.5 58 Z " /><path fill="rgb(0,0,0)" stroke="rgb(0,0,0)" stroke-width="1" opacity="0.8156862745098039" d="M 103.5 59 L 102.5 61 L 103.5 59 Z " /><path fill="rgb(0,0,0)" stroke="rgb(0,0,0)" stroke-width="1" opacity="0.8156862745098039" d="M 411.5 61 L 413.5 64 L 411.5 61 Z " /><path fill="rgb(0,0,0)" stroke="rgb(0,0,0)" stroke-width="1" opacity="0.8156862745098039" d="M 99.5 62 L 98.5 64 L 99.5 62 Z " /><path fill="rgb(0,0,0)" stroke="rgb(0,0,0)" stroke-width="1" opacity="0.8156862745098039" d="M 95.5 65 L 92.5 69 L 95.5 65 Z " /><path fill="rgb(0,0,0)" stroke="rgb(0,0,0)" stroke-width="1" opacity="0.8156862745098039" d="M 416.5 65 L 419.5 69 L 416.5 65 Z " /><path fill="rgb(0,0,0)" stroke="rgb(0,0,0)" stroke-width="1" opacity="0.8156862745098039" d="M 88.5 71 L 72.5 88 L 88.5 71 Z " /><path fill="rgb(0,0,0)" stroke="rgb(0,0,0)" stroke-width="1" opacity="0.8156862745098039" d="M 423.5 71 L 439.5 88 L 423.5 71 Z " /><path fill="rgb(0,0,0)" stroke="rgb(0,0,0)" stroke-width="1" opacity="0.8156862745098039" d="M 137.5 72 L 136.5 74 L 137.5 72 Z " /><path fill="rgb(0,0,0)" stroke="rgb(0,0,0)" stroke-width="1" opacity="0.8156862745098039" d="M 132.5 75 L 131.5 77 L 132.5 75 Z " /><path fill="rgb(0,0,0)" stroke="rgb(0,0,0)" stroke-width="1" opacity="0.8156862745098039" d="M 379.5 75 L 380.5 77 L 379.5 75 Z " /><path fill="rgb(0,0,0)" stroke="rgb(0,0,0)" stroke-width="1" opacity="0.8156862745098039" d="M 129.5 77 L 128.5 79 L 129.5 77 Z " /><path fill="rgb(0,0,0)" stroke="rgb(0,0,0)" stroke-width="1" opacity="0.8156862745098039" d="M 385.5 79 L 386.5 81 L 385.5 79 Z " /><path fill="rgb(0,0,0)" stroke="rgb(0,0,0)" stroke-width="1" opacity="0.8156862745098039" d="M 123.5 81 L 122.5 83 L 123.5 81 Z " /><path fill="rgb(0,0,0)" stroke="rgb(0,0,0)" stroke-width="1" opacity="0.8156862745098039" d="M 388.5 81 L 389.5 83 L 388.5 81 Z " /><path fill="rgb(0,0,0)" stroke="rgb(0,0,0)" stroke-width="1" opacity="0.8156862745098039" d="M 119.5 84 L 118.5 86 L 119.5 84 Z " /><path fill="rgb(0,0,0)" stroke="rgb(0,0,0)" stroke-width="1" opacity="0.8156862745098039" d="M 392.5 84 L 393.5 86 L 392.5 84 Z " /><path fill="rgb(0,0,0)" stroke="rgb(0,0,0)" stroke-width="1" opacity="0.8156862745098039" d="M 115.5 87 L 113.5 90 L 115.5 87 Z " /><path fill="rgb(0,0,0)" stroke="rgb(0,0,0)" stroke-width="1" opacity="0.8156862745098039" d="M 396.5 87 L 398.5 90 L 396.5 87 Z " /><path fill="rgb(0,0,0)" stroke="rgb(0,0,0)" stroke-width="1" opacity="0.8156862745098039" d="M 70.5 90 L 67.5 94 L 70.5 90 Z " /><path fill="rgb(0,0,0)" stroke="rgb(0,0,0)" stroke-width="1" opacity="0.8156862745098039" d="M 441.5 90 L 444.5 94 L 441.5 90 Z " /><path fill="rgb(0,0,0)" stroke="rgb(0,0,0)" stroke-width="1" opacity="0.8156862745098039" d="M 109.5 92 L 94.5 108 L 109.5 92 Z " /><path fill="rgb(0,0,0)" stroke="rgb(0,0,0)" stroke-width="1" opacity="0.8156862745098039" d="M 402.5 92 L 417.5 108 L 402.5 92 Z " /><path fill="rgb(0,0,0)" stroke="rgb(0,0,0)" stroke-width="1" opacity="0.8156862745098039" d="M 65.5 96 L 63.5 99 L 65.5 96 Z " /><path fill="rgb(0,0,0)" stroke="rgb(0,0,0)" stroke-width="1" opacity="0.8156862745098039" d="M 446.5 96 L 448.5 99 L 446.5 96 Z " /><path fill="rgb(0,0,0)" stroke="rgb(0,0,0)" stroke-width="1" opacity="0.8156862745098039" d="M 61.5 101 L 60.5 103 L 61.5 101 Z " /><path fill="rgb(0,0,0)" stroke="rgb(0,0,0)" stroke-width="1" opacity="0.8156862745098039" d="M 450.5 101 L 451.5 103 L 450.5 101 Z " /><path fill="rgb(0,0,0)" stroke="rgb(0,0,0)" stroke-width="1" opacity="0.8156862745098039" d="M 59.5 104 L 58.5 106 L 59.5 104 Z " /><path fill="rgb(0,0,0)" stroke="rgb(0,0,0)" stroke-width="1" opacity="0.8156862745098039" d="M 452.5 104 L 453.5 106 L 452.5 104 Z " /><path fill="rgb(0,0,0)" stroke="rgb(0,0,0)" stroke-width="1" opacity="0.8156862745098039" d="M 56.5 108 L 55.5 110 L 56.5 108 Z " /><path fill="rgb(0,0,0)" stroke="rgb(0,0,0)" stroke-width="1" opacity="0.8156862745098039" d="M 455.5 108 L 456.5 110 L 455.5 108 Z " /><path fill="rgb(0,0,0)" stroke="rgb(0,0,0)" stroke-width="1" opacity="0.8156862745098039" d="M 91.5 111 L 89.5 114 L 91.5 111 Z " /><path fill="rgb(0,0,0)" stroke="rgb(0,0,0)" stroke-width="1" opacity="0.8156862745098039" d="M 420.5 111 L 422.5 114 L 420.5 111 Z " /><path fill="rgb(0,0,0)" stroke="rgb(0,0,0)" stroke-width="1" opacity="0.8156862745098039" d="M 51.5 116 L 50.5 118 L 51.5 116 Z " /><path fill="rgb(0,0,0)" stroke="rgb(0,0,0)" stroke-width="1" opacity="0.8156862745098039" d="M 87.5 116 L 85.5 119 L 87.5 116 Z " /><path fill="rgb(0,0,0)" stroke="rgb(0,0,0)" stroke-width="1" opacity="0.8156862745098039" d="M 424.5 116 L 426.5 119 L 424.5 116 Z " /><path fill="rgb(0,0,0)" stroke="rgb(0,0,0)" stroke-width="1" opacity="0.8156862745098039" d="M 460.5 116 L 461.5 118 L 460.5 116 Z " /><path fill="rgb(0,0,0)" stroke="rgb(0,0,0)" stroke-width="1" opacity="0.8156862745098039" d="M 84.5 120 L 83.5 122 L 84.5 120 Z " /><path fill="rgb(0,0,0)" stroke="rgb(0,0,0)" stroke-width="1" opacity="0.8156862745098039" d="M 427.5 120 L 428.5 122 L 427.5 120 Z " /><path fill="rgb(0,0,0)" stroke="rgb(0,0,0)" stroke-width="1" opacity="0.8156862745098039" d="M 47.5 123 L 46.5 125 L 47.5 123 Z " /><path fill="rgb(0,0,0)" stroke="rgb(0,0,0)" stroke-width="1" opacity="0.8156862745098039" d="M 464.5 123 L 465.5 125 L 464.5 123 Z " /><path fill="rgb(0,0,0)" stroke="rgb(0,0,0)" stroke-width="1" opacity="0.8156862745098039" d="M 81.5 124 L 80.5 126 L 81.5 124 Z " /><path fill="rgb(0,0,0)" stroke="rgb(0,0,0)" stroke-width="1" opacity="0.8156862745098039" d="M 430.5 124 L 431.5 126 L 430.5 124 Z " /><path fill="rgb(0,0,0)" stroke="rgb(0,0,0)" stroke-width="1" opacity="0.8156862745098039" d="M 76.5 132 L 75.5 134 L 76.5 132 Z " /><path fill="rgb(0,0,0)" stroke="rgb(0,0,0)" stroke-width="1" opacity="0.8156862745098039" d="M 435.5 132 L 436.5 134 L 435.5 132 Z " /><path fill="rgb(0,0,0)" stroke="rgb(0,0,0)" stroke-width="1" opacity="0.8156862745098039" d="M 71.5 141 L 70.5 143 L 71.5 141 Z " /><path fill="rgb(0,0,0)" stroke="rgb(0,0,0)" stroke-width="1" opacity="0.8156862745098039" d="M 440.5 141 L 441.5 143 L 440.5 141 Z " /><path fill="rgb(0,0,0)" stroke="rgb(0,0,0)" stroke-width="1" opacity="0.8156862745098039" d="M 117.5 148 L 123 148.5 L 117.5 149 L 117.5 148 Z " /><path fill="rgb(0,0,0)" stroke="rgb(0,0,0)" stroke-width="1" opacity="0.8156862745098039" d="M 389.5 148 L 395 148.5 L 389.5 149 L 389.5 148 Z " /><path fill="rgb(0,0,0)" stroke="rgb(0,0,0)" stroke-width="1" opacity="0.8156862745098039" d="M 406.5 152 L 409 153.5 L 407.5 153 L 406.5 152 Z " /><path fill="rgb(0,0,0)" stroke="rgb(0,0,0)" stroke-width="1" opacity="0.8156862745098039" d="M 98.5 156 L 96.5 159 L 98.5 156 Z " /><path fill="rgb(0,0,0)" stroke="rgb(0,0,0)" stroke-width="1" opacity="0.8156862745098039" d="M 413.5 156 L 415.5 159 L 413.5 156 Z " /><path fill="rgb(0,0,0)" stroke="rgb(0,0,0)" stroke-width="1" opacity="0.8156862745098039" d="M 92.5 162 L 90.5 165 L 92.5 162 Z " /><path fill="rgb(0,0,0)" stroke="rgb(0,0,0)" stroke-width="1" opacity="0.8156862745098039" d="M 420.5 163 L 421.5 165 L 420.5 163 Z " /><path fill="rgb(0,0,0)" stroke="rgb(0,0,0)" stroke-width="1" opacity="0.8156862745098039" d="M 87.5 169 L 87 170.5 L 86.5 172 L 86 170.5 L 87.5 169 Z " /><path fill="rgb(0,0,0)" stroke="rgb(0,0,0)" stroke-width="1" opacity="0.8156862745098039" d="M 25.5 183 L 26 185.5 L 25 185.5 L 25.5 183 Z " /><path fill="rgb(0,0,0)" stroke="rgb(0,0,0)" stroke-width="1" opacity="0.8156862745098039" d="M 82.5 183 L 83 188.5 L 82 188.5 L 82.5 183 Z " /><path fill="rgb(0,0,0)" stroke="rgb(0,0,0)" stroke-width="1" opacity="0.8156862745098039" d="M 429.5 183 L 430 188.5 L 429 188.5 L 429.5 183 Z " /><path fill="rgb(0,0,0)" stroke="rgb(0,0,0)" stroke-width="1" opacity="0.8156862745098039" d="M 486.5 183 L 487 185.5 L 486 185.5 L 486.5 183 Z " /><path fill="rgb(0,0,0)" stroke="rgb(0,0,0)" stroke-width="1" opacity="0.8156862745098039" d="M 55.5 184 L 56 186.5 L 55 186.5 L 55.5 184 Z " /><path fill="rgb(0,0,0)" stroke="rgb(0,0,0)" stroke-width="1" opacity="0.8156862745098039" d="M 456.5 184 L 457 186.5 L 456 186.5 L 456.5 184 Z " /><path fill="rgb(0,0,0)" stroke="rgb(0,0,0)" stroke-width="1" opacity="0.8156862745098039" d="M 24.5 188 L 25 191.5 L 24 191.5 L 24.5 188 Z " /><path fill="rgb(0,0,0)" stroke="rgb(0,0,0)" stroke-width="1" opacity="0.8156862745098039" d="M 54.5 189 L 55 191.5 L 54 191.5 L 54.5 189 Z " /><path fill="rgb(0,0,0)" stroke="rgb(0,0,0)" stroke-width="1" opacity="0.8156862745098039" d="M 457.5 189 L 458 191.5 L 457 191.5 L 457.5 189 Z " /><path fill="rgb(0,0,0)" stroke="rgb(0,0,0)" stroke-width="1" opacity="0.8156862745098039" d="M 487.5 189 L 488 191.5 L 487 191.5 L 487.5 189 Z " /><path fill="rgb(0,0,0)" stroke="rgb(0,0,0)" stroke-width="1" opacity="0.8156862745098039" d="M 53.5 195 L 54 198.5 L 53 198.5 L 53.5 195 Z " /><path fill="rgb(0,0,0)" stroke="rgb(0,0,0)" stroke-width="1" opacity="0.8156862745098039" d="M 458.5 195 L 459 198.5 L 458 198.5 L 458.5 195 Z " /><path fill="rgb(0,0,0)" stroke="rgb(0,0,0)" stroke-width="1" opacity="0.8156862745098039" d="M 23.5 196 L 24 199.5 L 23 199.5 L 23.5 196 Z " /><path fill="rgb(0,0,0)" stroke="rgb(0,0,0)" stroke-width="1" opacity="0.8156862745098039" d="M 488.5 196 L 489 199.5 L 488 199.5 L 488.5 196 Z " /><path fill="rgb(0,0,0)" stroke="rgb(0,0,0)" stroke-width="1" opacity="0.8156862745098039" d="M 22.5 206 L 23 207.5 L 21 208.5 L 22.5 206 Z " /><path fill="rgb(0,0,0)" stroke="rgb(0,0,0)" stroke-width="1" opacity="0.8156862745098039" d="M 489.5 206 L 491 208.5 L 489 207.5 L 489.5 206 Z " /><path fill="rgb(0,0,0)" stroke="rgb(0,0,0)" stroke-width="1" opacity="0.8156862745098039" d="M 19.5 209 L 18.5 211 L 19.5 209 Z " /><path fill="rgb(0,0,0)" stroke="rgb(0,0,0)" stroke-width="1" opacity="0.8156862745098039" d="M 492.5 209 L 493.5 211 L 492.5 209 Z " /><path fill="rgb(0,0,0)" stroke="rgb(0,0,0)" stroke-width="1" opacity="0.8156862745098039" d="M 16.5 211 L 15.5 213 L 16.5 211 Z " /><path fill="rgb(0,0,0)" stroke="rgb(0,0,0)" stroke-width="1" opacity="0.8156862745098039" d="M 13.5 213 L 8.5 219 L 13.5 213 Z " /><path fill="rgb(0,0,0)" stroke="rgb(0,0,0)" stroke-width="1" opacity="0.8156862745098039" d="M 498.5 213 L 503.5 219 L 498.5 213 Z " /><path fill="rgb(0,0,0)" stroke="rgb(0,0,0)" stroke-width="1" opacity="0.8156862745098039" d="M 7.5 220 L 6.5 222 L 7.5 220 Z " /><path fill="rgb(0,0,0)" stroke="rgb(0,0,0)" stroke-width="1" opacity="0.8156862745098039" d="M 5.5 223 L 4.5 225 L 5.5 223 Z " /><path fill="rgb(0,0,0)" stroke="rgb(0,0,0)" stroke-width="1" opacity="0.8156862745098039" d="M 506.5 223 L 507.5 225 L 506.5 223 Z " /><path fill="rgb(0,0,0)" stroke="rgb(0,0,0)" stroke-width="1" opacity="0.8156862745098039" d="M 192.5 233 L 198 233.5 L 192.5 234 L 192.5 233 Z " /><path fill="rgb(0,0,0)" stroke="rgb(0,0,0)" stroke-width="1" opacity="0.8156862745098039" d="M 308.5 233 L 314 233.5 L 308.5 234 L 308.5 233 Z " /><path fill="rgb(0,0,0)" stroke="rgb(0,0,0)" stroke-width="1" opacity="0.8156862745098039" d="M 202.5 235 L 203.5 237 L 202.5 235 Z " /><path fill="rgb(0,0,0)" stroke="rgb(0,0,0)" stroke-width="1" opacity="0.8156862745098039" d="M 318.5 235 L 319.5 237 L 318.5 235 Z " /><path fill="rgb(0,0,0)" stroke="rgb(0,0,0)" stroke-width="1" opacity="0.8156862745098039" d="M 0.5 236 L 1 239.5 L 0 239.5 L 0.5 236 Z " /><path fill="rgb(0,0,0)" stroke="rgb(0,0,0)" stroke-width="1" opacity="0.8156862745098039" d="M 32.5 236 L 31.5 238 L 32.5 236 Z " /><path fill="rgb(0,0,0)" stroke="rgb(0,0,0)" stroke-width="1" opacity="0.8156862745098039" d="M 301.5 236 L 299.5 239 L 301.5 236 Z " /><path fill="rgb(0,0,0)" stroke="rgb(0,0,0)" stroke-width="1" opacity="0.8156862745098039" d="M 479.5 236 L 480.5 238 L 479.5 236 Z " /><path fill="rgb(0,0,0)" stroke="rgb(0,0,0)" stroke-width="1" opacity="0.8156862745098039" d="M 511.5 236 L 512 239.5 L 511 239.5 L 511.5 236 Z " /><path fill="rgb(0,0,0)" stroke="rgb(0,0,0)" stroke-width="1" opacity="0.8156862745098039" d="M 184.5 237 L 183.5 239 L 184.5 237 Z " /><path fill="rgb(0,0,0)" stroke="rgb(0,0,0)" stroke-width="1" opacity="0.8156862745098039" d="M 206.5 239 L 207.5 241 L 206.5 239 Z " /><path fill="rgb(0,0,0)" stroke="rgb(0,0,0)" stroke-width="1" opacity="0.8156862745098039" d="M 322.5 239 L 323.5 241 L 322.5 239 Z " /><path fill="rgb(0,0,0)" stroke="rgb(0,0,0)" stroke-width="1" opacity="0.8156862745098039" d="M 209.5 245 L 210 251.5 L 209 251.5 L 209.5 245 Z " /><path fill="rgb(0,0,0)" stroke="rgb(0,0,0)" stroke-width="1" opacity="0.8156862745098039" d="M 325.5 245 L 326 251.5 L 325 251.5 L 325.5 245 Z " /><path fill="rgb(0,0,0)" stroke="rgb(0,0,0)" stroke-width="1" opacity="0.8156862745098039" d="M 182.5 256 L 183.5 258 L 182.5 256 Z " /><path fill="rgb(0,0,0)" stroke="rgb(0,0,0)" stroke-width="1" opacity="0.8156862745098039" d="M 298.5 256 L 299.5 258 L 298.5 256 Z " /><path fill="rgb(0,0,0)" stroke="rgb(0,0,0)" stroke-width="1" opacity="0.8156862745098039" d="M 206.5 257 L 204.5 260 L 206.5 257 Z " /><path fill="rgb(0,0,0)" stroke="rgb(0,0,0)" stroke-width="1" opacity="0.8156862745098039" d="M 322.5 257 L 320.5 260 L 322.5 257 Z " /><path fill="rgb(0,0,0)" stroke="rgb(0,0,0)" stroke-width="1" opacity="0.8156862745098039" d="M 185.5 259 L 186.5 261 L 185.5 259 Z " /><path fill="rgb(0,0,0)" stroke="rgb(0,0,0)" stroke-width="1" opacity="0.8156862745098039" d="M 301.5 259 L 302.5 261 L 301.5 259 Z " /><path fill="rgb(0,0,0)" stroke="rgb(0,0,0)" stroke-width="1" opacity="0.8156862745098039" d="M 187.5 298 L 190 298.5 L 187.5 299 L 187.5 298 Z " /><path fill="rgb(0,0,0)" stroke="rgb(0,0,0)" stroke-width="1" opacity="0.8156862745098039" d="M 192.5 298 L 195 298.5 L 192.5 299 L 192.5 298 Z " /><path fill="rgb(0,0,0)" stroke="rgb(0,0,0)" stroke-width="1" opacity="0.8156862745098039" d="M 317.5 298 L 320 298.5 L 317.5 299 L 317.5 298 Z " /><path fill="rgb(0,0,0)" stroke="rgb(0,0,0)" stroke-width="1" opacity="0.8156862745098039" d="M 322.5 298 L 325 298.5 L 322.5 299 L 322.5 298 Z " /><path fill="rgb(0,0,0)" stroke="rgb(0,0,0)" stroke-width="1" opacity="0.8156862745098039" d="M 199.5 300 L 201.5 303 L 199.5 300 Z " /><path fill="rgb(0,0,0)" stroke="rgb(0,0,0)" stroke-width="1" opacity="0.8156862745098039" d="M 312.5 300 L 310.5 303 L 312.5 300 Z " /><path fill="rgb(0,0,0)" stroke="rgb(0,0,0)" stroke-width="1" opacity="0.8156862745098039" d="M 181.5 301 L 180.5 303 L 181.5 301 Z " /><path fill="rgb(0,0,0)" stroke="rgb(0,0,0)" stroke-width="1" opacity="0.8156862745098039" d="M 330.5 301 L 331.5 303 L 330.5 301 Z " /><path fill="rgb(0,0,0)" stroke="rgb(0,0,0)" stroke-width="1" opacity="0.8156862745098039" d="M 205.5 305 L 207.5 308 L 205.5 305 Z " /><path fill="rgb(0,0,0)" stroke="rgb(0,0,0)" stroke-width="1" opacity="0.8156862745098039" d="M 306.5 305 L 304.5 308 L 306.5 305 Z " /><path fill="rgb(0,0,0)" stroke="rgb(0,0,0)" stroke-width="1" opacity="0.8156862745098039" d="M 209.5 308 L 210.5 310 L 209.5 308 Z " /><path fill="rgb(0,0,0)" stroke="rgb(0,0,0)" stroke-width="1" opacity="0.8156862745098039" d="M 302.5 308 L 301.5 310 L 302.5 308 Z " /><path fill="rgb(0,0,0)" stroke="rgb(0,0,0)" stroke-width="1" opacity="0.8156862745098039" d="M 176.5 310 L 177 315.5 L 176 315.5 L 176.5 310 Z " /><path fill="rgb(0,0,0)" stroke="rgb(0,0,0)" stroke-width="1" opacity="0.8156862745098039" d="M 212.5 310 L 213.5 312 L 212.5 310 Z " /><path fill="rgb(0,0,0)" stroke="rgb(0,0,0)" stroke-width="1" opacity="0.8156862745098039" d="M 335.5 310 L 336 315.5 L 335 315.5 L 335.5 310 Z " /><path fill="rgb(0,0,0)" stroke="rgb(0,0,0)" stroke-width="1" opacity="0.8156862745098039" d="M 215.5 312 L 216.5 314 L 215.5 312 Z " /><path fill="rgb(0,0,0)" stroke="rgb(0,0,0)" stroke-width="1" opacity="0.8156862745098039" d="M 296.5 312 L 295.5 314 L 296.5 312 Z " /><path fill="rgb(0,0,0)" stroke="rgb(0,0,0)" stroke-width="1" opacity="0.8156862745098039" d="M 0.5 321 L 1 325.5 L 0 325.5 L 0.5 321 Z " /><path fill="rgb(0,0,0)" stroke="rgb(0,0,0)" stroke-width="1" opacity="0.8156862745098039" d="M 511.5 321 L 512 325.5 L 511 325.5 L 511.5 321 Z " /><path fill="rgb(0,0,0)" stroke="rgb(0,0,0)" stroke-width="1" opacity="0.8156862745098039" d="M 180.5 323 L 181.5 325 L 180.5 323 Z " /><path fill="rgb(0,0,0)" stroke="rgb(0,0,0)" stroke-width="1" opacity="0.8156862745098039" d="M 331.5 323 L 330.5 325 L 331.5 323 Z " /><path fill="rgb(0,0,0)" stroke="rgb(0,0,0)" stroke-width="1" opacity="0.8156862745098039" d="M 246.5 324 L 250 324.5 L 246.5 325 L 246.5 324 Z " /><path fill="rgb(0,0,0)" stroke="rgb(0,0,0)" stroke-width="1" opacity="0.8156862745098039" d="M 262.5 324 L 266 324.5 L 262.5 325 L 262.5 324 Z " /><path fill="rgb(0,0,0)" stroke="rgb(0,0,0)" stroke-width="1" opacity="0.8156862745098039" d="M 35.5 326 L 82 326.5 L 35.5 327 L 35.5 326 Z " /><path fill="rgb(0,0,0)" stroke="rgb(0,0,0)" stroke-width="1" opacity="0.8156862745098039" d="M 184.5 326 L 186.5 329 L 184.5 326 Z " /><path fill="rgb(0,0,0)" stroke="rgb(0,0,0)" stroke-width="1" opacity="0.8156862745098039" d="M 327.5 326 L 324.5 330 L 327.5 326 Z " /><path fill="rgb(0,0,0)" stroke="rgb(0,0,0)" stroke-width="1" opacity="0.8156862745098039" d="M 430.5 326 L 477 326.5 L 430.5 327 L 430.5 326 Z " /><path fill="rgb(0,0,0)" stroke="rgb(0,0,0)" stroke-width="1" opacity="0.8156862745098039" d="M 189.5 330 L 191.5 333 L 189.5 330 Z " /><path fill="rgb(0,0,0)" stroke="rgb(0,0,0)" stroke-width="1" opacity="0.8156862745098039" d="M 321.5 331 L 320.5 333 L 321.5 331 Z " /><path fill="rgb(0,0,0)" stroke="rgb(0,0,0)" stroke-width="1" opacity="0.8156862745098039" d="M 193.5 333 L 194.5 335 L 193.5 333 Z " /><path fill="rgb(0,0,0)" stroke="rgb(0,0,0)" stroke-width="1" opacity="0.8156862745098039" d="M 318.5 333 L 317.5 335 L 318.5 333 Z " /><path fill="rgb(0,0,0)" stroke="rgb(0,0,0)" stroke-width="1" opacity="0.8156862745098039" d="M 196.5 335 L 197.5 337 L 196.5 335 Z " /><path fill="rgb(0,0,0)" stroke="rgb(0,0,0)" stroke-width="1" opacity="0.8156862745098039" d="M 199.5 337 L 200.5 339 L 199.5 337 Z " /><path fill="rgb(0,0,0)" stroke="rgb(0,0,0)" stroke-width="1" opacity="0.8156862745098039" d="M 312.5 337 L 311.5 339 L 312.5 337 Z " /><path fill="rgb(0,0,0)" stroke="rgb(0,0,0)" stroke-width="1" opacity="0.8156862745098039" d="M 307.5 340 L 306.5 342 L 307.5 340 Z " /><path fill="rgb(0,0,0)" stroke="rgb(0,0,0)" stroke-width="1" opacity="0.8156862745098039" d="M 7.5 341 L 8.5 343 L 7.5 341 Z " /><path fill="rgb(0,0,0)" stroke="rgb(0,0,0)" stroke-width="1" opacity="0.8156862745098039" d="M 504.5 341 L 503.5 343 L 504.5 341 Z " /><path fill="rgb(0,0,0)" stroke="rgb(0,0,0)" stroke-width="1" opacity="0.8156862745098039" d="M 13.5 347 L 15.5 350 L 13.5 347 Z " /><path fill="rgb(0,0,0)" stroke="rgb(0,0,0)" stroke-width="1" opacity="0.8156862745098039" d="M 498.5 347 L 496.5 350 L 498.5 347 Z " /><path fill="rgb(0,0,0)" stroke="rgb(0,0,0)" stroke-width="1" opacity="0.8156862745098039" d="M 17.5 350 L 18.5 352 L 17.5 350 Z " /><path fill="rgb(0,0,0)" stroke="rgb(0,0,0)" stroke-width="1" opacity="0.8156862745098039" d="M 494.5 350 L 493.5 352 L 494.5 350 Z " /><path fill="rgb(0,0,0)" stroke="rgb(0,0,0)" stroke-width="1" opacity="0.8156862745098039" d="M 239.5 353 L 242 353.5 L 239.5 354 L 239.5 353 Z " /><path fill="rgb(0,0,0)" stroke="rgb(0,0,0)" stroke-width="1" opacity="0.8156862745098039" d="M 270.5 353 L 273 353.5 L 270.5 354 L 270.5 353 Z " /><path fill="rgb(0,0,0)" stroke="rgb(0,0,0)" stroke-width="1" opacity="0.8156862745098039" d="M 246.5 354 L 266 354.5 L 246.5 355 L 246.5 354 Z " /><path fill="rgb(0,0,0)" stroke="rgb(0,0,0)" stroke-width="1" opacity="0.8156862745098039" d="M 28.5 355 L 31 355.5 L 28.5 356 L 28.5 355 Z " /><path fill="rgb(0,0,0)" stroke="rgb(0,0,0)" stroke-width="1" opacity="0.8156862745098039" d="M 481.5 355 L 484 355.5 L 481.5 356 L 481.5 355 Z " /><path fill="rgb(0,0,0)" stroke="rgb(0,0,0)" stroke-width="1" opacity="0.8156862745098039" d="M 35.5 356 L 82 356.5 L 35.5 357 L 35.5 356 Z " /><path fill="rgb(0,0,0)" stroke="rgb(0,0,0)" stroke-width="1" opacity="0.8156862745098039" d="M 430.5 356 L 477 356.5 L 430.5 357 L 430.5 356 Z " /><path fill="rgb(0,0,0)" stroke="rgb(0,0,0)" stroke-width="1" opacity="0.8156862745098039" d="M 82.5 386 L 83 391.5 L 82 391.5 L 82.5 386 Z " /><path fill="rgb(0,0,0)" stroke="rgb(0,0,0)" stroke-width="1" opacity="0.8156862745098039" d="M 429.5 386 L 430 391.5 L 429 391.5 L 429.5 386 Z " /><path fill="rgb(0,0,0)" stroke="rgb(0,0,0)" stroke-width="1" opacity="0.8156862745098039" d="M 114.5 393 L 115.5 395 L 114.5 393 Z " /><path fill="rgb(0,0,0)" stroke="rgb(0,0,0)" stroke-width="1" opacity="0.8156862745098039" d="M 123.5 397 L 205 397.5 L 123.5 398 L 123.5 397 Z " /><path fill="rgb(0,0,0)" stroke="rgb(0,0,0)" stroke-width="1" opacity="0.8156862745098039" d="M 307.5 397 L 389 397.5 L 307.5 398 L 307.5 397 Z " /><path fill="rgb(0,0,0)" stroke="rgb(0,0,0)" stroke-width="1" opacity="0.8156862745098039" d="M 209.5 399 L 210.5 401 L 209.5 399 Z " /><path fill="rgb(0,0,0)" stroke="rgb(0,0,0)" stroke-width="1" opacity="0.8156862745098039" d="M 302.5 399 L 301.5 401 L 302.5 399 Z " /><path fill="rgb(0,0,0)" stroke="rgb(0,0,0)" stroke-width="1" opacity="0.8156862745098039" d="M 212.5 402 L 216.5 407 L 212.5 402 Z " /><path fill="rgb(0,0,0)" stroke="rgb(0,0,0)" stroke-width="1" opacity="0.8156862745098039" d="M 299.5 402 L 296.5 406 L 299.5 402 Z " /><path fill="rgb(0,0,0)" stroke="rgb(0,0,0)" stroke-width="1" opacity="0.8156862745098039" d="M 87.5 406 L 88.5 408 L 87.5 406 Z " /><path fill="rgb(0,0,0)" stroke="rgb(0,0,0)" stroke-width="1" opacity="0.8156862745098039" d="M 89.5 409 L 91.5 412 L 89.5 409 Z " /><path fill="rgb(0,0,0)" stroke="rgb(0,0,0)" stroke-width="1" opacity="0.8156862745098039" d="M 218.5 409 L 221.5 413 L 218.5 409 Z " /><path fill="rgb(0,0,0)" stroke="rgb(0,0,0)" stroke-width="1" opacity="0.8156862745098039" d="M 293.5 409 L 290.5 413 L 293.5 409 Z " /><path fill="rgb(0,0,0)" stroke="rgb(0,0,0)" stroke-width="1" opacity="0.8156862745098039" d="M 422.5 409 L 421.5 411 L 422.5 409 Z " /><path fill="rgb(0,0,0)" stroke="rgb(0,0,0)" stroke-width="1" opacity="0.8156862745098039" d="M 223.5 415 L 226.5 419 L 223.5 415 Z " /><path fill="rgb(0,0,0)" stroke="rgb(0,0,0)" stroke-width="1" opacity="0.8156862745098039" d="M 288.5 415 L 285.5 419 L 288.5 415 Z " /><path fill="rgb(0,0,0)" stroke="rgb(0,0,0)" stroke-width="1" opacity="0.8156862745098039" d="M 98.5 418 L 99.5 420 L 98.5 418 Z " /><path fill="rgb(0,0,0)" stroke="rgb(0,0,0)" stroke-width="1" opacity="0.8156862745098039" d="M 413.5 418 L 412.5 420 L 413.5 418 Z " /><path fill="rgb(0,0,0)" stroke="rgb(0,0,0)" stroke-width="1" opacity="0.8156862745098039" d="M 101.5 420 L 102.5 422 L 101.5 420 Z " /><path fill="rgb(0,0,0)" stroke="rgb(0,0,0)" stroke-width="1" opacity="0.8156862745098039" d="M 410.5 420 L 409.5 422 L 410.5 420 Z " /><path fill="rgb(0,0,0)" stroke="rgb(0,0,0)" stroke-width="1" opacity="0.8156862745098039" d="M 229.5 422 L 232.5 426 L 229.5 422 Z " /><path fill="rgb(0,0,0)" stroke="rgb(0,0,0)" stroke-width="1" opacity="0.8156862745098039" d="M 282.5 422 L 279.5 426 L 282.5 422 Z " /><path fill="rgb(0,0,0)" stroke="rgb(0,0,0)" stroke-width="1" opacity="0.8156862745098039" d="M 116.5 426 L 119 426.5 L 116.5 427 L 116.5 426 Z " /><path fill="rgb(0,0,0)" stroke="rgb(0,0,0)" stroke-width="1" opacity="0.8156862745098039" d="M 393.5 426 L 396 426.5 L 393.5 427 L 393.5 426 Z " /><path fill="rgb(0,0,0)" stroke="rgb(0,0,0)" stroke-width="1" opacity="0.8156862745098039" d="M 234.5 428 L 237.5 432 L 234.5 428 Z " /><path fill="rgb(0,0,0)" stroke="rgb(0,0,0)" stroke-width="1" opacity="0.8156862745098039" d="M 277.5 428 L 274.5 432 L 277.5 428 Z " /><path fill="rgb(0,0,0)" stroke="rgb(0,0,0)" stroke-width="1" opacity="0.8156862745098039" d="M 196.5 429 L 199.5 433 L 196.5 429 Z " /><path fill="rgb(0,0,0)" stroke="rgb(0,0,0)" stroke-width="1" opacity="0.8156862745098039" d="M 315.5 429 L 312.5 433 L 315.5 429 Z " /><path fill="rgb(0,0,0)" stroke="rgb(0,0,0)" stroke-width="1" opacity="0.8156862745098039" d="M 240.5 435 L 243.5 439 L 240.5 435 Z " /><path fill="rgb(0,0,0)" stroke="rgb(0,0,0)" stroke-width="1" opacity="0.8156862745098039" d="M 271.5 435 L 268.5 439 L 271.5 435 Z " /><path fill="rgb(0,0,0)" stroke="rgb(0,0,0)" stroke-width="1" opacity="0.8156862745098039" d="M 202.5 436 L 205.5 440 L 202.5 436 Z " /><path fill="rgb(0,0,0)" stroke="rgb(0,0,0)" stroke-width="1" opacity="0.8156862745098039" d="M 309.5 436 L 306.5 440 L 309.5 436 Z " /><path fill="rgb(0,0,0)" stroke="rgb(0,0,0)" stroke-width="1" opacity="0.8156862745098039" d="M 245.5 441 L 248.5 445 L 245.5 441 Z " /><path fill="rgb(0,0,0)" stroke="rgb(0,0,0)" stroke-width="1" opacity="0.8156862745098039" d="M 266.5 441 L 263.5 445 L 266.5 441 Z " /><path fill="rgb(0,0,0)" stroke="rgb(0,0,0)" stroke-width="1" opacity="0.8156862745098039" d="M 207.5 442 L 210.5 446 L 207.5 442 Z " /><path fill="rgb(0,0,0)" stroke="rgb(0,0,0)" stroke-width="1" opacity="0.8156862745098039" d="M 304.5 442 L 301.5 446 L 304.5 442 Z " /><path fill="rgb(0,0,0)" stroke="rgb(0,0,0)" stroke-width="1" opacity="0.8156862745098039" d="M 251.5 448 L 254.5 452 L 251.5 448 Z " /><path fill="rgb(0,0,0)" stroke="rgb(0,0,0)" stroke-width="1" opacity="0.8156862745098039" d="M 260.5 448 L 257.5 452 L 260.5 448 Z " /><path fill="rgb(0,0,0)" stroke="rgb(0,0,0)" stroke-width="1" opacity="0.8156862745098039" d="M 213.5 449 L 216.5 453 L 213.5 449 Z " /><path fill="rgb(0,0,0)" stroke="rgb(0,0,0)" stroke-width="1" opacity="0.8156862745098039" d="M 298.5 449 L 295.5 453 L 298.5 449 Z " /><path fill="rgb(0,0,0)" stroke="rgb(0,0,0)" stroke-width="1" opacity="0.8156862745098039" d="M 218.5 455 L 221.5 459 L 218.5 455 Z " /><path fill="rgb(0,0,0)" stroke="rgb(0,0,0)" stroke-width="1" opacity="0.8156862745098039" d="M 293.5 455 L 290.5 459 L 293.5 455 Z " /><path fill="rgb(0,0,0)" stroke="rgb(0,0,0)" stroke-width="1" opacity="0.8156862745098039" d="M 224.5 462 L 227.5 466 L 224.5 462 Z " /><path fill="rgb(0,0,0)" stroke="rgb(0,0,0)" stroke-width="1" opacity="0.8156862745098039" d="M 287.5 462 L 284.5 466 L 287.5 462 Z " /><path fill="rgb(0,0,0)" stroke="rgb(0,0,0)" stroke-width="1" opacity="0.8156862745098039" d="M 229.5 468 L 232.5 472 L 229.5 468 Z " /><path fill="rgb(0,0,0)" stroke="rgb(0,0,0)" stroke-width="1" opacity="0.8156862745098039" d="M 282.5 468 L 279.5 472 L 282.5 468 Z " /><path fill="rgb(0,0,0)" stroke="rgb(0,0,0)" stroke-width="1" opacity="0.8156862745098039" d="M 277.5 474 L 274.5 478 L 277.5 474 Z " /><path fill="rgb(0,0,0)" stroke="rgb(0,0,0)" stroke-width="1" opacity="0.8156862745098039" d="M 235.5 475 L 237.5 478 L 235.5 475 Z " /><path fill="rgb(0,0,0)" stroke="rgb(0,0,0)" stroke-width="1" opacity="0.8156862745098039" d="M 240.5 481 L 243.5 485 L 240.5 481 Z " /><path fill="rgb(0,0,0)" stroke="rgb(0,0,0)" stroke-width="1" opacity="0.8156862745098039" d="M 271.5 481 L 268.5 485 L 271.5 481 Z " /><path fill="rgb(0,0,0)" stroke="rgb(0,0,0)" stroke-width="1" opacity="0.8156862745098039" d="M 247.5 488 L 248.5 490 L 247.5 488 Z " /><path fill="rgb(0,0,0)" stroke="rgb(0,0,0)" stroke-width="1" opacity="0.8156862745098039" d="M 264.5 488 L 263.5 490 L 264.5 488 Z " /><path fill="rgb(0,0,0)" stroke="rgb(0,0,0)" stroke-width="1" opacity="0.8156862745098039" d="M 254.5 491 L 258 491.5 L 254.5 492 L 254.5 491 Z " /><path fill="rgb(0,0,0)" stroke="rgb(0,0,0)" stroke-width="1" opacity="1" d="M 206.5 21 L 305.5 21 L 306.5 22 L 315.5 22 L 316.5 23 L 328.5 24 L 348.5 29 Q 405.9 48.1 441 89.5 Q 461.9 113.1 475 144.5 L 484 171.5 L 488 192.5 L 489 207.5 L 490.5 209 Q 499.9 212.6 505 220.5 L 509 227.5 L 512 240.5 L 512 320.5 L 510 331.5 Q 506.5 341 499.5 347 Q 492.4 353.9 480.5 356 L 430 356 L 430 385.5 L 429 386.5 L 428 398.5 Q 423.7 410.7 414.5 418 L 404.5 424 L 392.5 427 L 317.5 427 L 312 432.5 L 265.5 488 Q 261.7 492.2 252.5 491 L 244 485.5 L 194.5 427 L 119.5 427 L 103.5 422 L 92 412.5 Q 85.5 405.5 83 394.5 L 82 356 L 31.5 356 Q 16.8 353.2 9 343.5 L 2 331.5 L 0 320.5 L 0 240.5 L 4 225.5 L 14.5 213 L 23 207.5 L 24 192.5 L 28 171.5 L 40 137.5 Q 59.1 96.6 91.5 69 Q 114.3 48.8 144.5 36 L 174.5 26 L 196.5 22 L 205.5 22 L 206.5 21 Z M 210 50 L 209 51 L 200 51 L 193 53 L 188 53 L 156 63 Q 129 74 110 92 Q 85 113 70 143 L 58 173 L 52 205 L 82 205 L 83 181 Q 86 169 93 162 Q 99 155 109 151 L 124 148 L 389 148 L 404 151 L 417 159 Q 426 167 429 181 L 430 205 L 460 205 L 459 204 L 459 196 L 457 185 L 448 156 Q 436 128 418 108 Q 387 72 337 56 L 325 53 L 314 52 L 313 51 L 304 51 L 303 50 L 210 50 Z M 120 178 L 118 179 L 112 186 L 112 390 L 114 394 L 124 398 L 207 398 L 212 401 L 251 449 L 257 453 L 300 401 L 306 398 L 389 398 L 397 395 L 400 390 L 400 186 L 399 184 L 393 178 L 120 178 Z M 35 235 L 33 236 L 30 240 L 30 323 L 36 327 L 82 327 L 82 235 L 35 235 Z M 430 235 L 430 327 L 477 327 L 482 323 L 482 240 L 481 238 L 478 235 L 430 235 Z " /><path fill="rgb(0,0,0)" stroke="rgb(0,0,0)" stroke-width="1" opacity="1" d="M 190.5 234 L 199.5 234 L 206 238.5 Q 210.7 242.3 209 252.5 L 202.5 261 Q 199.2 263.7 192.5 263 L 184 259 L 180 250.5 L 180 245.5 Q 181.5 239 186.5 236 L 190.5 234 Z " /><path fill="rgb(0,0,0)" stroke="rgb(0,0,0)" stroke-width="1" opacity="1" d="M 306.5 234 L 315.5 234 L 322 238.5 Q 326.7 242.3 325 252.5 L 318.5 261 Q 315.2 263.7 308.5 263 L 300 259 L 296 250.5 L 296 245.5 Q 297.5 239 302.5 236 L 306.5 234 Z " /><path fill="rgb(0,0,0)" stroke="rgb(0,0,0)" stroke-width="1" opacity="1" d="M 190.5 298 L 198.5 300 Q 210.8 312.7 228.5 320 L 246.5 325 L 265.5 325 L 283.5 320 Q 301.1 312.6 313.5 300 L 321.5 298 Q 329.3 299.2 333 304.5 Q 336.5 308.5 335 317.5 L 328.5 326 Q 310.2 342.7 283.5 351 L 269.5 354 L 242.5 354 L 228.5 351 L 206.5 342 Q 191.1 333.4 179 321.5 Q 175.5 317.5 177 308.5 L 182.5 301 L 190.5 298 Z " /></svg>