<?xml version="1.0" encoding="UTF-8"?>
<svg version="1.1" xmlns="http://www.w3.org/2000/svg" width="512" height="512">
<path d="M0 0 C0.95261719 -0.03996094 1.90523437 -0.07992188 2.88671875 -0.12109375 C12.49650335 1.44583806 19.11092145 7.51609257 25.71524048 14.2389679 C26.60583204 15.12528733 27.49642359 16.01160676 28.41400278 16.92478436 C30.86545082 19.36513438 33.30117076 21.82065765 35.734442 24.27911389 C38.36867575 26.93505324 41.01746224 29.5764116 43.66445923 32.21961975 C48.24188897 36.79443486 52.81011554 41.37827415 57.3721199 45.96846962 C63.96791223 52.60499421 70.5775602 59.22757709 77.19061022 65.84689989 C87.92090311 76.58812072 98.63999561 87.34044666 109.35205078 98.09985352 C119.75437411 108.5481113 130.16196525 118.99107533 140.57666016 129.42700195 C141.21922397 130.07087938 141.86178778 130.71475681 142.52382322 131.37814567 C145.74759004 134.60843795 148.97146045 137.83862683 152.19538236 141.06876433 C178.91716507 167.84233331 205.62077458 194.63396718 232.3125 221.4375 C235.52635405 220.02223517 237.66710962 218.32827252 240.13728619 215.84484291 C240.88863014 215.09439756 241.63997409 214.34395221 242.41408604 213.57076609 C243.23284948 212.74276637 244.05161292 211.91476665 244.89518738 211.06167603 C246.20773442 209.74640051 246.20773442 209.74640051 247.54679757 208.40455377 C249.97536275 205.96902274 252.3993504 203.52909064 254.82157385 201.08726215 C257.43490887 198.45502027 260.05408789 195.82860564 262.67266846 193.20158386 C267.21053732 188.64770025 271.74500228 184.09045018 276.27745628 179.53117752 C283.44367522 172.32304777 290.61967859 165.12470325 297.79719543 157.92782593 C300.25303597 155.4651053 302.7088004 153.0023088 305.16453266 150.53948021 C305.77826201 149.92397921 306.39199136 149.3084782 307.02431857 148.67432565 C314.01063251 141.66751528 320.99461288 134.65838075 327.9777832 127.6484375 C328.61614258 127.00763557 329.25450196 126.36683364 329.91220555 125.70661347 C340.25348096 115.32534396 350.58880745 104.93816643 360.92282959 94.54967745 C371.53485579 83.8822013 382.15651266 73.2243769 392.78629953 62.57459867 C399.34107524 56.00675405 405.88774576 49.43103311 412.42418555 42.8449391 C416.90620707 38.33017648 421.39728303 33.82455478 425.8955455 29.325974 C428.48941532 26.73133838 431.07903677 24.13280614 433.65777016 21.52311897 C436.45661163 18.69087212 439.2747306 15.87831576 442.09489441 13.06729126 C443.30630916 11.83198384 443.30630916 11.83198384 444.54219693 10.57172072 C450.17840067 4.99982782 455.60845703 1.21295436 463.53515625 -0.09375 C471.23071504 -0.0090671 476.60384697 0.91978752 482.28515625 6.30859375 C488.41901541 12.97145103 489.80599938 18.19923977 489.61328125 27.2265625 C488.41535539 40.01480999 475.2436435 49.65552723 466.70420837 58.18623352 C465.77928024 59.11413277 464.85435211 60.04203203 463.90139586 60.99804944 C461.36263899 63.54478112 458.82084148 66.08845797 456.27846611 68.63157666 C453.52617679 71.38573308 450.7767349 74.14272985 448.02687073 76.89930725 C442.02981191 82.90987668 436.02904173 88.91673138 430.0274322 94.92275643 C426.27674949 98.67621099 422.52680085 102.43039836 418.77697945 106.18471336 C408.38229369 116.59157669 397.9866726 126.99750368 387.58759212 137.39997578 C386.59181479 138.39608246 386.59181479 138.39608246 385.57592073 139.41231252 C384.91055906 140.07789247 384.24519739 140.74347241 383.55967325 141.42922145 C382.21157423 142.77776392 380.86347677 144.12630795 379.51538086 145.47485352 C378.84668992 146.14376589 378.17799898 146.81267826 377.48904467 147.5018607 C366.63871091 158.35614797 355.79515594 169.21718058 344.95448058 180.08111332 C333.80882921 191.25048243 322.65755642 202.41421333 311.50062281 213.57231301 C305.24257115 219.83128059 298.98694965 226.09263458 292.73753166 232.36022377 C287.42084549 237.69231581 282.09904116 243.01923239 276.77051943 248.3394979 C274.05381773 251.0522964 271.33958073 253.76744417 268.63186264 256.48921204 C265.69395212 259.44222711 262.74449871 262.38343978 259.79380798 265.32368469 C258.51893922 266.61063806 258.51893922 266.61063806 257.21831554 267.92359048 C250.17425036 274.90945881 243.81942317 280.49150784 233.5625 280.6875 C232.76328125 280.71328125 231.9640625 280.7390625 231.140625 280.765625 C224.4235216 279.98629256 219.54305325 277.29352649 214.68493652 272.61236572 C214.14663003 272.09808588 213.60832355 271.58380604 213.05370474 271.05394197 C211.12414562 269.19740939 209.2174126 267.31930921 207.3125 265.4375 C206.55931551 264.69768985 205.80613102 263.9578797 205.03012276 263.19565105 C198.96936129 257.23569662 192.95072002 251.23397896 186.93931246 245.22435522 C184.21178999 242.49870761 181.4814294 239.77590519 178.75149536 237.05267334 C172.80723414 231.12188881 166.86665682 225.1874238 160.92691994 219.25210857 C157.21348184 215.54144667 153.49931281 211.83151697 149.78501892 208.12171173 C139.48355135 197.8324145 129.1830149 187.54218716 118.88593292 177.24850082 C117.90113711 176.26403436 117.90113711 176.26403436 116.89644644 175.25967969 C116.23846069 174.60191222 115.58047493 173.94414474 114.90255022 173.26644492 C113.56947514 171.93381329 112.2363985 170.60118321 110.90332031 169.26855469 C109.91146836 168.27703488 109.91146836 168.27703488 108.89957899 167.26548436 C98.1618784 156.53174018 87.41742807 145.80477948 76.67009097 135.08068487 C65.61362838 124.04793949 54.56280362 113.00957325 43.51761007 101.96554589 C37.32463895 95.77349042 31.12928465 89.58386236 24.9276886 83.40044403 C19.65422623 78.14238641 14.38593832 72.8792123 9.12430209 67.60931942 C6.44186131 64.9229758 3.75707307 62.23909637 1.06566238 59.56173706 C-1.85435044 56.65683035 -4.76255761 53.74038038 -7.6697998 50.82269287 C-8.51794046 49.98260862 -9.36608111 49.14252437 -10.239923 48.27698302 C-17.39036176 41.06630501 -22.76669011 34.72438613 -23 24.25 C-22.91269544 17.09896294 -21.75882876 12.66912776 -16.81640625 7.46875 C-11.60092202 2.65749045 -7.22775999 0.16404796 0 0 Z " fill="#000000" transform="translate(22.6875,22.5625)"/>
<path d="M0 0 C8.08198153 4.65006288 14.762816 12.69610643 21.30857742 19.26618522 C22.17058411 20.12733749 23.0325908 20.98848976 23.92071891 21.87573755 C26.28286692 24.23653558 28.64277975 26.59952626 31.00172508 28.96352178 C33.55734585 31.52349758 36.11589384 34.08054506 38.67407119 36.63796562 C43.0959605 41.05933287 47.51602836 45.48251413 51.93483245 49.90696472 C58.3235313 56.3038219 64.71501938 62.69788629 71.10717188 69.09129214 C81.48021155 79.46651554 91.85102029 89.84396592 102.22041214 100.222835 C112.28791905 110.29953362 122.35648516 120.37517196 132.42646682 130.4493975 C133.04812166 131.07131507 133.6697765 131.69323263 134.31026937 132.33399618 C137.42921667 135.45424861 140.54818469 138.57448032 143.66716301 141.69470173 C169.50518294 167.54307313 195.33957646 193.39506644 221.17158401 219.24944633 C224.37797194 217.83619516 226.51940904 216.14846473 228.98633945 213.67240661 C230.10998038 212.55196368 230.10998038 212.55196368 231.25632113 211.40888554 C232.07255786 210.58477677 232.8887946 209.76066799 233.72976577 208.91158623 C234.60212472 208.03881943 235.47448366 207.16605264 236.37327772 206.26683837 C238.79430804 203.84271955 241.21076185 201.41419499 243.62543297 198.98375148 C246.23058202 196.36380632 248.84154553 193.74966761 251.45187271 191.13488334 C255.97514821 186.60241912 260.49490903 182.06647454 265.01247489 177.52831978 C271.55024213 170.96103092 278.09494654 164.40068994 284.64166101 157.84232156 C295.27090898 147.19405433 305.89678272 136.54242764 316.5194844 125.88762993 C317.15537778 125.24981861 317.79127116 124.61200729 318.44643404 123.95486836 C325.53907364 116.84068749 332.63089785 109.72569463 339.72181594 102.60979789 C342.29205811 100.03052431 344.86230772 97.45125813 347.43257034 94.87200493 C348.06677868 94.23557493 348.70098701 93.59914494 349.35441379 92.94342919 C359.93172829 82.32938533 370.51487042 71.72117306 381.10259348 61.11751205 C387.63260665 54.57716726 394.1575368 48.0318304 400.67600705 41.47998087 C405.14415835 36.98968312 409.61768272 32.50478617 414.09546248 28.02409013 C416.67839601 25.43910906 419.2587957 22.85172331 421.83264053 20.25768989 C424.62446414 17.44407186 427.42786623 14.6421745 430.23245132 11.84127373 C431.44676817 10.61180273 431.44676817 10.61180273 432.68561667 9.35749394 C439.26552337 2.81879002 445.27310499 -1.72227931 454.79658401 -2.12555367 C461.54002538 -2.03603896 467.07548157 0.44120466 472.06220901 4.96429008 C476.60309005 10.00114114 478.46742563 14.59567977 478.60908401 21.43694633 C478.64904495 22.48237602 478.68900589 23.52780571 478.73017776 24.60491508 C477.18572991 34.68162727 470.72421951 41.41926207 463.7160939 48.33985466 C462.74852025 49.31320003 461.78203755 50.28763087 460.81654459 51.26304018 C458.17890002 53.92143682 455.5260361 56.56415999 452.87024379 59.2044099 C450.00152583 62.0617704 447.14728864 64.93353599 444.29112136 67.80343193 C438.70093124 73.41581215 433.09735995 79.01464336 427.48881493 84.60867516 C422.92938249 89.15679873 418.37487438 93.70979971 413.82381141 98.26629776 C412.85084359 99.24041482 412.85084359 99.24041482 411.85821986 100.23421102 C410.54037868 101.55365088 409.22254871 102.87310193 407.90472981 104.19256403 C395.55766069 116.55387827 383.19533496 128.89984303 370.82770791 141.2405841 C360.22456504 151.82138935 349.63459973 162.41523515 339.05415237 173.01873344 C326.75644415 185.34322147 314.45063678 197.659529 302.13186175 209.96296275 C300.81737586 211.27585595 299.50290038 212.58875957 298.18843544 213.90167373 C297.54175158 214.54758621 296.89506773 215.19349868 296.2287874 215.85898427 C291.68027058 220.40319064 287.1375678 224.95315929 282.59710014 229.5054068 C277.06083535 235.05571932 271.51569985 240.59698421 265.95913086 246.12697235 C263.12629951 248.9466963 260.29755142 251.7702089 257.47956932 254.60477966 C254.89626931 257.20305574 252.30156881 259.7893656 249.69756957 262.36689164 C248.32000349 263.73628906 246.95459797 265.11788677 245.58976859 266.49997878 C239.54438724 272.45100798 233.38183683 277.1848514 224.92158401 278.91350883 C223.56033401 278.89417289 223.56033401 278.89417289 222.17158401 278.87444633 C221.26408401 278.88733696 220.35658401 278.90022758 219.42158401 278.91350883 C209.57363079 276.90130685 202.94675785 270.74637563 196.08117568 263.79395622 C195.10783031 262.82638257 194.13339947 261.85989987 193.15799016 260.89440691 C190.49959353 258.25676234 187.85687035 255.60389842 185.21662045 252.94810611 C182.35925994 250.07938815 179.48749435 247.22515096 176.61759841 244.36898369 C171.00521819 238.77879356 165.40638698 233.17522227 159.81235518 227.56667725 C155.26423162 223.00724481 150.71123064 218.4527367 146.15473258 213.90167373 C145.50532121 213.25302852 144.85590983 212.60438331 144.18681932 211.93608218 C142.86737946 210.61824101 141.54792841 209.30041103 140.22846631 207.98259213 C127.86715207 195.63552301 115.52118732 183.27319728 103.18044624 170.90557023 C92.59964099 160.30242736 82.0057952 149.71246205 71.4022969 139.13201469 C59.07780888 126.83430648 46.76150134 114.5284991 34.4580676 102.20972407 C33.14517439 100.89523818 31.83227077 99.58076271 30.51935661 98.26629776 C29.5504879 97.29627198 29.5504879 97.29627198 28.56204608 96.30664972 C24.01783971 91.75813291 19.46787105 87.21543012 14.91562355 82.67496246 C9.36531103 77.13869767 3.82404614 71.59356217 -1.70594201 66.03699318 C-4.52566595 63.20416183 -7.34917856 60.37541374 -10.18374932 57.55743164 C-12.7820254 54.97413163 -15.36833526 52.37943113 -17.9458613 49.77543189 C-19.31525871 48.39786581 -20.69685642 47.03246029 -22.07894844 45.66763091 C-28.10503303 39.54600419 -32.92482615 33.33424383 -34.45732224 24.71038383 C-34.29131632 16.99599103 -33.58911271 11.32663734 -28.25029099 5.53850883 C-20.39222108 -1.71781699 -10.0551927 -4.47130814 0 0 Z " fill="#000000" transform="translate(33.82841598987579,210.75055366754532)"/>
</svg>
