<?xml version="1.0" encoding="UTF-8"?>
<svg version="1.1" xmlns="http://www.w3.org/2000/svg" width="512" height="512">
<path d="M0 0 C14.66727438 11.12890054 24.21819846 25.98004738 28 44 C28.43377686 47.9069742 28.52494968 51.75856436 28.5 55.6875 C28.49500488 56.73188232 28.49000977 57.77626465 28.48486328 58.85229492 C28.28101566 67.98255979 26.60597259 75.64680287 23 84 C22.5771875 84.98871094 22.154375 85.97742188 21.71875 86.99609375 C17.8844907 94.8540961 12.08690599 100.86025374 6 107 C5.12424316 107.88413574 4.24848633 108.76827148 3.34619141 109.67919922 C-3.07290152 116.1493315 -9.52757522 122.58324647 -16 129 C-15.52731689 129.72590332 -15.05463379 130.45180664 -14.56762695 131.19970703 C-13.94331787 132.16763184 -13.31900879 133.13555664 -12.67578125 134.1328125 C-12.05872314 135.08559082 -11.44166504 136.03836914 -10.8059082 137.02001953 C-2.41174121 150.87147313 -0.03422257 166.41465433 -3.75390625 182.19921875 C-9.19931683 199.99363574 -22.79009143 212.01159005 -35.5390625 224.83422852 C-36.93773611 226.244525 -38.33190438 227.65930304 -39.72167969 229.07836914 C-41.75523186 231.15458492 -43.80171246 233.21723204 -45.8515625 235.27734375 C-46.46528717 235.90857651 -47.07901184 236.53980927 -47.71133423 237.19017029 C-52.02021121 241.47771983 -56.16256005 244.66230528 -62.44140625 245.21484375 C-68.58971027 244.41092186 -72.60334109 242.6363248 -76.875 237.9375 C-78.61465101 233.39507791 -78.8430417 228.78608714 -78 224 C-74.89723676 218.61602278 -70.79126282 214.59290563 -66.34765625 210.29296875 C-64.83370863 208.80431684 -63.32004558 207.31537548 -61.80664062 205.82617188 C-59.43625562 203.50531803 -57.06280161 201.18779313 -54.68383789 198.87573242 C-52.37526183 196.62797768 -50.07963087 194.36760412 -47.78515625 192.10546875 C-47.0798024 191.42703415 -46.37444855 190.74859955 -45.64772034 190.04960632 C-39.13585206 183.60366982 -34.38584618 176.87020558 -33.859375 167.49609375 C-34.18794341 161.66400441 -35.79048495 157.04019138 -40 153 C-40.62524287 153.62638203 -41.25048575 154.25276407 -41.89467537 154.89812738 C-78.97961298 192.05024844 -116.07241615 229.19450071 -153.17540193 266.32859792 C-157.63375614 270.7907041 -162.09204481 275.25287575 -166.55029297 279.71508789 C-167.43782382 280.60340568 -168.32535468 281.49172347 -169.23978041 282.40695997 C-183.59667474 296.7768962 -197.94825741 311.15212601 -212.29787244 325.52933083 C-227.02998504 340.28953146 -241.76781842 355.04400187 -256.51094043 369.79320592 C-265.602701 378.88907587 -274.69000899 387.98934731 -283.77161084 397.09536024 C-290.0057791 403.34542763 -296.24551259 409.58990351 -302.4895785 415.83008263 C-306.08796294 419.42655203 -309.68391251 423.02536722 -313.27325058 426.630867 C-316.5674127 429.93975223 -319.86859578 433.2414685 -323.17521106 436.53790774 C-324.36246133 437.72390248 -325.54723891 438.91237959 -326.72909762 440.10374717 C-338.12084378 451.58170536 -350.37627471 461.29179464 -364 470 C-363.19186194 470.00059709 -362.38372389 470.00119418 -361.5510968 470.00180936 C-313.67755159 470.03768621 -265.80406931 470.09429885 -217.93058246 470.17792095 C-212.18516721 470.18793867 -206.43975167 470.19778276 -200.69433594 470.20751953 C-198.97858854 470.21043159 -198.97858854 470.21043159 -197.22817959 470.21340248 C-178.6959378 470.24444212 -160.1637084 470.26140861 -141.63144551 470.27319422 C-122.62231252 470.28559561 -103.61324467 470.3130741 -84.6041528 470.35461307 C-72.87005664 470.37977746 -61.13606848 470.39311513 -49.40194495 470.39142957 C-41.36057167 470.39139987 -33.31930858 470.40598608 -25.27797823 470.43216428 C-20.63525515 470.44684376 -15.99275804 470.45498455 -11.35001564 470.44580269 C-7.10095653 470.43754139 -2.85235227 470.44759964 1.39663921 470.47233662 C2.93508375 470.4780402 4.47357112 470.47697404 6.01200296 470.46851245 C8.10196875 470.45800079 10.19039735 470.47203438 12.28026009 470.49219131 C14.02203724 470.49446964 14.02203724 470.49446964 15.79900181 470.49679399 C20.66461006 471.26168143 23.85191131 473.52180547 26.84765625 477.37890625 C28.93568681 482.12829103 28.61920957 486.92248151 28 492 C25.82495098 496.59177016 23.54477327 498.83210772 19 501 C16.15359351 501.28391435 13.53005925 501.40495185 10.68653965 501.38031673 C9.84851141 501.38497665 9.01048316 501.38963657 8.14706013 501.3944377 C5.32619957 501.40643165 2.50581675 501.39697532 -0.31504822 501.38768005 C-2.35274171 501.39185104 -4.39043288 501.39732726 -6.42811972 501.40399987 C-12.03766277 501.41850399 -17.64705952 501.41419425 -23.25661075 501.40683305 C-29.30237973 501.40211596 -35.34811639 501.41459826 -41.39387512 501.42485046 C-52.5565572 501.4410763 -63.71919375 501.44347784 -74.88188139 501.43854547 C-85.19414907 501.43399103 -95.50639934 501.43458406 -105.81866646 501.44038582 C-107.20110955 501.44114268 -108.58355265 501.44189866 -109.96599575 501.44265376 C-112.04912694 501.44379894 -114.13225812 501.44494881 -116.2153893 501.44611301 C-135.58645736 501.45682052 -154.9575196 501.46154066 -174.32858944 501.45364285 C-175.05904102 501.45334567 -175.7894926 501.4530485 -176.54207907 501.45274232 C-182.47413555 501.4502933 -188.40619195 501.44768176 -194.33824835 501.44505819 C-217.47967685 501.43495486 -240.62103279 501.44331176 -263.76245117 501.46655273 C-289.75382444 501.4926136 -315.74515403 501.50547643 -341.73654085 501.49836498 C-344.50686649 501.49764891 -347.27719213 501.49697452 -350.04751778 501.49632454 C-350.72965707 501.49615473 -351.41179637 501.49598492 -352.11460656 501.49580997 C-362.42030759 501.49350514 -372.72596813 501.50149269 -383.03166008 501.51461601 C-394.74927658 501.52951055 -406.46681433 501.53001752 -418.18443459 501.5125451 C-424.16588833 501.50400508 -430.1471604 501.50195864 -436.12860489 501.51719666 C-441.60053941 501.53096441 -447.07213527 501.52638298 -452.54404981 501.50695742 C-454.52716928 501.50317269 -456.51031537 501.50618987 -458.4934113 501.51656907 C-461.18291923 501.52964828 -463.8712425 501.51823704 -466.56069851 501.50057125 C-467.33605384 501.51022176 -468.11140917 501.51987227 -468.91026011 501.52981523 C-474.08501502 501.45971426 -477.00238434 500.24765392 -481 497 C-484.82508431 492.56840126 -484.50015986 487.82820789 -484.4375 482.25 C-484.42920166 481.28626465 -484.42090332 480.3225293 -484.41235352 479.32958984 C-483.55826327 441.47606683 -469.63622946 404.14698365 -448.125 373.25 C-447.6921167 372.62577148 -447.2592334 372.00154297 -446.81323242 371.35839844 C-437.60893177 358.53841587 -426.56155725 347.26629964 -415.41954041 336.15211487 C-413.98117661 334.71000543 -412.54324307 333.26746677 -411.10569769 331.82454151 C-407.19075668 327.89746948 -403.26969682 323.97655927 -399.34750164 320.0567342 C-395.1046376 315.81428082 -390.86751792 311.5660964 -386.6295929 307.31871033 C-378.3420869 299.01465122 -370.04909956 290.71608414 -361.75385945 282.41975213 C-355.01128543 275.67625638 -348.270318 268.93115861 -341.53045845 262.18494987 C-339.58525941 260.2379556 -337.64005257 258.29096913 -335.69484335 256.34398502 C-334.96934749 255.61782602 -334.96934749 255.61782602 -334.22919515 254.87699714 C-320.64361033 241.27912131 -307.0558367 227.68343587 -293.46366024 214.09214878 C-292.69646158 213.32499685 -292.69646158 213.32499685 -291.91376395 212.54234691 C-289.32183411 209.95058327 -286.72988833 207.35883557 -284.13793903 204.7670914 C-283.62322727 204.25241954 -283.10851552 203.73774767 -282.57820644 203.20747969 C-281.53733893 202.16669305 -280.49647006 201.12590778 -279.45559983 200.08512386 C-263.24701842 183.87776904 -247.04659187 167.66230115 -230.85229492 151.44067383 C-212.63268278 133.19032549 -194.40631409 114.94676115 -176.17039782 96.71270317 C-174.22548395 94.76793856 -172.28059601 92.82314803 -170.33572578 90.87833977 C-169.85688907 90.39952637 -169.37805236 89.92071297 -168.88470545 89.42739007 C-161.19092994 81.73367601 -153.50357917 74.03357364 -145.81846231 66.33121176 C-138.09557809 58.59135641 -130.3650385 50.85921213 -122.62726944 43.13423754 C-118.43857416 38.95207267 -114.25315348 34.76676488 -110.07640457 30.57266617 C-106.25020075 26.73073234 -102.4148186 22.89821297 -98.5720349 19.07286476 C-97.18648406 17.69038371 -95.80427498 16.30454327 -94.42584872 14.91495842 C-85.51481184 5.93660199 -76.76919183 -2.03994177 -64.8125 -6.8125 C-63.89082031 -7.19019531 -62.96914063 -7.56789063 -62.01953125 -7.95703125 C-41.29891626 -15.11408714 -18.19582446 -12.09315584 0 0 Z M-78 42.875 C-79.16749879 44.05254946 -80.33546393 45.22963676 -81.50390625 46.40625 C-84.34134272 49.26553267 -87.17239294 52.1309978 -90 55 C-88.450168 58.70044944 -86.19605329 61.04581087 -83.36669922 63.86035156 C-82.89823578 64.32910706 -82.42977234 64.79786255 -81.94711304 65.28082275 C-80.40433305 66.82221432 -78.85460036 68.35640873 -77.3046875 69.890625 C-76.23093808 70.96064255 -75.15763067 72.03110381 -74.08474731 73.10198975 C-71.26479548 75.91431879 -68.43888846 78.72058889 -65.61169434 81.52563477 C-62.7257863 84.39105523 -59.84555743 87.26217168 -56.96484375 90.1328125 C-51.31543511 95.76079512 -45.65972175 101.38238884 -40 107 C-36.10699482 105.19098104 -33.36801522 102.69072082 -30.3515625 99.6875 C-29.81655121 99.15914551 -29.28153992 98.63079102 -28.73031616 98.08642578 C-27.59980734 96.96602642 -26.47198427 95.84291144 -25.34667969 94.71728516 C-23.64804165 93.02298283 -21.93412492 91.34530108 -20.21875 89.66796875 C-11.24824952 80.79230218 -2.91906982 71.59803813 -2.61962891 58.29101562 C-2.64938706 46.98291882 -5.17686683 38.40262451 -13 30 C-21.1965178 22.36875929 -29.98052098 19.38242765 -41.09765625 19.52734375 C-57.33647213 20.23605867 -67.32286416 32.03678013 -78 42.875 Z M-114.86185843 79.73765993 C-116.09613936 80.97251045 -116.09613936 80.97251045 -117.35535526 82.23230743 C-117.81405838 82.6898567 -118.27276149 83.14740597 -118.7453647 83.61882037 C-120.30212509 85.17290611 -121.85525442 86.73057252 -123.40846252 88.28820801 C-124.52693278 89.40624273 -125.64562252 90.52405791 -126.76451439 91.6416707 C-129.85433872 94.72924647 -132.94101529 97.81995285 -136.02721584 100.91115022 C-139.34990107 104.23813461 -142.67545571 107.56224855 -146.00067139 110.88670349 C-151.76669291 116.65219944 -157.53087368 122.41953051 -163.29382515 128.18809509 C-171.62619543 136.52857584 -179.96130994 144.86630963 -188.29710721 153.20336515 C-201.81973735 166.72818652 -215.3401306 180.25524179 -228.85913086 193.78369141 C-241.99533241 206.92906523 -255.13257881 220.07339337 -268.27124023 233.21630859 C-269.48505985 234.4305223 -269.48505985 234.4305223 -270.72340108 235.66926557 C-274.78279657 239.72996605 -278.84221271 243.79064591 -282.9016391 247.8513155 C-316.60429362 281.56434486 -350.30332381 315.28099529 -384 349 C-382.28543952 352.65329648 -380.24190437 355.00019984 -377.36669922 357.86035156 C-376.66400406 358.5634848 -376.66400406 358.5634848 -375.94711304 359.28082275 C-374.40433305 360.82221432 -372.85460036 362.35640873 -371.3046875 363.890625 C-370.23093808 364.96064255 -369.15763067 366.03110381 -368.08474731 367.10198975 C-365.26479548 369.91431879 -362.43888846 372.72058889 -359.61169434 375.52563477 C-356.7257863 378.39105523 -353.84555743 381.26217168 -350.96484375 384.1328125 C-345.31543511 389.76079512 -339.65972175 395.38238884 -334 401 C-330.38194779 399.46928801 -328.07100497 397.31967443 -325.30673599 394.55283165 C-324.61855414 393.86811134 -324.61855414 393.86811134 -323.91646963 393.16955829 C-322.3750932 391.63349004 -320.84097438 390.09037202 -319.30670166 388.54721069 C-318.194105 387.43548593 -317.08106904 386.32420066 -315.9676311 385.21331847 C-312.90513239 382.15530038 -309.84891918 379.09106653 -306.79367328 376.02580452 C-303.49943763 372.72294698 -300.19943973 369.42585574 -296.90013123 366.12806702 C-291.1832708 360.41225624 -285.47008908 354.69278955 -279.75937653 348.97083664 C-271.50259928 340.69781821 -263.24031717 332.4303157 -254.97667298 324.16415711 C-241.57021528 310.75332014 -228.16823173 297.33802118 -214.76904297 283.91992188 C-201.75152696 270.88405308 -188.73191594 257.85028261 -175.70947266 244.81933594 C-174.50579628 243.61487139 -174.50579628 243.61487139 -173.27780321 242.38607423 C-169.25220498 238.35786596 -165.22656543 234.32969898 -161.20090532 230.30155253 C-127.79419468 196.87410216 -94.39473669 163.43941232 -61 130 C-61.94864759 128.8857206 -62.89837547 127.77236086 -63.84855175 126.65938473 C-64.37731417 126.03928302 -64.90607659 125.41918131 -65.45086211 124.78028864 C-67.47717105 122.45162906 -69.61480164 120.25802003 -71.79614258 118.07446289 C-72.69339554 117.17405777 -73.5906485 116.27365265 -74.51509094 115.34596252 C-75.47477646 114.38806559 -76.4345929 113.43029981 -77.39453125 112.47265625 C-78.39261718 111.47389555 -79.39055473 110.47498654 -80.38835144 109.47593689 C-82.46520896 107.39761463 -84.54384072 105.32108828 -86.6237793 103.24584961 C-89.29497003 100.58040028 -91.96158593 97.91042593 -94.62692738 95.23912907 C-96.67965301 93.18280261 -98.73473846 91.12884796 -100.79056358 89.07562065 C-101.77573816 88.09111438 -102.76016708 87.10586138 -103.74384499 86.1198597 C-105.11042808 84.75075319 -106.48053685 83.38516854 -107.85083008 82.01977539 C-108.6299324 81.24146866 -109.40903473 80.46316193 -110.21174622 79.66127014 C-112.53080423 77.42322225 -112.53080423 77.42322225 -114.86185843 79.73765993 Z M-407 372 C-429.73190369 396.30478665 -452.72595129 434.5173136 -452 469 C-415.50146617 466.68263277 -381.8808166 447.75514025 -355 424 C-360.12197442 417.80649172 -365.70821388 412.14538009 -371.39453125 406.47265625 C-372.39261718 405.47389555 -373.39055473 404.47498654 -374.38835144 403.47593689 C-376.46520896 401.39761463 -378.54384072 399.32108828 -380.6237793 397.24584961 C-383.29497003 394.58040028 -385.96158593 391.91042593 -388.62692738 389.23912907 C-390.67965301 387.18280261 -392.73473846 385.12884796 -394.79056358 383.07562065 C-395.77573816 382.09111438 -396.76016708 381.10586138 -397.74384499 380.1198597 C-399.11042808 378.75075319 -400.48053685 377.38516854 -401.85083008 376.01977539 C-402.6299324 375.24146866 -403.40903473 374.46316193 -404.21174622 373.66127014 C-405.7153011 371.88656403 -405.7153011 371.88656403 -407 372 Z " fill="#ffffff" transform="translate(484,11)"/>
</svg>
