<?xml version="1.0" encoding="UTF-8"?>
<svg version="1.1" xmlns="http://www.w3.org/2000/svg" width="512" height="512">
<path d="M0 0 C1.26166992 0.25740967 1.26166992 0.25740967 2.54882812 0.52001953 C54.09515823 11.13082589 102.78593213 40.04314087 135 82 C135.72727295 82.94528564 135.72727295 82.94528564 136.46923828 83.90966797 C159.54315181 114.19283044 174.41798844 148.50742044 181 186 C181.22558594 187.24910156 181.45117188 188.49820313 181.68359375 189.78515625 C183.01890963 198.5429866 183.25987698 207.27697334 183.375 216.125 C183.40110352 217.29998047 183.42720703 218.47496094 183.45410156 219.68554688 C183.47562167 230.34107641 183.47562167 230.34107641 179 235 C174.74195096 238.25345713 170.943028 238.41968372 165.76799011 238.36076355 C164.94292396 238.36332682 164.11785782 238.3658901 163.26778966 238.36853105 C160.50539418 238.37346927 157.74354623 238.35697545 154.98120117 238.34057617 C153.00019341 238.33972991 151.01918471 238.34020503 149.03817749 238.34190369 C143.66046358 238.34276509 138.28295005 238.32511574 132.90528274 238.30418181 C127.28519819 238.28543926 121.66510915 238.28366648 116.04499817 238.28010559 C105.40262216 238.27077802 94.76033851 238.24615455 84.11800319 238.21605712 C72.00204853 238.18253532 59.88608948 238.16603268 47.7701 238.15097082 C22.84668211 238.11960566 -2.07665377 238.06683126 -27 238 C-26.99631283 239.03036943 -26.99262566 240.06073887 -26.98882675 241.12233162 C-26.9000573 266.18504123 -26.83431065 291.24773047 -26.79275131 316.31056404 C-26.77211971 328.43073232 -26.74398754 340.55079679 -26.69824219 352.67089844 C-26.6583929 363.23388134 -26.63257154 373.79678906 -26.62364602 384.35984504 C-26.61842808 389.95373773 -26.60615132 395.54741535 -26.57707977 401.14123917 C-26.54994099 406.4057942 -26.54155198 411.67004544 -26.54756927 416.93466377 C-26.54646836 418.86722908 -26.53850542 420.7998045 -26.5231781 422.73230934 C-26.50327422 425.37115814 -26.50806214 428.00886022 -26.51898193 430.6477356 C-26.50150488 431.79464093 -26.50150488 431.79464093 -26.48367476 432.96471608 C-26.54132046 438.11903648 -27.75250716 441.02823038 -31 445 C-34.50686533 447.68930736 -37.06416331 448.38782281 -41.4453125 448.43359375 C-43.03980225 448.45087524 -43.03980225 448.45087524 -44.66650391 448.46850586 C-45.80780762 448.45827393 -46.94911133 448.44804199 -48.125 448.4375 C-49.31915527 448.42920166 -50.51331055 448.42090332 -51.74365234 448.41235352 C-86.73050901 447.76801568 -120.3084287 437.44770057 -151 421 C-151.60005859 420.68063477 -152.20011719 420.36126953 -152.81835938 420.03222656 C-188.54422294 400.8446717 -219.02021693 370.16740166 -239 335 C-239.3904248 334.31486328 -239.78084961 333.62972656 -240.18310547 332.92382812 C-256.80883114 303.39872061 -268.01682557 268.77468951 -268.203125 234.671875 C-268.21018463 233.8090239 -268.21724426 232.94617279 -268.22451782 232.05717468 C-268.44743635 196.82357542 -268.44743635 196.82357542 -265 181 C-264.81195801 180.06124023 -264.62391602 179.12248047 -264.43017578 178.15527344 C-256.45164361 138.66249129 -238.24004022 102.37674986 -211.29589844 72.44726562 C-210.0989929 71.11055575 -208.92717956 69.7514912 -207.7578125 68.390625 C-204.11989731 64.17234202 -200.35403258 60.37753129 -196.09375 56.7890625 C-194.6665919 55.56958785 -193.27128521 54.31207148 -191.90625 53.0234375 C-162.21662718 25.06232012 -123.48062193 8.25201707 -84 0 C-83.17999512 -0.18079102 -82.35999023 -0.36158203 -81.51513672 -0.54785156 C-56.12650121 -5.96941117 -25.31829594 -5.53095766 0 0 Z M-85 32 C-85.90331055 32.22494141 -86.80662109 32.44988281 -87.73730469 32.68164062 C-120.13642724 40.92621229 -149.27833606 56.36888424 -173.859375 79.046875 C-175.59341258 80.62902608 -177.34699382 82.10946881 -179.1875 83.5625 C-182.86663062 86.75107987 -185.898086 90.25472606 -189 94 C-189.44150391 94.52916016 -189.88300781 95.05832031 -190.33789062 95.60351562 C-200.30173101 107.59480412 -208.9327213 120.0647761 -216 134 C-216.30260742 134.59055176 -216.60521484 135.18110352 -216.91699219 135.78955078 C-225.62784191 152.9468911 -231.56812163 171.07153782 -235 190 C-235.17660156 190.91096436 -235.35320312 191.82192871 -235.53515625 192.76049805 C-237.24682556 202.44747658 -237.39731506 212.00674107 -237.375 221.8125 C-237.37478851 222.67072357 -237.37457703 223.52894714 -237.37435913 224.41317749 C-237.33955309 238.60035058 -236.30118565 252.15780579 -233 266 C-232.81808105 266.79519043 -232.63616211 267.59038086 -232.44873047 268.40966797 C-225.08430311 299.90098603 -209.21812986 327.87023403 -188 352 C-187.40960938 352.71285156 -186.81921875 353.42570312 -186.2109375 354.16015625 C-173.19343632 369.7747451 -156.39698024 381.7669872 -139 392 C-138.39462402 392.35835938 -137.78924805 392.71671875 -137.16552734 393.0859375 C-122.22854127 401.81113826 -105.73684958 407.76935368 -89 412 C-87.98550781 412.27457031 -86.97101563 412.54914063 -85.92578125 412.83203125 C-79.34001089 414.50946084 -72.82195705 415.41945469 -66.07421875 416.0859375 C-65.1987439 416.17512451 -64.32326904 416.26431152 -63.42126465 416.35620117 C-61.28114501 416.57379095 -59.14061245 416.78731308 -57 417 C-56.99641747 415.46079376 -56.99641747 415.46079376 -56.99276257 413.89049244 C-56.93400023 388.93651889 -56.85813767 363.98264214 -56.76428509 339.02877522 C-56.71929589 326.96133102 -56.67988842 314.89391655 -56.65356445 302.82641602 C-56.63060969 292.30989912 -56.59723991 281.79347604 -56.55129844 271.27703351 C-56.52733224 265.7072864 -56.50862572 260.13763238 -56.50238609 254.56783485 C-56.49635063 249.3270568 -56.47640648 244.08651705 -56.44572449 238.8458271 C-56.43691956 236.92093814 -56.43322674 234.99601806 -56.43499184 233.07110977 C-56.43663973 230.44514494 -56.4199869 227.81991078 -56.39872742 225.19404602 C-56.40599878 224.04860784 -56.40599878 224.04860784 -56.41341704 222.8800295 C-56.3535953 218.40988599 -55.86435223 215.48573693 -53 212 C-48.89065794 208.62320957 -44.91811703 208.56882003 -39.80595398 208.60127258 C-38.98497138 208.59462576 -38.16398879 208.58797893 -37.31812793 208.58113068 C-34.56962496 208.56249144 -31.82155697 208.56510659 -29.07299805 208.56762695 C-27.10183598 208.55861036 -25.13067954 208.5482834 -23.15953064 208.53674316 C-17.80874295 208.50913503 -12.45806153 208.49988344 -7.10721183 208.49388909 C-1.51510124 208.48451538 4.07692965 208.4583128 9.66899109 208.43388367 C20.25818302 208.39018741 30.84735951 208.36165962 41.43661422 208.33856028 C53.49216932 208.3115254 65.54764439 208.26761282 77.60314238 208.22227156 C102.40205154 208.12938048 127.20098581 208.05772015 152 208 C151.69110616 204.9527468 151.3790538 201.90587233 151.06518555 198.85913086 C150.93520802 197.57203342 150.93520802 197.57203342 150.80260468 196.25893402 C150.18045385 190.25244235 149.30537949 184.42046283 147.8125 178.5625 C147.59891846 177.70108398 147.38533691 176.83966797 147.1652832 175.95214844 C134.31750905 125.90913445 102.37029127 81.88656638 57.95898438 55.15625 C37.06621478 42.82472497 14.92904346 34.22937844 -9 30 C-10.02134033 29.81598633 -11.04268066 29.63197266 -12.0949707 29.44238281 C-22.05418961 27.82327919 -31.87464472 27.60094537 -41.9375 27.625 C-43.22500153 27.62581573 -43.22500153 27.62581573 -44.53851318 27.62664795 C-58.36984273 27.66684689 -71.54466152 28.57836753 -85 32 Z " fill="#ffffff" transform="translate(268,3)"/>
<path d="M0 0 C0.91067091 -0.00538554 1.82134181 -0.01077108 2.75960881 -0.01631981 C5.81196822 -0.0306305 8.86389588 -0.02348792 11.91627502 -0.01637268 C14.10429738 -0.02207461 16.29231675 -0.02903817 18.48033142 -0.03717041 C24.42450629 -0.05513634 30.36853381 -0.05392696 36.31272769 -0.04822803 C41.27313906 -0.04514119 46.23352193 -0.05122299 51.19392926 -0.05726677 C63.56405708 -0.07212546 75.93411267 -0.06848898 88.30423922 -0.05640347 C99.04406795 -0.0464711 109.78372439 -0.05941171 120.52352654 -0.08333766 C131.55491424 -0.10772778 142.58621777 -0.11693699 153.61763149 -0.11068493 C159.80944672 -0.10731078 166.0011196 -0.10976096 172.19291496 -0.12693596 C178.01487707 -0.14237981 183.83650973 -0.13847774 189.65845871 -0.11963081 C191.7958056 -0.11593789 193.93317676 -0.11907378 196.07050133 -0.1295166 C198.98716142 -0.14267976 201.90272336 -0.13122013 204.81933594 -0.11352539 C205.66612976 -0.1231304 206.51292358 -0.1327354 207.38537782 -0.14263147 C212.71487035 -0.07605663 215.7384623 0.86066789 219.97315979 4.38768005 C222.73414353 7.9640612 223.35600622 10.56855166 223.37159729 15.04393005 C223.38102356 16.68482605 223.38102356 16.68482605 223.39064026 18.35887146 C223.3766217 19.5233783 223.36260315 20.68788513 223.34815979 21.88768005 C223.33800842 23.09730408 223.32785706 24.3069281 223.31739807 25.5532074 C223.13327844 36.37344721 222.07708051 46.77969259 219.97315979 57.38768005 C219.7851178 58.34819275 219.59707581 59.30870544 219.40333557 60.29832458 C211.41159562 99.76111683 193.19398601 136.03227305 166.26905823 165.94041443 C165.07215269 167.2771243 163.90033935 168.63618885 162.73097229 169.99705505 C159.0930571 174.21533803 155.32719237 178.01014877 151.06690979 181.59861755 C149.63975169 182.8180922 148.244445 184.07560857 146.87940979 185.36424255 C109.02980848 221.01027119 55.15977506 241.19704869 3.53565979 241.82518005 C1.8014679 241.85877625 1.8014679 241.85877625 0.03224182 241.89305115 C-6.08877258 241.87586999 -10.37114469 241.81626847 -15.02684021 237.38768005 C-18.57421983 232.85255041 -18.45354878 228.87430428 -18.41452026 223.36083984 C-18.4199058 222.45016894 -18.42529134 221.53949803 -18.43084008 220.60123104 C-18.44515077 217.54887162 -18.43800819 214.49694397 -18.43089294 211.44456482 C-18.43659487 209.25654247 -18.44355844 207.06852309 -18.45169067 204.88050842 C-18.4696566 198.93633356 -18.46844723 192.99230603 -18.46274829 187.04811215 C-18.45966145 182.08770078 -18.46574325 177.12731791 -18.47178704 172.16691059 C-18.48664572 159.79678277 -18.48300925 147.42672718 -18.47092373 135.05660062 C-18.46099136 124.3167719 -18.47393197 113.57711545 -18.49785792 102.8373133 C-18.52224804 91.8059256 -18.53145725 80.77462208 -18.52520519 69.74320835 C-18.52183105 63.55139312 -18.52428122 57.35972025 -18.54145622 51.16792488 C-18.55690007 45.34596277 -18.55299801 39.52433011 -18.53415108 33.70238113 C-18.53045815 31.56503424 -18.53359405 29.42766308 -18.54403687 27.29033852 C-18.55720003 24.37367842 -18.5457404 21.45811649 -18.52804565 18.54150391 C-18.53765066 17.69471008 -18.54725567 16.84791626 -18.55715173 15.97546202 C-18.49078088 10.66229845 -17.64649742 7.53764761 -14.02684021 3.38768005 C-9.68723628 -0.28673029 -5.42105923 -0.03837441 0 0 Z M11.97315979 30.38768005 C11.97315979 89.78768005 11.97315979 149.18768005 11.97315979 210.38768005 C26.81713219 209.01935276 26.81713219 209.01935276 41.28565979 206.26268005 C42.56896179 205.94617493 42.56896179 205.94617493 43.87818909 205.62327576 C59.98731157 201.47349091 75.40476925 195.39947732 89.97315979 187.38768005 C91.06112854 186.78955505 92.14909729 186.19143005 93.27003479 185.57518005 C99.77710365 181.87572974 105.95161489 177.83024207 111.97315979 173.38768005 C112.49055725 173.00708435 113.00795471 172.62648865 113.54103088 172.23435974 C120.51869116 167.07437484 127.01847067 161.72978269 132.97315979 155.38768005 C137.97315979 150.38768005 137.97315979 150.38768005 139.96144104 148.50486755 C164.00486147 125.33348828 179.18118763 92.99359023 187.41065979 61.07518005 C187.76281555 59.73725403 187.76281555 59.73725403 188.12208557 58.37229919 C190.39149685 49.00488839 190.93891093 40.21304425 191.97315979 30.38768005 C132.57315979 30.38768005 73.17315979 30.38768005 11.97315979 30.38768005 Z " fill="#ffffff" transform="translate(289.02684020996094,270.61231994628906)"/>
</svg>
