<?xml version="1.0" encoding="UTF-8"?>
<svg version="1.1" xmlns="http://www.w3.org/2000/svg" width="512" height="512">
<path d="M0 0 C4.59672871 2.17739781 6.79805257 4.47056069 9 9 C9.34057617 12.41333008 9.34057617 12.41333008 9.29296875 16.26953125 C9.28872391 16.95053391 9.28447906 17.63153656 9.28010559 18.33317566 C9.2634061 20.49336459 9.22577312 22.65259642 9.1875 24.8125 C9.17244174 26.28318958 9.15875534 27.75389389 9.14648438 29.22460938 C9.11353214 32.81671357 9.06181173 36.40826326 9 40 C10.17691406 40.08636719 11.35382813 40.17273437 12.56640625 40.26171875 C60.21562363 44.15614949 104.69014299 63.63356315 139.828125 96.015625 C141.73861763 97.76118302 143.69004214 99.41857451 145.6875 101.0625 C149.54890857 104.35816732 152.7476664 108.11417973 156 112 C156.78632813 112.92167969 157.57265625 113.84335938 158.3828125 114.79296875 C188.96462944 150.93936707 206.41955643 193.81222305 210 241 C210.90766113 240.97905273 211.81532227 240.95810547 212.75048828 240.93652344 C216.13877642 240.86809067 219.5263235 240.81807705 222.91503906 240.78027344 C224.37772252 240.76023668 225.84032666 240.73299896 227.30273438 240.69824219 C229.4129601 240.64936775 231.52212136 240.62695341 233.6328125 240.609375 C234.90012207 240.58842773 236.16743164 240.56748047 237.47314453 240.54589844 C242.56919155 241.20204183 245.72004694 243.35202661 248.84765625 247.37890625 C250.93568681 252.12829103 250.61920957 256.92248151 250 262 C247.82260219 266.59672871 245.52943931 268.79805257 241 271 C237.58666992 271.34057617 237.58666992 271.34057617 233.73046875 271.29296875 C233.04946609 271.28872391 232.36846344 271.28447906 231.66682434 271.28010559 C229.50663541 271.2634061 227.34740358 271.22577312 225.1875 271.1875 C223.71681042 271.17244174 222.24610611 271.15875534 220.77539062 271.14648438 C217.18328643 271.11353214 213.59173674 271.06181173 210 271 C209.91363281 272.17691406 209.82726562 273.35382813 209.73828125 274.56640625 C205.84385051 322.21562363 186.36643685 366.69014299 153.984375 401.828125 C152.23881698 403.73861763 150.58142549 405.69004214 148.9375 407.6875 C145.64183268 411.54890857 141.88582027 414.7476664 138 418 C137.07832031 418.78632813 136.15664063 419.57265625 135.20703125 420.3828125 C99.06063293 450.96462944 56.18777695 468.41955643 9 472 C9.02094727 472.90766113 9.04189453 473.81532227 9.06347656 474.75048828 C9.13190933 478.13877642 9.18192295 481.5263235 9.21972656 484.91503906 C9.23976332 486.37772252 9.26700104 487.84032666 9.30175781 489.30273438 C9.35063225 491.4129601 9.37304659 493.52212136 9.390625 495.6328125 C9.41157227 496.90012207 9.43251953 498.16743164 9.45410156 499.47314453 C8.79795817 504.56919155 6.64797339 507.72004694 2.62109375 510.84765625 C-2.12829103 512.93568681 -6.92248151 512.61920957 -12 512 C-16.59672871 509.82260219 -18.79805257 507.52943931 -21 503 C-21.34057617 499.58666992 -21.34057617 499.58666992 -21.29296875 495.73046875 C-21.28872391 495.04946609 -21.28447906 494.36846344 -21.28010559 493.66682434 C-21.2634061 491.50663541 -21.22577312 489.34740358 -21.1875 487.1875 C-21.17244174 485.71681042 -21.15875534 484.24610611 -21.14648438 482.77539062 C-21.11353214 479.18328643 -21.06181173 475.59173674 -21 472 C-22.76537109 471.87044922 -22.76537109 471.87044922 -24.56640625 471.73828125 C-72.21562363 467.84385051 -116.69014299 448.36643685 -151.828125 415.984375 C-153.73861763 414.23881698 -155.69004214 412.58142549 -157.6875 410.9375 C-161.54890857 407.64183268 -164.7476664 403.88582027 -168 400 C-168.78632813 399.07832031 -169.57265625 398.15664063 -170.3828125 397.20703125 C-200.96462944 361.06063293 -218.41955643 318.18777695 -222 271 C-222.90766113 271.02094727 -223.81532227 271.04189453 -224.75048828 271.06347656 C-228.13877642 271.13190933 -231.5263235 271.18192295 -234.91503906 271.21972656 C-236.37772252 271.23976332 -237.84032666 271.26700104 -239.30273438 271.30175781 C-241.4129601 271.35063225 -243.52212136 271.37304659 -245.6328125 271.390625 C-246.90012207 271.41157227 -248.16743164 271.43251953 -249.47314453 271.45410156 C-254.56919155 270.79795817 -257.72004694 268.64797339 -260.84765625 264.62109375 C-262.93568681 259.87170897 -262.61920957 255.07751849 -262 250 C-259.82260219 245.40327129 -257.52943931 243.20194743 -253 241 C-249.58666992 240.65942383 -249.58666992 240.65942383 -245.73046875 240.70703125 C-244.70896477 240.71339851 -244.70896477 240.71339851 -243.66682434 240.71989441 C-241.50663541 240.7365939 -239.34740358 240.77422688 -237.1875 240.8125 C-235.71681042 240.82755826 -234.24610611 240.84124466 -232.77539062 240.85351562 C-229.18328643 240.88646786 -225.59173674 240.93818827 -222 241 C-221.91363281 239.82308594 -221.82726562 238.64617187 -221.73828125 237.43359375 C-217.84385051 189.78437637 -198.36643685 145.30985701 -165.984375 110.171875 C-164.23881698 108.26138237 -162.58142549 106.30995786 -160.9375 104.3125 C-157.64183268 100.45109143 -153.88582027 97.2523336 -150 94 C-148.61748047 92.82050781 -148.61748047 92.82050781 -147.20703125 91.6171875 C-111.06063293 61.03537056 -68.18777695 43.58044357 -21 40 C-21.02094727 39.09233887 -21.04189453 38.18467773 -21.06347656 37.24951172 C-21.13190933 33.86122358 -21.18192295 30.4736765 -21.21972656 27.08496094 C-21.23976332 25.62227748 -21.26700104 24.15967334 -21.30175781 22.69726562 C-21.35063225 20.5870399 -21.37304659 18.47787864 -21.390625 16.3671875 C-21.41157227 15.09987793 -21.43251953 13.83256836 -21.45410156 12.52685547 C-20.79795817 7.43080845 -18.64797339 4.27995306 -14.62109375 1.15234375 C-9.87170897 -0.93568681 -5.07751849 -0.61920957 0 0 Z M9 71 C9 87.5 9 104 9 121 C16.59 122.65 24.18 124.3 32 126 C68.2226412 137.9987499 97.33477101 160.14429822 114.87109375 194.62109375 C122.24137853 209.59302633 125.68674024 224.43370119 129 241 C145.5 241 162 241 179 241 C175.31489665 213.97590877 169.65513887 191.67502939 157 168 C156.67241699 167.38350586 156.34483398 166.76701172 156.00732422 166.13183594 C151.38497537 157.51358511 146.07736415 149.66230713 140 142 C139.32582031 141.12085938 138.65164063 140.24171875 137.95703125 139.3359375 C108.5688333 101.95282642 64.68993325 78.80799027 18 72 C15.03 71.67 12.06 71.34 9 71 Z M-94 93 C-94.61649414 93.32758301 -95.23298828 93.65516602 -95.86816406 93.99267578 C-104.48641489 98.61502463 -112.33769287 103.92263585 -120 110 C-120.87914062 110.67417969 -121.75828125 111.34835938 -122.6640625 112.04296875 C-160.04717358 141.4311667 -183.19200973 185.31006675 -190 232 C-190.33 234.97 -190.66 237.94 -191 241 C-174.5 241 -158 241 -141 241 C-139.35 233.41 -137.7 225.82 -136 218 C-124.0012501 181.7773588 -101.85570178 152.66522899 -67.37890625 135.12890625 C-52.40697367 127.75862147 -37.56629881 124.31325976 -21 121 C-21 104.5 -21 88 -21 71 C-46.16277308 71 -72.17200828 81.33216796 -94 93 Z M9 152 C9 181.37 9 210.74 9 241 C38.37 241 67.74 241 98 241 C93.95546873 220.77734366 87.61563137 203.5261251 74 188 C73.40960938 187.26652344 72.81921875 186.53304687 72.2109375 185.77734375 C56.50358741 166.82826396 33.06652207 155.43807458 9 152 Z M-73 175 C-73.845625 175.68449219 -74.69125 176.36898437 -75.5625 177.07421875 C-94.70261927 193.25360082 -106.48235472 216.37648306 -110 241 C-80.63 241 -51.26 241 -21 241 C-21 211.63 -21 182.26 -21 152 C-39.16243776 152 -59.60172776 163.61545617 -73 175 Z M-191 271 C-187.31489665 298.02409123 -181.65513887 320.32497061 -169 344 C-168.67241699 344.61649414 -168.34483398 345.23298828 -168.00732422 345.86816406 C-163.38497537 354.48641489 -158.07736415 362.33769287 -152 370 C-151.32582031 370.87914062 -150.65164062 371.75828125 -149.95703125 372.6640625 C-120.5688333 410.04717358 -76.68993325 433.19200973 -30 440 C-27.03 440.33 -24.06 440.66 -21 441 C-21 424.5 -21 408 -21 391 C-28.59 389.35 -36.18 387.7 -44 386 C-80.2226412 374.0012501 -109.33477101 351.85570178 -126.87109375 317.37890625 C-134.24137853 302.40697367 -137.68674024 287.56629881 -141 271 C-157.5 271 -174 271 -191 271 Z M-110 271 C-105.95546873 291.22265634 -99.61563137 308.4738749 -86 324 C-85.40960938 324.73347656 -84.81921875 325.46695313 -84.2109375 326.22265625 C-68.50358741 345.17173604 -45.06652207 356.56192542 -21 360 C-21 330.63 -21 301.26 -21 271 C-50.37 271 -79.74 271 -110 271 Z M9 271 C9 300.37 9 329.74 9 360 C29.22265634 355.95546873 46.4738749 349.61563137 62 336 C62.73347656 335.40960938 63.46695313 334.81921875 64.22265625 334.2109375 C83.17173604 318.50358741 94.56192542 295.06652207 98 271 C68.63 271 39.26 271 9 271 Z M129 271 C127.35 278.59 125.7 286.18 124 294 C112.0012501 330.2226412 89.85570178 359.33477101 55.37890625 376.87109375 C40.40697367 384.24137853 25.56629881 387.68674024 9 391 C9 407.5 9 424 9 441 C36.02409123 437.31489665 58.32497061 431.65513887 82 419 C82.61649414 418.67241699 83.23298828 418.34483398 83.86816406 418.00732422 C92.48641489 413.38497537 100.33769287 408.07736415 108 402 C108.87914062 401.32582031 109.75828125 400.65164063 110.6640625 399.95703125 C148.04717358 370.5688333 171.19200973 326.68993325 178 280 C178.33 277.03 178.66 274.06 179 271 C162.5 271 146 271 129 271 Z " fill="#ffffff" transform="translate(262,0)"/>
</svg>
