<?xml version="1.0" encoding="UTF-8"?>
<svg version="1.1" xmlns="http://www.w3.org/2000/svg" width="512" height="512">
<path d="M0 0 C6.28734327 7.02703071 6.88970524 14.38998658 7.625 23.4375 C10.62832084 54.2050821 23.25761815 81.91521156 47.125 102.375 C75.31267878 124.75370561 105.53841247 129.48045499 140.61254883 129.58032227 C142.76222413 129.58991749 144.91189762 129.5999285 147.06156921 129.61032104 C152.86225554 129.63719813 158.66294985 129.65830006 164.46366334 129.67832303 C170.53883435 129.70028951 176.61398121 129.72762571 182.68913269 129.75437927 C194.17762629 129.80416273 205.66613339 129.8491544 217.15465325 129.89240164 C230.24057422 129.94189713 243.32647094 129.99676935 256.41236842 130.05208123 C283.31655629 130.16568084 310.22076745 130.27256728 337.125 130.375 C337.10928955 129.5185791 337.0935791 128.6621582 337.07739258 127.77978516 C337.0257957 124.5555247 336.98842454 121.331477 336.96020508 118.10693359 C336.94526053 116.72014373 336.92489722 115.33339993 336.89868164 113.94677734 C336.70295648 103.31621457 336.67435299 92.9902103 344.37890625 84.84375 C350.38467473 79.7919179 357.36953198 77.75948667 365.125 78.375 C373.4921132 80.72959922 380.76287963 84.76471076 388.1875 89.1875 C389.90366624 90.19376615 391.61984097 91.20001817 393.33651733 92.20541382 C395.10371158 93.24183256 396.86864691 94.28201683 398.63330078 95.32275391 C403.04300417 97.91956734 407.47709602 100.47368066 411.91259766 103.02612305 C414.05308901 104.25806871 416.1920911 105.4926056 418.32958984 106.72973633 C423.36684728 109.64465679 428.41123536 112.54429973 433.48678589 115.39196777 C435.27774498 116.39770092 437.06599442 117.40809301 438.85351562 118.41992188 C441.09306421 119.68575369 443.33757781 120.94285765 445.58789062 122.18945312 C454.0621071 126.99885309 461.07968701 131.73150887 464.125 141.375 C465.6720379 148.75318077 464.9889186 154.85426487 461.4375 161.5625 C455.33932866 168.97919487 447.58586737 173.20658389 439.3125 177.8125 C438.0655763 178.51456708 436.81916561 179.21754602 435.57324219 179.92138672 C433.0123717 181.36769611 430.44984398 182.8110004 427.88623047 184.25244141 C422.19177092 187.45980412 416.53366952 190.73003995 410.875 194 C409.81821045 194.60803467 408.7614209 195.21606934 407.67260742 195.8425293 C402.26149993 198.96057692 396.87407441 202.1125225 391.515625 205.3203125 C390.4421582 205.95888184 389.36869141 206.59745117 388.26269531 207.25537109 C386.24092469 208.46006448 384.22420829 209.67330143 382.21386719 210.89697266 C373.166353 216.27360833 364.70199273 219.88920319 354.125 217.375 C347.91010263 215.3291708 343.64563016 211.86159698 340.125 206.375 C336.41020338 198.16187899 336.77093804 189.55997522 336.9375 180.75 C336.95258394 179.35027492 336.96626575 177.950534 336.97851562 176.55078125 C337.01360879 173.15844156 337.06277735 169.76693225 337.125 166.375 C335.94592638 166.37776538 334.76685276 166.38053076 333.55204964 166.38337994 C305.49401474 166.44850792 277.43598361 166.49789854 249.37788922 166.52819599 C245.91615128 166.53194762 242.45441349 166.53583063 238.99267578 166.53979492 C238.30357474 166.54058185 237.6144737 166.54136878 236.90449081 166.54217956 C225.78126749 166.55519445 214.6580912 166.57882641 203.53489567 166.60645839 C192.10134252 166.63462214 180.66782735 166.6509751 169.23423851 166.65726548 C162.82064388 166.66116157 156.40715554 166.67025829 149.99359512 166.69219017 C143.94438194 166.71270654 137.89531782 166.71880344 131.84607315 166.71432304 C129.63797188 166.71514151 127.42986508 166.7210161 125.22179413 166.73261642 C87.00372661 166.9233779 51.42199924 155.50277485 22.125 130.375 C21.18785156 129.57835937 20.25070313 128.78171875 19.28515625 127.9609375 C-7.38381908 104.62057112 -27.43413343 68.07267361 -29.875 32.375 C-30.07205256 28.41656188 -30.18369676 24.46270283 -30.25 20.5 C-30.27626465 19.51209473 -30.3025293 18.52418945 -30.32958984 17.50634766 C-30.34621596 9.97983104 -28.98569057 5.57209864 -23.625 0.0625 C-15.87069277 -4.69582489 -7.8597046 -4.44244173 0 0 Z " fill="#F53102" transform="translate(29.875,246.625)"/>
<path d="M0 0 C6.59487521 4.65186896 9.32805365 10.48830269 10.81640625 18.28125 C11.15778497 23.49791062 11.10262911 28.68449367 11.00390625 33.90625 C10.98882231 35.30597508 10.9751405 36.705716 10.96289062 38.10546875 C10.92779746 41.49780844 10.8786289 44.88931775 10.81640625 48.28125 C11.99547987 48.27848462 13.17455349 48.27571924 14.38935661 48.27287006 C42.44739151 48.20774208 70.50542264 48.15835146 98.56351703 48.12805401 C102.02525497 48.12430238 105.48699276 48.12041937 108.94873047 48.11645508 C109.63783151 48.11566815 110.32693255 48.11488122 111.03691544 48.11407044 C122.16013876 48.10105555 133.28331505 48.07742359 144.40651058 48.04979161 C155.84006373 48.02162786 167.2735789 48.0052749 178.70716774 47.99898452 C185.12076237 47.99508843 191.53425071 47.98599171 197.94781113 47.96405983 C203.99702431 47.94354346 210.04608843 47.93744656 216.0953331 47.94192696 C218.30343437 47.94110849 220.51154117 47.9352339 222.71961212 47.92363358 C260.93767964 47.7328721 296.51940701 59.15347515 325.81640625 84.28125 C326.75355469 85.07789063 327.69070313 85.87453125 328.65625 86.6953125 C355.32522533 110.03567888 375.37553968 146.58357639 377.81640625 182.28125 C378.01345881 186.23968812 378.12510301 190.19354717 378.19140625 194.15625 C378.2176709 195.14415527 378.24393555 196.13206055 378.27099609 197.14990234 C378.28762555 204.67793138 376.86821493 208.96016408 371.69140625 214.59375 C366.88869771 217.4127311 361.91435851 218.75108162 356.34375 217.90625 C350.3030702 216.13135911 346.73903015 213.22116098 343.2734375 207.921875 C341.11308055 202.52387854 340.8812791 197.10332088 340.37890625 191.34375 C337.27823593 160.52316885 324.74766217 132.79579308 300.81640625 112.28125 C272.62872747 89.90254439 242.40299378 85.17579501 207.32885742 85.07592773 C205.17918212 85.06633251 203.02950863 85.0563215 200.87983704 85.04592896 C195.07915071 85.01905187 189.2784564 84.99794994 183.47774291 84.97792697 C177.4025719 84.95596049 171.32742504 84.92862429 165.25227356 84.90187073 C153.76377996 84.85208727 142.27527286 84.8070956 130.786753 84.76384836 C117.70083203 84.71435287 104.61493531 84.65948065 91.52903783 84.60416877 C64.62484996 84.49056916 37.7206388 84.38368272 10.81640625 84.28125 C10.8321167 85.1376709 10.84782715 85.9940918 10.86401367 86.87646484 C10.91561055 90.1007253 10.95298171 93.324773 10.98120117 96.54931641 C10.99614572 97.93610627 11.01650903 99.32285007 11.04272461 100.70947266 C11.23844977 111.34003543 11.26705326 121.6660397 3.5625 129.8125 C-2.44326848 134.8643321 -9.42812573 136.89676333 -17.18359375 136.28125 C-25.55070695 133.92665078 -32.82147338 129.89153924 -40.24609375 125.46875 C-41.96225999 124.46248385 -43.67843472 123.45623183 -45.39511108 122.45083618 C-47.16230533 121.41441744 -48.92724066 120.37423317 -50.69189453 119.33349609 C-55.10159792 116.73668266 -59.53568977 114.18256934 -63.97119141 111.63012695 C-66.11168276 110.39818129 -68.25068485 109.1636444 -70.38818359 107.92651367 C-75.42544103 105.01159321 -80.46982911 102.11195027 -85.54537964 99.26428223 C-87.33633873 98.25854908 -89.12458817 97.24815699 -90.91210938 96.23632812 C-93.15165796 94.97049631 -95.39617156 93.71339235 -97.64648438 92.46679688 C-106.12070085 87.65739691 -113.13828076 82.92474113 -116.18359375 73.28125 C-117.73063165 65.90306923 -117.04751235 59.80198513 -113.49609375 53.09375 C-107.39792241 45.67705513 -99.64446112 41.44966611 -91.37109375 36.84375 C-90.12417005 36.14168292 -88.87775936 35.43870398 -87.63183594 34.73486328 C-85.07096545 33.28855389 -82.50843773 31.8452496 -79.94482422 30.40380859 C-74.25036467 27.19644588 -68.59226327 23.92621005 -62.93359375 20.65625 C-61.8768042 20.04821533 -60.82001465 19.44018066 -59.73120117 18.8137207 C-54.32009368 15.69567308 -48.93266816 12.5437275 -43.57421875 9.3359375 C-42.50075195 8.69736816 -41.42728516 8.05879883 -40.32128906 7.40087891 C-38.29951844 6.19618552 -36.28280204 4.98294857 -34.27246094 3.75927734 C-23.23990516 -2.79700228 -11.96216922 -6.76647956 0 0 Z " fill="#F53102" transform="translate(134.18359375,50.71875)"/>
</svg>
