<?xml version="1.0" encoding="UTF-8"?>
<svg version="1.1" xmlns="http://www.w3.org/2000/svg" width="512" height="512">
<path d="M0 0 C0.71414063 0.56332031 1.42828125 1.12664063 2.1640625 1.70703125 C17.8807851 14.66270799 29.98983175 36.69899697 32 57 C33.70892344 83.74148722 29.29156188 106.88535446 12 128 C11.43667969 128.71414062 10.87335938 129.42828125 10.29296875 130.1640625 C-2.66270799 145.8807851 -24.69899697 157.98983175 -45 160 C-71.83852447 161.71512464 -94.7661476 157.23166033 -116 140 C-116.62519531 139.51402344 -117.25039063 139.02804688 -117.89453125 138.52734375 C-120.71385798 136.28422978 -122.99908689 134.00136966 -125 131 C-128.45405839 132.29751591 -131.53113236 133.8044157 -134.67578125 135.73046875 C-135.57337158 136.27815918 -136.47096191 136.82584961 -137.39575195 137.39013672 C-138.35827881 137.9832666 -139.32080566 138.57639648 -140.3125 139.1875 C-141.32723389 139.80898926 -142.34196777 140.43047852 -143.38745117 141.07080078 C-151.55322627 146.08265905 -159.67970284 151.1570309 -167.79736328 156.24633789 C-176.33048657 161.59349534 -184.9013891 166.87764409 -193.48168945 172.14868164 C-200.32995309 176.35583241 -207.16931895 180.5768673 -214 184.8125 C-223.30819548 190.5830096 -232.6474625 196.30168961 -242 202 C-241.43546681 206.40116651 -240.59753622 210.53661768 -239.4375 214.8125 C-235.78486153 231.73759706 -236.9849807 249.52495667 -242 266 C-242.33952039 267.3317713 -242.67425568 268.66479233 -243 270 C-229.69460056 278.21302371 -216.37303781 286.39752065 -203 294.5 C-192.91639933 300.60961741 -182.86320311 306.76637055 -172.82861328 312.95629883 C-163.35826409 318.79260952 -153.85238299 324.5693535 -144.3359375 330.33007812 C-143.2325 330.99845703 -142.1290625 331.66683594 -140.9921875 332.35546875 C-139.43709473 333.29011963 -139.43709473 333.29011963 -137.85058594 334.24365234 C-136.06316626 335.34494535 -134.29636871 336.48126124 -132.56347656 337.66650391 C-130.2796773 339.2771927 -130.2796773 339.2771927 -127 341 C-123.10728778 339.60620526 -120.85624896 336.92267335 -118 334 C-102.28597138 318.33036129 -79.78526641 311.76778142 -58.1875 311.5625 C-36.21881473 311.69199371 -17.15021256 317.95505848 0 332 C0.71414063 332.56332031 1.42828125 333.12664062 2.1640625 333.70703125 C17.8807851 346.66270799 29.98983175 368.69899697 32 389 C33.70892344 415.74148722 29.29156188 438.88535446 12 460 C11.43667969 460.71414063 10.87335938 461.42828125 10.29296875 462.1640625 C-2.66270799 477.8807851 -24.69899697 489.98983175 -45 492 C-71.74148722 493.70892344 -94.88535446 489.29156188 -116 472 C-116.71414063 471.43667969 -117.42828125 470.87335938 -118.1640625 470.29296875 C-133.8807851 457.33729201 -145.98983175 435.30100303 -148 415 C-149.02617223 398.9423049 -148.09115496 384.27346489 -143 369 C-156.30539944 360.78697629 -169.62696219 352.60247935 -183 344.5 C-193.08360067 338.39038259 -203.13679689 332.23362945 -213.17138672 326.04370117 C-222.64173591 320.20739048 -232.14761701 314.4306465 -241.6640625 308.66992188 C-242.7675 308.00154297 -243.8709375 307.33316406 -245.0078125 306.64453125 C-246.04454102 306.02143066 -247.08126953 305.39833008 -248.14941406 304.75634766 C-249.93683374 303.65505465 -251.70363129 302.51873876 -253.43652344 301.33349609 C-255.7203227 299.7228073 -255.7203227 299.7228073 -259 298 C-262.74687437 299.35948539 -265.10596742 301.87436835 -267.9375 304.625 C-287.04811251 322.25969304 -309.41983103 328.05614562 -334.79296875 327.38671875 C-358.37612195 326.25452739 -379.48039749 314.37893126 -395.70703125 297.6640625 C-413.56771869 276.91280384 -419.51382512 252.89596412 -418.22753906 226.02148438 C-416.43084688 202.16326286 -403.87371601 181.96565819 -386.75 165.875 C-365.80281508 147.86840777 -341.76596204 143.22557919 -315 145 C-293.28251761 147.34459492 -274.64885778 159.30479523 -260 175 C-252.39936015 171.10573958 -245.21917847 166.67237089 -238.02368164 162.08666992 C-231.09821866 157.67798087 -224.12144706 153.35754681 -217.125 149.0625 C-214.89452969 147.69271088 -212.66406093 146.32291923 -210.43359375 144.953125 C-208.80719971 143.95442383 -208.80719971 143.95442383 -207.14794922 142.93554688 C-199.93824593 138.50259142 -192.74697772 134.03982159 -185.55322266 129.58105469 C-182.93655966 127.96071528 -180.31811768 126.34328523 -177.69921875 124.7265625 C-166.08749526 117.55524022 -154.52357076 110.31215331 -143 103 C-143.27714844 102.05898437 -143.55429687 101.11796875 -143.83984375 100.1484375 C-144.20207031 98.90320313 -144.56429688 97.65796875 -144.9375 96.375 C-145.29714844 95.14523438 -145.65679687 93.91546875 -146.02734375 92.6484375 C-152.33135821 69.00205393 -147.92702168 43.98262243 -136 23 C-133.54563628 19.13379276 -130.90003354 15.54121742 -128 12 C-127.43667969 11.28585938 -126.87335938 10.57171875 -126.29296875 9.8359375 C-95.33778841 -27.71624848 -36.50441921 -29.89481506 0 0 Z M-104.0078125 32.2265625 C-115.59576607 46.42305973 -118.57490368 62.0868346 -117 80 C-114.95940466 93.94245632 -107.65564512 104.17376045 -98 114 C-97.15308594 114.86625 -97.15308594 114.86625 -96.2890625 115.75 C-84.3129235 126.96667652 -68.73154053 129.79759534 -52.95703125 129.34765625 C-36.13604132 128.44980735 -23.07184455 120.06021672 -11.9921875 107.7734375 C-0.40423393 93.57694027 2.57490368 77.9131654 1 60 C-1.28119085 44.41366439 -10.4467801 31.97497808 -22.4375 22.1875 C-48.85805051 2.72695586 -82.6077238 8.49494662 -104.0078125 32.2265625 Z M-371 194 C-383.99176008 209.76009774 -388.85374829 225.75136488 -387 246 C-386.12983617 250.58473414 -384.80967176 254.70576239 -383 259 C-382.49146484 260.28197266 -382.49146484 260.28197266 -381.97265625 261.58984375 C-375.3344388 276.54355067 -362.98262212 287.07977818 -347.9375 293 C-334.24899832 297.87303892 -318.37827939 298.00873843 -305 292 C-287.92752905 283.5162629 -276.29717949 270.28432515 -270.1875 252.125 C-267.01963189 239.30787844 -267.88312972 225.1189033 -273 213 C-273.350625 212.13375 -273.70125 211.2675 -274.0625 210.375 C-280.6317445 195.77667889 -292.74477348 185.32894371 -307.234375 178.97265625 C-329.4861082 171.14683483 -354.70855561 176.55216916 -371 194 Z M-104.0078125 364.2265625 C-115.59576607 378.42305973 -118.57490368 394.0868346 -117 412 C-114.71880915 427.58633561 -105.5532199 440.02502192 -93.5625 449.8125 C-79.3789753 460.25963691 -63.17891582 463.22156155 -45.88818359 460.69091797 C-30.37469285 457.63197482 -17.78363046 447.87536417 -8.52734375 435.30859375 C0.84818428 421.13739921 3.59519655 404.61728992 0.30859375 387.94921875 C-3.97550612 371.54774855 -14.8999668 358.22067022 -29.40234375 349.56640625 C-55.50776993 335.66825677 -84.62858235 342.73597654 -104.0078125 364.2265625 Z " fill="#ffffff" transform="translate(449,20)"/>
</svg>
