<?xml version="1.0" encoding="UTF-8"?>
<svg version="1.1" xmlns="http://www.w3.org/2000/svg" width="512" height="512">
<path d="M0 0 C1.07121094 0.84498047 1.07121094 0.84498047 2.1640625 1.70703125 C17.8807851 14.66270799 29.98983175 36.69899697 32 57 C33.76315796 84.59015697 28.84700952 107.44630389 11 129 C10.27296875 129.93585938 10.27296875 129.93585938 9.53125 130.890625 C6.71719013 134.46231637 3.54727511 137.19517782 0 140 C2.54712074 142.00130916 4.9527375 143.85727656 8 145 C11.42422863 144.46865418 14.02227133 142.96928382 17 141.25 C38.17756777 129.55325065 62.68959791 125.96185898 86.34277344 132.15673828 C94.62576668 134.58865159 102.33742646 138.13577472 109.5 142.9375 C112.29371612 144.75816744 112.29371612 144.75816744 115.625 145 C118.49222312 143.79274816 121.25676121 142.46731377 124 141 C122.00659143 138.41595186 119.99697601 135.99697601 117.6875 133.6875 C106.81990005 122.81990005 99.76226734 110.61150206 95 96 C94.52046875 94.61941406 94.52046875 94.61941406 94.03125 93.2109375 C87.39508202 70.41447156 91.92471739 45.4093957 102.93115234 24.88037109 C105.55391165 20.26627969 108.64333627 16.09880642 112 12 C112.56332031 11.28585938 113.12664062 10.57171875 113.70703125 9.8359375 C126.66270799 -5.8807851 148.69899697 -17.98983175 169 -20 C195.74148722 -21.70892344 218.88535446 -17.29156188 240 0 C240.71414063 0.56332031 241.42828125 1.12664063 242.1640625 1.70703125 C257.8807851 14.66270799 269.98983175 36.69899697 272 57 C273.61566182 82.28211554 270.18153494 107.24637687 252.84375 126.9921875 C252.2353125 127.65476563 251.626875 128.31734375 251 129 C249.93571415 130.29019559 248.87307282 131.58175048 247.8125 132.875 C245.50137639 135.65393413 242.85182808 137.78563937 240 140 C240.89460938 140.556875 241.78921875 141.11375 242.7109375 141.6875 C250.18811411 146.38797323 257.23811237 151.29577142 264 157 C264.66128906 157.515625 265.32257813 158.03125 266.00390625 158.5625 C279.64577718 169.58623409 289.75785621 186.26591514 295.875 202.5 C296.14924805 203.2221167 296.42349609 203.9442334 296.70605469 204.68823242 C302.13770448 220.01324435 302.46178738 234.92287779 302.43359375 251.00390625 C302.43816332 253.29980116 302.44347118 255.59569471 302.44947815 257.8915863 C302.45835847 262.67297982 302.45603973 267.45420579 302.44604492 272.2355957 C302.43449069 278.35882776 302.45489119 284.48148862 302.48396206 290.60464573 C302.5022979 295.33242953 302.502038 300.06007525 302.49632454 304.78788567 C302.49617138 307.04650621 302.50221085 309.30513613 302.51461601 311.56372261 C302.52949508 314.71285366 302.51887538 317.8609123 302.50170898 321.01000977 C302.51137695 321.93734924 302.52104492 322.86468872 302.53100586 323.82012939 C302.46786092 329.35273158 301.825691 332.70139805 298 337 C294.47524402 339.48926865 292.06802651 340.37658071 287.76713562 340.39872742 C286.21703545 340.41753464 286.21703545 340.41753464 284.63562012 340.4367218 C282.95139954 340.43456917 282.95139954 340.43456917 281.2331543 340.43237305 C280.04248856 340.4425647 278.85182281 340.45275635 277.62507629 340.46325684 C274.36921426 340.48823865 271.11362333 340.50010636 267.85768104 340.50611091 C264.45166614 340.51550395 261.04578123 340.54170805 257.6398468 340.56611633 C251.19433309 340.60975957 244.74884464 340.63831981 238.3032282 340.66143972 C230.9633947 340.68850312 223.6236921 340.73241388 216.28395212 340.77772844 C201.189372 340.87054348 186.09475801 340.94223852 171 341 C171.41658371 342.02725189 171.83316742 343.05450378 172.26237488 344.11288452 C172.81199281 345.4754385 173.3614911 346.83804075 173.91088867 348.20068359 C174.18511406 348.87598618 174.45933945 349.55128876 174.74187469 350.24705505 C176.65106177 354.99170872 178.15857651 359.63313714 179.3125 364.625 C179.54549805 365.60533203 179.54549805 365.60533203 179.78320312 366.60546875 C180.20550455 368.39979671 180.60377878 370.19973333 181 372 C181.17767505 372.80181481 181.35535009 373.60362963 181.53840923 374.42974186 C181.97763098 376.87544346 182.13339017 379.10434682 182.14717102 381.58506775 C182.15790398 382.92022179 182.15790398 382.92022179 182.16885376 384.28234863 C182.17154266 385.24612427 182.17423157 386.2098999 182.17700195 387.20288086 C182.18357315 388.22785172 182.19014435 389.25282257 182.19691467 390.30885315 C182.21659554 393.69418413 182.22829621 397.07947095 182.23828125 400.46484375 C182.24235678 401.62222109 182.2464323 402.77959843 182.25063133 403.97204781 C182.27146579 410.09326116 182.28578115 416.21445225 182.29516602 422.33569336 C182.30624919 428.65869399 182.3406789 434.98134454 182.38033772 441.30422115 C182.40646321 446.16753296 182.41485406 451.03076061 182.41844749 455.89413643 C182.42332078 458.22534116 182.43495574 460.55654196 182.45348549 462.88767815 C182.47779863 466.14797818 182.47692632 469.40736192 182.4699707 472.66772461 C182.48918579 474.11035172 182.48918579 474.11035172 182.50878906 475.5821228 C182.46507671 481.20320211 181.91314284 484.64362201 178 489 C173.48466311 492.54698956 169.50733024 492.42676553 164.01112366 492.38768005 C163.1045363 492.39306559 162.19794895 492.39845113 161.26388925 492.40399987 C158.22534873 492.41831006 155.18724198 492.4111681 152.14868164 492.40405273 C149.97051136 492.40975469 147.79234408 492.41671826 145.61418152 492.42485046 C139.69686511 492.4428161 133.77969671 492.44160707 127.86236119 492.43590808 C122.92431772 492.4328212 117.98630289 492.43890309 113.04826349 492.44494683 C101.40007143 492.45900159 89.75195269 492.45742278 78.10375977 492.44604492 C66.08230854 492.43456203 54.06111461 492.44864017 42.03968912 492.4754414 C31.72194186 492.49758407 21.40426468 492.50423902 11.08649534 492.49836498 C4.92262554 492.49499088 -1.24110125 492.49744072 -7.4049511 492.51461601 C-13.2006489 492.53006016 -18.99601576 492.52615747 -24.79170036 492.50731087 C-26.91937191 492.50361803 -29.04706783 492.5067536 -31.17471695 492.51719666 C-34.07824155 492.53036039 -36.98066313 492.5188997 -39.88414001 492.50120544 C-41.14849433 492.51561295 -41.14849433 492.51561295 -42.43839115 492.53031152 C-47.76283163 492.46350359 -50.75706262 491.50225241 -55 488 C-58.90163122 483.51942431 -58.43094609 478.63262558 -58.40405273 472.98754883 C-58.41091599 471.98185349 -58.41777924 470.97615814 -58.42485046 469.93998718 C-58.4431589 466.61219163 -58.43927058 463.28486645 -58.43359375 459.95703125 C-58.4381579 457.63075102 -58.44346417 455.30447213 -58.44947815 452.97819519 C-58.45842043 448.09323671 -58.45597835 443.20844155 -58.44604492 438.32348633 C-58.43463149 432.10922597 -58.45464356 425.89554034 -58.48396206 419.68135548 C-58.50246241 414.86899815 -58.50200293 410.05677452 -58.49632454 405.24439049 C-58.49617259 402.95661305 -58.50211053 400.6688258 -58.51461601 398.38108253 C-58.60276322 379.58960704 -56.39588336 363.38284149 -49 346 C-48.3310219 344.33425977 -47.66401598 342.6677245 -47 341 C-47.61899264 340.99761165 -48.23798529 340.99522329 -48.87573528 340.99276257 C-63.94069751 340.93361359 -79.00548068 340.85806432 -94.07026196 340.76428509 C-101.35550172 340.71932906 -108.64069261 340.67991401 -115.92602539 340.65356445 C-122.27629935 340.63058273 -128.62641865 340.59718292 -134.97656995 340.55129844 C-138.33861763 340.52736834 -141.70051216 340.50863827 -145.06264305 340.50238609 C-148.81697838 340.49278541 -152.57075312 340.46477298 -156.32495117 340.43237305 C-157.43841415 340.43380814 -158.55187714 340.43524323 -159.69908142 340.4367218 C-160.72406738 340.42418365 -161.74905334 340.41164551 -162.80509949 340.39872742 C-163.69278613 340.39411845 -164.58047277 340.38950949 -165.49505901 340.38476086 C-170.35318254 339.63854936 -174.0245824 336.66662905 -177.0205822 332.84085846 C-178.99201637 329.13546199 -178.68312773 325.16282515 -178.63110352 321.05761719 C-178.63825882 320.07128296 -178.64541412 319.08494873 -178.65278625 318.06872559 C-178.66967631 314.81096881 -178.6502507 311.55458905 -178.62890625 308.296875 C-178.62973571 306.0168649 -178.63219798 303.73685486 -178.63621521 301.45684814 C-178.63907449 296.67189581 -178.62437263 291.88741112 -178.59692383 287.10253906 C-178.56307356 281.01716956 -178.56878073 274.93264883 -178.5875864 268.84724045 C-178.59824939 264.13178661 -178.58913107 259.4165241 -178.57420158 254.70108795 C-178.56907147 252.46077292 -178.5694376 250.22043744 -178.57574654 247.98012543 C-178.62934721 217.47334506 -171.06917172 191.41403367 -151 168 C-150.2265625 167.01 -150.2265625 167.01 -149.4375 166 C-140.57192489 155.00668687 -127.89287945 147.32008537 -116 140 C-117.4540625 138.8553125 -117.4540625 138.8553125 -118.9375 137.6875 C-126.89400822 130.84232592 -133.09250659 122.22718119 -138 113 C-138.51433594 112.03707031 -139.02867187 111.07414063 -139.55859375 110.08203125 C-149.49430275 90.13628127 -151.77426573 65.42879453 -145.390625 43.95703125 C-141.45239111 32.21580409 -135.85798157 21.59534464 -128 12 C-127.43667969 11.28585938 -126.87335938 10.57171875 -126.29296875 9.8359375 C-95.33778841 -27.71624848 -36.50441921 -29.89481506 0 0 Z M-104.0078125 32.2265625 C-115.59576607 46.42305973 -118.57490368 62.0868346 -117 80 C-114.71880915 95.58633561 -105.5532199 108.02502192 -93.5625 117.8125 C-79.3789753 128.25963691 -63.17891582 131.22156155 -45.88818359 128.69091797 C-30.37469285 125.63197482 -17.78363046 115.87536417 -8.52734375 103.30859375 C0.84818428 89.13739921 3.59519655 72.61728992 0.30859375 55.94921875 C-3.97550612 39.54774855 -14.8999668 26.22067022 -29.40234375 17.56640625 C-55.50776993 3.66825677 -84.62858235 10.73597654 -104.0078125 32.2265625 Z M135.9921875 32.2265625 C124.40423393 46.42305973 121.42509632 62.0868346 123 80 C125.28119085 95.58633561 134.4467801 108.02502192 146.4375 117.8125 C160.6210247 128.25963691 176.82108418 131.22156155 194.11181641 128.69091797 C209.62530715 125.63197482 222.21636954 115.87536417 231.47265625 103.30859375 C240.84818428 89.13739921 243.59519655 72.61728992 240.30859375 55.94921875 C236.02449388 39.54774855 225.1000332 26.22067022 210.59765625 17.56640625 C184.49223007 3.66825677 155.37141765 10.73597654 135.9921875 32.2265625 Z M-125 186 C-125.73992187 186.72960937 -126.47984375 187.45921875 -127.2421875 188.2109375 C-138.94102645 200.45602574 -145.23625384 216.30357978 -147.12060547 232.97827148 C-147.20440397 233.71062987 -147.28820248 234.44298826 -147.37454033 235.19753933 C-148.19963907 242.98198602 -148.25419331 250.71571376 -148.1953125 258.53515625 C-148.19156674 260.03543404 -148.1887272 261.53571434 -148.18673706 263.03599548 C-148.17922328 266.92057456 -148.15968575 270.80499596 -148.1373291 274.68951416 C-148.11660101 278.67905547 -148.10767867 282.6686231 -148.09765625 286.65820312 C-148.07642369 294.43887276 -148.04244297 302.21941401 -148 310 C-131.87488804 310.18726359 -115.75013123 310.32814027 -99.62419319 310.41449738 C-92.1358101 310.45566876 -84.6481044 310.5117521 -77.16015625 310.60351562 C-70.63010079 310.68350188 -64.1005361 310.73492376 -57.57000434 310.75270796 C-54.11498143 310.76309697 -50.66136188 310.7873352 -47.20679092 310.84584045 C-43.34089021 310.91077475 -39.47633547 310.91190348 -35.60986328 310.90820312 C-34.47697372 310.93696533 -33.34408417 310.96572754 -32.17686462 310.99536133 C-23.43800493 310.90516653 -19.26679541 307.82346881 -13 302 C-10.78676314 300.44646361 -8.52430854 299.12154237 -6.1875 297.75 C-2.19876953 295.39854379 1.44427371 292.97077316 5 290 C4.030625 289.236875 3.06125 288.47375 2.0625 287.6875 C-5.89400822 280.84232592 -12.09250659 272.22718119 -17 263 C-17.77150391 261.55560547 -17.77150391 261.55560547 -18.55859375 260.08203125 C-28.64804817 239.8276402 -30.72718394 215.03623594 -24.203125 193.3046875 C-22.40847315 188.3752217 -20.38831142 183.66936334 -18 179 C-17.29230469 177.56720703 -17.29230469 177.56720703 -16.5703125 176.10546875 C-15.39402251 173.72962879 -14.20399715 171.36188376 -13 169 C-49.93884841 152.16120964 -96.08276045 156.74553317 -125 186 Z M137 169 C137.30292969 169.59425781 137.60585938 170.18851563 137.91796875 170.80078125 C139.29530578 173.52578959 140.6478354 176.26242085 142 179 C142.43054688 179.84175781 142.86109375 180.68351562 143.3046875 181.55078125 C152.98313092 201.35852726 154.96998841 226.89372225 147.78369141 247.91064453 C143.47149825 259.40713956 138.34511173 269.88287352 130 279 C129.12050863 280.10059255 128.24491758 281.20432473 127.375 282.3125 C124.77376558 285.25600211 122.07646953 287.56744269 119 290 C122.06946164 292.66020009 125.25069062 294.77941215 128.75 296.8125 C134.51276534 300.20135007 139.77472977 304.17017083 144.79883194 308.57828236 C147.49393272 310.31902738 149.03682429 310.37037101 152.22650146 310.36076355 C153.28376938 310.36488754 154.34103729 310.36901154 155.43034363 310.3732605 C156.58480484 310.36247467 157.73926605 310.35168884 158.92871094 310.34057617 C160.14849136 310.34101425 161.36827179 310.34145233 162.62501526 310.34190369 C165.96579939 310.3401723 169.30602672 310.32513191 172.6467123 310.30418181 C176.13939713 310.28542222 179.63208946 310.28366515 183.12481689 310.28010559 C189.73691626 310.27078299 196.34886673 310.24616639 202.96090055 310.21605712 C210.489245 310.18251973 218.01759658 310.16602878 225.54599714 310.15097082 C241.03075097 310.11961695 256.51535628 310.06685237 272 310 C272.04676276 301.42751718 272.08208875 292.85508947 272.10362434 284.2825098 C272.11397097 280.3000284 272.12795874 276.31763554 272.15087891 272.33520508 C272.17293866 268.47722467 272.18463675 264.61932831 272.18975449 260.7612896 C272.19339186 259.30442421 272.20049012 257.84756234 272.21146011 256.39073372 C272.26820635 248.52721729 272.01517608 240.79638593 271.12060547 232.97827148 C271.04394213 232.29987496 270.96727879 231.62147844 270.88829231 230.92252445 C268.45525207 211.60980253 259.63033148 196.4732095 246 183 C245.27039063 182.26007813 244.54078125 181.52015625 243.7890625 180.7578125 C225.93674558 163.70188146 201.88482871 159.43592571 178.04296875 159.8125 C163.61679559 160.37643543 150.18612207 162.86691997 137 169 Z M15.9921875 182.2265625 C4.40423393 196.42305973 1.42509632 212.0868346 3 230 C5.28119085 245.58633561 14.4467801 258.02502192 26.4375 267.8125 C40.6210247 278.25963691 56.82108418 281.22156155 74.11181641 278.69091797 C89.62530715 275.63197482 102.21636954 265.87536417 111.47265625 253.30859375 C120.84818428 239.13739921 123.59519655 222.61728992 120.30859375 205.94921875 C116.02449388 189.54774855 105.1000332 176.22067022 90.59765625 167.56640625 C64.49223007 153.66825677 35.37141765 160.73597654 15.9921875 182.2265625 Z M-5 336 C-5.73992187 336.72960937 -6.47984375 337.45921875 -7.2421875 338.2109375 C-37.78103045 370.17571864 -28 423.69643896 -28 462 C31.4 462 90.8 462 152 462 C156.78118598 393.63364784 156.78118598 393.63364784 128.7109375 335.6796875 C127.81632813 334.79539062 126.92171875 333.91109375 126 333 C124.90558594 331.89011719 124.90558594 331.89011719 123.7890625 330.7578125 C105.94209998 313.706997 81.8705947 309.41751958 58.03125 309.81640625 C32.95214377 310.80218167 12.77790691 318.01477057 -5 336 Z " fill="#ffffff" transform="translate(194,20)"/>
</svg>
