<?xml version="1.0" encoding="UTF-8"?>
<svg version="1.1" xmlns="http://www.w3.org/2000/svg" width="512" height="512">
<path d="M0 0 C1.45391144 0.00323273 1.45391144 0.00323273 2.93719482 0.00653076 C17.61202352 0.05883181 31.9963878 0.47237241 46.4375 3.3125 C47.47922363 3.51649414 48.52094727 3.72048828 49.59423828 3.93066406 C82.83617968 10.65639333 115.3533511 23.01238005 143.4375 42.3125 C143.96617676 42.67279297 144.49485352 43.03308594 145.03955078 43.40429688 C153.97237971 49.5206514 162.30919555 56.16838814 170.4375 63.3125 C171.32308594 64.0859375 172.20867187 64.859375 173.12109375 65.65625 C178.4412385 70.37051243 183.3916982 75.31167915 188.2109375 80.5390625 C188.94570313 81.12429687 189.68046875 81.70953125 190.4375 82.3125 C193.70652399 81.92353291 195.94378802 80.49677425 198.625 78.66015625 C199.40617187 78.13099609 200.18734375 77.60183594 200.9921875 77.05664062 C201.79914063 76.50169922 202.60609375 75.94675781 203.4375 75.375 C205.04024792 74.28047167 206.64436797 73.18794929 208.25 72.09765625 C209.31154297 71.36881226 209.31154297 71.36881226 210.39453125 70.62524414 C215.53779751 67.32035137 219.37154506 66.64672446 225.4375 67.3125 C230.60787968 69.10224681 233.30394088 71.87329124 236.4375 76.3125 C238.49670281 81.34905578 239.04555562 86.30120881 239.58251953 91.66333008 C239.68034729 92.58609238 239.77817505 93.50885468 239.87896729 94.45957947 C240.19946076 97.49973677 240.51011993 100.54080701 240.8203125 103.58203125 C241.04119586 105.70428688 241.26254694 107.82649389 241.48434448 109.94865417 C241.94746772 114.39412989 242.40589764 118.84005673 242.86083984 123.28637695 C243.44258204 128.96963669 244.03441929 134.65178819 244.62961006 140.33365345 C245.08783101 144.71632302 245.54141924 149.09946234 245.99355698 153.48276329 C246.21000244 155.57714354 246.42769099 157.67139573 246.6466713 159.76551247 C246.95278004 162.70105458 247.25282337 165.63715656 247.55126953 168.57348633 C247.68681747 169.85731705 247.68681747 169.85731705 247.82510376 171.16708374 C249.44680046 187.36304587 249.44680046 187.36304587 245.4375 194.3125 C241.46557059 198.50147473 237.67958645 200.44586739 231.9140625 200.671875 C225.73928131 200.59589145 221.21303676 198.36917125 215.8125 195.5625 C214.82540039 195.06951416 213.83830078 194.57652832 212.82128906 194.06860352 C210.73894848 193.0262833 208.66086773 191.97541369 206.58691406 190.91650391 C203.49366498 189.34110495 200.38692832 187.79667072 197.2734375 186.26171875 C187.42955314 181.39888716 177.64650914 176.43501013 167.96899414 171.24853516 C163.11254629 168.66342799 158.20169663 166.2129532 153.24609375 163.82421875 C151.33706652 162.89666292 149.42848083 161.96820263 147.51989746 161.03973389 C146.27239837 160.43752204 145.02203524 159.84120173 143.76867676 159.25128174 C135.92394322 155.55795058 129.46158893 152.36067787 125.4375 144.3125 C124.92450226 139.16570303 124.77121967 134.72501431 127 130 C132.5200667 123.91377262 139.02380256 119.40927271 145.875 114.9375 C146.70193359 114.39222656 147.52886719 113.84695312 148.38085938 113.28515625 C150.39696253 111.95662585 152.41582494 110.63252924 154.4375 109.3125 C149.52532931 99.01810085 138.36260499 92.02856339 129.4375 85.3125 C128.87401855 84.88291992 128.31053711 84.45333984 127.72998047 84.01074219 C95.45326021 59.51324898 53.26777372 43.47132845 12.56640625 43.07421875 C11.73504654 43.06447021 10.90368683 43.05472168 10.0471344 43.04467773 C-8.54224525 42.8716416 -26.35189894 43.15134689 -44.5625 47.3125 C-45.39749023 47.49441895 -46.23248047 47.67633789 -47.09277344 47.86376953 C-101.08114691 59.84571914 -146.52120207 93.58130851 -177.82421875 138.5625 C-179.84944724 141.75531304 -181.73163074 145.0064216 -183.5625 148.3125 C-184.00803223 149.10156738 -184.45356445 149.89063477 -184.91259766 150.70361328 C-196.86521118 172.02928123 -205.24011749 194.22570977 -209.5625 218.3125 C-209.72476074 219.21081543 -209.88702148 220.10913086 -210.05419922 221.03466797 C-219.13555733 273.67655499 -207.45556174 331.23758772 -176.94335938 375.3671875 C-158.15866487 401.83049122 -134.916043 425.468895 -106.35400391 441.31542969 C-104.59249554 442.29580583 -102.84872851 443.30784299 -101.10546875 444.3203125 C-74.42092298 459.51717431 -41.57746012 469.33926997 -10.76953125 469.515625 C-9.94938538 469.52259399 -9.1292395 469.52956299 -8.28424072 469.53674316 C-5.64777452 469.55406333 -3.01152075 469.56046419 -0.375 469.5625 C0.52388947 469.56350708 1.42277893 469.56451416 2.34890747 469.56555176 C15.60682655 469.55548624 28.42930275 469.08058233 41.4375 466.3125 C42.14664551 466.17328125 42.85579102 466.0340625 43.58642578 465.890625 C99.72715135 454.80363371 148.24257205 420.80170296 179.96191406 373.59033203 C191.97673885 355.04329112 201.07384108 334.5717517 207 313.3125 C209.15651346 305.68734875 211.21044245 299.82960489 217.5625 294.875 C223.81713163 291.47574368 230.89574451 291.19777394 237.79296875 292.890625 C243.58207386 295.35407398 246.54798117 299.88340407 249.4375 305.3125 C252.32867218 313.98601653 249.65364955 322.36813225 246.9375 330.75 C246.5765625 331.88872559 246.215625 333.02745117 245.84375 334.20068359 C240.76601401 349.88568666 234.12495447 364.74660413 226.4375 379.3125 C226.10169922 379.95751465 225.76589844 380.6025293 225.41992188 381.26708984 C216.79185195 397.7250923 205.71610152 412.41432834 193.4375 426.3125 C192.67953125 427.18132812 191.9215625 428.05015625 191.140625 428.9453125 C182.29834603 438.94774865 172.95519886 448.08436824 162.4375 456.3125 C161.41785156 457.12589844 160.39820313 457.93929688 159.34765625 458.77734375 C141.33825301 473.02412216 121.33864772 483.92293331 100.4375 493.3125 C99.49753174 493.73958252 99.49753174 493.73958252 98.53857422 494.17529297 C79.98394664 502.49323941 59.48424429 507.26240245 39.4375 510.3125 C38.31432373 510.48982666 37.19114746 510.66715332 36.03393555 510.84985352 C24.47877152 512.50122117 13.03408946 512.67029119 1.375 512.625 C0.37794037 512.62284485 -0.61911926 512.6206897 -1.64639282 512.61846924 C-16.14769977 512.5681392 -30.30920137 512.21254454 -44.5625 509.3125 C-45.56055664 509.11914062 -46.55861328 508.92578125 -47.58691406 508.7265625 C-88.04857531 500.7304794 -125.17911346 483.78913161 -157.5625 458.3125 C-158.52414063 457.56484375 -159.48578125 456.8171875 -160.4765625 456.046875 C-186.48888594 435.32909527 -207.01037104 410.04904419 -223.5625 381.3125 C-224.21992188 380.1884375 -224.87734375 379.064375 -225.5546875 377.90625 C-256.66764669 322.42772036 -264.48569237 251.51026824 -247.5625 190.3125 C-237.06432509 154.27458461 -221.06241435 120.96289327 -196.5625 92.3125 C-195.60352188 91.16850895 -194.64522649 90.02394534 -193.6875 88.87890625 C-185.33892413 78.95213954 -176.5555666 69.61519712 -166.5625 61.3125 C-166.06186035 60.89274902 -165.5612207 60.47299805 -165.04541016 60.04052734 C-149.71175325 47.24393414 -133.25287098 36.55639626 -115.5625 27.3125 C-114.86737305 26.94060547 -114.17224609 26.56871094 -113.45605469 26.18554688 C-90.51525688 14.02338478 -64.20208083 6.04156638 -38.5625 2.3125 C-37.32894775 2.13066162 -36.09539551 1.94882324 -34.82446289 1.76147461 C-23.21996591 0.16541358 -11.70022403 -0.04690021 0 0 Z " fill="#027df0" transform="translate(258.5625,-0.31250000000000006)"/>
<path d="M0 0 C5.62394695 4.07736154 10.21076702 8.81203786 11.5 15.8125 C11.58908751 18.3906909 11.62631994 20.94088318 11.61352539 23.51855469 C11.61367142 24.28967087 11.61381744 25.06078705 11.6139679 25.85527039 C11.61327249 28.3983341 11.60549749 30.94132412 11.59765625 33.484375 C11.59579075 35.24985718 11.59436747 37.01533987 11.59336853 38.78082275 C11.58955375 43.42341546 11.57973232 48.0659768 11.56866455 52.70855713 C11.5584281 57.44762752 11.55386612 62.18670299 11.54882812 66.92578125 C11.53810913 76.22136794 11.52104517 85.51693136 11.5 94.8125 C12.48342031 94.80835193 12.48342031 94.80835193 13.48670769 94.80412006 C29.47125743 94.73774156 45.45575895 94.68816186 61.44041252 94.65706348 C69.17061196 94.64162314 76.90071916 94.6205881 84.63085938 94.58618164 C91.37186152 94.5561922 98.11279683 94.53690443 104.85386384 94.53023452 C108.42013524 94.52633834 111.9862155 94.51724163 115.55242538 94.49530983 C119.54268467 94.47097135 123.53261586 94.4705361 127.52294922 94.47192383 C128.69324173 94.461138 129.86353424 94.45035217 131.06929016 94.4392395 C139.10723935 94.46939714 146.40418374 95.31939445 153.375 99.5625 C157.93730886 104.39317997 160.24302078 109.47177013 160.75 116.0625 C160.35848137 121.93527942 158.93565729 126.15597236 155.0625 130.625 C149.58025545 135.30496486 146.40741788 136.93300427 139.08088684 136.95967102 C138.09933082 136.96518605 138.09933082 136.96518605 137.09794539 136.9708125 C134.90098236 136.98184254 132.70406665 136.98569203 130.50708008 136.98950195 C128.93342946 136.99576718 127.35978033 137.00241404 125.78613281 137.00941467 C120.61394277 137.03045256 115.44175243 137.04081763 110.26953125 137.05078125 C108.48821179 137.05482908 106.70689249 137.05894601 104.92557335 137.06313133 C96.55558966 137.08218336 88.18561478 137.09641368 79.81561357 137.1047433 C70.15876361 137.11451251 60.50214306 137.14082366 50.84537393 137.18124419 C43.37858157 137.21142375 35.91185489 137.22621397 28.44500273 137.22952431 C23.98679438 137.23187295 19.52883109 137.24080884 15.07068825 137.26598549 C10.87387749 137.28930312 6.67747251 137.29348473 2.48061371 137.28322411 C0.94396552 137.28272951 -0.5927029 137.28902752 -2.12928963 137.30278015 C-18.56651075 137.44161125 -18.56651075 137.44161125 -25.00482464 131.40051746 C-30.61465095 125.15468336 -30.79792327 119.44905841 -30.79052734 111.45776367 C-30.79724457 110.41649826 -30.80396179 109.37523285 -30.81088257 108.30241394 C-30.82987306 104.86171693 -30.8337874 101.4212149 -30.8359375 97.98046875 C-30.84236493 95.58539246 -30.84909325 93.19031695 -30.85610962 90.79524231 C-30.8680852 85.77420227 -30.87179017 80.75323105 -30.87060547 75.73217773 C-30.87040232 69.30621755 -30.89769914 62.88069984 -30.93214989 56.45484447 C-30.95441555 51.50736983 -30.95844309 46.56000169 -30.95738602 41.61248207 C-30.95974267 39.24386381 -30.96856977 36.87524265 -30.98405075 34.50667381 C-31.0037021 31.18927641 -30.99787513 27.87283353 -30.98583984 24.55541992 C-30.99707886 23.58215759 -31.00831787 22.60889526 -31.01989746 21.60614014 C-30.95834862 14.91124422 -29.79141231 9.27818544 -25.05267906 4.28854656 C-17.74235747 -2.07244915 -9.20012899 -3.12147234 0 0 Z " fill="#027df0" transform="translate(252.5,163.1875)"/>
</svg>
