<svg width="16" height="16" viewBox="0 0 16 16" fill="none" xmlns="http://www.w3.org/2000/svg">
<g clip-path="url(#clip0_4456_2548)">
<path d="M0.926111 1.77693C0.9619 1.7767 0.997688 1.77648 1.03456 1.77625C1.0737 1.77616 1.11284 1.77608 1.15317 1.77599C1.19491 1.7758 1.23665 1.77559 1.2784 1.77537C1.41536 1.77471 1.55232 1.77439 1.68928 1.77408C1.73652 1.77395 1.78376 1.77382 1.831 1.77369C2.053 1.7731 2.275 1.77265 2.497 1.77239C2.75283 1.77209 3.00865 1.77126 3.26447 1.77C3.46248 1.76906 3.6605 1.7686 3.85851 1.76849C3.97665 1.76842 4.09477 1.76814 4.2129 1.76735C4.32415 1.76662 4.43538 1.76649 4.54663 1.76681C4.60655 1.76684 4.66647 1.76624 4.72639 1.76562C4.95066 1.76697 5.11755 1.79458 5.31294 1.90652C5.34839 1.92651 5.38384 1.94649 5.42036 1.96707C5.70296 2.18242 5.89812 2.54496 6.09466 2.83591C6.22741 3.03166 6.3665 3.2217 6.51001 3.40968C6.62281 3.55751 6.62281 3.55751 6.65669 3.62527C6.70312 3.62534 6.70312 3.62534 6.7505 3.62541C7.50428 3.62656 8.25807 3.62842 9.01185 3.63102C9.37638 3.63226 9.74091 3.63328 10.1054 3.63374C10.4232 3.63415 10.741 3.63499 11.0588 3.63636C11.227 3.63706 11.3952 3.63755 11.5634 3.63752C11.7219 3.6375 11.8803 3.63806 12.0388 3.63906C12.0968 3.63933 12.1548 3.63938 12.2128 3.63921C12.6067 3.63817 12.9271 3.65531 13.2269 3.94058C13.5279 4.26844 13.5095 4.65786 13.5065 5.07864C13.5064 5.12794 13.5063 5.17724 13.5063 5.22654C13.506 5.35528 13.5054 5.48402 13.5047 5.61276C13.5041 5.74454 13.5038 5.87631 13.5035 6.00809C13.5028 6.2659 13.5018 6.52371 13.5004 6.78152C13.54 6.78087 13.5795 6.78022 13.6202 6.77954C13.7687 6.77726 13.9171 6.77584 14.0656 6.77466C14.1295 6.77403 14.1934 6.77319 14.2573 6.77209C14.7443 6.764 15.1672 6.77291 15.5629 7.09402C15.5825 7.10969 15.602 7.12536 15.6221 7.14151C15.8438 7.34001 15.9868 7.63126 16.009 7.92691C16.0102 7.97154 16.0113 8.01618 16.0122 8.06082C16.0139 8.09288 16.0139 8.09288 16.0157 8.12558C16.0216 8.4883 15.8077 8.83697 15.6483 9.15218C15.6291 9.19047 15.61 9.22877 15.5908 9.26708C15.5499 9.34879 15.5089 9.43044 15.4678 9.51204C15.4024 9.64187 15.3372 9.77183 15.2721 9.90181C15.1688 10.1081 15.0652 10.3143 14.9616 10.5204C14.7769 10.8878 14.5925 11.2554 14.4082 11.623C14.3439 11.7514 14.2794 11.8797 14.2149 12.008C14.0103 12.415 13.8071 12.8226 13.6123 13.2345C13.5272 13.4144 13.4391 13.5927 13.3481 13.7698C13.3374 13.791 13.3267 13.8121 13.3156 13.8339C13.2272 14.0014 13.1459 14.1277 12.9623 14.1915C12.7574 14.2384 12.5458 14.2276 12.3367 14.227C12.288 14.227 12.2394 14.2271 12.1907 14.2273C12.0572 14.2275 11.9238 14.2274 11.7903 14.2272C11.6462 14.2271 11.5022 14.2273 11.3581 14.2274C11.076 14.2277 10.7939 14.2277 10.5117 14.2275C10.2824 14.2273 10.0531 14.2273 9.8237 14.2274C9.77473 14.2274 9.77473 14.2274 9.72476 14.2274C9.65843 14.2274 9.5921 14.2275 9.52577 14.2275C8.90377 14.2277 8.28177 14.2275 7.65977 14.2271C7.12634 14.2268 6.59291 14.2269 6.05948 14.2272C5.43984 14.2275 4.82021 14.2276 4.20057 14.2274C4.13445 14.2274 4.06833 14.2274 4.00222 14.2274C3.96969 14.2274 3.93716 14.2274 3.90365 14.2274C3.67469 14.2273 3.44573 14.2274 3.21677 14.2275C2.93758 14.2277 2.65839 14.2277 2.3792 14.2273C2.23681 14.2272 2.09443 14.2271 1.95205 14.2273C1.82156 14.2275 1.69109 14.2274 1.5606 14.2271C1.51354 14.227 1.46648 14.227 1.41941 14.2272C0.997154 14.2284 0.570344 14.218 0.250439 13.9065C0.0906106 13.6981 -0.00724323 13.5126 -0.00760068 13.2447C-0.00780221 13.2064 -0.00800376 13.1681 -0.00821139 13.1286C-0.00811946 13.0864 -0.00802145 13.0441 -0.00791808 13.0019C-0.00803488 12.9568 -0.00817871 12.9117 -0.00834717 12.8667C-0.00872932 12.7429 -0.00872122 12.6192 -0.00864752 12.4954C-0.00863476 12.3619 -0.00897974 12.2284 -0.00927611 12.0949C-0.00979518 11.8334 -0.00996701 11.5719 -0.0100019 11.3104C-0.0100316 11.0978 -0.01016 10.8853 -0.0103582 10.6727C-0.0109086 10.07 -0.0111969 9.46725 -0.01115 8.86453C-0.0111475 8.83204 -0.011145 8.79955 -0.0111424 8.76608C-0.0111399 8.73355 -0.0111373 8.70101 -0.0111347 8.6675C-0.0111093 8.14027 -0.0117074 7.61305 -0.0125886 7.08583C-0.0134863 6.54444 -0.013918 6.00305 -0.013864 5.46166C-0.0138432 5.15773 -0.014015 4.85379 -0.0146876 4.54986C-0.0152566 4.29109 -0.0153927 4.03233 -0.0149683 3.77356C-0.0147642 3.64156 -0.0147607 3.50957 -0.0153029 3.37757C-0.0157944 3.25665 -0.015705 3.13573 -0.0151601 3.01481C-0.0150642 2.97115 -0.0151777 2.92749 -0.0155264 2.88384C-0.0181452 2.53256 0.0403527 2.28564 0.281689 2.02505C0.472545 1.85396 0.672774 1.77801 0.926111 1.77693ZM0.937939 2.75027C0.937939 5.64809 0.937939 8.5459 0.937939 11.5315C1.01687 11.4263 1.06683 11.3401 1.12117 11.2222C1.14693 11.1666 1.14693 11.1666 1.17321 11.1099C1.1918 11.0695 1.21038 11.029 1.22895 10.9886C1.2485 10.9463 1.26805 10.9041 1.28762 10.8618C1.32823 10.7742 1.36876 10.6865 1.40924 10.5988C1.49147 10.4207 1.57439 10.2429 1.65738 10.0652C1.68429 10.0075 1.71119 9.94987 1.73808 9.89221C1.83538 9.68368 1.93303 9.47531 2.03108 9.26712C2.04157 9.24484 2.05206 9.22256 2.06287 9.19961C2.11584 9.08715 2.16886 8.97472 2.2219 8.8623C2.32293 8.64807 2.42331 8.43359 2.52205 8.21829C2.54037 8.17842 2.5587 8.13855 2.57703 8.09868C2.61071 8.02539 2.64414 7.95201 2.67745 7.87856C2.89445 7.40588 3.09578 7.07427 3.59419 6.87527C3.8004 6.81234 3.98924 6.80368 4.20406 6.80407C4.23975 6.80389 4.27544 6.80371 4.31221 6.80352C4.4315 6.80299 4.55077 6.8029 4.67006 6.80281C4.75568 6.80255 4.84131 6.80221 4.92694 6.80186C5.11113 6.80116 5.29532 6.80069 5.47951 6.80038C5.74582 6.79992 6.01213 6.79912 6.27843 6.79824C6.71054 6.79682 7.14264 6.79568 7.57475 6.79471C7.99441 6.79376 8.41406 6.79269 8.83372 6.79144C8.87255 6.79133 8.87255 6.79133 8.91216 6.79121C9.04201 6.79082 9.17187 6.79043 9.30173 6.79004C10.3784 6.78681 11.455 6.78407 12.5317 6.78152C12.5317 6.06996 12.5317 5.3584 12.5317 4.62527C12.4367 4.57779 12.3382 4.5899 12.234 4.59034C12.1972 4.59031 12.1972 4.59031 12.1597 4.59028C12.0769 4.59023 11.9942 4.59041 11.9115 4.59058C11.8524 4.59059 11.7933 4.59058 11.7341 4.59056C11.6065 4.59052 11.4789 4.59057 11.3513 4.59066C11.1493 4.59078 10.9473 4.59049 10.7453 4.59011C10.7112 4.59005 10.6771 4.58998 10.642 4.58992C10.5723 4.58979 10.5026 4.58966 10.4329 4.58952C9.96249 4.58864 9.49211 4.58801 9.02173 4.58855C8.70463 4.58892 8.38754 4.58861 8.07044 4.58755C7.90268 4.58702 7.73494 4.58682 7.56718 4.58743C7.40912 4.588 7.25108 4.5877 7.09302 4.58674C7.03523 4.58654 6.97743 4.58666 6.91964 4.58712C6.56017 4.58982 6.2552 4.57171 5.97035 4.32137C5.91087 4.25994 5.86277 4.19485 5.81294 4.12527C5.79365 4.0985 5.79365 4.0985 5.77397 4.07118C5.69507 3.96134 5.61724 3.85078 5.53999 3.73978C5.42019 3.56792 5.29706 3.39852 5.17358 3.22929C5.07285 3.09064 4.97702 2.94985 4.88458 2.80551C4.84752 2.74597 4.84752 2.74597 4.78169 2.71902C4.73154 2.71606 4.68128 2.71508 4.63104 2.71506C4.59923 2.71497 4.56742 2.71488 4.53464 2.71479C4.49961 2.71485 4.46457 2.71492 4.42848 2.71498C4.39169 2.71493 4.3549 2.71487 4.317 2.71482C4.21595 2.7147 4.11491 2.71473 4.01387 2.71483C3.90825 2.71491 3.80264 2.71483 3.69702 2.71478C3.51964 2.71473 3.34226 2.7148 3.16488 2.71495C2.95964 2.71512 2.75441 2.71507 2.54917 2.71489C2.37313 2.71475 2.19709 2.71473 2.02106 2.71481C1.91584 2.71486 1.81063 2.71487 1.70541 2.71477C1.58816 2.71469 1.4709 2.71481 1.35365 2.71498C1.31861 2.71492 1.28358 2.71485 1.24748 2.71479C1.19977 2.71492 1.19977 2.71492 1.15109 2.71506C1.12334 2.71507 1.09559 2.71508 1.06701 2.71509C0.998754 2.71474 0.998754 2.71474 0.937939 2.75027ZM3.75044 7.87527C3.70114 7.94871 3.6621 8.01541 3.62349 8.09402C3.61181 8.11693 3.60013 8.13983 3.58809 8.16343C3.43343 8.47091 3.29158 8.78477 3.1479 9.09748C3.04828 9.31397 2.94662 9.52949 2.84491 9.74502C2.6473 10.1638 2.45139 10.5833 2.25666 11.0034C2.15268 11.2278 2.04833 11.452 1.9438 11.6761C1.93496 11.695 1.92612 11.714 1.91702 11.7335C1.80537 11.9729 1.69315 12.212 1.58039 12.4508C1.56303 12.4877 1.56303 12.4877 1.54531 12.5252C1.48853 12.6456 1.43168 12.7659 1.37473 12.8862C1.35421 12.9296 1.3337 12.9731 1.31318 13.0165C1.29886 13.0467 1.29886 13.0467 1.28425 13.0774C1.23858 13.1604 1.23858 13.1604 1.21919 13.2503C4.942 13.2503 8.66481 13.2503 12.5004 13.2503C12.7445 12.7883 12.7445 12.7883 12.9818 12.323C13.0028 12.2811 13.0028 12.2811 13.0242 12.2383C13.0533 12.1801 13.0823 12.1219 13.1114 12.0638C13.1545 11.9773 13.1978 11.8909 13.2411 11.8045C13.3682 11.5504 13.4942 11.2959 13.6156 11.0391C13.7714 10.7097 13.9334 10.3839 14.098 10.0589C14.1375 9.98074 14.177 9.90256 14.2165 9.82438C14.2432 9.7716 14.2699 9.71882 14.2965 9.66605C14.3098 9.63969 14.3232 9.61333 14.3369 9.58617C14.4055 9.45051 14.4742 9.31494 14.5432 9.1795C14.6111 9.04635 14.6785 8.91299 14.7456 8.77947C14.771 8.72916 14.7966 8.67893 14.8223 8.62877C14.858 8.55912 14.8931 8.48921 14.9281 8.41922C14.9387 8.39893 14.9493 8.37864 14.9601 8.35773C15.0266 8.22311 15.0464 8.11837 15.0317 7.96902C14.9632 7.85888 14.9016 7.7976 14.7817 7.75027C14.6946 7.74085 14.6946 7.74085 14.5975 7.74224C14.5596 7.74203 14.5217 7.74183 14.4826 7.74162C14.4405 7.74172 14.3984 7.74181 14.3562 7.74192C14.3115 7.7418 14.2668 7.74166 14.2221 7.74149C14.0991 7.74111 13.9762 7.74111 13.8532 7.74119C13.7206 7.7412 13.588 7.74086 13.4554 7.74056C13.1956 7.74004 12.9358 7.73987 12.676 7.73983C12.4648 7.7398 12.2537 7.73968 12.0425 7.73948C11.4442 7.73893 10.8458 7.73864 10.2474 7.73869C10.2151 7.73869 10.1829 7.73869 10.1496 7.73869C10.1173 7.7387 10.085 7.7387 10.0517 7.7387C9.52795 7.73873 9.00419 7.73813 8.48044 7.73725C7.9429 7.73635 7.40536 7.73592 6.86782 7.73597C6.56593 7.73599 6.26405 7.73582 5.96216 7.73515C5.70515 7.73458 5.44814 7.73444 5.19113 7.73487C5.05996 7.73507 4.92881 7.73507 4.79765 7.73453C4.67759 7.73404 4.55755 7.73413 4.43749 7.73468C4.39405 7.73477 4.3506 7.73466 4.30716 7.73431C4.00151 7.72552 4.00151 7.72552 3.75044 7.87527Z" fill="#555555"/>
<path d="M0.926111 1.77693C0.9619 1.7767 0.997688 1.77648 1.03456 1.77625C1.0737 1.77616 1.11284 1.77608 1.15317 1.77599C1.19491 1.7758 1.23665 1.77559 1.2784 1.77537C1.41536 1.77471 1.55232 1.77439 1.68928 1.77408C1.73652 1.77395 1.78376 1.77382 1.831 1.77369C2.053 1.7731 2.275 1.77265 2.497 1.77239C2.75283 1.77209 3.00865 1.77126 3.26447 1.77C3.46248 1.76906 3.6605 1.7686 3.85851 1.76849C3.97665 1.76842 4.09477 1.76814 4.2129 1.76735C4.32415 1.76662 4.43538 1.76649 4.54663 1.76681C4.60655 1.76684 4.66647 1.76624 4.72639 1.76562C4.95066 1.76697 5.11755 1.79458 5.31294 1.90652C5.34839 1.92651 5.38384 1.94649 5.42036 1.96707C5.70296 2.18242 5.89812 2.54496 6.09466 2.83591C6.22741 3.03166 6.3665 3.2217 6.51001 3.40968C6.62281 3.55751 6.62281 3.55751 6.65669 3.62527C6.70312 3.62534 6.70312 3.62534 6.7505 3.62541C7.50428 3.62656 8.25807 3.62842 9.01185 3.63102C9.37638 3.63226 9.74091 3.63328 10.1054 3.63374C10.4232 3.63415 10.741 3.63499 11.0588 3.63636C11.227 3.63706 11.3952 3.63755 11.5634 3.63752C11.7219 3.6375 11.8803 3.63806 12.0388 3.63906C12.0968 3.63933 12.1548 3.63938 12.2128 3.63921C12.6067 3.63817 12.9271 3.65531 13.2269 3.94058C13.5279 4.26844 13.5095 4.65786 13.5065 5.07864C13.5064 5.12794 13.5063 5.17724 13.5063 5.22654C13.506 5.35528 13.5054 5.48402 13.5047 5.61276C13.5041 5.74454 13.5038 5.87631 13.5035 6.00809C13.5028 6.2659 13.5018 6.52371 13.5004 6.78152C13.54 6.78087 13.5795 6.78022 13.6202 6.77954C13.7687 6.77726 13.9171 6.77584 14.0656 6.77466C14.1295 6.77403 14.1934 6.77319 14.2573 6.77209C14.7443 6.764 15.1672 6.77291 15.5629 7.09402C15.5825 7.10969 15.602 7.12536 15.6221 7.14151C15.8438 7.34001 15.9868 7.63126 16.009 7.92691C16.0102 7.97154 16.0113 8.01618 16.0122 8.06082C16.0139 8.09288 16.0139 8.09288 16.0157 8.12558C16.0216 8.4883 15.8077 8.83697 15.6483 9.15218C15.6291 9.19047 15.61 9.22877 15.5908 9.26708C15.5499 9.34879 15.5089 9.43044 15.4678 9.51204C15.4024 9.64187 15.3372 9.77183 15.2721 9.90181C15.1688 10.1081 15.0652 10.3143 14.9616 10.5204C14.7769 10.8878 14.5925 11.2554 14.4082 11.623C14.3439 11.7514 14.2794 11.8797 14.2149 12.008C14.0103 12.415 13.8071 12.8226 13.6123 13.2345C13.5272 13.4144 13.4391 13.5927 13.3481 13.7698C13.3374 13.791 13.3267 13.8121 13.3156 13.8339C13.2272 14.0014 13.1459 14.1277 12.9623 14.1915C12.7574 14.2384 12.5458 14.2276 12.3367 14.227C12.288 14.227 12.2394 14.2271 12.1907 14.2273C12.0572 14.2275 11.9238 14.2274 11.7903 14.2272C11.6462 14.2271 11.5022 14.2273 11.3581 14.2274C11.076 14.2277 10.7939 14.2277 10.5117 14.2275C10.2824 14.2273 10.0531 14.2273 9.8237 14.2274C9.77473 14.2274 9.77473 14.2274 9.72476 14.2274C9.65843 14.2274 9.5921 14.2275 9.52577 14.2275C8.90377 14.2277 8.28177 14.2275 7.65977 14.2271C7.12634 14.2268 6.59291 14.2269 6.05948 14.2272C5.43984 14.2275 4.82021 14.2276 4.20057 14.2274C4.13445 14.2274 4.06833 14.2274 4.00222 14.2274C3.96969 14.2274 3.93716 14.2274 3.90365 14.2274C3.67469 14.2273 3.44573 14.2274 3.21677 14.2275C2.93758 14.2277 2.65839 14.2277 2.3792 14.2273C2.23681 14.2272 2.09443 14.2271 1.95205 14.2273C1.82156 14.2275 1.69109 14.2274 1.5606 14.2271C1.51354 14.227 1.46648 14.227 1.41941 14.2272C0.997154 14.2284 0.570344 14.218 0.250439 13.9065C0.0906106 13.6981 -0.00724323 13.5126 -0.00760068 13.2447C-0.00780221 13.2064 -0.00800376 13.1681 -0.00821139 13.1286C-0.00811946 13.0864 -0.00802145 13.0441 -0.00791808 13.0019C-0.00803488 12.9568 -0.00817871 12.9117 -0.00834717 12.8667C-0.00872932 12.7429 -0.00872122 12.6192 -0.00864752 12.4954C-0.00863476 12.3619 -0.00897974 12.2284 -0.00927611 12.0949C-0.00979518 11.8334 -0.00996701 11.5719 -0.0100019 11.3104C-0.0100316 11.0978 -0.01016 10.8853 -0.0103582 10.6727C-0.0109086 10.07 -0.0111969 9.46725 -0.01115 8.86453C-0.0111475 8.83204 -0.011145 8.79955 -0.0111424 8.76608C-0.0111399 8.73355 -0.0111373 8.70101 -0.0111347 8.6675C-0.0111093 8.14027 -0.0117074 7.61305 -0.0125886 7.08583C-0.0134863 6.54444 -0.013918 6.00305 -0.013864 5.46166C-0.0138432 5.15773 -0.014015 4.85379 -0.0146876 4.54986C-0.0152566 4.29109 -0.0153927 4.03233 -0.0149683 3.77356C-0.0147642 3.64156 -0.0147607 3.50957 -0.0153029 3.37757C-0.0157944 3.25665 -0.015705 3.13573 -0.0151601 3.01481C-0.0150642 2.97115 -0.0151777 2.92749 -0.0155264 2.88384C-0.0181452 2.53256 0.0403527 2.28564 0.281689 2.02505C0.472545 1.85396 0.672774 1.77801 0.926111 1.77693ZM0.937939 2.75027C0.937939 5.64809 0.937939 8.5459 0.937939 11.5315C1.01687 11.4263 1.06683 11.3401 1.12117 11.2222C1.14693 11.1666 1.14693 11.1666 1.17321 11.1099C1.1918 11.0695 1.21038 11.029 1.22895 10.9886C1.2485 10.9463 1.26805 10.9041 1.28762 10.8618C1.32823 10.7742 1.36876 10.6865 1.40924 10.5988C1.49147 10.4207 1.57439 10.2429 1.65738 10.0652C1.68429 10.0075 1.71119 9.94987 1.73808 9.89221C1.83538 9.68368 1.93303 9.47531 2.03108 9.26712C2.04157 9.24484 2.05206 9.22256 2.06287 9.19961C2.11584 9.08715 2.16886 8.97472 2.2219 8.8623C2.32293 8.64807 2.42331 8.43359 2.52205 8.21829C2.54037 8.17842 2.5587 8.13855 2.57703 8.09868C2.61071 8.02539 2.64414 7.95201 2.67745 7.87856C2.89445 7.40588 3.09578 7.07427 3.59419 6.87527C3.8004 6.81234 3.98924 6.80368 4.20406 6.80407C4.23975 6.80389 4.27544 6.80371 4.31221 6.80352C4.4315 6.80299 4.55077 6.8029 4.67006 6.80281C4.75568 6.80255 4.84131 6.80221 4.92694 6.80186C5.11113 6.80116 5.29532 6.80069 5.47951 6.80038C5.74582 6.79992 6.01213 6.79912 6.27843 6.79824C6.71054 6.79682 7.14264 6.79568 7.57475 6.79471C7.99441 6.79376 8.41406 6.79269 8.83372 6.79144C8.87255 6.79133 8.87255 6.79133 8.91216 6.79121C9.04201 6.79082 9.17187 6.79043 9.30173 6.79004C10.3784 6.78681 11.455 6.78407 12.5317 6.78152C12.5317 6.06996 12.5317 5.3584 12.5317 4.62527C12.4367 4.57779 12.3382 4.5899 12.234 4.59034C12.1972 4.59031 12.1972 4.59031 12.1597 4.59028C12.0769 4.59023 11.9942 4.59041 11.9115 4.59058C11.8524 4.59059 11.7933 4.59058 11.7341 4.59056C11.6065 4.59052 11.4789 4.59057 11.3513 4.59066C11.1493 4.59078 10.9473 4.59049 10.7453 4.59011C10.7112 4.59005 10.6771 4.58998 10.642 4.58992C10.5723 4.58979 10.5026 4.58966 10.4329 4.58952C9.96249 4.58864 9.49211 4.58801 9.02173 4.58855C8.70463 4.58892 8.38754 4.58861 8.07044 4.58755C7.90268 4.58702 7.73494 4.58682 7.56718 4.58743C7.40912 4.588 7.25108 4.5877 7.09302 4.58674C7.03523 4.58654 6.97743 4.58666 6.91964 4.58712C6.56017 4.58982 6.2552 4.57171 5.97035 4.32137C5.91087 4.25994 5.86277 4.19485 5.81294 4.12527C5.79365 4.0985 5.79365 4.0985 5.77397 4.07118C5.69507 3.96134 5.61724 3.85078 5.53999 3.73978C5.42019 3.56792 5.29706 3.39852 5.17358 3.22929C5.07285 3.09064 4.97702 2.94985 4.88458 2.80551C4.84752 2.74597 4.84752 2.74597 4.78169 2.71902C4.73154 2.71606 4.68128 2.71508 4.63104 2.71506C4.59923 2.71497 4.56742 2.71488 4.53464 2.71479C4.49961 2.71485 4.46457 2.71492 4.42848 2.71498C4.39169 2.71493 4.3549 2.71487 4.317 2.71482C4.21595 2.7147 4.11491 2.71473 4.01387 2.71483C3.90825 2.71491 3.80264 2.71483 3.69702 2.71478C3.51964 2.71473 3.34226 2.7148 3.16488 2.71495C2.95964 2.71512 2.75441 2.71507 2.54917 2.71489C2.37313 2.71475 2.19709 2.71473 2.02106 2.71481C1.91584 2.71486 1.81063 2.71487 1.70541 2.71477C1.58816 2.71469 1.4709 2.71481 1.35365 2.71498C1.31861 2.71492 1.28358 2.71485 1.24748 2.71479C1.19977 2.71492 1.19977 2.71492 1.15109 2.71506C1.12334 2.71507 1.09559 2.71508 1.06701 2.71509C0.998754 2.71474 0.998754 2.71474 0.937939 2.75027ZM3.75044 7.87527C3.70114 7.94871 3.6621 8.01541 3.62349 8.09402C3.61181 8.11693 3.60013 8.13983 3.58809 8.16343C3.43343 8.47091 3.29158 8.78477 3.1479 9.09748C3.04828 9.31397 2.94662 9.52949 2.84491 9.74502C2.6473 10.1638 2.45139 10.5833 2.25666 11.0034C2.15268 11.2278 2.04833 11.452 1.9438 11.6761C1.93496 11.695 1.92612 11.714 1.91702 11.7335C1.80537 11.9729 1.69315 12.212 1.58039 12.4508C1.56303 12.4877 1.56303 12.4877 1.54531 12.5252C1.48853 12.6456 1.43168 12.7659 1.37473 12.8862C1.35421 12.9296 1.3337 12.9731 1.31318 13.0165C1.29886 13.0467 1.29886 13.0467 1.28425 13.0774C1.23858 13.1604 1.23858 13.1604 1.21919 13.2503C4.942 13.2503 8.66481 13.2503 12.5004 13.2503C12.7445 12.7883 12.7445 12.7883 12.9818 12.323C13.0028 12.2811 13.0028 12.2811 13.0242 12.2383C13.0533 12.1801 13.0823 12.1219 13.1114 12.0638C13.1545 11.9773 13.1978 11.8909 13.2411 11.8045C13.3682 11.5504 13.4942 11.2959 13.6156 11.0391C13.7714 10.7097 13.9334 10.3839 14.098 10.0589C14.1375 9.98074 14.177 9.90256 14.2165 9.82438C14.2432 9.7716 14.2699 9.71882 14.2965 9.66605C14.3098 9.63969 14.3232 9.61333 14.3369 9.58617C14.4055 9.45051 14.4742 9.31494 14.5432 9.1795C14.6111 9.04635 14.6785 8.91299 14.7456 8.77947C14.771 8.72916 14.7966 8.67893 14.8223 8.62877C14.858 8.55912 14.8931 8.48921 14.9281 8.41922C14.9387 8.39893 14.9493 8.37864 14.9601 8.35773C15.0266 8.22311 15.0464 8.11837 15.0317 7.96902C14.9632 7.85888 14.9016 7.7976 14.7817 7.75027C14.6946 7.74085 14.6946 7.74085 14.5975 7.74224C14.5596 7.74203 14.5217 7.74183 14.4826 7.74162C14.4405 7.74172 14.3984 7.74181 14.3562 7.74192C14.3115 7.7418 14.2668 7.74166 14.2221 7.74149C14.0991 7.74111 13.9762 7.74111 13.8532 7.74119C13.7206 7.7412 13.588 7.74086 13.4554 7.74056C13.1956 7.74004 12.9358 7.73987 12.676 7.73983C12.4648 7.7398 12.2537 7.73968 12.0425 7.73948C11.4442 7.73893 10.8458 7.73864 10.2474 7.73869C10.2151 7.73869 10.1829 7.73869 10.1496 7.73869C10.1173 7.7387 10.085 7.7387 10.0517 7.7387C9.52795 7.73873 9.00419 7.73813 8.48044 7.73725C7.9429 7.73635 7.40536 7.73592 6.86782 7.73597C6.56593 7.73599 6.26405 7.73582 5.96216 7.73515C5.70515 7.73458 5.44814 7.73444 5.19113 7.73487C5.05996 7.73507 4.92881 7.73507 4.79765 7.73453C4.67759 7.73404 4.55755 7.73413 4.43749 7.73468C4.39405 7.73477 4.3506 7.73466 4.30716 7.73431C4.00151 7.72552 4.00151 7.72552 3.75044 7.87527Z" fill="#555555"/>
</g>
<defs>
<clipPath id="clip0_4456_2548">
<rect width="16" height="16" fill="white"/>
</clipPath>
</defs>
</svg>
