<svg width="16" height="15" viewBox="0 0 16 15" fill="none" xmlns="http://www.w3.org/2000/svg">
<path d="M7.91667 4.16667C10 4.16667 11.6667 5.83333 11.6667 7.91667C11.6667 10 10 11.6667 7.91667 11.6667C5.83333 11.6667 4.16667 10 4.16667 7.91667C4.16667 5.83333 5.83333 4.16667 7.91667 4.16667ZM7.91667 5C7.14312 5 6.40125 5.30729 5.85427 5.85427C5.30729 6.40125 5 7.14312 5 7.91667C5 8.69022 5.30729 9.43208 5.85427 9.97906C6.40125 10.526 7.14312 10.8333 7.91667 10.8333C8.69021 10.8333 9.43208 10.526 9.97906 9.97906C10.526 9.43208 10.8333 8.69022 10.8333 7.91667C10.8333 7.14312 10.526 6.40125 9.97906 5.85427C9.43208 5.30729 8.69021 5 7.91667 5ZM2.5 1.66667H4.16667L5.83333 0H10L11.6667 1.66667H13.3333C13.9964 1.66667 14.6323 1.93006 15.1011 2.3989C15.5699 2.86774 15.8333 3.50363 15.8333 4.16667V11.6667C15.8333 12.3297 15.5699 12.9656 15.1011 13.4344C14.6323 13.9033 13.9964 14.1667 13.3333 14.1667H2.5C1.83696 14.1667 1.20107 13.9033 0.732233 13.4344C0.263392 12.9656 0 12.3297 0 11.6667V4.16667C0 3.50363 0.263392 2.86774 0.732233 2.3989C1.20107 1.93006 1.83696 1.66667 2.5 1.66667ZM6.175 0.833333L4.50833 2.5H2.5C2.05797 2.5 1.63405 2.67559 1.32149 2.98816C1.00893 3.30072 0.833333 3.72464 0.833333 4.16667V11.6667C0.833333 12.1087 1.00893 12.5326 1.32149 12.8452C1.63405 13.1577 2.05797 13.3333 2.5 13.3333H13.3333C13.7754 13.3333 14.1993 13.1577 14.5118 12.8452C14.8244 12.5326 15 12.1087 15 11.6667V4.16667C15 3.72464 14.8244 3.30072 14.5118 2.98816C14.1993 2.67559 13.7754 2.5 13.3333 2.5H11.325L9.65833 0.833333H6.175Z" fill="#333333"/>
</svg>
