<svg width="16" height="12" viewBox="0 0 16 12" fill="none" xmlns="http://www.w3.org/2000/svg">
<path d="M8 12C2.66971 12 0.164571 6.49778 0.0548571 6.26667C0.0186442 6.18217 0 6.09154 0 6C0 5.90846 0.0186442 5.81783 0.0548571 5.73333C0.164571 5.50222 2.66971 0 8 0C13.3303 0 15.8354 5.50222 15.9451 5.73333C15.9814 5.81783 16 5.90846 16 6C16 6.09154 15.9814 6.18217 15.9451 6.26667C15.8354 6.49778 13.3303 12 8 12ZM1.44457 6C1.984 7.02222 4.18743 10.6667 8 10.6667C11.8126 10.6667 14.016 7.02222 14.5554 6C14.016 4.97778 11.8126 1.33333 8 1.33333C4.18743 1.33333 1.984 4.97778 1.44457 6Z" fill="#333333"/>
<path d="M8.00268 8.88911C7.41499 8.88911 6.84049 8.71968 6.35184 8.40224C5.86319 8.08481 5.48234 7.63362 5.25744 7.10575C5.03254 6.57787 4.97369 5.99701 5.08835 5.43662C5.203 4.87623 5.486 4.36148 5.90156 3.95747C6.31713 3.55345 6.84658 3.27831 7.42298 3.16684C7.99938 3.05537 8.59684 3.11258 9.1398 3.33123C9.68275 3.54989 10.1468 3.92016 10.4733 4.39524C10.7998 4.87031 10.9741 5.42885 10.9741 6.00022C10.9717 6.76568 10.6579 7.49912 10.1011 8.04038C9.5444 8.58165 8.79001 8.88676 8.00268 8.88911ZM8.00268 4.44466C7.68623 4.44466 7.37689 4.5359 7.11377 4.70682C6.85065 4.87775 6.64557 5.12069 6.52447 5.40493C6.40337 5.68917 6.37169 6.00194 6.43342 6.30369C6.49516 6.60544 6.64755 6.88261 6.87131 7.10016C7.09507 7.31771 7.38017 7.46586 7.69054 7.52588C8.00091 7.58591 8.32261 7.5551 8.61497 7.43736C8.90734 7.31963 9.15722 7.12025 9.33303 6.86444C9.50884 6.60863 9.60268 6.30788 9.60268 6.00022C9.60028 5.58838 9.43094 5.19407 9.1314 4.90285C8.83186 4.61163 8.42629 4.447 8.00268 4.44466Z" fill="#333333"/>
</svg>
