<svg width="200" height="125" viewBox="0 0 200 125" fill="none" xmlns="http://www.w3.org/2000/svg">
<rect opacity="0.9" x="0.545866" y="0.410888" width="171.045" height="103.045" rx="13.8409" transform="matrix(0.99184 -0.127492 0.151878 0.988399 -0.0579504 22.004)" fill="#F3E8FF" stroke="#DBEAFE" stroke-width="0.954546"/>
<rect x="13.4128" y="9.51634" width="186.11" height="113.982" rx="13.8409" fill="white"/>
<rect x="13.4128" y="9.51634" width="186.11" height="113.982" rx="13.8409" fill="url(#paint0_radial_4656_3462)" fill-opacity="0.2"/>
<rect x="13.4128" y="9.51634" width="186.11" height="113.982" rx="13.8409" fill="url(#paint1_radial_4656_3462)" fill-opacity="0.2"/>
<rect x="13.4128" y="9.51634" width="186.11" height="113.982" rx="13.8409" stroke="#DBEAFE" stroke-width="0.954546"/>
<path d="M117.499 73.4989L112.436 68.4355" stroke="#AB47FF" stroke-width="1.75423" stroke-linecap="round" stroke-linejoin="round"/>
<path d="M105.833 71.1667C110.988 71.1667 115.167 66.988 115.167 61.8333C115.167 56.6787 110.988 52.5 105.833 52.5C100.679 52.5 96.5 56.6787 96.5 61.8333C96.5 66.988 100.679 71.1667 105.833 71.1667Z" stroke="#AB47FF" stroke-width="1.75423" stroke-linecap="round" stroke-linejoin="round"/>
<rect x="26.5" y="18.5" width="115" height="23" rx="11.5" fill="white" stroke="#DBEAFE"/>
<path d="M38.5957 34V26.9297H43.2539V28.1406H40.0605V29.8594H42.9512V31.0703H40.0605V34H38.5957ZM43.5789 32.5156C43.5789 31.334 44.5359 30.9434 45.5516 30.8848C45.9324 30.8604 46.6453 30.8262 46.8699 30.8164V30.3867C46.8602 29.9473 46.5574 29.6836 46.0203 29.6836C45.532 29.6836 45.2195 29.9082 45.1414 30.2695H43.7645C43.8523 29.3516 44.6531 28.6289 46.0594 28.6289C47.2117 28.6289 48.3055 29.1465 48.3055 30.4258V34H46.9383V33.2676H46.8992C46.6355 33.7559 46.1375 34.0977 45.3465 34.0977C44.3309 34.0977 43.5789 33.5703 43.5789 32.5156ZM44.9656 32.4766C44.9656 32.8867 45.2977 33.1016 45.7566 33.1016C46.4109 33.1016 46.8797 32.6621 46.8699 32.1055V31.7148C46.6502 31.7246 46.035 31.7588 45.7859 31.7832C45.2879 31.832 44.9656 32.0664 44.9656 32.4766ZM49.109 34V28.6973H50.5543V34H49.109ZM49.8316 28.0039C49.3922 28.0039 49.0406 27.6719 49.0406 27.2715C49.0406 26.8613 49.3922 26.5293 49.8316 26.5293C50.2613 26.5293 50.6129 26.8613 50.6129 27.2715C50.6129 27.6719 50.2613 28.0039 49.8316 28.0039ZM52.8227 26.9297V34H51.3773V26.9297H52.8227ZM53.675 34V26.9297H55.1398V32.7891H58.1867V34H53.675ZM61.1875 34.1074C59.5859 34.1074 58.5898 33.0039 58.5898 31.3633C58.5898 29.7227 59.5859 28.6289 61.1875 28.6289C62.7891 28.6289 63.7949 29.7227 63.7949 31.3633C63.7949 33.0039 62.7891 34.1074 61.1875 34.1074ZM61.1973 32.9844C61.9395 32.9844 62.3203 32.291 62.3203 31.3633C62.3203 30.4258 61.9395 29.7324 61.1973 29.7324C60.4453 29.7324 60.0547 30.4258 60.0547 31.3633C60.0547 32.291 60.4453 32.9844 61.1973 32.9844ZM66.7859 36.0996C65.3211 36.0996 64.4227 35.4453 64.3348 34.4395H65.7605C65.8387 34.8594 66.2391 35.0547 66.8152 35.0547C67.4891 35.0547 67.9383 34.7715 67.9383 34.0293V33.0625H67.8699C67.6746 33.4922 67.2059 33.9219 66.3563 33.9219C65.1551 33.9219 64.198 33.082 64.198 31.3145C64.198 29.5176 65.1844 28.6289 66.3563 28.6289C67.2449 28.6289 67.6746 29.1562 67.8699 29.5859H67.9285V28.6973H69.3641V34.0586C69.3641 35.4062 68.2898 36.0996 66.7859 36.0996ZM66.8055 32.8379C67.5281 32.8379 67.9383 32.2715 67.9383 31.334C67.9383 30.3867 67.5281 29.7812 66.8055 29.7812C66.073 29.7812 65.6824 30.416 65.6824 31.334C65.6824 32.252 66.073 32.8379 66.8055 32.8379ZM76.9477 29.3906C76.8305 28.6094 76.225 28.1309 75.4047 28.1309C74.3012 28.1309 73.5785 28.9805 73.5785 30.4648C73.5785 31.9883 74.3109 32.7988 75.3949 32.7988C76.2055 32.7988 76.8012 32.3496 76.9477 31.5879L78.432 31.5977C78.266 32.9062 77.1723 34.0977 75.3754 34.0977C73.4809 34.0977 72.0844 32.7695 72.0844 30.4648C72.0844 28.1602 73.5102 26.832 75.3754 26.832C77.0062 26.832 78.2367 27.7695 78.432 29.3906H76.9477ZM81.5109 34.1074C79.9094 34.1074 78.9133 33.0039 78.9133 31.3633C78.9133 29.7227 79.9094 28.6289 81.5109 28.6289C83.1125 28.6289 84.1184 29.7227 84.1184 31.3633C84.1184 33.0039 83.1125 34.1074 81.5109 34.1074ZM81.5207 32.9844C82.2629 32.9844 82.6437 32.291 82.6437 31.3633C82.6437 30.4258 82.2629 29.7324 81.5207 29.7324C80.7687 29.7324 80.3781 30.4258 80.3781 31.3633C80.3781 32.291 80.7687 32.9844 81.5207 32.9844ZM84.7266 34V28.6973H86.1035V29.625H86.1621C86.3867 29.0098 86.9238 28.6289 87.6367 28.6289C88.3691 28.6289 88.9062 29.0098 89.082 29.625H89.1309C89.3555 29.0195 89.9512 28.6289 90.7324 28.6289C91.7188 28.6289 92.4023 29.2832 92.4023 30.4355V34H90.957V30.7188C90.957 30.1133 90.6055 29.8203 90.127 29.8203C89.5801 29.8203 89.2676 30.2012 89.2676 30.7578V34H87.8613V30.6797C87.8613 30.1523 87.5293 29.8203 87.041 29.8203C86.5527 29.8203 86.1719 30.2109 86.1719 30.8164V34H84.7266ZM93.2156 34V28.6973H94.5926V29.625H94.6512C94.8758 29.0098 95.4129 28.6289 96.1258 28.6289C96.8582 28.6289 97.3953 29.0098 97.5711 29.625H97.6199C97.8445 29.0195 98.4402 28.6289 99.2215 28.6289C100.208 28.6289 100.891 29.2832 100.891 30.4355V34H99.4461V30.7188C99.4461 30.1133 99.0945 29.8203 98.616 29.8203C98.0691 29.8203 97.7566 30.2012 97.7566 30.7578V34H96.3504V30.6797C96.3504 30.1523 96.0184 29.8203 95.5301 29.8203C95.0418 29.8203 94.6609 30.2109 94.6609 30.8164V34H93.2156ZM105.103 31.7441V28.6973H106.548V34H105.162V33.043H105.103C104.859 33.6582 104.293 34.0684 103.492 34.0684C102.427 34.0684 101.705 33.3164 101.705 32.0762V28.6973H103.15V31.8223C103.15 32.4473 103.511 32.8477 104.078 32.8477C104.605 32.8477 105.103 32.4668 105.103 31.7441ZM108.817 30.9336V34H107.371V28.6973H108.748V29.625H108.807C109.051 29.0098 109.618 28.6289 110.399 28.6289C111.502 28.6289 112.235 29.3809 112.225 30.6211V34H110.789V30.875C110.789 30.2207 110.428 29.8301 109.832 29.8301C109.227 29.8301 108.817 30.2305 108.817 30.9336ZM113.048 34V28.6973H114.493V34H113.048ZM113.771 28.0039C113.331 28.0039 112.98 27.6719 112.98 27.2715C112.98 26.8613 113.331 26.5293 113.771 26.5293C114.2 26.5293 114.552 26.8613 114.552 27.2715C114.552 27.6719 114.2 28.0039 113.771 28.0039ZM118.109 28.6973V29.7812H117.113V32.3691C117.113 32.7891 117.318 32.8965 117.611 32.9062C117.758 32.9062 118.012 32.8965 118.188 32.877V34.0195C118.031 34.0488 117.777 34.0684 117.416 34.0684C116.371 34.0684 115.658 33.5996 115.668 32.5742V29.7812H114.936V28.6973H115.668V27.4277H117.113V28.6973H118.109ZM119.567 35.9922C119.284 35.9922 119.02 35.9824 118.835 35.9629V34.8398C119.02 34.8496 119.235 34.8594 119.421 34.8594C119.704 34.8594 119.938 34.8301 120.114 34.3711L120.202 34.1465L118.298 28.6973H119.811L120.925 32.6035H120.983L122.106 28.6973H123.639L121.569 34.5859C121.266 35.4355 120.69 35.9922 119.567 35.9922Z" fill="#AB47FF"/>
<defs>
<radialGradient id="paint0_radial_4656_3462" cx="0" cy="0" r="1" gradientUnits="userSpaceOnUse" gradientTransform="translate(200 123.976) rotate(180) scale(187.065 363.257)">
<stop stop-color="#AB47FF"/>
<stop offset="0.25" stop-color="#AB47FF" stop-opacity="0"/>
</radialGradient>
<radialGradient id="paint1_radial_4656_3462" cx="0" cy="0" r="1" gradientUnits="userSpaceOnUse" gradientTransform="translate(12.9355 9.03906) scale(187.065 363.257)">
<stop stop-color="#027DF0"/>
<stop offset="0.33" stop-color="#027DF0" stop-opacity="0"/>
</radialGradient>
</defs>
</svg>
