<svg width="50" height="50" viewBox="0 0 50 50" fill="none" xmlns="http://www.w3.org/2000/svg">
<path d="M44.8834 23.0104C45.5167 23.8979 45.8334 24.3437 45.8334 25C45.8334 25.6583 45.5167 26.102 44.8834 26.9895C42.0375 30.9812 34.7688 39.5833 25 39.5833C15.2292 39.5833 7.96252 30.9791 5.11669 26.9895C4.48335 26.102 4.16669 25.6562 4.16669 25C4.16669 24.3416 4.48335 23.8979 5.11669 23.0104C7.96252 19.0187 15.2313 10.4166 25 10.4166C34.7709 10.4166 42.0375 19.0208 44.8834 23.0104Z" stroke="black" stroke-width="3.125"/>
<path d="M31.2499 25C31.2499 23.3424 30.5915 21.7527 29.4194 20.5806C28.2473 19.4085 26.6575 18.75 24.9999 18.75C23.3423 18.75 21.7526 19.4085 20.5805 20.5806C19.4084 21.7527 18.7499 23.3424 18.7499 25C18.7499 26.6576 19.4084 28.2473 20.5805 29.4194C21.7526 30.5915 23.3423 31.25 24.9999 31.25C26.6575 31.25 28.2473 30.5915 29.4194 29.4194C30.5915 28.2473 31.2499 26.6576 31.2499 25Z" stroke="black" stroke-width="3.125"/>
</svg>
