<svg width="60" height="60" viewBox="0 0 60 60" fill="none" xmlns="http://www.w3.org/2000/svg">
<g clip-path="url(#clip0_4656_3443)">
<path d="M29.9557 -0.0366846C30.075 -0.036432 30.1943 -0.0361795 30.3172 -0.0359193C32.0292 -0.0300985 33.7088 -0.000696518 35.3903 0.351499C35.5046 0.374781 35.6188 0.398064 35.7365 0.422052C41.3668 1.5998 46.5458 4.13065 50.6833 8.15583C50.9251 8.38202 51.1863 8.58249 51.445 8.789C51.5737 8.92431 51.6984 9.06351 51.8185 9.20648C52.0487 9.47718 52.2801 9.7421 52.5249 9.99978C56.6655 14.3686 59.1237 20.3329 59.8825 26.2499C59.8978 26.3676 59.8978 26.3676 59.9134 26.4876C59.9936 27.1501 60.0218 27.8044 60.0276 28.4715C60.0288 28.5808 60.0299 28.6901 60.0311 28.8027C60.0513 31.2315 60.0324 33.5892 59.5309 35.9765C59.5064 36.0955 59.482 36.2145 59.4567 36.337C58.986 38.5523 58.2536 40.7172 57.3044 42.7734C57.3658 42.8064 57.4273 42.8395 57.4906 42.8735C57.7708 43.0248 58.0503 43.1774 58.3298 43.33C58.4264 43.382 58.5231 43.4339 58.6227 43.4875C59.7864 44.1256 59.7864 44.1256 59.9997 44.7656C60.0195 44.9725 60.0308 45.1803 60.0363 45.3881C60.0407 45.4964 60.0451 45.6047 60.0496 45.7163C59.9323 46.5117 59.3197 46.9786 58.7326 47.4609C58.6633 47.5189 58.5941 47.5769 58.5227 47.6367C58.3835 47.7532 58.244 47.8695 58.1043 47.9855C57.7564 48.2757 57.4132 48.5714 57.07 48.8671C57.1508 48.9621 57.2316 49.0572 57.3149 49.1551C60.0621 52.3896 60.0621 52.3896 60.0377 53.4173C59.8919 54.3938 59.0411 54.9487 58.3138 55.5136C57.9688 55.788 57.6375 56.0785 57.3044 56.3671C56.7205 56.8705 56.1294 57.363 55.5301 57.848C55.2765 58.0576 55.0271 58.2697 54.7794 58.4861C54.7074 58.5488 54.6354 58.6115 54.5612 58.6761C54.4217 58.798 54.2826 58.9205 54.1442 59.0437C53.5329 59.5772 52.9321 60.0684 52.0822 60.0585C51.9781 60.0597 51.874 60.0609 51.7668 60.0622C50.997 59.9133 50.535 59.3381 50.0607 58.7621C50.0004 58.6903 49.9401 58.6186 49.8779 58.5446C49.696 58.3275 49.5156 58.1093 49.3356 57.8906C49.2818 57.8251 49.2279 57.7596 49.1724 57.6922C48.9422 57.4119 48.713 57.1308 48.4851 56.8487C48.2835 56.5967 48.2835 56.5967 48.0466 56.3671C47.8725 56.5198 47.8725 56.5198 47.695 56.6757C45.313 58.7582 45.313 58.7582 44.2503 58.7429C43.7551 58.6909 43.5202 58.5506 43.1247 58.2421C42.9324 57.9756 42.7994 57.7201 42.6559 57.4218C42.2184 57.5605 41.7907 57.7175 41.3637 57.8851C38.196 59.1222 34.845 59.9971 31.4252 60.0279C31.3186 60.029 31.2121 60.0301 31.1023 60.0313C23.738 60.0943 17.0767 58.1129 11.2497 53.5546C11.1865 53.5055 11.1233 53.4564 11.0582 53.4058C9.1551 51.9101 7.38899 50.1299 5.97625 48.164C5.87503 48.0269 5.77371 47.8899 5.6723 47.7529C3.89769 45.3358 2.48182 42.6863 1.52313 39.8437C1.47472 39.7004 1.47472 39.7004 1.42534 39.5543C1.04588 38.4092 0.749124 37.2512 0.497739 36.0717C0.474448 35.9634 0.451156 35.855 0.427158 35.7434C0.0412953 33.8441 -0.0442882 31.9768 -0.0369285 30.0439C-0.036676 29.9246 -0.0364234 29.8052 -0.0361632 29.6823C-0.0303395 27.9688 0.00548019 26.2931 0.351255 24.6093C0.374537 24.4907 0.39782 24.372 0.421808 24.2497C1.28547 19.9308 3.01924 15.8619 5.62469 12.3046C5.67345 12.2375 5.7222 12.1703 5.77244 12.1011C6.41983 11.215 7.12493 10.4019 7.87918 9.60611C8.09954 9.37291 8.30788 9.13402 8.51089 8.88559C8.73552 8.61803 8.9473 8.39663 9.21356 8.17376C9.48178 7.94627 9.74399 7.71747 9.99908 7.47522C11.5601 5.9956 13.3731 4.81662 15.2341 3.74994C15.3218 3.69965 15.4095 3.64937 15.4998 3.59756C18.1296 2.10969 20.9793 1.1276 23.9279 0.497983C24.0363 0.474682 24.1447 0.451381 24.2563 0.427373C26.1556 0.0416068 28.0228 -0.044045 29.9557 -0.0366846ZM31.7575 3.86712C31.7575 7.27025 31.7575 10.6734 31.7575 14.1796C34.3872 14.1796 37.0169 14.1796 39.7263 14.1796C39.1419 12.6037 39.1419 12.6037 38.4665 11.0742C38.3921 10.9193 38.3921 10.9193 38.3161 10.7613C37.5843 9.26855 36.7145 7.93688 35.6247 6.67962C35.5664 6.60575 35.5081 6.53188 35.448 6.45578C34.5047 5.27264 33.1862 4.34335 31.7575 3.86712ZM25.6638 5.39056C25.5429 5.48482 25.4221 5.57909 25.2975 5.67621C22.8326 7.87323 21.3593 11.1384 20.2731 14.1796C22.9028 14.1796 25.5325 14.1796 28.2419 14.1796C28.2419 10.7765 28.2419 7.37337 28.2419 3.86712C27.3703 3.86712 26.298 4.85526 25.6638 5.39056ZM39.2575 5.27337C39.4173 5.60653 39.5964 5.91413 39.7986 6.22323C41.3443 8.62391 42.4832 11.1211 43.3884 13.8267C43.4562 14.0587 43.4562 14.0587 43.5934 14.1796C43.8271 14.1906 44.0613 14.1934 44.2952 14.1929C44.5204 14.1929 44.5204 14.1929 44.7502 14.1929C44.9153 14.1923 45.0804 14.1917 45.2455 14.1911C45.4135 14.1908 45.5815 14.1907 45.7495 14.1906C46.1924 14.1901 46.6353 14.189 47.0782 14.1877C47.5298 14.1865 47.9815 14.1859 48.4331 14.1853C49.3199 14.1841 50.2067 14.1821 51.0934 14.1796C50.7508 13.6582 50.3939 13.179 49.9875 12.7075C49.9265 12.6367 49.8656 12.566 49.8028 12.4931C48.7672 11.3059 47.6584 10.2163 46.4059 9.25775C46.3404 9.20733 46.2749 9.15691 46.2074 9.10497C45.1469 8.29335 44.0537 7.56929 42.8903 6.914C42.8172 6.87276 42.744 6.83152 42.6687 6.78903C41.0361 5.77217 41.0361 5.77217 39.2575 5.27337ZM20.6247 5.27337C16.2153 7.06572 11.4215 9.987 8.90594 14.1796C11.3809 14.1796 13.8559 14.1796 16.4059 14.1796C16.7723 13.2653 16.7723 13.2653 17.1274 12.3472C17.9651 10.1707 18.9178 8.04809 20.2795 6.14353C20.5659 5.75 20.5659 5.75 20.6247 5.27337ZM6.56219 17.6952C5.83015 19.2114 5.83015 19.2114 5.19989 20.7641C5.16706 20.8553 5.13423 20.9464 5.10041 21.0403C4.29538 23.3301 3.6325 25.802 3.6325 28.2421C7.11297 28.2421 10.5934 28.2421 14.1794 28.2421C14.2954 26.6952 14.4114 25.1484 14.5309 23.5546C14.7843 21.5772 15.1111 19.6604 15.4684 17.6952C12.5294 17.6952 9.59032 17.6952 6.56219 17.6952ZM19.2184 17.6952C18.9196 18.816 18.6425 19.8977 18.4494 21.0351C18.4249 21.1787 18.4004 21.3223 18.3752 21.4703C18.1954 22.567 18.06 23.6646 17.9514 24.7704C17.9368 24.9157 17.9223 25.0609 17.9074 25.2106C17.8143 26.2328 17.8122 27.2067 17.8122 28.2421C21.254 28.2421 24.6958 28.2421 28.2419 28.2421C28.2419 24.7617 28.2419 21.2812 28.2419 17.6952C25.2641 17.6952 22.2864 17.6952 19.2184 17.6952ZM31.7575 17.6952C31.7575 21.1757 31.7575 24.6562 31.7575 28.2421C35.1993 28.2421 38.6411 28.2421 42.1872 28.2421C42.1872 27.0642 42.1645 25.9361 42.048 24.7704C42.0405 24.6937 42.033 24.617 42.0252 24.5379C41.9083 23.3629 41.7486 22.1994 41.55 21.0351C41.5274 20.9019 41.5048 20.7687 41.4815 20.6315C41.3015 19.6287 41.0457 18.688 40.7809 17.6952C37.8032 17.6952 34.8255 17.6952 31.7575 17.6952ZM44.5309 17.6952C44.7243 18.7781 44.9177 19.8609 45.1169 20.9765C45.2094 21.5975 45.2979 22.2142 45.3732 22.8368C45.391 22.9714 45.4087 23.106 45.427 23.2447C45.6334 24.9083 45.7081 26.563 45.82 28.2421C49.3005 28.2421 52.7809 28.2421 56.3669 28.2421C56.2644 26.7912 56.2644 26.7912 56.0519 25.3637C56.0318 25.255 56.0116 25.1463 55.9908 25.0343C55.4858 22.4303 54.5675 20.0971 53.4372 17.6952C50.4981 17.6952 47.5591 17.6952 44.5309 17.6952ZM3.6325 31.7577C3.70623 32.8636 3.78188 33.8736 4.00604 34.9438C4.0319 35.0691 4.05776 35.1945 4.0844 35.3236C4.60583 37.774 5.44192 40.0641 6.56219 42.3046C9.50125 42.3046 12.4403 42.3046 15.4684 42.3046C15.2751 41.2218 15.0817 40.139 14.8825 39.0234C14.79 38.4024 14.7015 37.7856 14.6262 37.163C14.6084 37.0284 14.5907 36.8938 14.5724 36.7552C14.366 35.0916 14.2913 33.4369 14.1794 31.7577C10.6989 31.7577 7.21844 31.7577 3.6325 31.7577ZM17.8122 31.7577C17.8122 32.9357 17.8349 34.0638 17.9514 35.2294C17.9589 35.3062 17.9664 35.3829 17.9742 35.4619C18.0911 36.637 18.2508 37.8005 18.4494 38.9648C18.472 39.098 18.4946 39.2311 18.5179 39.3684C18.6979 40.3712 18.9537 41.3118 19.2184 42.3046C22.1962 42.3046 25.1739 42.3046 28.2419 42.3046C28.2419 38.8242 28.2419 35.3437 28.2419 31.7577C24.8001 31.7577 21.3583 31.7577 17.8122 31.7577ZM31.7575 31.7577C31.7575 35.2382 31.7575 38.7187 31.7575 42.3046C34.0778 42.3046 36.3981 42.3046 38.7888 42.3046C38.6987 41.5436 38.6987 41.5436 38.5381 40.8149C38.5119 40.7174 38.4857 40.62 38.4587 40.5197C38.4308 40.4176 38.4028 40.3155 38.374 40.2104C38.315 39.9886 38.2562 39.7668 38.1973 39.545C38.105 39.1994 38.0122 38.8541 37.918 38.509C37.8266 38.1733 37.7376 37.8369 37.6489 37.5004C37.6205 37.3986 37.5921 37.2967 37.5628 37.1918C37.3809 36.4928 37.2445 35.7196 37.6213 35.0608C37.9438 34.6502 38.2714 34.3862 38.7874 34.2944C39.571 34.2748 40.1509 34.5231 40.8469 34.8632C40.9539 34.9135 41.0609 34.9638 41.1712 35.0157C41.4326 35.1388 41.6931 35.2638 41.9528 35.3906C41.9934 35.1148 42.0321 34.839 42.07 34.5629C42.0812 34.4882 42.0924 34.4135 42.1039 34.3366C42.2212 33.461 42.1872 32.668 42.1872 31.7577C38.7454 31.7577 35.3036 31.7577 31.7575 31.7577ZM45.82 31.7577C45.5752 34.4504 45.5752 34.4504 45.4684 37.1484C47.0451 37.9429 48.6243 38.7293 50.2194 39.4862C51.418 40.0565 52.6039 40.6518 53.7888 41.2499C54.0757 40.993 54.217 40.7705 54.355 40.4122C54.3926 40.315 54.4302 40.2177 54.4689 40.1175C54.5079 40.0126 54.5469 39.9078 54.5871 39.7997C54.628 39.6909 54.6689 39.582 54.711 39.4699C55.6118 37.0229 56.3669 34.3839 56.3669 31.7577C52.8864 31.7577 49.4059 31.7577 45.82 31.7577ZM41.9528 39.4921C42.0246 40.1674 42.1487 40.8048 42.3196 41.4615C42.3447 41.5601 42.3699 41.6588 42.3959 41.7605C42.4788 42.085 42.5626 42.4093 42.6463 42.7335C42.705 42.9622 42.7635 43.1909 42.8221 43.4195C42.9764 44.0218 43.1314 44.6239 43.2865 45.226C43.4418 45.8293 43.5964 46.4328 43.7511 47.0363C44.3187 49.2494 44.8881 51.462 45.4684 53.6718C45.6182 53.5597 45.7679 53.4476 45.9176 53.3355C46.0009 53.2731 46.0843 53.2106 46.1702 53.1463C46.531 52.8744 46.8853 52.5944 47.24 52.3145C47.6089 52.0367 47.8524 52.0064 48.3102 51.9946C48.4196 51.9902 48.529 51.9858 48.6417 51.9813C49.399 52.0917 49.8507 52.6423 50.3097 53.2104C50.3647 53.2768 50.4196 53.3431 50.4761 53.4115C50.6438 53.6147 50.8102 53.8189 50.9763 54.0234C51.078 54.1481 51.1798 54.2727 51.2816 54.3974C51.4587 54.6143 51.6353 54.8317 51.8112 55.0497C51.9931 55.2672 52.1778 55.4683 52.3825 55.664C52.4775 55.5832 52.5725 55.5024 52.6704 55.4191C53.4179 54.7844 54.1691 54.1559 54.9322 53.54C55.1497 53.3581 55.3509 53.1733 55.5466 52.9687C55.3482 52.4839 55.003 52.125 54.6603 51.7382C52.6814 49.4696 52.6814 49.4696 52.7039 48.3498C52.7852 47.5336 53.2549 47.1608 53.8547 46.6625C54.1784 46.4073 54.5004 46.1661 54.8434 45.9374C54.8434 45.8601 54.8434 45.7827 54.8434 45.7031C53.3471 44.9484 51.8468 44.2044 50.3328 43.4855C49.4587 43.0694 48.5927 42.6383 47.7281 42.2028C46.8333 41.7535 45.9312 41.3205 45.0266 40.8911C44.2576 40.5254 43.4941 40.1501 42.7373 39.7598C42.3641 39.5573 42.3641 39.5573 41.9528 39.4921ZM8.90594 45.8202C9.24854 46.3417 9.60549 46.8208 10.0119 47.2924C10.0728 47.3631 10.1338 47.4339 10.1966 47.5067C11.2322 48.6939 12.341 49.7836 13.5934 50.7421C13.659 50.7925 13.7245 50.843 13.792 50.8949C14.8529 51.7068 15.9467 52.4281 17.1091 53.0859C17.2169 53.1477 17.2169 53.1477 17.3269 53.2108C18.4264 53.8379 19.5468 54.3119 20.7419 54.7265C20.582 54.3933 20.403 54.0857 20.2008 53.7766C18.6551 51.376 17.5162 48.8788 16.6109 46.1732C16.5431 45.9412 16.5431 45.9412 16.4059 45.8202C16.1722 45.8092 15.9381 45.8065 15.7042 45.8069C15.4789 45.807 15.4789 45.807 15.2492 45.807C15.0841 45.8076 14.919 45.8082 14.7539 45.8088C14.5859 45.809 14.4179 45.8092 14.2499 45.8093C13.807 45.8098 13.3641 45.8109 12.9212 45.8122C12.4695 45.8134 12.0179 45.8139 11.5662 45.8145C10.6795 45.8158 9.79271 45.8178 8.90594 45.8202ZM20.2731 45.8202C20.8574 47.3961 20.8574 47.3961 21.5329 48.9257C21.5825 49.0289 21.6321 49.1322 21.6832 49.2385C22.4087 50.7183 23.265 52.0961 24.3747 53.3202C24.4301 53.3814 24.4855 53.4426 24.5426 53.5056C25.6048 54.6624 26.7288 55.6284 28.2419 56.1327C28.2419 52.7296 28.2419 49.3265 28.2419 45.8202C25.6122 45.8202 22.9825 45.8202 20.2731 45.8202ZM31.7575 45.8202C31.7575 49.2234 31.7575 52.6265 31.7575 56.1327C32.7695 55.728 33.3969 55.3822 34.2184 54.7265C34.3524 54.6218 34.3524 54.6218 34.489 54.515C37.008 52.4225 38.67 48.961 39.7263 45.9374C39.7263 45.8988 39.7263 45.8601 39.7263 45.8202C37.0966 45.8202 34.4669 45.8202 31.7575 45.8202ZM41.1325 51.5624C41.0467 51.6937 40.9669 51.8289 40.8894 51.9653C40.8405 52.0505 40.7915 52.1356 40.7411 52.2234C40.689 52.3147 40.6369 52.4059 40.5832 52.4999C40.2575 53.0643 39.9363 53.6175 39.5358 54.1332C39.2336 54.4473 39.2336 54.4473 39.2575 54.7265C40.1298 54.4648 40.9122 54.0934 41.7184 53.6718C41.5967 52.9556 41.4656 52.2565 41.2497 51.5624C41.211 51.5624 41.1723 51.5624 41.1325 51.5624Z" fill="url(#paint0_linear_4656_3443)"/>
</g>
<defs>
<linearGradient id="paint0_linear_4656_3443" x1="30.0061" y1="-0.0371094" x2="30.0061" y2="60.0622" gradientUnits="userSpaceOnUse">
<stop stop-color="#027DF0"/>
<stop offset="0.7" stop-color="#AB47FF"/>
</linearGradient>
<clipPath id="clip0_4656_3443">
<rect width="60" height="60" fill="white"/>
</clipPath>
</defs>
</svg>
