<svg width="20" height="20" viewBox="0 0 20 20" fill="none" xmlns="http://www.w3.org/2000/svg">
<path d="M9.99935 10.8327C10.4596 10.8327 10.8327 10.4596 10.8327 9.99935C10.8327 9.53911 10.4596 9.16602 9.99935 9.16602C9.53911 9.16602 9.16602 9.53911 9.16602 9.99935C9.16602 10.4596 9.53911 10.8327 9.99935 10.8327Z" stroke="#333333" stroke-width="1.66667" stroke-linecap="round" stroke-linejoin="round"/>
<path d="M15.8333 10.8327C16.2936 10.8327 16.6667 10.4596 16.6667 9.99935C16.6667 9.53911 16.2936 9.16602 15.8333 9.16602C15.3731 9.16602 15 9.53911 15 9.99935C15 10.4596 15.3731 10.8327 15.8333 10.8327Z" stroke="#333333" stroke-width="1.66667" stroke-linecap="round" stroke-linejoin="round"/>
<path d="M4.16732 10.8327C4.62756 10.8327 5.00065 10.4596 5.00065 9.99935C5.00065 9.53911 4.62756 9.16602 4.16732 9.16602C3.70708 9.16602 3.33398 9.53911 3.33398 9.99935C3.33398 10.4596 3.70708 10.8327 4.16732 10.8327Z" stroke="#333333" stroke-width="1.66667" stroke-linecap="round" stroke-linejoin="round"/>
</svg>
