<svg width="36" height="36" viewBox="0 0 36 36" fill="none" xmlns="http://www.w3.org/2000/svg">
<rect width="36" height="36" rx="10" fill="#AB47FF"/>
<path d="M12.3196 8.0153C12.3522 8.01507 12.3849 8.01485 12.4185 8.01461C12.472 8.01483 12.472 8.01483 12.5266 8.01506C12.5836 8.01484 12.5836 8.01484 12.6418 8.01461C12.7697 8.0142 12.8975 8.01436 13.0253 8.01452C13.1168 8.01435 13.2083 8.01414 13.2998 8.01391C13.5487 8.01339 13.7976 8.01337 14.0465 8.01347C14.2806 8.01351 14.5146 8.01327 14.7486 8.01306C15.2407 8.01264 15.7328 8.01272 16.2248 8.01296C16.6745 8.01316 17.1242 8.01272 17.5738 8.01198C18.0358 8.01122 18.4978 8.0109 18.9598 8.01105C19.2191 8.01112 19.4784 8.01102 19.7376 8.01048C19.9816 8.00999 20.2256 8.01006 20.4696 8.01057C20.559 8.01066 20.6484 8.01056 20.7378 8.01023C20.8602 8.00983 20.9825 8.01014 21.1049 8.01064C21.14 8.01035 21.1752 8.01006 21.2114 8.00977C21.7042 8.01393 22.1131 8.20923 22.4723 8.54392C22.8414 8.93956 22.9907 9.41704 22.9912 9.94946C22.9913 9.97774 22.9914 10.006 22.9915 10.0351C22.9917 10.1299 22.9916 10.2247 22.9916 10.3195C22.9917 10.3881 22.9918 10.4567 22.9919 10.5254C22.9922 10.714 22.9923 10.9026 22.9923 11.0912C22.9924 11.2947 22.9927 11.4981 22.993 11.7015C22.9935 12.1464 22.9937 12.5913 22.9939 13.0361C22.994 13.3139 22.9942 13.5918 22.9943 13.8696C22.9948 14.6389 22.9952 15.4082 22.9954 16.1776C22.9954 16.2268 22.9954 16.276 22.9954 16.3268C22.9954 16.3761 22.9954 16.4255 22.9954 16.4763C22.9954 16.5763 22.9954 16.6763 22.9955 16.7764C22.9955 16.826 22.9955 16.8756 22.9955 16.9267C22.9956 17.7303 22.9963 18.5339 22.9972 19.3376C22.9982 20.1628 22.9986 20.9881 22.9987 21.8133C22.9987 22.2766 22.9989 22.7399 22.9996 23.2031C23.0002 23.5977 23.0004 23.9922 23.0001 24.3867C23 24.5879 23 24.7892 23.0006 24.9904C23.0011 25.1748 23.001 25.3592 23.0005 25.5436C23.0005 25.6101 23.0006 25.6766 23.0009 25.7431C23.0042 26.4303 22.9061 26.9764 22.422 27.4927C22.0035 27.8852 21.5648 27.9923 21.0052 27.9898C20.9561 27.99 20.9069 27.9902 20.8563 27.9905C20.7209 27.9911 20.5855 27.991 20.4501 27.9908C20.3037 27.9907 20.1573 27.9913 20.0109 27.9917C19.7244 27.9926 19.4379 27.9927 19.1515 27.9927C18.9185 27.9926 18.6855 27.9928 18.4526 27.9931C18.3853 27.9931 18.3181 27.9932 18.2509 27.9933C18.2007 27.9934 18.2007 27.9934 18.1495 27.9934C17.5172 27.9942 16.885 27.9941 16.2527 27.9939C15.675 27.9936 15.0974 27.9945 14.5197 27.9957C13.9257 27.9971 13.3318 27.9976 12.7378 27.9975C12.4047 27.9974 12.0716 27.9976 11.7384 27.9986C11.4548 27.9994 11.1712 27.9995 10.8875 27.9988C10.743 27.9984 10.5985 27.9984 10.4539 27.9992C10.2968 28 10.1397 27.9994 9.98262 27.9986C9.93752 27.9991 9.89242 27.9996 9.84596 28.0001C9.34349 27.9947 8.90326 27.8065 8.5323 27.4679C8.12025 27.0163 7.99609 26.5258 8.00136 25.9276C8.00116 25.868 8.00088 25.8084 8.00052 25.7489C7.99979 25.5865 8.00026 25.4242 8.00094 25.2619C8.00146 25.0863 8.00086 24.9107 8.0004 24.7351C7.99969 24.3918 8.00001 24.0484 8.00071 23.7051C8.00126 23.4261 8.00141 23.1471 8.00128 22.8681C8.00126 22.8283 8.00124 22.7885 8.00123 22.7476C8.00119 22.6668 8.00114 22.586 8.0011 22.5052C8.00077 21.7917 8.00142 21.0782 8.00258 20.3647C8.0037 19.6724 8.00397 18.9801 8.00337 18.2878C8.00272 17.5335 8.00256 16.7791 8.00325 16.0247C8.00332 15.9443 8.00339 15.8639 8.00346 15.7835C8.0035 15.7439 8.00353 15.7044 8.00357 15.6636C8.00379 15.3848 8.00366 15.106 8.0034 14.8272C8.0031 14.4876 8.00336 14.1481 8.00434 13.8086C8.00483 13.6353 8.00507 13.4621 8.00463 13.2888C8.00424 13.1303 8.00457 12.9718 8.00547 12.8132C8.00568 12.7558 8.00561 12.6984 8.00526 12.6411C8.00483 12.5631 8.00544 12.4852 8.00611 12.4072C8.00616 12.3639 8.0062 12.3206 8.00625 12.276C8.04229 12.0539 8.18974 11.9037 8.3443 11.749C8.39248 11.7005 8.39248 11.7005 8.44162 11.651C8.49396 11.5989 8.49396 11.5989 8.54737 11.5457C8.58477 11.5082 8.62215 11.4707 8.65952 11.4331C8.7606 11.3317 8.86192 11.2305 8.9633 11.1294C9.06952 11.0233 9.17555 10.9171 9.2816 10.8109C9.45962 10.6327 9.63781 10.4547 9.81608 10.2768C10.0221 10.0711 10.2279 9.86522 10.4335 9.65915C10.6103 9.48204 10.7871 9.30508 10.9642 9.12824C11.0698 9.0227 11.1754 8.91712 11.2809 8.81139C11.3799 8.71207 11.4792 8.61294 11.5786 8.51396C11.6325 8.46029 11.6861 8.40643 11.7397 8.35256C11.7879 8.30472 11.7879 8.30472 11.837 8.2559C11.8648 8.22812 11.8926 8.20034 11.9213 8.17171C12.0479 8.06094 12.1514 8.0155 12.3196 8.0153ZM13.597 9.19411C13.5967 9.22742 13.5963 9.26072 13.596 9.29504C13.593 9.61028 13.5896 9.92552 13.5858 10.2408C13.5838 10.4028 13.582 10.5648 13.5805 10.7269C13.5791 10.8835 13.5773 11.0401 13.5752 11.1968C13.5745 11.2563 13.5739 11.3157 13.5735 11.3752C13.57 11.8125 13.5524 12.2031 13.3486 12.5961C13.3258 12.6409 13.303 12.6858 13.2795 12.732C13.0494 13.1296 12.6778 13.3791 12.2366 13.5006C11.9223 13.5721 11.6077 13.5717 11.2871 13.5741C11.2265 13.5749 11.166 13.5756 11.1054 13.5764C10.9472 13.5784 10.789 13.58 10.6308 13.5814C10.4689 13.583 10.3069 13.585 10.145 13.5869C9.8282 13.5907 9.5114 13.594 9.1946 13.597C9.19193 15.1893 9.18987 16.7816 9.18863 18.374C9.18849 18.562 9.18834 18.75 9.18818 18.938C9.18815 18.9754 9.18812 19.0128 9.18809 19.0514C9.18758 19.6574 9.18666 20.2634 9.18559 20.8693C9.18449 21.4911 9.18384 22.113 9.18361 22.7348C9.18345 23.1185 9.18294 23.5021 9.18199 23.8858C9.18137 24.1489 9.18118 24.4121 9.18134 24.6752C9.18141 24.827 9.1813 24.9788 9.18067 25.1305C9.1801 25.2696 9.18007 25.4087 9.18047 25.5478C9.18054 25.6217 9.18004 25.6956 9.17952 25.7695C9.18115 26.0808 9.20531 26.3501 9.39427 26.6058C9.67644 26.8144 9.98438 26.8224 10.3244 26.8201C10.3705 26.8202 10.4165 26.8204 10.464 26.8205C10.591 26.8208 10.7179 26.8206 10.8449 26.8202C10.9822 26.8199 11.1195 26.8202 11.2567 26.8204C11.5253 26.8208 11.7939 26.8205 12.0624 26.8201C12.3754 26.8195 12.6883 26.8196 13.0013 26.8197C13.5598 26.8198 14.1182 26.8194 14.6767 26.8186C15.2182 26.8178 15.7598 26.8176 16.3014 26.8178C16.8916 26.818 17.4817 26.818 18.0719 26.8176C18.1349 26.8175 18.1978 26.8175 18.2608 26.8174C18.2918 26.8174 18.3227 26.8174 18.3547 26.8174C18.5727 26.8172 18.7907 26.8172 19.0087 26.8173C19.2744 26.8174 19.5402 26.8172 19.8059 26.8166C19.9414 26.8163 20.0769 26.8162 20.2125 26.8164C20.3595 26.8165 20.5065 26.8161 20.6535 26.8156C20.6962 26.8158 20.7388 26.8159 20.7828 26.8161C21.0675 26.8145 21.3128 26.8035 21.5568 26.6423C21.7521 26.4379 21.793 26.2461 21.7932 25.9693C21.7934 25.9412 21.7935 25.9131 21.7937 25.8841C21.7942 25.7901 21.7938 25.6961 21.7935 25.6021C21.7936 25.534 21.7938 25.4658 21.7941 25.3977C21.7947 25.2105 21.7945 25.0234 21.7942 24.8362C21.794 24.6343 21.7945 24.4325 21.7949 24.2306C21.7956 23.8351 21.7956 23.4397 21.7954 23.0442C21.7953 22.7229 21.7953 22.4015 21.7955 22.0801C21.7956 22.0344 21.7956 21.9887 21.7956 21.9416C21.7957 21.8487 21.7957 21.7558 21.7958 21.6629C21.7963 20.7917 21.7961 19.9205 21.7957 19.0493C21.7953 18.2521 21.7958 17.4548 21.7967 16.6576C21.7977 15.8392 21.798 15.0208 21.7978 14.2024C21.7977 13.7428 21.7977 13.2833 21.7984 12.8237C21.799 12.4325 21.799 12.0414 21.7983 11.6502C21.798 11.4506 21.7979 11.251 21.7985 11.0514C21.7991 10.8686 21.7989 10.6859 21.7981 10.5032C21.798 10.4371 21.7981 10.371 21.7985 10.3049C21.8047 9.77733 21.8047 9.77733 21.5349 9.33536C21.303 9.19832 21.0558 9.18264 20.7931 9.18474C20.7622 9.18468 20.7312 9.18461 20.6993 9.18454C20.5963 9.18441 20.4934 9.18484 20.3905 9.18527C20.3163 9.18529 20.2422 9.18528 20.1681 9.18523C19.9674 9.18521 19.7668 9.18567 19.5661 9.18621C19.3562 9.1867 19.1463 9.18675 18.9364 9.18684C18.5392 9.18708 18.142 9.18772 17.7447 9.1885C17.2924 9.18937 16.8401 9.1898 16.3877 9.19019C15.4575 9.19101 14.5272 9.19238 13.597 9.19411ZM12.2362 9.57605C12.1997 9.61236 12.1997 9.61236 12.1625 9.6494C12.1357 9.6763 12.1088 9.7032 12.0812 9.73091C12.0531 9.75897 12.025 9.78703 11.996 9.81594C11.9025 9.90927 11.8092 10.0027 11.7158 10.0962C11.6513 10.1608 11.5867 10.2253 11.5221 10.2899C11.3865 10.4254 11.251 10.561 11.1156 10.6966C10.9415 10.8709 10.7673 11.045 10.593 11.2191C10.4595 11.3525 10.3262 11.4859 10.1928 11.6193C10.1286 11.6836 10.0643 11.7478 10 11.812C9.91038 11.9016 9.82085 11.9913 9.73135 12.081C9.70445 12.1079 9.67755 12.1347 9.64984 12.1623C9.62564 12.1866 9.60144 12.2109 9.5765 12.236C9.55529 12.2572 9.53408 12.2784 9.51223 12.3003C9.46297 12.3438 9.46297 12.3438 9.46732 12.3891C9.77821 12.3918 10.0891 12.3939 10.4 12.3952C10.5444 12.3958 10.6888 12.3966 10.8331 12.3979C10.9726 12.3992 11.112 12.3999 11.2515 12.4002C11.3046 12.4004 11.3576 12.4008 11.4107 12.4015C11.4853 12.4023 11.5599 12.4024 11.6345 12.4024C11.6769 12.4026 11.7193 12.4029 11.763 12.4032C11.9665 12.3793 12.1171 12.2938 12.2456 12.1358C12.2647 12.1129 12.2838 12.09 12.3036 12.0664C12.3982 11.9307 12.394 11.8075 12.3937 11.6476C12.3937 11.5992 12.3937 11.5508 12.3937 11.501C12.3935 11.4483 12.3933 11.3955 12.393 11.3427C12.393 11.2887 12.3929 11.2347 12.3929 11.1807C12.3927 11.0387 12.3923 10.8967 12.3919 10.7547C12.3915 10.6098 12.3913 10.4648 12.3911 10.3199C12.3907 10.0355 12.3901 9.75119 12.3892 9.46686C12.3202 9.46686 12.2829 9.52933 12.2362 9.57605Z" fill="white"/>
<path d="M27.1556 8.28576C27.5868 8.57213 27.8344 8.97226 27.9755 9.46531C28.0007 9.65554 28.0016 9.84247 27.9997 10.0342C27.9999 10.0898 28.0002 10.1455 28.0005 10.2011C28.0011 10.3526 28.0006 10.5041 27.9998 10.6556C27.9992 10.8196 27.9998 10.9835 28.0001 11.1475C28.0007 11.4683 28.0002 11.7891 27.9994 12.1099C27.9985 12.4844 27.9985 12.8589 27.9986 13.2335C27.9988 13.9026 27.998 14.5718 27.9966 15.241C27.9954 15.8883 27.9948 16.5355 27.995 17.1828C27.9953 17.8892 27.9952 18.5955 27.9944 19.3019C27.9944 19.3394 27.9944 19.3769 27.9943 19.4156C27.9942 19.4908 27.9942 19.5661 27.9941 19.6414C27.9938 19.9015 27.9938 20.1617 27.9938 20.4218C27.9939 20.7398 27.9935 21.0579 27.9926 21.376C27.9921 21.5378 27.9918 21.6996 27.9921 21.8614C27.9932 22.7816 27.9513 23.6901 27.7564 24.5928C27.7465 24.6389 27.7367 24.6851 27.7266 24.7327C27.5327 25.6104 27.2563 26.4534 26.8847 27.2715C26.8726 27.2985 26.8604 27.3256 26.848 27.3534C26.746 27.5787 26.6533 27.7793 26.4561 27.9339C26.3399 27.9726 26.254 27.9818 26.1323 27.985C26.0963 27.9865 26.0603 27.9879 26.0232 27.9894C25.8707 27.9669 25.7946 27.9163 25.6769 27.817C25.6132 27.7262 25.5671 27.6304 25.5211 27.5296C25.5093 27.5052 25.4974 27.4807 25.4852 27.4555C25.4438 27.3688 25.4044 27.2814 25.3653 27.1936C25.3474 27.1536 25.3295 27.1136 25.311 27.0724C25.1619 26.7325 25.0342 26.3889 24.9172 26.0369C24.908 26.0092 24.8988 25.9816 24.8893 25.9531C24.7102 25.4132 24.5746 24.8695 24.4692 24.3103C24.4628 24.2778 24.4564 24.2452 24.4498 24.2117C24.2604 23.2362 24.2625 22.2313 24.2642 21.2413C24.2644 21.0871 24.2641 20.9329 24.2639 20.7787C24.2636 20.4786 24.2636 20.1785 24.2639 19.8783C24.2641 19.6343 24.2641 19.3903 24.264 19.1463C24.264 19.1114 24.264 19.0764 24.264 19.0403C24.2639 18.9693 24.2639 18.8982 24.2639 18.8271C24.2637 18.1643 24.2639 17.5015 24.2643 16.8386C24.2647 16.2708 24.2646 15.703 24.2643 15.1352C24.2638 14.4734 24.2637 13.8115 24.2639 13.1497C24.2639 13.0791 24.264 13.0085 24.264 12.9379C24.264 12.9032 24.264 12.8685 24.264 12.8327C24.2641 12.5889 24.264 12.345 24.2638 12.1012C24.2636 11.8043 24.2636 11.5074 24.2641 11.2105C24.2643 11.0593 24.2643 10.908 24.2641 10.7568C24.2638 10.6181 24.264 10.4795 24.2644 10.3408C24.2645 10.2674 24.2643 10.194 24.264 10.1206C24.267 9.46822 24.4241 8.92171 24.8978 8.45227C25.5567 7.90535 26.4277 7.86018 27.1556 8.28576ZM25.5844 9.50428C25.4782 9.70041 25.4768 9.87022 25.4783 10.0905C25.4784 10.1206 25.4785 10.1506 25.4785 10.1816C25.4787 10.2773 25.4792 10.3729 25.4797 10.4686C25.4799 10.5336 25.4801 10.5986 25.4802 10.6636C25.4806 10.8226 25.4814 10.9817 25.4821 11.1407C25.9193 11.1407 26.3564 11.1407 26.8068 11.1407C26.8092 10.9358 26.8116 10.7309 26.8141 10.5198C26.8151 10.4558 26.8162 10.3919 26.8173 10.326C26.823 9.82495 26.823 9.82495 26.5949 9.38982C26.4125 9.24295 26.28 9.2139 26.0484 9.21936C25.8389 9.24518 25.7159 9.33821 25.5844 9.50428ZM25.4821 12.3486C25.4821 15.4602 25.4821 18.5718 25.4821 21.7777C25.9193 21.7777 26.3564 21.7777 26.8068 21.7777C26.8068 18.6661 26.8068 15.5545 26.8068 12.3486C26.3696 12.3486 25.9325 12.3486 25.4821 12.3486ZM25.5211 22.9855C25.6252 23.9552 25.82 24.859 26.1055 25.7909C26.2013 25.7542 26.2013 25.7542 26.2353 25.6078C26.2549 25.5431 26.2741 25.4783 26.293 25.4134C26.3032 25.3787 26.3134 25.3439 26.3239 25.308C26.4766 24.7772 26.5982 24.2401 26.6826 23.6942C26.6874 23.6633 26.6922 23.6324 26.6972 23.6005C26.7036 23.5561 26.7036 23.5561 26.7101 23.5108C26.7138 23.4854 26.7174 23.4601 26.7212 23.434C26.7328 23.2849 26.7288 23.135 26.7288 22.9855C26.3303 22.9855 25.9317 22.9855 25.5211 22.9855Z" fill="white"/>
<path d="M11.883 20.5263C11.9151 20.5261 11.9472 20.526 11.9802 20.5258C12.0881 20.5254 12.1959 20.5253 12.3038 20.5251C12.3809 20.5249 12.4581 20.5246 12.5353 20.5243C12.7452 20.5237 12.9551 20.5233 13.1651 20.5229C13.2962 20.5227 13.4273 20.5225 13.5584 20.5223C13.9684 20.5215 14.3785 20.521 14.7885 20.5206C15.2621 20.5203 15.7357 20.5192 16.2093 20.5177C16.5753 20.5165 16.9412 20.5159 17.3071 20.5158C17.5257 20.5157 17.7443 20.5153 17.9629 20.5143C18.1686 20.5134 18.3742 20.5133 18.5799 20.5137C18.6553 20.5137 18.7308 20.5134 18.8063 20.5129C18.9094 20.5122 19.0124 20.5125 19.1154 20.513C19.1453 20.5126 19.1751 20.5122 19.2059 20.5117C19.4554 20.5147 19.5909 20.6058 19.7654 20.7755C19.866 20.9395 19.89 21.0907 19.8542 21.2769C19.7897 21.4805 19.6941 21.5808 19.5194 21.7009C19.3762 21.7487 19.244 21.7456 19.0948 21.7456C19.0472 21.7458 19.0472 21.7458 18.9987 21.746C18.8921 21.7465 18.7856 21.7466 18.679 21.7468C18.6027 21.747 18.5264 21.7473 18.4501 21.7476C18.2426 21.7482 18.0351 21.7486 17.8276 21.749C17.6979 21.7492 17.5683 21.7494 17.4386 21.7496C17.0331 21.7504 16.6275 21.7509 16.2219 21.7513C15.7536 21.7516 15.2854 21.7527 14.8172 21.7542C14.4553 21.7554 14.0934 21.756 13.7316 21.7561C13.5154 21.7562 13.2993 21.7566 13.0831 21.7575C12.8797 21.7585 12.6763 21.7586 12.4729 21.7582C12.3984 21.7582 12.3238 21.7584 12.2492 21.759C12.1472 21.7597 12.0453 21.7594 11.9432 21.7589C11.9139 21.7593 11.8846 21.7597 11.8544 21.7602C11.6429 21.7576 11.4743 21.7049 11.2991 21.584C11.1553 21.4206 11.1198 21.2593 11.1308 21.044C11.1575 20.8652 11.2265 20.7579 11.3575 20.6367C11.5291 20.5209 11.6835 20.5262 11.883 20.5263Z" fill="white"/>
<path d="M11.9546 15.5C12.0014 15.4999 12.0014 15.4999 12.0493 15.4997C12.1541 15.4993 12.259 15.4993 12.3638 15.4992C12.439 15.499 12.5141 15.4988 12.5892 15.4986C12.7934 15.4981 12.9977 15.4979 13.2019 15.4977C13.3295 15.4976 13.4571 15.4974 13.5847 15.4973C13.9839 15.4967 14.3832 15.4963 14.7825 15.4962C15.2433 15.496 15.7041 15.4953 16.1649 15.4942C16.5212 15.4934 16.8774 15.493 17.2337 15.4929C17.4464 15.4929 17.6592 15.4927 17.8719 15.492C18.0721 15.4913 18.2723 15.4912 18.4724 15.4916C18.5458 15.4916 18.6192 15.4914 18.6926 15.491C18.7929 15.4905 18.8933 15.4908 18.9937 15.4912C19.0225 15.4909 19.0514 15.4906 19.0811 15.4902C19.322 15.4925 19.5411 15.5401 19.7257 15.7052C19.839 15.9057 19.8792 16.0855 19.845 16.314C19.772 16.479 19.6786 16.5783 19.5297 16.6791C19.3952 16.7296 19.2627 16.7244 19.1209 16.7238C19.0887 16.724 19.0564 16.7241 19.0232 16.7243C18.9149 16.7248 18.8066 16.7247 18.6984 16.7247C18.6208 16.7249 18.5433 16.7252 18.4657 16.7255C18.2549 16.7262 18.0441 16.7263 17.8333 16.7264C17.6573 16.7265 17.4814 16.7268 17.3055 16.727C16.8905 16.7277 16.4755 16.7279 16.0605 16.7278C15.6322 16.7278 15.204 16.7286 14.7757 16.7298C14.4081 16.7308 14.0406 16.7312 13.673 16.7312C13.4534 16.7312 13.2339 16.7314 13.0143 16.7322C12.8078 16.733 12.6013 16.733 12.3947 16.7324C12.319 16.7323 12.2432 16.7325 12.1674 16.733C12.0639 16.7336 11.9605 16.7332 11.857 16.7326C11.827 16.733 11.797 16.7334 11.7661 16.7338C11.5648 16.7313 11.4515 16.6837 11.2959 16.5575C11.1498 16.3912 11.1263 16.2382 11.1291 16.023C11.1518 15.8386 11.2621 15.7316 11.3933 15.6102C11.5714 15.49 11.745 15.4998 11.9546 15.5Z" fill="white"/>
<path d="M11.8578 18.0173C11.9065 18.0169 11.9065 18.0169 11.9562 18.0165C12.0648 18.0159 12.1734 18.0164 12.2819 18.0169C12.3599 18.0167 12.4378 18.0164 12.5158 18.0161C12.7273 18.0154 12.9389 18.0156 13.1504 18.0161C13.3718 18.0165 13.5932 18.0162 13.8146 18.0159C14.1864 18.0156 14.5581 18.016 14.9299 18.0168C15.3597 18.0176 15.7895 18.0173 16.2194 18.0165C16.5884 18.0158 16.9575 18.0157 17.3265 18.0161C17.5469 18.0163 17.7673 18.0163 17.9877 18.0158C18.195 18.0154 18.4022 18.0157 18.6094 18.0166C18.6854 18.0168 18.7615 18.0167 18.8375 18.0164C18.9413 18.016 19.0451 18.0165 19.1489 18.0173C19.194 18.0168 19.194 18.0168 19.2401 18.0162C19.4415 18.0191 19.5556 18.066 19.7109 18.1929C19.8271 18.3412 19.8605 18.4729 19.8668 18.6605C19.8331 18.8379 19.7855 18.9726 19.6622 19.1061C19.4394 19.2328 19.217 19.2564 18.965 19.2551C18.9342 19.2552 18.9033 19.2554 18.8715 19.2555C18.7687 19.2559 18.666 19.2558 18.5632 19.2556C18.4892 19.2558 18.4153 19.256 18.3414 19.2562C18.1409 19.2568 17.9405 19.2568 17.7401 19.2567C17.5726 19.2566 17.4051 19.2568 17.2376 19.257C16.8424 19.2574 16.4472 19.2575 16.0519 19.2572C15.6446 19.257 15.2372 19.2575 14.8299 19.2583C14.4798 19.259 14.1297 19.2592 13.7796 19.2591C13.5707 19.259 13.3617 19.2591 13.1528 19.2597C12.9562 19.2602 12.7597 19.2601 12.5632 19.2596C12.4912 19.2595 12.4192 19.2596 12.3473 19.2599C11.5223 19.2633 11.5223 19.2633 11.3116 19.0715C11.1516 18.8881 11.1261 18.7616 11.1291 18.5256C11.1504 18.3309 11.2512 18.2291 11.3979 18.1098C11.5556 18.0227 11.6825 18.0153 11.8578 18.0173Z" fill="white"/>
<path d="M12.0061 23.0051C12.0448 23.0048 12.0835 23.0046 12.1233 23.0043C12.2504 23.0036 12.3775 23.004 12.5046 23.0046C12.5933 23.0045 12.6821 23.0043 12.7709 23.0041C12.9566 23.0039 13.1424 23.0042 13.3281 23.005C13.5658 23.0058 13.8034 23.0053 14.041 23.0044C14.2242 23.0038 14.4075 23.004 14.5907 23.0044C14.6783 23.0045 14.7659 23.0044 14.8535 23.004C14.9761 23.0036 15.0987 23.0042 15.2213 23.0051C15.2572 23.0048 15.2931 23.0045 15.3301 23.0042C15.5595 23.0071 15.7424 23.0458 15.9317 23.1811C16.0753 23.345 16.1111 23.5056 16.1001 23.7211C16.0733 23.9 16.0043 24.0073 15.8733 24.1284C15.743 24.2164 15.6451 24.238 15.4915 24.2389C15.4573 24.2391 15.4231 24.2394 15.3879 24.2397C15.3505 24.2398 15.3131 24.2399 15.2746 24.24C15.2351 24.2403 15.1956 24.2405 15.155 24.2408C15.0241 24.2416 14.8932 24.242 14.7624 24.2424C14.7177 24.2426 14.673 24.2427 14.627 24.2429C14.3905 24.2437 14.154 24.2443 13.9175 24.2446C13.6732 24.2451 13.429 24.2464 13.1848 24.248C12.9969 24.249 12.8091 24.2493 12.6213 24.2494C12.5312 24.2496 12.4412 24.2501 12.3512 24.2508C12.2251 24.2518 12.099 24.2517 11.973 24.2514C11.9359 24.2519 11.8988 24.2524 11.8606 24.253C11.6256 24.2511 11.4884 24.2137 11.2956 24.0773C11.1481 23.915 11.1255 23.758 11.1293 23.5453C11.1466 23.3944 11.1962 23.2947 11.2956 23.1811C11.5199 23.0208 11.7378 23.0027 12.0061 23.0051Z" fill="white"/>
</svg>
