<svg width="14" height="10" viewBox="0 0 14 10" fill="none" xmlns="http://www.w3.org/2000/svg">
<path d="M6.57129 8.57227C9.88509 8.57227 12.5713 4.57227 12.5713 4.57227C12.5713 4.57227 9.88509 0.572266 6.57129 0.572266C3.25749 0.572266 0.571289 4.57227 0.571289 4.57227C0.571289 4.57227 3.25749 8.57227 6.57129 8.57227Z" stroke="#333333" stroke-width="1.14286" stroke-linejoin="round"/>
<path d="M6.57129 6.23958C6.96911 6.23958 7.35064 6.06399 7.63195 5.75143C7.91325 5.43887 8.07129 5.01494 8.07129 4.57292C8.07129 4.13089 7.91325 3.70697 7.63195 3.39441C7.35064 3.08184 6.96911 2.90625 6.57129 2.90625C6.17346 2.90625 5.79193 3.08184 5.51063 3.39441C5.22932 3.70697 5.07129 4.13089 5.07129 4.57292C5.07129 5.01494 5.22932 5.43887 5.51063 5.75143C5.79193 6.06399 6.17346 6.23958 6.57129 6.23958Z" stroke="#333333" stroke-width="1.14286" stroke-linejoin="round"/>
</svg>
