<svg width="16" height="16" viewBox="0 0 16 16" fill="none" xmlns="http://www.w3.org/2000/svg">
<path d="M15.7496 0.0486273C15.861 0.132909 15.932 0.227727 15.9915 0.364484C16.0282 0.702743 15.9392 1.00796 15.8518 1.32592C15.8368 1.38171 15.8219 1.43752 15.8071 1.49334C15.7669 1.64367 15.7262 1.79379 15.6854 1.94388C15.6423 2.10271 15.5997 2.26174 15.5572 2.42076C15.4869 2.68305 15.4163 2.94523 15.3455 3.20735C15.2505 3.55944 15.1564 3.91183 15.0628 4.26439C15.0557 4.29109 15.0486 4.31778 15.0413 4.34528C15.0129 4.45196 14.9846 4.55863 14.9563 4.66531C14.9069 4.85121 14.8575 5.03707 14.808 5.22291C14.801 5.24927 14.7939 5.27563 14.7867 5.30279C14.7725 5.35593 14.7584 5.40907 14.7442 5.46221C14.5784 6.0848 14.4133 6.70763 14.2483 7.33051C13.9479 8.46467 13.6464 9.59846 13.3446 10.7321C13.2395 11.1266 13.1346 11.521 13.0296 11.9155C13.022 11.9442 13.0144 11.9728 13.0065 12.0023C12.9685 12.1449 12.9306 12.2876 12.8926 12.4303C12.8572 12.5633 12.8218 12.6964 12.7864 12.8295C12.7729 12.8801 12.7595 12.9306 12.746 12.9812C12.7131 13.1048 12.6802 13.2284 12.6472 13.3519C12.5834 13.5909 12.5202 13.83 12.4582 14.0695C12.4273 14.1884 12.3963 14.3073 12.3652 14.4261C12.3504 14.4831 12.3357 14.5401 12.3211 14.5971C12.3008 14.6765 12.2801 14.7556 12.2594 14.8348C12.2477 14.88 12.236 14.9252 12.224 14.9718C12.1627 15.1587 12.084 15.3123 11.9337 15.4181C11.7834 15.4756 11.651 15.4827 11.5053 15.4136C11.3738 15.3272 11.2549 15.2268 11.1338 15.1224C11.108 15.1003 11.0822 15.0783 11.0555 15.0555C10.9736 14.9854 10.8917 14.9151 10.81 14.8446C10.7839 14.8222 10.7579 14.7998 10.731 14.7766C10.6271 14.6872 10.5232 14.5977 10.4194 14.5081C10.2426 14.3556 10.0652 14.2043 9.88722 14.0539C9.86283 14.0332 9.83844 14.0126 9.81331 13.9914C9.69119 13.8883 9.56897 13.7853 9.44669 13.6824C9.15457 13.4364 8.86533 13.1865 8.57771 12.9335C8.39592 12.7741 8.21169 12.6201 8.0245 12.4693C7.9272 12.3895 7.83254 12.3062 7.73796 12.2223C7.70825 12.1959 7.67853 12.1696 7.64792 12.1425C7.58867 12.0898 7.52957 12.0369 7.47063 11.9837C7.44361 11.9597 7.41659 11.9357 7.38876 11.9109C7.36457 11.8892 7.34038 11.8674 7.31545 11.845C7.25108 11.7884 7.25108 11.7884 7.15794 11.7981C7.14959 11.8174 7.14124 11.8367 7.13263 11.8566C6.92889 12.3277 6.72488 12.7986 6.52055 13.2693C6.42174 13.4969 6.32303 13.7246 6.22454 13.9525C6.12945 14.1724 6.03409 14.3923 5.93857 14.612C5.90222 14.6957 5.86595 14.7795 5.82978 14.8634C5.779 14.981 5.7279 15.0985 5.67673 15.216C5.66193 15.2505 5.64714 15.285 5.63189 15.3205C5.52782 15.5581 5.42019 15.8011 5.22658 15.9557C5.06422 16.0154 4.93835 16.0163 4.77788 15.949C4.66651 15.8647 4.59552 15.7699 4.53597 15.6331C4.53302 15.5532 4.53216 15.4732 4.53221 15.3932C4.53218 15.3558 4.53218 15.3558 4.53214 15.3176C4.53208 15.2336 4.53226 15.1497 4.53243 15.0657C4.53243 15.0056 4.53243 14.9456 4.53241 14.8856C4.5324 14.7222 4.53259 14.5588 4.5328 14.3955C4.533 14.2249 4.53302 14.0543 4.53305 13.8837C4.53315 13.5606 4.53341 13.2374 4.53372 12.9142C4.53407 12.5463 4.53424 12.1785 4.5344 11.8106C4.53472 11.0538 4.53527 10.2969 4.53597 9.54002C4.51525 9.53301 4.49453 9.52601 4.47318 9.5188C4.19944 9.42555 4.19944 9.42555 4.06763 9.36699C4.04083 9.35516 4.01404 9.34334 3.98643 9.33115C3.94406 9.31222 3.94406 9.31222 3.90084 9.2929C3.85469 9.27247 3.85469 9.27247 3.80761 9.25162C3.70635 9.20675 3.60515 9.16169 3.50396 9.11663C3.43255 9.08494 3.36114 9.05327 3.28973 9.0216C3.13863 8.95459 2.98756 8.8875 2.8365 8.82036C2.61776 8.72316 2.3989 8.62631 2.18002 8.52954C2.06083 8.47685 1.94165 8.42412 1.82247 8.37139C1.72713 8.32921 1.63178 8.28704 1.53643 8.24489C1.36186 8.16769 1.18737 8.09029 1.01305 8.01232C0.887989 7.95641 0.762589 7.90176 0.63678 7.84809C0.580324 7.82348 0.52387 7.79887 0.46742 7.77424C0.429477 7.75854 0.429477 7.75854 0.390768 7.74253C0.206957 7.66122 0.10012 7.56076 0.00993941 7.35366C-0.00658528 7.16329 -0.0107753 7.00697 0.0645639 6.83395C0.162991 6.70837 0.256273 6.63156 0.393812 6.57234C0.420374 6.56077 0.446935 6.5492 0.474302 6.53728C0.503134 6.52499 0.531966 6.5127 0.561671 6.50003C0.592118 6.48684 0.622564 6.47364 0.653933 6.46004C0.719928 6.43147 0.785958 6.403 0.852019 6.37463C0.9577 6.32924 1.06329 6.28359 1.16886 6.23785C1.27828 6.19045 1.38771 6.14306 1.49717 6.09575C1.81708 5.95748 2.1364 5.81746 2.45552 5.67678C2.60643 5.61026 2.75738 5.54384 2.90833 5.47742C2.93891 5.46396 2.9695 5.4505 3.00101 5.43663C3.37728 5.27106 3.75373 5.10605 4.13019 4.94105C4.16602 4.92534 4.20186 4.90963 4.23878 4.89345C4.42104 4.81356 4.6033 4.73368 4.78556 4.65381C5.10889 4.5121 5.4322 4.37034 5.75552 4.22858C5.93426 4.15021 6.11301 4.07185 6.29176 3.99348C6.36329 3.96212 6.43482 3.93075 6.50635 3.89939C6.93554 3.71122 6.93555 3.71122 7.04284 3.66418C7.11438 3.63282 7.18592 3.60145 7.25746 3.57009C7.43617 3.49173 7.61488 3.41339 7.79359 3.33504C8.11694 3.19328 8.44029 3.05151 8.76361 2.90966C9.49232 2.58997 10.2211 2.27065 10.9504 1.95273C11.5064 1.71037 12.062 1.4668 12.6172 1.22239C13.0738 1.02143 13.5305 0.820813 13.9873 0.620486C14.0621 0.587691 14.1369 0.55489 14.2116 0.522082C14.2472 0.506488 14.2827 0.490894 14.3193 0.474828C14.3539 0.459635 14.3886 0.444442 14.4242 0.428788C14.5233 0.385401 14.6224 0.342212 14.7215 0.299031C14.8316 0.250943 14.9414 0.201953 15.0508 0.151603C15.0735 0.141344 15.0962 0.131085 15.1195 0.120515C15.1774 0.0942745 15.2351 0.0675725 15.2929 0.0408219C15.4527 -0.0118107 15.5908 -0.0180003 15.7496 0.0486273ZM11.759 2.78834C11.7296 2.80124 11.7002 2.81413 11.67 2.82742C11.6378 2.84172 11.6057 2.85602 11.5727 2.87076C11.5389 2.88561 11.5052 2.90046 11.4705 2.91576C11.3589 2.96495 11.2473 3.01439 11.1358 3.06383C11.0577 3.09826 10.9797 3.13267 10.9017 3.16706C10.7815 3.22003 10.6613 3.27301 10.5411 3.32607C10.1896 3.48122 9.83767 3.63492 9.48559 3.78821C8.89672 4.04464 8.30836 4.30261 7.72028 4.56147C7.25205 4.76757 6.78365 4.97316 6.31517 5.1785C6.26141 5.20206 6.26141 5.20206 6.20657 5.2261C6.02431 5.30599 5.84205 5.38587 5.65979 5.46574C5.44353 5.56053 5.22726 5.65534 5.01101 5.75015C4.97559 5.76568 4.94017 5.78121 4.90368 5.79721C4.72635 5.87496 4.54902 5.95271 4.37168 6.03046C4.03529 6.17796 3.69889 6.32543 3.36247 6.47284C3.22238 6.53422 3.0823 6.59561 2.94221 6.65701C2.84642 6.69899 2.75062 6.74097 2.65481 6.78293C2.54923 6.82919 2.44365 6.87546 2.33806 6.92173C2.29113 6.94229 2.29113 6.94229 2.24324 6.96326C2.19991 6.98225 2.19991 6.98225 2.1557 7.00164C2.13073 7.01258 2.10576 7.02352 2.08003 7.03479C2.00362 7.0687 1.92756 7.10351 1.85157 7.13861C1.93533 7.21577 2.01162 7.26799 2.11207 7.31118C2.13892 7.32286 2.16577 7.33454 2.19344 7.34658C2.22258 7.35899 2.25171 7.37139 2.28173 7.38418C2.3125 7.39751 2.34327 7.41085 2.37498 7.42459C2.47615 7.46838 2.57744 7.51185 2.67874 7.55527C2.82041 7.61615 2.96205 7.67716 3.10366 7.73826C3.13965 7.75377 3.17565 7.76929 3.21273 7.78527C3.45601 7.89063 3.69751 8.00031 3.93839 8.11264C4.03169 8.15571 4.12501 8.19872 4.21833 8.24172C4.27771 8.26935 4.33697 8.29734 4.39609 8.3257C4.4783 8.3651 4.56088 8.40321 4.64363 8.4411C4.66759 8.453 4.69156 8.46491 4.71624 8.47718C4.84157 8.5342 4.84158 8.5342 4.97118 8.51378C5.03784 8.47285 5.03784 8.47285 5.12903 8.39307C5.15146 8.37584 5.17389 8.35861 5.197 8.34085C5.21601 8.32482 5.23503 8.30879 5.25462 8.29227C5.27653 8.27393 5.29844 8.25558 5.32101 8.23668C5.34393 8.21733 5.36684 8.19797 5.39045 8.17802C5.44042 8.13618 5.49042 8.09436 5.54043 8.05258C5.56556 8.03155 5.5907 8.01053 5.6166 7.98887C5.72906 7.8954 5.84258 7.80368 5.95621 7.71208C6.13738 7.56584 6.31735 7.41786 6.4966 7.26853C6.72086 7.08178 6.94728 6.89883 7.17454 6.71694C7.37255 6.5582 7.56863 6.39661 7.76411 6.23382C8.02952 6.01297 8.2977 5.79667 8.56583 5.58022C8.8394 5.35929 9.11171 5.13657 9.38254 4.91124C9.56198 4.76213 9.74269 4.6152 9.92388 4.46893C10.083 4.34029 10.2409 4.20981 10.3983 4.0786C10.5966 3.9135 10.7964 3.75108 10.9973 3.59026C11.2062 3.42282 11.4145 3.25451 11.6215 3.08399C11.6449 3.06491 11.6682 3.04583 11.6923 3.02617C11.8023 2.93511 11.9039 2.84535 11.9961 2.73005C11.8996 2.73005 11.8481 2.74891 11.759 2.78834ZM14.3996 2.73005C14.09 3.07848 14.09 3.07848 13.7993 3.44731C13.7129 3.55882 13.6195 3.66232 13.527 3.76711C13.445 3.86049 13.3664 3.9553 13.2915 4.0562C13.189 4.19424 13.0776 4.32082 12.9652 4.44808C12.8832 4.54147 12.8046 4.63629 12.7296 4.7372C12.6272 4.87523 12.5157 5.00181 12.4034 5.12908C12.3214 5.22246 12.2427 5.31728 12.1678 5.41819C12.0791 5.53765 11.9841 5.64852 11.8869 5.75869C11.7903 5.86813 11.6959 5.97816 11.6079 6.09695C11.4987 6.24414 11.3793 6.3783 11.2596 6.51409C11.1549 6.63344 11.0567 6.7565 10.9611 6.88561C10.8737 6.9978 10.7798 7.10229 10.6866 7.20792C10.6046 7.3013 10.5259 7.39612 10.451 7.49703C10.3485 7.63506 10.2371 7.76164 10.1247 7.88891C10.0427 7.98229 9.96408 8.07711 9.88917 8.17802C9.78669 8.31606 9.67523 8.44264 9.56289 8.5699C9.48088 8.66329 9.40223 8.75811 9.32732 8.85902C9.23863 8.97848 9.14365 9.08934 9.04639 9.19952C8.94979 9.30896 8.85538 9.41899 8.76742 9.53778C8.6582 9.68494 8.5389 9.81907 8.41921 9.95483C8.31409 10.0746 8.21532 10.1981 8.11936 10.3277C8.00279 10.4781 7.87608 10.6176 7.75101 10.7586C7.79282 10.8703 7.83256 10.9288 7.9194 10.9978C7.94117 11.0154 7.96295 11.033 7.98539 11.0511C8.02098 11.0793 8.02098 11.0793 8.0573 11.1081C8.2788 11.2874 8.49601 11.4717 8.71084 11.6614C8.90475 11.8322 9.09967 12 9.29967 12.1613C9.49775 12.3221 9.68921 12.493 9.88173 12.6625C10.0333 12.7956 10.1856 12.9266 10.3418 13.0525C10.5603 13.2291 10.7718 13.4158 10.983 13.6038C11.0095 13.6272 11.036 13.6507 11.0634 13.6749C11.0867 13.6957 11.1101 13.7165 11.1342 13.7379C11.2413 13.8263 11.353 13.9054 11.4655 13.9844C11.4726 13.9578 11.4796 13.9312 11.4869 13.9038C11.5021 13.8467 11.5021 13.8467 11.5176 13.7885C11.5292 13.745 11.5407 13.7016 11.5526 13.6568C11.5791 13.5574 11.6056 13.4579 11.6321 13.3584C11.7 13.1029 11.768 12.8474 11.836 12.5919C11.8761 12.4413 11.9162 12.2907 11.9562 12.1401C11.9644 12.1095 11.9725 12.0789 11.9809 12.0474C12.0893 11.6399 12.1978 11.2325 12.3063 10.825C12.6071 9.69509 12.9075 8.56506 13.2069 7.43465C13.364 6.84142 13.5214 6.24829 13.6794 5.65537C13.6949 5.59693 13.7105 5.5385 13.726 5.48007C13.848 5.02221 13.848 5.02221 13.9063 4.80375C13.9858 4.50595 14.065 4.20809 14.1439 3.91008C14.169 3.81505 14.1942 3.72005 14.2195 3.62507C14.2559 3.48858 14.2919 3.35196 14.3278 3.21532C14.3442 3.15387 14.3442 3.15387 14.361 3.09119C14.3755 3.03534 14.3755 3.03534 14.3904 2.97837C14.4033 2.92954 14.4033 2.92954 14.4165 2.87972C14.4384 2.80055 14.4384 2.80055 14.3996 2.73005ZM11.3863 4.60895C11.3639 4.62776 11.3415 4.64656 11.3184 4.66593C11.2942 4.68649 11.27 4.70705 11.245 4.72824C11.1936 4.77139 11.1422 4.81451 11.0908 4.8576C11.0516 4.89049 11.0516 4.89049 11.0116 4.92404C10.8984 5.01845 10.784 5.11087 10.6695 5.20314C10.4864 5.35093 10.3045 5.50039 10.1233 5.65117C9.83268 5.89287 9.53956 6.13031 9.24602 6.36727C8.97245 6.58819 8.70014 6.81092 8.42931 7.03625C8.24988 7.18536 8.06917 7.33229 7.88798 7.47856C7.72888 7.6072 7.57101 7.73768 7.41351 7.86889C7.21525 8.03399 7.01551 8.19642 6.81459 8.35723C6.56541 8.55669 6.31852 8.7595 6.07265 8.9643C5.92678 9.08578 5.78009 9.20593 5.63311 9.32563C5.54914 9.39191 5.54914 9.39191 5.47239 9.46833C5.46941 9.58072 5.46847 9.69231 5.46885 9.80471C5.46884 9.84002 5.46884 9.87533 5.46883 9.91172C5.46885 10.0291 5.4691 10.1464 5.46934 10.2637C5.4694 10.3448 5.46944 10.4259 5.46947 10.507C5.46959 10.721 5.4699 10.9349 5.47025 11.1489C5.47056 11.367 5.47071 11.5852 5.47086 11.8033C5.4712 12.2317 5.47173 12.66 5.47239 13.0884C5.54983 12.9775 5.60493 12.8638 5.65965 12.7364C5.67779 12.6944 5.69592 12.6524 5.71461 12.6091C5.72419 12.5868 5.73376 12.5645 5.74363 12.5414C5.77385 12.4709 5.80424 12.4006 5.83467 12.3302C5.92115 12.1302 6.00731 11.93 6.09338 11.7297C6.14615 11.607 6.19911 11.4844 6.25218 11.3618C6.27222 11.3154 6.2922 11.269 6.31209 11.2225C6.44849 10.9037 6.5861 10.5844 6.80167 10.325C6.82092 10.3017 6.84017 10.2783 6.86001 10.2542C6.87979 10.2307 6.89956 10.2072 6.91994 10.1829C6.9406 10.158 6.96126 10.133 6.98255 10.1073C7.10482 9.96016 7.22902 9.81546 7.35535 9.67288C7.40985 9.60914 7.46048 9.54292 7.51105 9.47505C7.60189 9.35357 7.69862 9.24021 7.79783 9.12783C7.89444 9.01839 7.98884 8.90836 8.07681 8.78957C8.18604 8.64238 8.30536 8.50822 8.42508 8.37244C8.52981 8.25309 8.62804 8.13002 8.72364 8.00091C8.81096 7.88872 8.90487 7.78423 8.99811 7.67861C9.08011 7.58522 9.15876 7.49041 9.23368 7.3895C9.33615 7.25146 9.44762 7.12488 9.55996 6.99762C9.64196 6.90423 9.72061 6.80941 9.79553 6.7085C9.88421 6.58904 9.9792 6.47818 10.0765 6.36801C10.1731 6.25857 10.2675 6.14854 10.3554 6.02975C10.4647 5.88255 10.584 5.7484 10.7037 5.61261C10.8084 5.49333 10.9066 5.37042 11.002 5.24122C11.0763 5.14602 11.1558 5.05729 11.2353 4.96793C11.3594 4.82721 11.4648 4.69027 11.5591 4.52215C11.4775 4.52215 11.4518 4.55359 11.3863 4.60895Z" fill="white"/>
</svg>
