<svg width="22" height="22" viewBox="0 0 22 22" fill="none" xmlns="http://www.w3.org/2000/svg">
<path d="M21.6557 0.0668626C21.8088 0.18275 21.9064 0.313124 21.9883 0.501166C22.0388 0.966272 21.9164 1.38595 21.7962 1.82313C21.7756 1.89985 21.7551 1.97659 21.7347 2.05335C21.6795 2.26005 21.6235 2.46646 21.5674 2.67283C21.5081 2.89123 21.4496 3.10989 21.3911 3.32854C21.2944 3.68919 21.1974 4.04969 21.1001 4.41011C20.9695 4.89423 20.8401 5.37876 20.7113 5.86354C20.7016 5.90024 20.6918 5.93695 20.6818 5.97476C20.6428 6.12144 20.6038 6.26812 20.5649 6.4148C20.497 6.67041 20.429 6.92597 20.361 7.1815C20.3513 7.21775 20.3417 7.254 20.3317 7.29134C20.3123 7.36441 20.2928 7.43747 20.2733 7.51054C20.0453 8.3666 19.8182 9.22299 19.5914 10.0795C19.1783 11.6389 18.7638 13.1979 18.3488 14.7567C18.2044 15.299 18.06 15.8414 17.9157 16.3838C17.9052 16.4232 17.8947 16.4626 17.8839 16.5031C17.8317 16.6993 17.7796 16.8955 17.7274 17.0916C17.6787 17.2746 17.63 17.4576 17.5813 17.6405C17.5628 17.7101 17.5443 17.7796 17.5258 17.8492C17.4806 18.0191 17.4353 18.189 17.3899 18.3589C17.3022 18.6875 17.2152 19.0162 17.13 19.3456C17.0876 19.5091 17.0449 19.6725 17.0022 19.8359C16.9818 19.9142 16.9616 19.9926 16.9415 20.0711C16.9136 20.1801 16.8852 20.289 16.8567 20.3978C16.8406 20.46 16.8245 20.5222 16.808 20.5863C16.7237 20.8432 16.6155 21.0544 16.4088 21.1999C16.2021 21.279 16.0202 21.2887 15.8199 21.1937C15.639 21.0749 15.4755 20.9368 15.309 20.7933C15.2735 20.763 15.238 20.7326 15.2014 20.7014C15.0886 20.605 14.9762 20.5082 14.8637 20.4113C14.8279 20.3805 14.7921 20.3497 14.7551 20.3179C14.6122 20.1949 14.4694 20.0718 14.3266 19.9486C14.0836 19.739 13.8397 19.5309 13.5949 19.3241C13.5614 19.2957 13.5279 19.2674 13.4933 19.2382C13.3254 19.0964 13.1573 18.9548 12.9892 18.8133C12.5875 18.475 12.1898 18.1314 11.7943 17.7836C11.5444 17.5644 11.2911 17.3527 11.0337 17.1452C10.8999 17.0356 10.7697 16.921 10.6397 16.8056C10.5988 16.7694 10.558 16.7332 10.5159 16.6959C10.4344 16.6234 10.3532 16.5507 10.2721 16.4776C10.235 16.4446 10.1978 16.4115 10.1595 16.3775C10.1263 16.3476 10.093 16.3177 10.0588 16.2869C9.97024 16.209 9.97024 16.209 9.84217 16.2223C9.83069 16.2489 9.8192 16.2754 9.80737 16.3028C9.52723 16.9505 9.2467 17.598 8.96576 18.2453C8.8299 18.5583 8.69417 18.8714 8.55875 19.1846C8.42799 19.4871 8.29687 19.7894 8.16553 20.0915C8.11555 20.2066 8.06569 20.3219 8.01595 20.4371C7.94612 20.5989 7.87586 20.7605 7.8055 20.922C7.78516 20.9694 7.76481 21.0168 7.74385 21.0657C7.60075 21.3924 7.45276 21.7265 7.18655 21.9391C6.96331 22.0211 6.79023 22.0224 6.56958 21.9299C6.41646 21.814 6.31884 21.6836 6.23696 21.4956C6.2329 21.3857 6.23173 21.2756 6.2318 21.1657C6.23174 21.1142 6.23174 21.1142 6.23169 21.0617C6.23161 20.9462 6.23185 20.8308 6.23209 20.7153C6.2321 20.6327 6.23209 20.5502 6.23207 20.4676C6.23205 20.243 6.23231 20.0184 6.23261 19.7938C6.23287 19.5593 6.2329 19.3247 6.23295 19.0902C6.23308 18.6458 6.23344 18.2014 6.23387 17.757C6.23435 17.2512 6.23458 16.7454 6.2348 16.2396C6.23525 15.1989 6.236 14.1582 6.23696 13.1175C6.20847 13.1079 6.17998 13.0983 6.15062 13.0883C5.77423 12.9601 5.77423 12.9601 5.59299 12.8796C5.55615 12.8633 5.5193 12.8471 5.48134 12.8303C5.42308 12.8043 5.42308 12.8043 5.36365 12.7777C5.3002 12.7496 5.3002 12.7496 5.23546 12.721C5.09623 12.6593 4.95708 12.5973 4.81794 12.5354C4.71976 12.4918 4.62157 12.4482 4.52337 12.4047C4.31561 12.3126 4.10789 12.2203 3.90018 12.128C3.59942 11.9943 3.29849 11.8612 2.99753 11.7281C2.83364 11.6557 2.66977 11.5832 2.5059 11.5107C2.3748 11.4527 2.2437 11.3947 2.11259 11.3367C1.87256 11.2306 1.63263 11.1241 1.39295 11.0169C1.22098 10.9401 1.04856 10.8649 0.875572 10.7911C0.797945 10.7573 0.720321 10.7234 0.642702 10.6896C0.590531 10.668 0.590531 10.668 0.537306 10.646C0.284566 10.5342 0.137666 10.396 0.0136667 10.1113C-0.00905476 9.84952 -0.0148161 9.63458 0.0887754 9.39668C0.224112 9.22401 0.352375 9.11839 0.541492 9.03696C0.578014 9.02105 0.614536 9.00515 0.652165 8.98876C0.691809 8.97186 0.731453 8.95496 0.772298 8.93754C0.814162 8.9194 0.856025 8.90126 0.899158 8.88256C0.989901 8.84327 1.08069 8.80413 1.17153 8.76512C1.31684 8.70271 1.46202 8.63993 1.60718 8.57704C1.75764 8.51186 1.90811 8.44671 2.05861 8.38166C2.49849 8.19153 2.93755 7.999 3.37633 7.80558C3.58384 7.71411 3.7914 7.62278 3.99895 7.53145C4.04101 7.51294 4.08306 7.49443 4.12639 7.47536C4.64376 7.24771 5.16138 7.02082 5.67901 6.79394C5.72828 6.77234 5.77756 6.75074 5.82833 6.72849C6.07893 6.61865 6.32954 6.50881 6.58014 6.39898C7.02472 6.20414 7.46928 6.00922 7.91384 5.8143C8.15961 5.70654 8.40539 5.59879 8.65116 5.49103C8.74952 5.44791 8.84788 5.40479 8.94623 5.36167C9.53637 5.10293 9.53638 5.10293 9.68391 5.03825C9.78227 4.99512 9.88064 4.952 9.97901 4.90887C10.2247 4.80114 10.4705 4.69341 10.7162 4.58568C11.1608 4.39076 11.6054 4.19583 12.05 4.00079C13.0519 3.56121 14.0541 3.12215 15.0569 2.685C15.8213 2.35175 16.5852 2.01685 17.3487 1.68078C17.9765 1.40446 18.6045 1.12862 19.2325 0.853168C19.3354 0.808075 19.4382 0.762974 19.541 0.717863C19.5899 0.696421 19.6387 0.67498 19.6891 0.652888C19.7367 0.631998 19.7843 0.611107 19.8333 0.589584C19.9695 0.529927 20.1058 0.470542 20.242 0.411167C20.3935 0.345047 20.5445 0.277685 20.6949 0.208454C20.7261 0.194348 20.7572 0.180241 20.7894 0.165708C20.869 0.129627 20.9483 0.0929122 21.0277 0.0561301C21.2475 -0.0162397 21.4373 -0.0247504 21.6557 0.0668626ZM16.1686 3.83396C16.1282 3.8517 16.0878 3.86943 16.0462 3.88771C16.002 3.90737 15.9579 3.92703 15.9124 3.94729C15.866 3.96771 15.8197 3.98813 15.7719 4.00917C15.6184 4.07681 15.4651 4.14479 15.3117 4.21276C15.2044 4.26011 15.0971 4.30743 14.9898 4.3547C14.8245 4.42754 14.6592 4.50039 14.494 4.57335C14.0107 4.78668 13.5268 4.99801 13.0427 5.20879C12.233 5.56138 11.424 5.91609 10.6154 6.27202C9.97157 6.55541 9.32752 6.8381 8.68335 7.12044C8.60944 7.15284 8.60944 7.15284 8.53403 7.18589C8.28343 7.29573 8.03283 7.40557 7.78222 7.5154C7.48485 7.64573 7.18749 7.77609 6.89013 7.90646C6.84144 7.92781 6.79274 7.94916 6.74256 7.97116C6.49873 8.07807 6.2549 8.18498 6.01107 8.29189C5.54853 8.49469 5.08598 8.69747 4.6234 8.90015C4.43078 8.98456 4.23816 9.06897 4.04554 9.15339C3.91382 9.21111 3.7821 9.26883 3.65037 9.32654C3.50519 9.39013 3.36001 9.45376 3.21484 9.51739C3.1503 9.54565 3.1503 9.54565 3.08446 9.57448C3.02488 9.6006 3.02488 9.6006 2.96409 9.62725C2.92975 9.64229 2.89542 9.65734 2.86004 9.67284C2.75498 9.71947 2.6504 9.76733 2.5459 9.81558C2.66109 9.92169 2.76598 9.99349 2.90409 10.0529C2.94102 10.0689 2.97794 10.085 3.01598 10.1015C3.05604 10.1186 3.09611 10.1357 3.13738 10.1532C3.17969 10.1716 3.222 10.1899 3.26559 10.2088C3.40471 10.269 3.54397 10.3288 3.68326 10.3885C3.87807 10.4722 4.07282 10.5561 4.26753 10.6401C4.31703 10.6614 4.36652 10.6828 4.41751 10.7048C4.75201 10.8496 5.08407 11.0004 5.41529 11.1549C5.54357 11.2141 5.67188 11.2732 5.8002 11.3324C5.88185 11.3704 5.96333 11.4088 6.04462 11.4478C6.15766 11.502 6.27122 11.5544 6.385 11.6065C6.41794 11.6229 6.45089 11.6393 6.48483 11.6561C6.65717 11.7345 6.65717 11.7345 6.83538 11.7064C6.92703 11.6502 6.92703 11.6502 7.05242 11.5405C7.08326 11.5168 7.1141 11.4931 7.14587 11.4687C7.17202 11.4466 7.19817 11.4246 7.22511 11.4019C7.25523 11.3766 7.28536 11.3514 7.31639 11.3254C7.3479 11.2988 7.37941 11.2722 7.41187 11.2448C7.48058 11.1872 7.54932 11.1297 7.61809 11.0723C7.65265 11.0434 7.68721 11.0145 7.72283 10.9847C7.87746 10.8562 8.03355 10.7301 8.18978 10.6041C8.4389 10.403 8.68636 10.1996 8.93282 9.99423C9.24118 9.73745 9.55251 9.48589 9.865 9.23579C10.1372 9.01752 10.4069 8.79534 10.6757 8.5715C11.0406 8.26783 11.4093 7.97042 11.778 7.6728C12.1542 7.36903 12.5286 7.06278 12.901 6.75295C13.1477 6.54792 13.3962 6.3459 13.6453 6.14477C13.8641 5.96789 14.0812 5.78849 14.2977 5.60808C14.5703 5.38107 14.845 5.15773 15.1212 4.9366C15.4085 4.70638 15.695 4.47495 15.9796 4.24049C16.0117 4.21425 16.0438 4.18801 16.0769 4.16098C16.2282 4.03578 16.3678 3.91236 16.4947 3.75382C16.3619 3.75382 16.2912 3.77975 16.1686 3.83396ZM19.7994 3.75382C19.3738 4.23291 19.3738 4.23291 18.9741 4.74005C18.8552 4.89337 18.7269 5.0357 18.5997 5.17978C18.4869 5.30817 18.3788 5.43854 18.2758 5.57728C18.1349 5.76708 17.9816 5.94113 17.8272 6.11611C17.7144 6.24452 17.6063 6.37489 17.5033 6.51365C17.3624 6.70345 17.2091 6.8775 17.0546 7.05248C16.9419 7.18089 16.8337 7.31126 16.7307 7.45002C16.6088 7.61428 16.4782 7.76671 16.3444 7.9182C16.2116 8.06868 16.0818 8.21997 15.9608 8.38331C15.8106 8.5857 15.6466 8.77016 15.482 8.95687C15.338 9.12098 15.2029 9.29019 15.0714 9.46772C14.9514 9.62198 14.8223 9.76565 14.694 9.91089C14.5813 10.0393 14.4732 10.1697 14.3702 10.3084C14.2292 10.4982 14.076 10.6723 13.9215 10.8472C13.8088 10.9756 13.7006 11.106 13.5976 11.2448C13.4567 11.4346 13.3034 11.6086 13.149 11.7836C13.0362 11.912 12.9281 12.0424 12.8251 12.1811C12.7031 12.3454 12.5725 12.4978 12.4388 12.6493C12.306 12.7998 12.1762 12.9511 12.0552 13.1144C11.905 13.3168 11.741 13.5012 11.5764 13.6879C11.4319 13.8526 11.2961 14.0224 11.1641 14.2006C11.0038 14.4074 10.8296 14.5992 10.6576 14.7931C10.7151 14.9467 10.7698 15.0271 10.8892 15.1219C10.9191 15.1462 10.9491 15.1704 10.9799 15.1953C11.0289 15.2341 11.0289 15.2341 11.0788 15.2736C11.3833 15.5201 11.682 15.7736 11.9774 16.0344C12.244 16.2693 12.512 16.5 12.787 16.7217C13.0594 16.9429 13.3227 17.1779 13.5874 17.4109C13.7958 17.5939 14.0052 17.7741 14.2199 17.9472C14.5204 18.1901 14.8113 18.4467 15.1016 18.7052C15.1381 18.7375 15.1745 18.7697 15.2121 18.8029C15.2442 18.8315 15.2764 18.8601 15.3095 18.8896C15.4568 19.0112 15.6103 19.1199 15.765 19.2286C15.7748 19.192 15.7845 19.1554 15.7945 19.1177C15.8154 19.0392 15.8154 19.0392 15.8367 18.9591C15.8526 18.8994 15.8685 18.8397 15.8849 18.7781C15.9213 18.6414 15.9577 18.5046 15.9941 18.3678C16.0876 18.0165 16.181 17.6652 16.2745 17.3139C16.3296 17.1068 16.3847 16.8997 16.4398 16.6926C16.451 16.6506 16.4622 16.6086 16.4737 16.5652C16.6228 16.0049 16.772 15.4446 16.9211 14.8843C17.3348 13.3307 17.7479 11.777 18.1595 10.2226C18.3755 9.40695 18.5919 8.59141 18.8091 7.77613C18.8305 7.69578 18.8519 7.61544 18.8733 7.53509C19.041 6.90554 19.041 6.90554 19.1212 6.60515C19.2304 6.19569 19.3394 5.78613 19.4478 5.37636C19.4824 5.24569 19.5171 5.11507 19.5519 4.98447C19.6019 4.7968 19.6513 4.60894 19.7007 4.42106C19.7233 4.33657 19.7233 4.33657 19.7463 4.25038C19.7664 4.1736 19.7664 4.1736 19.7868 4.09526C19.8046 4.02812 19.8046 4.02812 19.8227 3.95962C19.8528 3.85075 19.8528 3.85075 19.7994 3.75382ZM15.6562 6.33731C15.6254 6.36316 15.5946 6.38902 15.5628 6.41566C15.5295 6.44393 15.4962 6.4722 15.4619 6.50133C15.3912 6.56066 15.3205 6.61995 15.2498 6.67921C15.196 6.72442 15.196 6.72442 15.141 6.77055C14.9853 6.90037 14.8281 7.02745 14.6706 7.15432C14.4189 7.35753 14.1687 7.56304 13.9195 7.77035C13.5199 8.10269 13.1169 8.42918 12.7133 8.755C12.3371 9.05877 11.9627 9.36501 11.5903 9.67485C11.3436 9.87987 11.0951 10.0819 10.846 10.283C10.6272 10.4599 10.4101 10.6393 10.1936 10.8197C9.92097 11.0467 9.64633 11.2701 9.37006 11.4912C9.02743 11.7654 8.68796 12.0443 8.34989 12.3259C8.14932 12.493 7.94762 12.6581 7.74552 12.8227C7.63007 12.9139 7.63007 12.9139 7.52453 13.019C7.52044 13.1735 7.51915 13.3269 7.51966 13.4815C7.51966 13.53 7.51965 13.5786 7.51964 13.6286C7.51967 13.7899 7.52001 13.9513 7.52034 14.1126C7.52042 14.2241 7.52049 14.3357 7.52053 14.4472C7.52069 14.7414 7.52111 15.0356 7.52159 15.3297C7.52203 15.6297 7.52222 15.9296 7.52244 16.2295C7.5229 16.8185 7.52363 17.4075 7.52453 17.9965C7.63102 17.8441 7.70679 17.6877 7.78202 17.5126C7.80696 17.4548 7.83189 17.3971 7.85759 17.3376C7.87076 17.3069 7.88392 17.2761 7.89749 17.2445C7.93904 17.1476 7.98082 17.0508 8.02267 16.954C8.14158 16.679 8.26005 16.4037 8.3784 16.1284C8.45096 15.9596 8.52378 15.791 8.59675 15.6225C8.62431 15.5587 8.65177 15.4948 8.67912 15.4309C8.86667 14.9926 9.05589 14.5536 9.35229 14.1969C9.37876 14.1648 9.40524 14.1326 9.43251 14.0995C9.45971 14.0672 9.4869 14.0348 9.51491 14.0015C9.54332 13.9672 9.57173 13.9329 9.601 13.8976C9.76913 13.6952 9.9399 13.4963 10.1136 13.3002C10.1885 13.2126 10.2582 13.1215 10.3277 13.0282C10.4526 12.8612 10.5856 12.7053 10.722 12.5508C10.8549 12.4003 10.9847 12.249 11.1056 12.0857C11.2558 11.8833 11.4199 11.6988 11.5845 11.5121C11.7285 11.348 11.8635 11.1788 11.995 11.0013C12.1151 10.847 12.2442 10.7033 12.3724 10.5581C12.4852 10.4297 12.5933 10.2993 12.6963 10.1606C12.8372 9.97076 12.9905 9.79671 13.1449 9.62173C13.2577 9.49332 13.3658 9.36295 13.4688 9.22419C13.5908 9.05993 13.7214 8.9075 13.8551 8.75601C13.988 8.60553 14.1178 8.45424 14.2387 8.2909C14.3889 8.08851 14.553 7.90405 14.7176 7.71734C14.8615 7.55332 14.9966 7.38433 15.1278 7.20668C15.2299 7.07578 15.3392 6.95378 15.4485 6.8309C15.6191 6.63742 15.764 6.44913 15.8938 6.21795C15.7816 6.21795 15.7462 6.26118 15.6562 6.33731Z" fill="#AB47FF"/>
</svg>
