<?xml version="1.0" encoding="UTF-8"?>
<svg version="1.1" xmlns="http://www.w3.org/2000/svg" width="512" height="512">
<path d="M0 0 C1.67347161 -0.00571287 3.34693933 -0.01268066 5.020401 -0.02079773 C9.53713135 -0.03864515 14.05366653 -0.03757643 18.57042146 -0.03185534 C22.35482273 -0.02875058 26.1391872 -0.03487036 29.92358321 -0.04089409 C38.85956878 -0.05491073 47.79545869 -0.05340253 56.73144531 -0.04199219 C65.91837267 -0.03051988 75.10500779 -0.04457828 84.29189664 -0.07138866 C92.20821607 -0.09361729 100.12444425 -0.10016678 108.04079264 -0.09431225 C112.75614117 -0.09095782 117.47130255 -0.09325596 122.18662453 -0.11056328 C126.62489739 -0.12614454 131.06274095 -0.12195433 135.50099754 -0.10325813 C137.11897073 -0.09960264 138.73697653 -0.10259067 140.35491943 -0.11314392 C157.12400656 -0.21407249 171.70920283 2.95500268 184.18432617 15.09155273 C190.18432617 21.50881892 190.18432617 21.50881892 190.18432617 24.40405273 C191.29254636 24.40220915 192.40076654 24.40036556 193.54256916 24.39846611 C220.52645547 24.35403776 247.51033703 24.3211873 274.4942522 24.30042839 C287.54354465 24.29012233 300.59281292 24.27607478 313.64208984 24.25317383 C325.01779388 24.23321947 336.3934804 24.22033142 347.76920146 24.21587574 C353.7907498 24.21327185 359.81224803 24.20716541 365.83378029 24.19259262 C371.50621493 24.17897644 377.17857901 24.17483826 382.85102844 24.17783737 C384.92822338 24.17728902 387.00542078 24.17333572 389.08260155 24.16564178 C408.25449587 24.09813638 425.72867599 25.14341976 440.18432617 39.40405273 C450.2141367 50.70301327 453.95467831 62.65526166 453.80578613 77.57568359 C453.81012607 78.95690663 453.81665191 80.33812419 453.8251462 81.71932793 C453.84199446 85.47726448 453.82805845 89.23452585 453.80863142 92.99242616 C453.7931089 97.059159 453.80663038 101.12581418 453.81637573 105.19255066 C453.83085333 113.14217427 453.81871993 121.09154127 453.79726249 129.0411405 C453.77318711 138.30200803 453.77497067 147.56281761 453.7775684 156.82370949 C453.78125286 173.34354504 453.76047771 189.86325997 453.72631836 206.38305664 C453.6931876 222.41140792 453.67906796 238.43963275 453.68530273 254.46801758 C453.69206441 271.93681546 453.68961613 289.40556048 453.66994333 306.87435055 C453.66890385 307.7976059 453.66786436 308.72086126 453.66679338 309.67209405 C453.66470252 311.526311 453.66259155 313.38052794 453.6604602 315.23474485 C453.65356364 321.69067054 453.65289538 328.14657994 453.65434265 334.60250854 C453.65578117 342.4633041 453.64611216 350.32399656 453.62239629 358.18475789 C453.61052618 362.19553777 453.603418 366.20617381 453.60923386 370.21697044 C453.61439828 373.88683753 453.60574408 377.55640047 453.58595926 381.22621548 C453.57896026 383.18533548 453.58667623 385.1444909 453.59488058 387.10360622 C453.58582394 388.26551511 453.5767673 389.42742399 453.56743622 390.62454224 C453.56586502 391.62717165 453.56429381 392.62980106 453.562675 393.66281319 C453.09555948 397.0471914 452.36133144 398.75750039 450.18432617 401.40405273 C444.94966996 404.3724607 440.59178295 404.83576748 434.65879822 404.78157616 C433.82213863 404.78593648 432.98547904 404.7902968 432.12346613 404.79478925 C429.3192874 404.80573957 426.51560095 404.79532449 423.71142578 404.78500366 C421.6809689 404.78846031 419.6505139 404.79322491 417.62006283 404.7991854 C412.03976727 404.81172406 406.45962536 404.80551191 400.8793292 404.79622674 C394.86152822 404.78944836 388.84375395 404.79991147 382.82595825 404.8081665 C371.71831968 404.82074705 360.61072344 404.81964062 349.50308457 404.8114321 C339.24178704 404.80388622 328.98050749 404.80191496 318.71920776 404.80550003 C317.69832942 404.80584376 317.69832942 404.80584376 316.65682726 404.80619444 C313.89412707 404.80712845 311.13142688 404.80808365 308.3687267 404.80907373 C282.45107014 404.81825129 256.53344483 404.80992947 230.61579309 404.79378304 C207.58816499 404.77954616 184.56058665 404.78082004 161.53295898 404.79516602 C135.6627873 404.81122898 109.79264321 404.81760042 83.92246723 404.80832922 C81.16479302 404.80736707 78.4071188 404.80642855 75.64944458 404.80550003 C74.97043201 404.8052628 74.29141943 404.80502557 73.59183072 404.80478115 C63.3368375 404.80136834 53.08186423 404.80536027 42.82687378 404.81293869 C31.16680037 404.82151249 19.50677433 404.81909139 7.84670615 404.80309646 C1.89552331 404.79520235 -4.05555843 404.79214162 -10.00674057 404.80204391 C-15.45207629 404.81096761 -20.89721694 404.80609624 -26.3425349 404.79011126 C-28.31484435 404.78675361 -30.2871702 404.78847953 -32.25946915 404.79573862 C-34.93659696 404.8048378 -37.6130533 404.79552805 -40.29014587 404.78157616 C-41.44356777 404.7921114 -41.44356777 404.7921114 -42.62029111 404.80285949 C-47.72395924 404.74956066 -51.3416598 403.94112458 -55.81567383 401.40405273 C-58.82894295 397.77775602 -59.19201172 394.88547392 -59.19878387 390.24972534 C-59.21236883 388.38145977 -59.21236883 388.38145977 -59.22622824 386.47545147 C-59.22112402 385.09601933 -59.21573194 383.71658822 -59.21008301 382.3371582 C-59.21497188 380.86954945 -59.22116167 379.40194455 -59.2285409 377.9343462 C-59.24496531 373.90032132 -59.24261738 369.86649156 -59.23716593 365.83244491 C-59.23449866 361.4818441 -59.2490222 357.13129565 -59.26126099 352.78071594 C-59.28233324 344.25521405 -59.28685469 335.72978014 -59.2850731 327.20425528 C-59.28376585 320.27179207 -59.28756777 313.33935008 -59.29499817 306.40689087 C-59.29709738 304.41044712 -59.29919498 302.41400337 -59.30129099 300.41755962 C-59.30233452 299.42385746 -59.30337804 298.4301553 -59.30445319 297.40634096 C-59.32336437 278.60345334 -59.32230329 259.80060472 -59.31548387 240.99771154 C-59.30991344 223.80902327 -59.33071091 206.62048428 -59.36384434 189.43183088 C-59.39761086 171.77741323 -59.41274559 154.12306702 -59.40812731 136.46861649 C-59.40588488 126.55924305 -59.41109198 116.65000743 -59.4360199 106.74066162 C-59.45707181 98.30016934 -59.46058697 89.85989035 -59.44172031 81.41938919 C-59.43258461 77.11593484 -59.43135226 72.81287773 -59.45207596 68.50945473 C-59.47087241 64.56238974 -59.46618661 60.61604489 -59.44353014 56.66900659 C-59.43936594 55.24834083 -59.44347038 53.82761893 -59.45712608 52.4070127 C-59.5851033 38.10875769 -55.50482682 25.50631447 -45.56176758 15.02905273 C-32.27106573 2.38312672 -17.69566297 -0.05489736 0 0 Z " fill="#FFB14E" transform="translate(58.815673828125,53.595947265625)"/>
<path d="M0 0 C28.10330027 -0.0467514 56.20659469 -0.08200426 84.30992603 -0.10362434 C97.35921848 -0.1139304 110.40848675 -0.12797796 123.45776367 -0.15087891 C134.83346771 -0.17083326 146.20915423 -0.18372131 157.58487529 -0.18817699 C163.60642363 -0.19078089 169.62792186 -0.19688732 175.64945412 -0.21146011 C181.32188876 -0.2250763 186.99425284 -0.22921447 192.66670227 -0.22621536 C194.74389721 -0.22676372 196.82109461 -0.23071701 198.89827538 -0.23841095 C218.0701697 -0.30591636 235.54434982 0.73936702 250 15 C260.39747502 26.71314849 263.79299583 38.85226936 263.48828125 54.26953125 C263.47892571 55.68583409 263.47182261 57.10215341 263.46684265 58.51847839 C263.44798732 62.19966367 263.39908159 65.87982145 263.34332275 69.56060791 C263.29165825 73.33518585 263.26922923 77.10993407 263.24414062 80.88476562 C263.19093381 88.25697276 263.10589325 95.62834103 263 103 C262.67 103 262.34 103 262 103 C261.78085937 102.17757812 261.56171875 101.35515625 261.3359375 100.5078125 C257.10884334 85.62706639 250.15089968 75.32532416 236.78515625 67.32421875 C229.74270111 63.97584247 223.4194739 62.55540471 215.6415863 62.60127258 C214.74368207 62.59462576 213.84577783 62.58797893 212.92066437 62.58113068 C209.93584264 62.56259632 206.95142515 62.56509952 203.96655273 62.56762695 C201.81746356 62.55860396 199.66837954 62.54827543 197.51930237 62.53674316 C191.70182537 62.50921029 185.88444612 62.49989364 180.06691241 62.49388909 C173.98101616 62.48449582 167.89519265 62.45829161 161.80934143 62.43388367 C150.29238304 62.39024131 138.77543879 62.36168038 127.25842291 62.33856028 C114.14354874 62.31149653 101.02874783 62.2675857 87.91392601 62.22227156 C60.94265707 62.12945765 33.97136517 62.05776196 7 62 C6.98598145 60.0494873 6.98598145 60.0494873 6.97167969 58.05957031 C6.93147212 53.1837477 6.86563078 48.30853584 6.79248047 43.43310547 C6.76444795 41.33260002 6.74314634 39.23199255 6.72900391 37.13134766 C6.70788719 20.63891605 6.70788719 20.63891605 2 5 C1.32903617 3.33505863 0.66116167 1.66885813 0 0 Z " fill="#FFD76B" transform="translate(249,78)"/>
</svg>
