<svg width="30" height="30" viewBox="0 0 30 30" fill="none" xmlns="http://www.w3.org/2000/svg">
<rect width="30" height="30" rx="8" fill="#FF34C5"/>
<path d="M21.4237 8.10172C21.4475 8.1182 21.4713 8.13467 21.4957 8.15164C22.0188 8.53053 22.4218 9.17497 22.4887 9.76866C22.5455 10.5507 22.3985 11.2275 21.8231 11.845C21.8043 11.8659 21.7856 11.8868 21.7663 11.9083C21.3351 12.3679 20.6018 12.7221 19.9262 12.7808C19.033 12.831 18.27 12.6999 17.5634 12.196C17.5426 12.1817 17.5218 12.1675 17.5003 12.1529C17.3413 12.0417 17.1373 11.9688 16.9653 12.0587C16.9575 12.0628 16.9497 12.0669 16.9419 12.0711C16.912 12.0871 16.8821 12.1031 16.8514 12.1196C16.8193 12.137 16.7873 12.1543 16.7543 12.1722C16.7205 12.1904 16.6868 12.2085 16.652 12.2273C16.3802 12.3738 16.1098 12.5222 15.8396 12.6711C15.5557 12.8274 15.2704 12.982 14.9849 13.1361C14.757 13.2592 14.5294 13.3826 14.3021 13.5065C14.1048 13.6139 13.9071 13.7208 13.7092 13.8272C13.5059 13.9366 13.3874 14.1632 13.4555 14.3838C13.5771 14.8788 13.5371 15.399 13.3703 15.8808C13.3504 15.9491 13.3813 16.0218 13.4439 16.0557C13.8511 16.2764 14.2589 16.4964 14.6681 16.7142C15.0037 16.8929 15.3383 17.073 15.6722 17.254C15.9874 17.4247 16.3037 17.5936 16.6204 17.7621C16.6571 17.7816 16.6938 17.8012 16.7317 17.8213C16.7834 17.8486 16.7834 17.8486 16.8362 17.8765C16.8957 17.9087 16.9545 17.942 17.0122 17.9766C17.1268 18.0476 17.2745 18.0579 17.3795 17.9733C17.4188 17.9416 17.456 17.9061 17.4968 17.8694C18.0198 17.4111 18.7686 17.2192 19.4873 17.2132C20.2184 17.217 20.853 17.4002 21.4237 17.8109C21.4475 17.8274 21.4713 17.8439 21.4957 17.8608C22.0188 18.2397 22.4218 18.8841 22.4887 19.4778C22.5455 20.2599 22.3985 20.9367 21.8231 21.5542C21.8043 21.5751 21.7856 21.596 21.7663 21.6175C21.3351 22.0771 20.6018 22.4312 19.9262 22.49C19.0363 22.54 18.2661 22.4108 17.5634 21.9051C17.5396 21.8887 17.5159 21.8722 17.4914 21.8552C16.9683 21.4763 16.5654 20.8319 16.4985 20.2382C16.4417 19.4573 16.1521 18.6133 15.4614 18.2446C15.4189 18.2218 15.3763 18.1991 15.3337 18.1765C14.9981 17.9978 14.6636 17.8177 14.3296 17.6367C14.0145 17.466 13.6981 17.2971 13.3814 17.1286C13.3447 17.1091 13.308 17.0895 13.2702 17.0694C13.2357 17.0512 13.2012 17.033 13.1656 17.0142C13.1061 16.982 13.0473 16.9487 12.9897 16.9141C12.8751 16.8431 12.7282 16.8337 12.621 16.9154C12.5828 16.9446 12.5463 16.9769 12.5071 17.0103C11.8711 17.5261 11.1266 17.6956 10.2822 17.676C9.49739 17.6429 8.79506 17.2956 8.25506 16.8068C7.66068 16.1999 7.4628 15.4975 7.5056 14.7116C7.5654 14.0139 7.98328 13.4232 8.55314 12.9527C9.25024 12.4261 10.0502 12.2903 10.9409 12.3422C11.3704 12.3829 11.7636 12.523 12.1143 12.7262C12.5455 12.9761 13.0677 13.0854 13.5026 12.8419C13.733 12.7129 13.9652 12.5866 14.1981 12.461C14.2723 12.4209 14.3465 12.3809 14.4207 12.3408C14.4749 12.3116 14.4749 12.3116 14.5301 12.2818C14.77 12.1522 15.0093 12.0217 15.2487 11.8913C15.3358 11.8439 15.423 11.7966 15.5101 11.7493C15.8707 11.5536 16.23 11.356 16.588 11.1567C16.6326 11.1319 16.6531 11.0789 16.6369 11.0305C16.6249 10.9941 16.6128 10.9577 16.6004 10.9202C16.5884 10.8842 16.5764 10.8482 16.5641 10.8112C16.3543 10.1197 16.5009 9.38797 16.8978 8.77435C16.9795 8.66128 17.0675 8.55622 17.164 8.45266C17.1828 8.43177 17.2015 8.41089 17.2208 8.38937C18.251 7.29117 20.2089 7.22746 21.4237 8.10172ZM17.9625 9.04417C17.5768 9.45934 17.4777 9.91742 17.5301 10.4413C17.598 10.849 17.8411 11.1482 18.1624 11.4356C18.1906 11.4609 18.1906 11.4609 18.2193 11.4868C18.6179 11.8148 19.1364 11.8976 19.6614 11.8844C20.2212 11.8582 20.6559 11.6128 21.0246 11.2535C21.4103 10.8383 21.5094 10.3803 21.457 9.85639C21.3811 9.40058 21.0761 9.03682 20.677 8.75059C19.7978 8.18147 18.6746 8.35015 17.9625 9.04417ZM9.07728 13.7752C8.64493 14.2361 8.48313 14.7037 8.54482 15.2959C8.57378 15.43 8.61771 15.5505 8.67794 15.6761C8.69486 15.7135 8.69486 15.7135 8.71212 15.7518C8.93304 16.1891 9.34409 16.4972 9.84477 16.6704C10.3003 16.8129 10.8285 16.8168 11.2737 16.6411C11.8418 16.393 12.2289 16.0061 12.4322 15.475C12.5376 15.1002 12.5089 14.6852 12.3386 14.3308C12.3269 14.3055 12.3153 14.2801 12.3032 14.254C12.0846 13.8271 11.6815 13.5216 11.1993 13.3357C10.4588 13.1068 9.61944 13.2649 9.07728 13.7752ZM17.9625 18.7534C17.5768 19.1685 17.4777 19.6266 17.5301 20.1505C17.606 20.6063 17.911 20.97 18.3101 21.2563C18.7821 21.5618 19.3212 21.6484 19.8966 21.5744C20.4129 21.485 20.8319 21.1996 21.1399 20.8321C21.452 20.4177 21.5434 19.9346 21.434 19.4471C21.2914 18.9675 20.9279 18.5777 20.4453 18.3246C19.5765 17.9182 18.6074 18.1249 17.9625 18.7534Z" fill="white"/>
</svg>
