<svg width="30" height="30" viewBox="0 0 30 30" fill="none" xmlns="http://www.w3.org/2000/svg">
<rect width="30" height="30" rx="8" fill="#AB47FF"/>
<path d="M7.62813 14.6522C7.63564 14.6153 7.63564 14.6153 7.64331 14.5777C7.95303 13.0696 8.79697 11.6451 10.0217 10.7026C10.0493 10.6813 10.0493 10.6813 10.0774 10.6596C10.9614 9.98454 11.963 9.54936 13.0574 9.35679C13.0939 9.35019 13.1303 9.34359 13.1679 9.33679C13.4235 9.29772 13.6785 9.29067 13.9367 9.28731C13.971 9.28654 14.0053 9.28578 14.0407 9.28499C14.0695 9.28493 14.0957 9.28488 14.1196 9.28494C14.3916 9.28558 14.5889 9.53046 14.5858 9.80243C14.5859 9.82657 14.5859 9.85071 14.586 9.87558C14.5862 9.95639 14.5857 10.0372 14.5852 10.118C14.5852 10.176 14.5852 10.2339 14.5852 10.2919C14.5853 10.4492 14.5848 10.6065 14.5841 10.7639C14.5836 10.9283 14.5835 11.0927 14.5834 11.2572C14.5832 11.5685 14.5824 11.8799 14.5816 12.1912C14.5806 12.5457 14.5801 12.9002 14.5797 13.2546C14.5788 13.9534 14.5773 14.6522 14.5755 15.351C14.5754 15.4013 14.6162 15.442 14.6664 15.4418C15.398 15.4392 16.1295 15.4373 16.8611 15.4361C17.2149 15.4355 17.5687 15.4347 17.9225 15.4333C18.2308 15.4322 18.5391 15.4314 18.8475 15.4312C19.0107 15.431 19.174 15.4306 19.3373 15.4298C19.491 15.429 19.6446 15.4288 19.7983 15.4289C19.8547 15.4289 19.9111 15.4287 19.9675 15.4282C20.0446 15.4276 20.1216 15.4278 20.1986 15.4281C20.2321 15.4276 20.2321 15.4276 20.2662 15.4271C20.2858 15.4273 20.3043 15.4281 20.3219 15.4295C20.5397 15.4471 20.7155 15.6463 20.7177 15.8648C20.7182 15.9114 20.7182 15.9114 20.7188 15.959C20.7185 15.9924 20.7182 16.0258 20.7179 16.0602C20.7176 16.0951 20.7174 16.1301 20.7171 16.1661C20.6983 17.1897 20.3971 18.1721 19.917 19.07C19.9076 19.0875 19.8983 19.1051 19.8887 19.1232C19.3286 20.1684 18.4332 21.06 17.4067 21.6446C17.3867 21.656 17.3667 21.6674 17.3461 21.6792C16.4842 22.1656 15.4736 22.4935 14.4781 22.499C14.4529 22.4992 14.4277 22.4994 14.4018 22.4996C13.3733 22.5061 13.3733 22.5061 12.9115 22.4052C12.884 22.3997 12.8566 22.3942 12.8284 22.3886C11.6756 22.1551 10.6165 21.6223 9.74284 20.834C9.70382 20.799 9.66415 20.7647 9.62442 20.7305C9.50129 20.6241 9.39052 20.5139 9.28578 20.3893C9.25018 20.3475 9.21348 20.3067 9.17586 20.2668C8.35969 19.3981 7.869 18.2649 7.62813 17.1098C7.62285 17.0858 7.61757 17.0618 7.61213 17.0371C7.45388 16.2943 7.46668 15.393 7.62813 14.6522ZM8.56219 17.139C8.56876 17.1655 8.57533 17.1919 8.58209 17.2191C8.82275 18.167 9.27351 19.0196 9.93548 19.7388C9.98166 19.7895 10.0249 19.8408 10.0673 19.8947C10.1604 20.0023 10.2626 20.091 10.372 20.1817C10.3874 20.1947 10.4028 20.2076 10.4188 20.2209C10.7688 20.5124 11.1328 20.7649 11.5395 20.9717C11.5568 20.9805 11.574 20.9894 11.5918 20.9985C12.0926 21.2533 12.6216 21.4271 13.1742 21.5275C13.2007 21.5327 13.2273 21.5379 13.2547 21.5432C13.5375 21.5933 13.8165 21.5977 14.1028 21.597C14.1278 21.597 14.1529 21.597 14.1787 21.597C14.5928 21.596 14.9885 21.5656 15.3926 21.469C15.4158 21.4637 15.439 21.4584 15.4629 21.4529C16.3821 21.2374 17.1985 20.7733 17.9029 20.1525C17.9237 20.1352 17.9445 20.1179 17.9659 20.1001C18.4217 19.7193 18.7718 19.2279 19.0705 18.7189C19.0809 18.7012 19.0914 18.6835 19.1022 18.6652C19.3569 18.2282 19.5308 17.7457 19.6543 17.2561C19.6623 17.2264 19.6703 17.1967 19.6785 17.1661C19.7275 16.9735 19.7541 16.7828 19.7735 16.5853C19.7761 16.5597 19.7787 16.5341 19.7814 16.5077C19.7847 16.4752 19.788 16.4427 19.7912 16.4102C19.7961 16.3618 19.7581 16.3198 19.7094 16.3197C18.981 16.3179 18.2527 16.3157 17.5243 16.313C17.172 16.3117 16.8198 16.3105 16.4675 16.3097C16.1605 16.3091 15.8536 16.3081 15.5466 16.3067C15.384 16.306 15.2215 16.3055 15.0589 16.3053C14.9059 16.3051 14.7529 16.3045 14.6 16.3036C14.5438 16.3034 14.4876 16.3033 14.4314 16.3033C14.3547 16.3034 14.2781 16.3029 14.2015 16.3023C14.168 16.3025 14.168 16.3025 14.1339 16.3027C13.9071 16.2997 13.7207 16.1112 13.7172 15.8844C13.7169 15.8626 13.717 15.8401 13.7171 15.8168C13.7169 15.7928 13.7167 15.7688 13.7165 15.744C13.716 15.6636 13.7161 15.5832 13.7161 15.5028C13.7159 15.4451 13.7156 15.3875 13.7152 15.3298C13.7144 15.1733 13.7142 15.0167 13.714 14.8602C13.7137 14.6966 13.713 14.533 13.7122 14.3694C13.711 14.0596 13.7101 13.7497 13.7095 13.4399C13.7087 13.0872 13.7074 12.7345 13.7061 12.3818C13.7037 11.7457 13.7018 11.1096 13.7002 10.4734C13.6999 10.3298 13.5756 10.2178 13.4328 10.2326C13.3952 10.2364 13.3952 10.2364 13.3569 10.2403C13.1815 10.2585 13.0113 10.2841 12.8403 10.3277C12.8152 10.334 12.79 10.3402 12.7641 10.3467C11.3034 10.7226 10.0184 11.6572 9.23812 12.9566C8.87816 13.5678 8.62727 14.2155 8.50382 14.9155C8.49844 14.9454 8.49307 14.9753 8.48754 15.0061C8.44028 15.2975 8.43379 15.5848 8.43449 15.8792C8.43451 15.9169 8.43451 15.9169 8.43454 15.9553C8.43571 16.3599 8.46232 16.7454 8.56219 17.139Z" fill="white"/>
</svg>
