<svg width="30" height="30" viewBox="0 0 30 30" fill="none" xmlns="http://www.w3.org/2000/svg">
<rect width="30" height="30" rx="8" fill="url(#paint0_linear_4593_3117)"/>
<path d="M6.79374 5.88781C6.95823 6.04398 7.06397 6.19597 7.07249 6.426C7.07266 6.47809 7.07263 6.53019 7.07245 6.58228C7.07249 6.61109 7.07253 6.63991 7.07258 6.66959C7.07267 6.76695 7.07251 6.8643 7.07235 6.96166C7.07236 7.03184 7.07239 7.10201 7.07244 7.17219C7.07252 7.36566 7.07238 7.55914 7.07219 7.75261C7.07204 7.96101 7.07209 8.16941 7.07212 8.37781C7.07214 8.73909 7.07202 9.10037 7.07182 9.46164C7.07152 9.98399 7.07142 10.5063 7.07138 11.0287C7.0713 11.8761 7.07105 12.7235 7.07071 13.5709C7.07037 14.3943 7.07011 15.2176 7.06996 16.041C7.06995 16.079 7.06995 16.079 7.06994 16.1178C7.0699 16.3726 7.06985 16.6274 7.0698 16.8822C7.06942 19.0195 7.06877 21.1568 7.06795 23.2942C7.45404 23.2942 7.84013 23.2942 8.23792 23.2942C8.23755 23.1673 8.23755 23.1673 8.23718 23.0379C8.23494 22.2416 8.23331 21.4453 8.23224 20.649C8.23167 20.2396 8.2309 19.8302 8.22964 19.4208C8.22855 19.064 8.22784 18.7072 8.2276 18.3504C8.22746 18.1614 8.22712 17.9725 8.22632 17.7836C8.22558 17.6057 8.22535 17.4278 8.22551 17.2499C8.22548 17.1847 8.22527 17.1195 8.22484 17.0542C8.2243 16.965 8.22443 16.8758 8.22473 16.7866C8.22441 16.7609 8.22409 16.7352 8.22376 16.7088C8.22584 16.478 8.2848 16.3145 8.43672 16.1393C8.60568 15.9952 8.73254 15.9754 8.95157 15.9757C8.97905 15.9755 9.00653 15.9752 9.03485 15.975C9.12559 15.9743 9.21632 15.9741 9.30706 15.974C9.37026 15.9738 9.43347 15.9736 9.49667 15.9733C9.62913 15.9729 9.7616 15.9727 9.89406 15.9728C10.0636 15.9728 10.233 15.9718 10.4025 15.9705C10.5331 15.9697 10.6636 15.9696 10.7942 15.9696C10.8566 15.9695 10.9191 15.9692 10.9816 15.9686C11.0691 15.9679 11.1566 15.9681 11.2441 15.9686C11.2697 15.9682 11.2954 15.9677 11.3218 15.9673C11.5045 15.9696 11.6066 16.0192 11.7478 16.1325C11.9087 16.315 11.936 16.4214 11.935 16.6592C11.9351 16.7016 11.9351 16.7016 11.9351 16.7449C11.9352 16.8401 11.935 16.9353 11.9348 17.0305C11.9348 17.0985 11.9348 17.1666 11.9348 17.2346C11.9348 17.4198 11.9346 17.605 11.9343 17.7902C11.9341 17.9835 11.9341 18.1769 11.934 18.3702C11.9339 18.7366 11.9336 19.1029 11.9333 19.4693C11.9329 19.8863 11.9327 20.3033 11.9325 20.7203C11.9321 21.5782 11.9314 22.4362 11.9306 23.2942C12.3288 23.2942 12.7269 23.2942 13.1372 23.2942C13.1368 23.1474 13.1364 23.0007 13.1359 22.8495C13.1323 21.5038 13.1296 20.1581 13.1278 18.8125C13.1276 18.6361 13.1274 18.4598 13.1271 18.2834C13.1271 18.2307 13.1271 18.2307 13.127 18.177C13.1262 17.6085 13.1247 17.0399 13.1231 16.4714C13.1214 15.8881 13.1203 15.3047 13.12 14.7214C13.1197 14.3614 13.1189 14.0014 13.1174 13.6415C13.1165 13.3947 13.1162 13.1478 13.1164 12.901C13.1165 12.7586 13.1164 12.6162 13.1154 12.4738C13.1145 12.3433 13.1144 12.2128 13.1151 12.0824C13.1152 12.013 13.1144 11.9436 13.1136 11.8742C13.1158 11.6166 13.144 11.4324 13.32 11.2362C13.5079 11.0942 13.6755 11.0854 13.9066 11.0842C13.9322 11.084 13.9579 11.0838 13.9843 11.0836C14.0689 11.0831 14.1535 11.0829 14.2382 11.0827C14.2972 11.0824 14.3562 11.0822 14.4152 11.082C14.5389 11.0816 14.6626 11.0814 14.7863 11.0813C14.9444 11.0811 15.1025 11.0802 15.2606 11.0792C15.3825 11.0785 15.5044 11.0783 15.6264 11.0783C15.6846 11.0781 15.7429 11.0778 15.8011 11.0774C15.8829 11.0767 15.9646 11.0768 16.0463 11.077C16.0927 11.0769 16.1391 11.0768 16.1869 11.0766C16.3639 11.0948 16.5093 11.143 16.6456 11.2625C16.6627 11.284 16.6798 11.3054 16.6973 11.3276C16.715 11.3491 16.7326 11.3705 16.7508 11.3927C16.8328 11.5137 16.8344 11.6201 16.8344 11.7617C16.8345 11.8028 16.8345 11.8439 16.8346 11.8862C16.8345 11.9315 16.8344 11.9769 16.8343 12.0235C16.8343 12.0955 16.8343 12.0955 16.8344 12.169C16.8345 12.3025 16.8343 12.4359 16.8341 12.5694C16.834 12.7133 16.834 12.8571 16.834 13.0009C16.8341 13.2502 16.834 13.4995 16.8337 13.7488C16.8335 14.1093 16.8334 14.4698 16.8333 14.8302C16.8332 15.415 16.833 15.9998 16.8326 16.5846C16.8323 17.1527 16.832 17.7208 16.8319 18.289C16.8319 18.3415 16.8319 18.3415 16.8319 18.3951C16.8318 18.5707 16.8318 18.7463 16.8317 18.9219C16.8313 20.3793 16.8307 21.8367 16.8299 23.2942C17.216 23.2942 17.6021 23.2942 17.9999 23.2942C17.9995 23.1221 17.9995 23.1221 17.9991 22.9466C17.9969 21.8944 17.9953 20.8422 17.9942 19.79C17.9941 19.6521 17.994 19.5141 17.9938 19.3762C17.9938 19.3487 17.9938 19.3213 17.9937 19.293C17.9933 18.8485 17.9924 18.404 17.9914 17.9595C17.9904 17.5033 17.9898 17.0472 17.9895 16.591C17.9894 16.3096 17.9889 16.0282 17.988 15.7467C17.9874 15.5309 17.9873 15.315 17.9874 15.0991C17.9874 15.0106 17.9872 14.9221 17.9868 14.8336C17.9862 14.7127 17.9864 14.5919 17.9867 14.471C17.9863 14.436 17.986 14.4011 17.9857 14.365C17.9873 14.1264 18.0135 13.9089 18.1724 13.7188C18.1939 13.7021 18.2154 13.6855 18.2375 13.6684C18.259 13.6511 18.2805 13.6338 18.3026 13.616C18.4411 13.5251 18.5801 13.5326 18.7392 13.5323C18.766 13.5321 18.7927 13.5319 18.8203 13.5318C18.9089 13.5312 18.9974 13.531 19.086 13.5308C19.1476 13.5306 19.2092 13.5304 19.2708 13.5301C19.4001 13.5298 19.5293 13.5295 19.6586 13.5294C19.8239 13.5292 19.9893 13.5283 20.1546 13.5273C20.2819 13.5266 20.4092 13.5264 20.5366 13.5264C20.5975 13.5263 20.6584 13.526 20.7194 13.5255C20.8048 13.5249 20.8902 13.5249 20.9756 13.5252C21.0006 13.5248 21.0256 13.5245 21.0514 13.5242C21.2185 13.5256 21.3311 13.5607 21.4732 13.6478C21.7195 13.8996 21.74 14.127 21.7379 14.4622C21.738 14.5189 21.738 14.5189 21.7381 14.5767C21.7382 14.7033 21.7378 14.8299 21.7374 14.9564C21.7374 15.0472 21.7374 15.1379 21.7375 15.2287C21.7375 15.424 21.7373 15.6194 21.7369 15.8147C21.7363 16.0972 21.7361 16.3796 21.736 16.662C21.7358 17.1203 21.7353 17.5786 21.7346 18.0368C21.734 18.482 21.7335 18.9271 21.7331 19.3722C21.7331 19.3996 21.7331 19.4271 21.7331 19.4553C21.733 19.593 21.7329 19.7307 21.7328 19.8684C21.732 21.0103 21.7308 22.1522 21.7291 23.2942C21.7578 23.2938 21.7865 23.2935 21.816 23.2932C22.0871 23.2902 22.3582 23.288 22.6292 23.2866C22.7686 23.2858 22.9079 23.2848 23.0473 23.2831C23.1819 23.2815 23.3166 23.2807 23.4512 23.2803C23.5024 23.28 23.5536 23.2795 23.6048 23.2787C23.8966 23.2744 24.1145 23.2767 24.3616 23.4403C24.5416 23.634 24.5575 23.7643 24.5544 24.0231C24.5395 24.1887 24.5034 24.2608 24.3981 24.3903C24.2031 24.5249 24.0657 24.5577 23.8316 24.5549C23.7859 24.5552 23.7859 24.5552 23.7393 24.5555C23.6372 24.5561 23.5351 24.5555 23.433 24.555C23.3591 24.5552 23.2851 24.5554 23.2112 24.5557C23.008 24.5563 22.8048 24.5554 23.2112 24.5557C23.008 24.5563 22.8048 24.556 22.6016 24.5556C22.3825 24.5553 22.1634 24.5558 21.9443 24.5562C21.5398 24.5568 21.1354 24.5567 20.7309 24.5563C20.3573 24.556 19.9836 24.5559 19.61 24.556C19.5728 24.5561 19.5728 24.5561 19.5349 24.5561C19.4343 24.5561 19.3337 24.5562 19.2331 24.5562C18.2894 24.5567 17.3457 24.5563 16.4019 24.5555C15.5634 24.5548 14.725 24.5548 13.8865 24.5555C12.9445 24.5563 12.0025 24.5566 11.0605 24.5562C10.9601 24.5561 10.8596 24.5561 10.7592 24.556C10.7345 24.556 10.7098 24.556 10.6843 24.556C10.3109 24.5558 9.93749 24.556 9.56409 24.5564C9.13951 24.5568 8.71495 24.5567 8.29037 24.5559C8.07368 24.5555 7.85699 24.5554 7.64029 24.5559C7.44201 24.5563 7.24374 24.5561 7.04546 24.5553C6.97365 24.5551 6.90183 24.5552 6.83002 24.5556C6.73253 24.556 6.63509 24.5556 6.5376 24.5549C6.5096 24.5552 6.48161 24.5556 6.45276 24.5559C6.26229 24.5533 6.11804 24.5161 5.9711 24.3903C5.82276 24.2172 5.80375 24.045 5.80645 23.8242C5.80624 23.7937 5.80603 23.7633 5.80581 23.7319C5.80528 23.6299 5.80578 23.5279 5.80629 23.4258C5.80612 23.3519 5.80589 23.278 5.8056 23.2041C5.80498 23.0011 5.80529 22.798 5.80574 22.5949C5.80607 22.376 5.80556 22.157 5.80516 21.938C5.80454 21.5338 5.8046 21.1296 5.805 20.7254C5.80537 20.3519 5.80546 19.9785 5.80529 19.6051C5.80528 19.5804 5.80527 19.5556 5.80525 19.5301C5.80521 19.4295 5.80516 19.329 5.80511 19.2285C5.80467 18.2853 5.80507 17.3422 5.80586 16.399C5.80655 15.5611 5.80649 14.7231 5.80579 13.8851C5.80501 12.9437 5.8047 12.0023 5.80515 11.0608C5.8052 10.9605 5.80524 10.8601 5.80529 10.7598C5.8053 10.7351 5.80531 10.7104 5.80532 10.6849C5.80549 10.3117 5.80529 9.93855 5.80492 9.56537C5.80451 9.14106 5.80463 8.71675 5.8054 8.29244C5.80579 8.07588 5.80594 7.85932 5.80546 7.64276C5.80502 7.4446 5.80526 7.24645 5.80604 7.04829C5.8062 6.97652 5.80612 6.90475 5.80576 6.83298C5.80532 6.73555 5.80577 6.63817 5.80645 6.54074C5.80611 6.51276 5.80577 6.48478 5.80542 6.45595C5.80821 6.25617 5.85714 6.13948 5.9711 5.97459C6.20952 5.78099 6.5151 5.75852 6.79374 5.88781Z" fill="white"/>
<defs>
<linearGradient id="paint0_linear_4593_3117" x1="1.02273" y1="1.02273" x2="28.9773" y2="28.9773" gradientUnits="userSpaceOnUse">
<stop stop-color="#AB47FF"/>
<stop offset="1" stop-color="#FF34C5"/>
</linearGradient>
</defs>
</svg>
