<svg width="36" height="36" viewBox="0 0 36 36" fill="none" xmlns="http://www.w3.org/2000/svg">
    <rect width="36" height="36" rx="10" fill="#9E35C0" />
    <path d="M12.3196 8.0153C12.3522 8.01507 12.3849 8.01485 12.4185 8.01461C12.472 8.01483 12.472 8.01483 12.5266 8.01506C12.5836 8.01484 12.5836 8.01484 12.6418 8.01461C12.7697 8.0142 12.8975 8.01436 13.0253 8.01452C13.1168 8.01435 13.2083 8.01414 13.2998 8.01391C13.5487 8.01339 13.7976 8.01337 14.0465 8.01347C14.2806 8.01351 14.5146 8.01327 14.7486 8.01306C15.2407 8.01264 15.7328 8.01272 16.2248 8.01296C16.6745 8.01316 17.1242 8.01272 17.5738 8.01198C18.0358 8.01122 18.4978 8.0110 18.9598 8.01105C18.9598 8.01105 18.9598 8.01105 18.9598 8.01105C19.2191 8.01112 19.4784 8.01102 19.7376 8.01048C19.9816 8.00999 20.2256 8.01006 20.4696 8.01057C20.559 8.01066 20.6484 8.01056 20.7378 8.01023C20.8602 8.00983 20.9825 8.01014 21.1049 8.01064C21.14 8.01035 21.1752 8.01006 21.2114 8.00977C21.7042 8.01393 22.1131 8.20923 22.4723 8.54392C22.8414 8.93956 22.9907 9.41704 22.9912 9.94946C22.9913 9.97774 22.9914 10.006 22.9915 10.0351C22.9917 10.1299 22.9916 10.2247 22.9916 10.3195C22.9917 10.3881 22.9918 10.4567 22.9919 10.5254C22.9922 10.714 22.9923 10.9026 22.9923 11.0912C22.9924 11.2947 22.9927 11.4981 22.993 11.7015C22.9935 12.1464 22.9937 12.5913 22.9939 13.0361C22.994 13.3139 22.9942 13.5918 22.9943 13.8696C22.9948 14.6389 22.9952 15.4082 22.9954 16.1776C22.9954 16.2268 22.9954 16.276 22.9954 16.3268C22.9954 16.3761 22.9954 16.4255 22.9954 16.4763C22.9954 16.5763 22.9954 16.6763 22.9955 16.7764C22.9955 16.826 22.9955 16.8756 22.9955 16.9267C22.9956 17.7303 22.9963 18.5339 22.9972 19.3376C22.9982 20.1628 22.9986 20.9881 22.9987 21.8133C22.9987 22.2766 22.9989 22.7399 22.9996 23.2031C23.0002 23.5978 23.0004 23.9922 23.0001 24.3867C23 24.5879 23 24.7892 23.0006 24.9904C23.0011 25.1748 23.001 25.3592 23.0005 25.5436C23.0005 25.6101 23.0006 25.6766 23.0009 25.7431C23.0042 26.4303 22.9061 26.9764 22.422 27.4927C22.0035 27.8852 21.5648 27.9923 21.0052 27.9898C20.9561 27.99 20.9069 27.9902 20.8563 27.9905C20.7209 27.9911 20.5855 27.991 20.4501 27.9908C20.3037 27.9907 20.1573 27.9913 20.0109 27.9917C19.7244 27.9926 19.4379 27.9927 19.1515 27.9927C18.9185 27.9926 18.6855 27.9928 18.4526 27.9931C18.3853 27.9931 18.3181 27.9932 18.2509 27.9933C18.2007 27.9934 18.2007 27.9934 18.1495 27.9934C17.5172 27.9942 16.885 27.9941 16.2527 27.9939C15.675 27.9936 15.0974 27.9945 14.5197 27.9957C13.9257 27.9971 13.3318 27.9976 12.7378 27.9975C12.4047 27.9974 12.0716 27.9976 11.7384 27.9986C11.4548 27.9994 11.1712 27.9995 10.8875 27.9988C10.743 27.9984 10.5985 27.9984 10.4539 27.9992C10.2968 28 10.1397 27.9994 9.98262 27.9986C9.93752 27.9991 9.89242 27.9996 9.84596 28.0001C9.34349 27.9947 8.90326 27.8065 8.5323 27.4679C8.12025 27.0163 7.99609 26.5258 8.00136 25.9276C8.00116 25.868 8.00088 25.8084 8.00052 25.7489C7.99979 25.5865 8.00026 25.4242 8.00094 25.2619C8.00146 25.0863 8.00086 24.9107 8.0004 24.7351C7.99969 24.3918 8.00001 24.0484 8.00071 23.7051C8.00126 23.4261 8.00141 23.1471 8.00128 22.8681C8.00126 22.8283 8.00124 22.7885 8.00123 22.7476C8.00119 22.6668 8.00114 22.586 8.0011 22.5052C8.00077 21.7917 8.00142 21.0782 8.00258 20.3647C8.0037 19.6724 8.00397 18.9801 8.00337 18.2878C8.00272 17.5335 8.00256 16.7791 8.00325 16.0247C8.00332 15.9443 8.00339 15.8639 8.00346 15.7835C8.0035 15.7439 8.00353 15.7044 8.00357 15.6636C8.00379 15.3848 8.00366 15.106 8.0034 14.8272C8.0031 14.4876 8.00336 14.1481 8.00434 13.8086C8.00483 13.6353 8.00507 13.4621 8.00463 13.2888C8.00424 13.1303 8.00457 12.9718 8.00547 12.8132C8.00568 12.7558 8.00561 12.6984 8.00526 12.6411C8.00483 12.5631 8.00544 12.4852 8.00611 12.4072C8.00616 12.3639 8.0062 12.3206 8.00625 12.276C8.04229 12.0539 8.18974 11.9037 8.3443 11.749C8.39248 11.7005 8.39248 11.7005 8.44162 11.651C8.49396 11.5989 8.49396 11.5989 8.54737 11.5457C8.58477 11.5082 8.62215 11.4707 8.65952 11.4331C8.7606 11.3317 8.86192 11.2305 8.9633 11.1294C9.06952 11.0233 9.17555 10.9171 9.2816 10.8109C9.45962 10.6327 9.63781 10.4547 9.81608 10.2768C10.0221 10.0711 10.2279 9.86522 10.4335 9.65915C10.6103 9.48204 10.7871 9.30508 10.9642 9.12824C11.0698 9.0227 11.1754 8.91712 11.2809 8.81139C11.3799 8.71207 11.4792 8.61294 11.5786 8.51396C11.6325 8.46029 11.6861 8.40643 11.7397 8.35256C11.7879 8.30472 11.7879 8.30472 11.837 8.2559C11.8648 8.22812 11.8926 8.20034 11.9213 8.17171C12.0479 8.06094 12.1514 8.0155 12.3196 8.0153ZM13.597 9.19411C13.5967 9.22742 13.5963 9.26072 13.596 9.29504C13.593 9.61028 13.5896 9.92552 13.5858 10.2408C13.5838 10.4028 13.582 10.5648 13.5805 10.7269C13.5791 10.8835 13.5773 11.0401 13.5752 11.1968C13.5745 11.2563 13.5739 11.3157 13.5735 11.3752C13.57 11.8125 13.5524 12.2031 13.3486 12.5961C13.3258 12.6409 13.303 12.6858 13.2795 12.732C13.0494 13.1296 12.6778 13.3791 12.2366 13.5006C11.9223 13.5721 11.6077 13.5717 11.2871 13.5741C11.2265 13.5749 11.166 13.5756 11.1054 13.5764C10.9472 13.5784 10.789 13.58 10.6308 13.5814C10.4689 13.583 10.3069 13.585 10.145 13.5869C9.8282 13.5907 9.5114 13.594 9.1946 13.597C9.19193 15.1893 9.18987 16.7816 9.18863 18.374C9.18849 18.562 9.18834 18.75 9.18818 18.938C9.18815 18.9754 9.18812 19.0128 9.18809 19.0514C9.18758 19.6574 9.18666 20.2634 9.18559 20.8693C9.18449 21.4911 9.18384 22.113 9.18361 22.7348C9.18345 23.1185 9.18294 23.5021 9.18199 23.8858C9.18137 24.1489 9.18118 24.4121 9.18134 24.6752C9.18141 24.827 9.1813 24.9788 9.18067 25.1305C9.1801 25.2696 9.18007 25.4087 9.18047 25.5478C9.18054 25.6217 9.18004 25.6956 9.17952 25.7695C9.18115 26.0808 9.20531 26.3501 9.39427 26.6058C9.67644 26.8144 9.98438 26.8224 10.3244 26.8201C10.3705 26.8202 10.4165 26.8204 10.464 26.8205C10.591 26.8208 10.7179 26.8206 10.8449 26.8202C10.9822 26.8199 11.1195 26.8202 11.2567 26.8204C11.5253 26.8208 11.7939 26.8205 12.0624 26.8201C12.3754 26.8195 12.6883 26.8196 13.0013 26.8197C13.5598 26.8198 14.1182 26.8194 14.6767 26.8186C15.2182 26.8178 15.7598 26.8176 16.3014 26.8178C16.8916 26.8178 17.4817 26.8178 18.0719 26.8176C18.1349 26.8175 18.1978 26.8175 18.2608 26.8174C18.2918 26.8174 18.3227 26.8174 18.3547 26.8174C18.5727 26.8172 18.7907 26.8172 19.0087 26.8173C19.2744 26.8174 19.5402 26.8172 19.8059 26.8166C19.9414 26.8163 20.0769 26.8162 20.2125 26.8164C20.3595 26.8165 20.5065 26.8161 20.6535 26.8156C20.6962 26.8158 20.7388 26.8159 20.7828 26.8161C21.0675 26.8145 21.3128 26.8035 21.5568 26.6423C21.7521 26.4379 21.793 26.2461 21.7932 25.9693C21.7934 25.9412 21.7935 25.9131 21.7937 25.8841C21.7942 25.7901 21.7938 25.6961 21.7935 25.6021C21.7936 25.534 21.7938 25.4658 21.7941 25.3977C21.7947 25.2105 21.7945 25.0234 21.7942 24.8362C21.794 24.6343 21.7945 24.4325 21.7949 24.2306C21.7956 23.8351 21.7956 23.4397 21.7954 23.0442C21.7953 22.7229 21.7953 22.4015 21.7955 22.0801C21.7956 22.0344 21.7956 21.9887 21.7956 21.9416C21.7957 21.8487 21.7957 21.7558 21.7958 21.6629C21.7963 20.7917 21.7961 19.9205 21.7958 19.0493C21.7954 18.2521 21.7959 17.4548 21.7967 16.6576C21.7977 15.8392 21.7981 15.0208 21.7978 14.2024C21.7978 13.7428 21.7977 13.2833 21.7984 12.8237C21.799 12.4325 21.799 12.0414 21.7984 11.6502C21.798 11.4506 21.798 11.251 21.7985 11.0514C21.7991 10.8686 21.799 10.6859 21.7982 10.5032C21.798 10.4371 21.7982 10.371 21.7985 10.3049C21.8047 9.77733 21.8047 9.77733 21.5349 9.33536C21.303 9.19832 21.0558 9.18264 20.7931 9.18474C20.7622 9.18468 20.7312 9.18461 20.6993 9.18454C20.5963 9.18441 20.4934 9.18484 20.3905 9.18527C20.3163 9.18529 20.2422 9.18528 20.1681 9.18523C19.9674 9.18521 19.7668 9.18567 19.5661 9.18621C19.3562 9.1867 19.1463 9.18675 18.9364 9.18684C18.5392 9.18670 18.5392 9.18670 18.5392 9.18670C18.5392 9.18708 18.142 9.18772 17.7447 9.1885C17.2924 9.18937 16.8401 9.1898 16.3877 9.19019C15.4575 9.19101 14.5272 9.19238 13.597 9.19411ZM12.2362 9.57605C12.1997 9.61236 12.1997 9.61236 12.1625 9.6494C12.1357 9.6763 12.1088 9.7032 12.0812 9.73091C12.0531 9.75897 12.025 9.78703 11.996 9.81594C11.9025 9.90927 11.8092 10.0027 11.7158 10.0962C11.6513 10.1608 11.5867 10.2253 11.5221 10.2899C11.3865 10.4254 11.251 10.561 11.1156 10.6966C10.9415 10.8709 10.7673 11.045 10.593 11.2191C10.4595 11.3525 10.3262 11.4859 10.1928 11.6193C10.1286 11.6836 10.0643 11.7478 10 11.812C9.91038 11.9016 9.82085 11.9913 9.73135 12.081C9.70445 12.1079 9.67755 12.1347 9.64984 12.1623C9.62564 12.1866 9.60144 12.2109 9.5765 12.236C9.55529 12.2572 9.53408 12.2784 9.51223 12.3003C9.46297 12.3438 9.46297 12.3438 9.46732 12.3891C9.77821 12.3918 10.0891 12.3939 10.4 12.3952C10.5444 12.3958 10.6888 12.3966 10.8331 12.3979C10.9726 12.3992 11.112 12.3999 11.2515 12.4002C11.3046 12.4004 11.3576 12.4008 11.4107 12.4015C11.4853 12.4023 11.5599 12.4024 11.6345 12.4024C11.6769 12.4026 11.7193 12.4029 11.763 12.4032C11.9665 12.3793 12.1171 12.2938 12.2456 12.1358C12.2647 12.1129 12.2838 12.09 12.3036 12.0664C12.3982 11.9307 12.394 11.8075 12.3937 11.6476C12.3937 11.5992 12.3937 11.5508 12.3937 11.501C12.3935 11.4483 12.3933 11.3955 12.393 11.3427C12.393 11.2887 12.3929 11.2347 12.3929 11.1807C12.3927 11.0387 12.3923 10.8967 12.3919 10.7547C12.3915 10.6098 12.3913 10.4648 12.3911 10.3199C12.3907 10.0355 12.3901 9.75119 12.3892 9.46686C12.3202 9.46686 12.2829 9.52933 12.2362 9.57605Z" fill="white" />
</svg>
