<svg width="36" height="36" viewBox="0 0 36 36" fill="none" xmlns="http://www.w3.org/2000/svg">
    <rect width="36" height="36" rx="10" fill="#2ED573" />
    <path d="M17.9689 8.00579C18.0069 8.00388 18.0449 8.00197 18.0841 8C18.4099 8.04888 18.7025 8.2728 18.9706 8.44191C19.0227 8.4745 19.0227 8.4745 19.0759 8.50775C19.1508 8.55459 19.2257 8.60149 19.3006 8.64845C19.5041 8.77611 19.708 8.90324 19.912 9.03032C19.9752 9.0697 19.9752 9.0697 20.0397 9.10988C20.4744 9.38029 20.9124 9.64594 21.3509 9.9111C22.0051 10.3068 22.6556 10.7074 23.3036 11.1116C23.9729 11.5291 24.6465 11.9402 25.3226 12.3484C25.5363 12.4775 25.7496 12.6072 25.9626 12.7374C26.0184 12.7715 26.0184 12.7715 26.0754 12.8063C26.1866 12.8743 26.2974 12.9428 26.4081 13.0115C26.4417 13.032 26.4753 13.0525 26.5099 13.0736C26.7216 13.2059 26.8941 13.3244 26.978 13.556C26.9823 13.6729 26.9842 13.7888 26.9842 13.9057C26.9843 13.9419 26.9845 13.9781 26.9847 14.0154C26.9851 14.1372 26.9853 14.2591 26.9854 14.3809C26.9857 14.468 26.986 14.5552 26.9863 14.6423C26.987 14.8794 26.9875 15.1166 26.9878 15.3537C26.988 15.5018 26.9883 15.6499 26.9886 15.7979C26.9893 16.208 26.9899 16.6181 26.9902 17.0281C26.9903 17.1345 26.9904 17.2409 26.9904 17.3473C26.9905 17.3738 26.9905 17.4002 26.9905 17.4274C26.9909 17.8558 26.9919 18.2842 26.9933 18.7125C26.9947 19.1524 26.9955 19.5922 26.9956 20.0321C26.9957 20.279 26.9961 20.526 26.9971 20.7729C26.9981 21.0052 26.9983 21.2375 26.9979 21.4698C26.9979 21.555 26.9981 21.6403 26.9987 21.7255C26.9994 21.842 26.9992 21.9584 26.9986 22.0748C26.9993 22.1253 26.9993 22.1253 27 22.1769C26.9974 22.4018 26.9482 22.5316 26.8087 22.7171C26.7201 22.7939 26.7201 22.7939 26.6183 22.858C26.5771 22.8842 26.5358 22.9104 26.4932 22.9374C26.4433 22.968 26.3933 22.9985 26.3433 23.029C26.2998 23.0558 26.2998 23.0558 26.2553 23.0831C26.0432 23.2134 25.8302 23.3423 25.6168 23.4709C24.9317 23.8841 24.2501 24.3017 23.5721 24.7248C22.9615 25.1057 22.3481 25.4823 21.7317 25.8553C20.9777 26.3115 20.2285 26.7739 19.4815 27.2398C19.3467 27.3238 19.2119 27.4078 19.077 27.4917C19.0134 27.5313 18.9499 27.5709 18.8863 27.6106C18.7977 27.6658 18.709 27.7209 18.6202 27.776C18.5812 27.8004 18.5812 27.8004 18.5414 27.8253C18.2813 27.986 18.0634 28.0312 17.7547 27.9799C17.6478 27.9284 17.5518 27.8767 17.4518 27.8157C17.4227 27.7984 17.3935 27.7811 17.3635 27.7633C17.2678 27.7062 17.1727 27.6482 17.0778 27.59C17.0298 27.5606 17.0298 27.5606 16.9808 27.5306C16.7717 27.4022 16.5636 27.2724 16.3558 27.1422C15.6834 26.7211 15.0074 26.3053 14.3278 25.8943C13.6737 25.4986 13.0233 25.0982 12.3754 24.6939C11.6964 24.2703 11.0126 23.8535 10.3264 23.4398C9.07976 22.6875 9.07976 22.6875 9.01947 22.4417C9.01171 22.3449 9.01061 22.2498 9.01178 22.1528C9.01139 22.1159 9.011 22.079 9.0106 22.041C9.00956 21.9174 9.01003 21.7939 9.0105 21.6704C9.01003 21.5817 9.00956 21.4931 9.00896 21.4045C9.00764 21.1638 9.00766 20.9232 9.00801 20.6825C9.00819 20.4816 9.00772 20.2806 9.00727 20.0797C9.00614 19.5786 9.00633 19.0774 9.00711 18.5763C9.00775 18.1414 9.00673 17.7066 9.00491 17.2717C9.00306 16.8248 9.00234 16.3779 9.00275 15.9311C9.00297 15.6803 9.00275 15.4296 9.00144 15.1788C9.00025 14.943 9.0005 14.7072 9.00185 14.4714C9.0021 14.3849 9.00186 14.2984 9.00106 14.2119C9.00006 14.0937 9.00089 13.9756 9.00218 13.8573C9.00146 13.8232 9.00074 13.7891 9 13.7539C9.00528 13.5196 9.07936 13.4013 9.25474 13.2329C9.39563 13.1163 9.54792 13.0215 9.70755 12.9282C9.74348 12.9066 9.77941 12.8851 9.81642 12.8629C9.89385 12.8165 9.97142 12.7703 10.0491 12.7243C10.2599 12.5995 10.4695 12.4731 10.6793 12.3471C10.7441 12.3083 10.7441 12.3083 10.8103 12.2686C11.2459 12.0073 11.6764 11.7393 12.1066 11.4704C12.7554 11.0655 13.4078 10.6661 14.0629 10.2698C14.6592 9.90894 15.252 9.54364 15.8429 9.17529C17.7048 8.01469 17.7048 8.01469 17.9689 8.00579ZM18.6432 9.73567C18.6432 10.4689 18.6432 11.2022 18.6432 11.9577C18.8247 12.022 19.0062 12.0864 19.1932 12.1526C19.8827 12.5176 20.2634 12.9992 20.4855 13.7074C20.6176 14.2727 20.5226 14.9253 20.1954 15.4151C20.1729 15.445 20.1504 15.4749 20.1271 15.5057C20.1121 15.5312 20.0971 15.5568 20.0817 15.5832C20.1103 15.7025 20.1103 15.7025 20.2025 15.7473C20.2351 15.7623 20.2676 15.7773 20.3012 15.7927C20.6947 15.9875 20.9519 16.2414 21.0992 16.6385C21.1663 16.8971 21.1854 17.1144 21.1394 17.3766C21.084 17.7294 21.0427 18.1005 21.224 18.4289C21.6066 18.8747 22.2541 19.1443 22.7802 19.4188C23.1745 19.6264 23.5491 19.8617 23.9259 20.0949C24.1148 20.2113 24.3052 20.3258 24.4955 20.4405C24.7929 20.6202 25.0872 20.8035 25.3774 20.9929C25.5093 21.0873 25.5093 21.0873 25.6664 21.1188C25.7101 20.2134 25.7428 19.3082 25.7628 18.4022C25.7724 17.9813 25.7854 17.5609 25.8068 17.1404C26.0186 15.3048 26.0186 15.3048 25.3881 13.6598C25.0339 13.362 24.6217 13.1769 24.1739 13.0277C23.7357 12.8813 23.3768 12.6476 23.0011 12.3977C22.8177 12.2771 22.6303 12.162 22.4432 12.0463C22.4011 12.0202 22.3591 11.994 22.3157 11.967C21.851 11.6787 21.3825 11.3956 20.9142 11.1123C20.3078 10.7454 19.7051 10.3738 19.1059 9.99692C19.0776 9.97912 19.0492 9.96131 19.02 9.94297C18.9673 9.9099 18.9147 9.87675 18.8621 9.84352C18.7612 9.76812 18.7612 9.76812 18.6432 9.73567ZM17.1 9.86049C17.0695 9.87952 17.039 9.89855 17.0076 9.91816C16.9574 9.94986 16.9574 9.94986 16.9063 9.98221C16.8711 10.0042 16.8359 10.0262 16.7997 10.0489C16.723 10.0969 16.6463 10.1449 16.5697 10.1931C16.3623 10.3234 16.1543 10.4531 15.9464 10.5828C15.9033 10.6097 15.8603 10.6365 15.8159 10.6642C15.3788 10.9365 14.9381 11.2037 14.497 11.4704C13.8018 11.891 13.1104 12.3165 12.4218 12.7464C12.3899 12.7662 12.358 12.7859 12.3251 12.8063C12.2557 12.8499 12.1867 12.894 12.1184 12.939C11.9161 13.0701 11.7136 13.1841 11.4916 13.2836C10.7486 13.6091 10.7486 13.6091 10.2725 14.192C10.1476 14.6291 10.1857 15.0967 10.2092 15.5435C10.218 15.74 10.2188 15.9365 10.2204 16.1331C10.2247 16.5042 10.2361 16.8747 10.2502 17.2456C10.2659 17.6683 10.2735 18.091 10.2805 18.5138C10.295 19.3824 10.3195 20.2506 10.3508 21.1188C10.4105 21.0886 10.4702 21.0584 10.5299 21.0281C10.5631 21.0112 10.5964 20.9944 10.6306 20.9771C10.7931 20.8914 10.9468 20.7947 11.1013 20.6973C11.1535 20.6646 11.1535 20.6646 11.2068 20.6313C11.2817 20.5844 11.3567 20.5375 11.4316 20.4905C11.6331 20.3641 11.835 20.2382 12.037 20.1124C12.0788 20.0863 12.1207 20.0602 12.1638 20.0334C12.8159 19.6278 13.474 19.2305 14.1319 18.8328C14.1944 18.795 14.2567 18.7569 14.3187 18.7185C14.384 18.6797 14.4511 18.6433 14.5192 18.6088C14.71 18.5126 14.71 18.5126 14.8262 18.3516C14.8385 18.2597 14.8383 18.174 14.8336 18.0814C14.8336 18.0483 14.8336 18.0151 14.8336 17.9809C14.8334 17.8752 14.8306 17.7696 14.8275 17.6639C14.8062 16.5358 14.8062 16.5358 15.2585 16.09C15.4581 15.9038 15.6839 15.7799 15.9355 15.6611C15.9125 15.622 15.8896 15.5828 15.8659 15.5425C15.4783 14.8668 15.3496 14.2137 15.5863 13.4674C15.7286 13.0776 15.9606 12.7927 16.2739 12.5035C16.2978 12.481 16.3217 12.4586 16.3463 12.4354C16.6219 12.197 16.978 12.0663 17.3317 11.9577C17.3317 11.2373 17.3317 10.5169 17.3317 9.77465C17.2241 9.77465 17.1885 9.80483 17.1 9.86049ZM16.9679 13.5455C16.7707 13.8397 16.6905 14.1281 16.7578 14.4682C16.8437 14.7896 17.0308 15.0458 17.3317 15.2299C17.6399 15.388 17.9489 15.4364 18.2922 15.3642C18.6215 15.2684 18.8942 15.1063 19.0836 14.835C19.2546 14.5285 19.2984 14.208 19.2036 13.8717C19.0635 13.535 18.8575 13.3397 18.5163 13.1662C17.9498 12.9607 17.3463 13.0997 16.9679 13.5455ZM16.147 16.9476C16.106 17.0609 16.0987 17.1356 16.0972 17.2536C16.0967 17.292 16.0961 17.3304 16.0956 17.37C16.0953 17.4114 16.095 17.4528 16.0946 17.4955C16.0943 17.5381 16.0939 17.5808 16.0936 17.6247C16.093 17.7149 16.0926 17.8052 16.0922 17.8954C16.0915 18.0334 16.0896 18.1714 16.0878 18.3094C16.0873 18.3971 16.087 18.4847 16.0867 18.5724C16.086 18.6137 16.0852 18.6549 16.0845 18.6974C16.0846 18.928 16.0846 18.928 16.184 19.1358C16.2828 19.2158 16.3606 19.2501 16.4855 19.2866C16.7023 19.359 16.8049 19.4463 16.9086 19.6374C16.913 19.72 16.9147 19.8026 16.9152 19.8853C16.9156 19.9234 16.9156 19.9234 16.9159 19.9623C16.9163 20.0177 16.9167 20.073 16.917 20.1283C16.9175 20.216 16.9183 20.3036 16.9192 20.3913C16.9219 20.6407 16.9241 20.8901 16.9256 21.1394C16.9264 21.2919 16.9279 21.4444 16.9298 21.5969C16.9304 21.6549 16.9308 21.7129 16.9309 21.7709C16.9311 21.8524 16.9321 21.9338 16.9333 22.0152C16.9338 22.0846 16.9338 22.0846 16.9343 22.1554C16.9556 22.3262 17.0005 22.5012 17.149 22.6164C17.2952 22.6503 17.4395 22.6518 17.5893 22.6522C17.6389 22.6526 17.6389 22.6526 17.6895 22.653C17.7593 22.6534 17.8291 22.6536 17.8989 22.6536C18.0054 22.6538 18.1119 22.6552 18.2184 22.6567C18.2863 22.6569 18.3543 22.657 18.4222 22.6571C18.4698 22.658 18.4698 22.658 18.5183 22.6588C18.6748 22.6576 18.7622 22.6438 18.895 22.5649C19.0397 22.4285 19.0296 22.3406 19.0307 22.1532C19.0309 22.1273 19.0311 22.1014 19.0313 22.0748C19.0318 22.0185 19.0321 21.9623 19.0324 21.906C19.0329 21.8168 19.0337 21.7277 19.0347 21.6385C19.0373 21.385 19.0396 21.1315 19.041 20.878C19.0419 20.878 19.0419 20.878 19.0419 20.878C19.0419 20.878 19.0419 20.878 19.0419 20.878C19.0419 20.7229 19.0434 20.5679 19.0452 20.4129C19.0458 20.3539 19.0462 20.2949 19.0463 20.2359C19.0465 20.1531 19.0475 20.0704 19.0487 19.9876C19.049 19.9406 19.0494 19.8936 19.0497 19.8451C19.0734 19.66 19.1403 19.5303 19.2831 19.3987C19.4174 19.318 19.5525 19.2634 19.7014 19.2097C19.7994 19.171 19.7994 19.171 19.8702 19.0527C19.8841 18.9588 19.8841 18.9588 19.8838 18.8528C19.8846 18.8121 19.8854 18.7714 19.8863 18.7294C19.8868 18.6635 19.8868 18.6635 19.8873 18.5962C19.8881 18.5283 19.8881 18.5283 19.8888 18.4591C19.8896 18.3633 19.8902 18.2676 19.8905 18.1718C19.8913 18.0253 19.8939 17.8789 19.8966 17.7324C19.8971 17.6394 19.8976 17.5464 19.8979 17.4535C19.899 17.4096 19.9 17.3658 19.9011 17.3207C19.9008 17.2797 19.9006 17.2387 19.9003 17.1965C19.9006 17.1606 19.9009 17.1247 19.9012 17.0877C19.8637 16.9657 19.8009 16.9048 19.6915 16.8293C19.5614 16.7641 19.4424 16.7671 19.2963 16.767C19.2654 16.7668 19.2344 16.7665 19.2024 16.7662C19.1006 16.7655 18.9989 16.7663 18.8971 16.7671C18.8259 16.7671 18.7548 16.767 18.6837 16.7668C18.5349 16.7667 18.3861 16.7673 18.2373 16.7684C18.047 16.7697 17.8566 16.7695 17.6663 16.7687C17.5195 16.7683 17.3727 16.7687 17.2259 16.7693C17.1558 16.7695 17.0856 16.7695 17.0154 16.7692C16.9172 16.769 16.819 16.7698 16.7208 16.7709C16.6371 16.7712 16.6371 16.7712 16.5518 16.7716C16.3755 16.795 16.2832 16.8432 16.147 16.9476ZM14.8624 19.8012C14.832 19.8203 14.8015 19.8393 14.7701 19.8589C14.7364 19.88 14.7027 19.9012 14.668 19.923C14.5949 19.9687 14.5217 20.0144 14.4485 20.0601C14.4094 20.0845 14.3704 20.1089 14.3302 20.1341C13.5348 20.6315 12.7347 21.122 11.9308 21.6077C11.7282 21.7302 11.5258 21.853 11.3239 21.9764C11.2858 21.9997 11.2858 21.9997 11.2469 22.0235C11.1842 22.062 11.1219 22.1009 11.0596 22.14C11.0279 22.1598 10.9963 22.1796 10.9637 22.2C10.9325 22.2244 10.9325 22.2244 10.9008 22.2493C10.9008 22.275 10.9008 22.3008 10.9008 22.3273C10.9614 22.3754 10.9614 22.3754 11.0428 22.422C11.0743 22.441 11.1057 22.46 11.1382 22.4796C11.1906 22.5107 11.1906 22.5107 11.244 22.5424C11.2804 22.5643 11.3167 22.5862 11.3542 22.6088C11.4334 22.6565 11.5128 22.7041 11.5922 22.7516C11.8067 22.8799 12.0205 23.009 12.2343 23.1382C12.2785 23.1648 12.3226 23.1914 12.3681 23.2188C12.8055 23.4831 13.239 23.7526 13.672 24.0231C14.3655 24.4557 15.0625 24.8831 15.7631 25.3059C16.1415 25.5345 16.5181 25.7649 16.8914 26.0005C16.9967 26.0667 17.1021 26.1327 17.2074 26.1988C17.2738 26.2407 17.34 26.2828 17.406 26.3252C17.4962 26.3832 17.587 26.4402 17.6779 26.4971C17.7042 26.5144 17.7305 26.5317 17.7576 26.5495C17.9009 26.6382 17.9009 26.6382 18.068 26.6387C18.2251 26.5497 18.3789 26.4575 18.531 26.3613C18.566 26.3394 18.601 26.3175 18.637 26.295C18.713 26.2474 18.7889 26.1998 18.8647 26.1522C19.0705 26.0229 19.2767 25.8942 19.4829 25.7656C19.5469 25.7257 19.5469 25.7257 19.6122 25.6849C20.0482 25.4133 20.4878 25.1467 20.9279 24.8807C21.63 24.4559 22.3281 24.0258 23.0237 23.592C23.3818 23.3687 23.7403 23.1461 24.1008 22.926C24.134 22.9058 24.1671 22.8856 24.2012 22.8647C24.3562 22.7701 24.5112 22.6756 24.6666 22.5815C24.7205 22.5486 24.7745 22.5157 24.8285 22.4828C24.8653 22.4606 24.8653 22.4606 24.9029 22.438C25.031 22.3623 25.031 22.3623 25.1164 22.2493C25.0971 22.2377 25.0778 22.226 25.058 22.214C23.9362 21.5359 22.8191 20.8518 21.7085 20.1583C21.6481 20.1205 21.5875 20.0829 21.7085 20.1583C21.6481 20.1205 21.5875 20.0829 21.5268 20.0455C21.4618 20.0047 21.3976 19.963 21.3339 19.9206C21.3005 19.8988 21.2671 19.877 21.2326 19.8545C21.2026 19.8344 21.1726 19.8143 21.1416 19.7936C21.0571 19.7466 21.0571 19.7466 20.9636 19.7635C20.8585 19.8037 20.813 19.8601 20.7428 19.942C20.6498 20.0501 20.5991 20.1014 20.4591 20.1568C20.3134 20.2798 20.3157 20.3087 20.3049 20.4838C20.304 20.5778 20.3044 20.6718 20.306 20.7658C20.3055 20.8421 20.3051 20.9184 20.3046 20.9946C20.3043 21.1015 20.3051 21.2084 20.3059 21.3153C20.3072 21.5014 20.3072 21.6875 20.3064 21.8736C20.3061 21.9725 20.3065 22.0714 20.3076 22.1703C20.3074 22.6578 20.1891 23.027 19.8262 23.3876C19.532 23.6467 19.1679 23.8114 18.756 23.8149C18.7021 23.8155 18.7021 23.8155 18.6472 23.8161C18.5894 23.8163 18.5894 23.8163 18.5305 23.8166C18.4904 23.8168 18.4503 23.817 18.4091 23.8172C18.3242 23.8176 18.2393 23.8179 18.1545 23.818C18.0258 23.8184 17.8971 23.8196 17.7685 23.8208C17.6858 23.8211 17.6031 23.8213 17.5204 23.8214C17.4634 23.8222 17.4634 23.8222 17.4052 23.8229C16.9294 23.8229 16.9294 23.8229 17.4052 23.8229C16.9294 23.8214 16.5072 23.6786 16.1467 23.3897C15.8178 23.0743 15.6725 22.6539 15.6797 22.2222C15.6802 22.1795 15.6807 22.1369 15.6812 22.0929C15.6819 22.0473 15.6825 22.0018 15.6831 21.9548C15.6834 21.8575 15.6835 21.7602 15.6835 21.6629C15.6836 21.5101 15.6843 21.3574 15.687 21.2045C15.6894 21.0566 15.6892 20.9089 15.6884 20.7609C15.6898 20.7155 15.6912 20.6701 15.6926 20.6233C15.6887 20.3718 15.6887 20.3718 15.5457 20.1657C15.4339 20.0818 15.4339 20.0818 15.3176 20.0133C15.1845 19.9293 15.1263 19.8425 15.047 19.7154C14.9735 19.7154 14.9219 19.764 14.8624 19.8012Z" fill="white" />
</svg>
