<svg width="40" height="40" viewBox="0 0 40 40" fill="none" xmlns="http://www.w3.org/2000/svg">
  <path d="M13.3862 1.91698C13.9868 2.42694 14.5209 3.00324 15.0381 3.59633C15.0991 3.51712 15.0991 3.51712 15.1613 3.4363C16.5866 1.63392 18.6644 0.393596 20.9571 0.0913606C21.337 0.066587 21.7154 0.061646 22.0961 0.0621525C22.1475 0.062169 22.1988 0.0621854 22.2518 0.0622024C23.085 0.0648637 23.8288 0.137398 24.6175 0.402914C24.7491 0.445234 24.7491 0.445234 24.8834 0.488408C26.8155 1.16862 28.3078 2.5556 29.2179 4.37746C30.1455 6.34442 30.2471 8.53448 29.5483 10.5819C29.1908 11.5676 28.6544 12.3859 27.9664 13.1766C27.898 13.2573 27.8297 13.3381 27.7616 13.4191C27.5086 13.7199 27.254 14.0194 26.9994 14.3189C26.6304 14.7533 26.2625 15.1881 25.9025 15.6301C25.4709 16.16 25.0277 16.68 24.5851 17.2008C24.2175 17.6334 23.8511 18.0665 23.4931 18.5071C23.1849 18.8859 22.8679 19.2563 22.5493 19.6262C22.2537 19.97 21.9654 20.3192 21.6796 20.6712C21.4443 20.9582 21.2039 21.2408 20.9636 21.5236C20.7393 21.7879 20.5184 22.0545 20.3 22.3236C19.9917 22.7024 19.6747 23.073 19.356 23.4429C19.1199 23.7175 18.8878 23.9945 18.6596 24.2757C18.3535 24.6527 18.0385 25.0213 17.7213 25.389C17.4756 25.6743 17.2359 25.9636 16.9997 26.257C16.1261 27.3259 16.1261 27.3259 15.5833 27.4302C14.4108 27.535 14.4108 27.535 13.949 27.2519C13.3394 26.7344 12.8329 26.0892 12.3339 25.4683C12.1356 25.2234 11.9324 24.983 11.7282 24.743C11.4669 24.4356 11.2085 24.1264 10.9542 23.8132C10.646 23.4344 10.329 23.0638 10.0102 22.6939C9.71624 22.352 9.43011 22.0044 9.14592 21.6543C8.93278 21.3956 8.71486 21.1414 8.4961 20.8875C8.15971 20.4971 7.83014 20.102 7.50525 19.7019C7.30592 19.4588 7.10313 19.2188 6.89954 18.9793C6.63829 18.6719 6.3799 18.3627 6.1256 18.0495C5.81737 17.6707 5.50037 17.3001 5.18161 16.9302C4.88761 16.5883 4.60148 16.2406 4.31729 15.8905C4.10415 15.6319 3.88623 15.3777 3.66747 15.1238C3.33511 14.7377 3.00715 14.3488 2.68696 13.9524C2.54473 13.7777 2.40096 13.6049 2.25557 13.4328C1.38339 12.3931 0.726256 11.3613 0.318587 10.0611C0.292083 9.98044 0.26558 9.89982 0.238272 9.81675C-0.307407 7.80311 0.123995 5.59636 1.1266 3.80566C2.13412 2.16005 3.55829 1.00884 5.38086 0.402914C5.43325 0.385431 5.48564 0.367949 5.53962 0.349936C8.1634 -0.476531 11.26 0.206728 13.3862 1.91698Z" fill="#00B53F" />
</svg>
