<svg width="40" height="40" viewBox="0 0 40 40" fill="none" xmlns="http://www.w3.org/2000/svg">
  <path d="M22.4954 0.388831C22.6286 0.432509 22.6286 0.432509 22.7644 0.477069C23.7965 0.845527 25.0103 1.43232 25.7182 2.30842C25.9091 2.46296 26.0485 2.4357 26.291 2.42593C26.4234 2.42232 26.4234 2.42232 26.5585 2.41864C26.6993 2.41397 26.6993 2.41397 26.843 2.40919C28.6099 2.38217 29.9742 2.91681 31.2606 4.15145C32.0422 4.96417 32.6484 6.04212 32.7891 7.16557C32.8591 7.16195 32.9291 7.15834 33.0011 7.15461C34.8734 7.10052 36.5595 7.87233 37.9192 9.13376C39.2176 10.3925 39.9472 12.0988 39.9948 13.8946C40.0179 16.042 39.3471 17.7179 37.858 19.2683C36.3282 20.7348 34.4638 21.2316 32.3913 21.2074C30.5921 21.1579 28.8804 20.3062 27.6423 19.0054C27.6423 18.954 27.6423 18.9026 27.6423 18.8496C27.5016 18.9158 27.3621 18.9845 27.2231 19.0541C27.1453 19.092 27.0675 19.13 26.9874 19.1691C26.5946 19.4553 26.5778 20.0074 26.4963 20.4629C26.478 20.5627 26.478 20.5627 26.4593 20.6646C26.4193 20.8834 26.3798 21.1023 26.3403 21.3212C26.3126 21.4736 26.2849 21.6261 26.2571 21.7786C26.1991 22.0974 26.1413 22.4164 26.0837 22.7353C26.0097 23.1446 25.9353 23.5537 25.8608 23.9628C25.8035 24.2773 25.7464 24.5918 25.6894 24.9064C25.6620 25.0573 25.6346 25.2082 25.6071 25.3591C25.5688 25.5695 25.5308 25.7801 25.4929 25.9906C25.4814 26.0531 25.4700 26.1156 25.4582 26.1801C25.4163 26.4143 25.3808 26.6341 25.3808 26.8726C25.4326 26.8191 25.4843 26.7656 25.5377 26.7104C25.6410 26.6052 25.6410 26.6052 25.7463 26.4978C25.8142 26.4282 25.8820 26.3586 25.9520 26.2869C26.3846 25.8863 26.6811 25.8170 27.2615 25.8326C27.5659 25.8697 27.7325 25.9615 27.9542 26.1716C28.1962 26.4954 28.2168 26.7346 28.2147 27.1344C28.2148 27.1907 28.2148 27.2469 28.2148 27.3049C28.2147 27.4900 28.2128 27.6750 28.2110 27.8600C28.2106 27.9887 28.2102 28.1173 28.2100 28.2460C28.2091 28.5840 28.2068 28.9219 28.2042 29.2598C28.2018 29.6049 28.2008 29.9501 28.1996 30.2952C28.1971 30.9719 28.1931 31.6485 28.1882 32.3252C28.2535 32.3027 28.3188 32.2803 28.3861 32.2572C29.0051 32.0448 29.6245 31.8338 30.2444 31.6244C30.5630 31.5167 30.8814 31.4085 31.1994 31.2990C31.5070 31.1932 31.8149 31.0889 32.1232 30.9854C32.2402 30.9459 32.3569 30.9059 32.4735 30.8654C34.0501 30.3185 34.0501 30.3185 34.7826 30.6651C35.0880 30.9545 35.2442 31.2258 35.2700 31.6485C35.2517 32.0883 35.1100 32.3786 34.8709 32.7378C34.8190 32.8182 34.8190 32.8182 34.7660 32.9002C34.6540 33.0728 34.5406 33.2443 34.4268 33.4157C34.3709 33.5004 34.3709 33.5004 34.3139 33.5869C34.0434 33.9970 33.7700 34.4052 33.4958 34.8129C33.3763 34.9909 33.2569 35.1689 33.1375 35.3470C33.0644 35.4561 32.9911 35.5652 32.9177 35.6742C32.5031 36.2924 32.1012 36.9188 31.6974 37.5440C31.7911 37.5443 31.8848 37.5446 31.9814 37.5449C32.8649 37.5478 33.7484 37.5523 34.6319 37.5584C35.0861 37.5614 35.5403 37.5639 35.9946 37.5651C36.4330 37.5663 36.8713 37.5690 37.3097 37.5727C37.4769 37.5739 37.6441 37.5745 37.8113 37.5746C38.0457 37.5747 38.2799 37.5768 38.5142 37.5794C38.5832 37.5790 38.6523 37.5786 38.7234 37.5782C39.1480 37.5854 39.3929 37.6509 39.7296 37.9335C40.0459 38.3403 40.0239 38.7633 39.9635 39.2577C39.7939 39.6154 39.6161 39.7899 39.2617 39.9587C39.0397 39.9808 38.8351 39.9903 38.6134 39.9884C38.5480 39.9887 38.4827 39.9891 38.4153 39.9895C38.1954 39.9904 37.9754 39.9897 37.7554 39.9889C37.5965 39.9893 37.4376 39.9897 37.2787 39.9902C36.8413 39.9913 36.4039 39.9910 35.9664 39.9904C35.4949 39.9901 35.0235 39.9910 34.5520 39.9918C33.6815 39.9931 32.8110 39.9933 31.9405 39.9929C31.1364 39.9925 30.3322 39.9926 29.5280 39.9930C29.4202 39.9931 29.3124 39.9932 29.2046 39.9932C29.0421 39.9933 28.8797 39.9934 28.7172 39.9935C27.2066 39.9943 25.6960 39.9947 24.1854 39.9941C24.1285 39.9940 24.0715 39.9940 24.0128 39.9940C23.5502 39.9938 23.0876 39.9936 22.6250 39.9934C20.8204 39.9926 19.0158 39.9933 17.2112 39.9951C15.1843 39.9971 13.1574 39.9981 11.1305 39.9975C10.9145 39.9975 10.6985 39.9974 10.4824 39.9974C10.4292 39.9974 10.3760 39.9974 10.3212 39.9974C9.51757 39.9972 8.7139 39.9978 7.91024 39.9988C6.99647 40.0000 6.08271 40.0000 5.16894 39.9987C4.70249 39.9980 4.23606 39.9978 3.76961 39.9990C3.34289 40.0001 2.91621 39.9997 2.48949 39.9982C2.33484 39.9979 2.18019 39.9982 2.02555 39.9990C1.81581 40.0000 1.60617 39.9991 1.39644 39.9977C1.33597 39.9985 1.27551 39.9992 1.21321 40.0000C0.809834 39.9945 0.58135 39.9012 0.270425 39.6472C-0.0458961 39.2403 -0.0238794 38.8173 0.0364771 38.3230C0.205918 37.9657 0.382481 37.7877 0.738320 37.6219C0.984499 37.5871 1.22864 37.5878 1.47696 37.5882C1.55080 37.5875 1.62464 37.5867 1.70071 37.5858C1.94417 37.5835 2.18761 37.5828 2.43109 37.5821C2.60013 37.5808 2.76916 37.5793 2.93820 37.5778C3.38267 37.5741 3.82714 37.5718 4.27162 37.5698C4.72535 37.5675 5.17907 37.5638 5.63279 37.5603C6.52273 37.5536 7.41267 37.5484 8.30262 37.5440C7.83131 36.8150 7.35931 36.0866 6.88005 35.3627C6.78156 35.2137 6.68306 35.0646 6.58457 34.9156C6.43368 34.6874 6.28276 34.4593 6.13183 34.2311C5.98314 34.0063 5.83454 33.7814 5.68594 33.5566C5.64118 33.4890 5.59642 33.4214 5.55030 33.3517C5.42739 33.1657 5.30514 32.9793 5.18332 32.7925C5.14500 32.7341 5.10668 32.6756 5.06719 32.6153C5.03182 32.5604 4.99646 32.5054 4.96002 32.4488C4.92893 32.4007 4.89785 32.3526 4.86582 32.3031C4.68707 31.9729 4.73885 31.5935 4.79341 31.2347C4.96430 30.8743 5.14498 30.7132 5.49525 30.5336C6.26293 30.3919 6.98621 30.6777 7.69948 30.9255C7.81874 30.9658 7.93804 31.0060 8.05738 31.0460C8.36856 31.1508 8.67915 31.2573 8.98963 31.3641C9.30768 31.4732 9.62627 31.5807 9.94483 31.6883C10.5677 31.8990 11.1900 32.1115 11.8118 32.3252C11.8111 32.2540 11.8105 32.1828 11.8097 32.1095C11.8035 31.4379 11.7987 30.7663 11.7957 30.0947C11.7940 29.7495 11.7918 29.4042 11.7883 29.0590C11.7849 28.7257 11.7830 28.3924 11.7822 28.0590C11.7817 27.9320 11.7805 27.8050 11.7789 27.6780C11.7766 27.4997 11.7763 27.3215 11.7764 27.1432C11.7757 27.0419 11.7750 26.9405 11.7743 26.8361C11.8284 26.4396 11.9947 26.1930 12.3099 25.9504C12.6835 25.7847 13.0503 25.7967 13.4495 25.8600C13.6982 25.9784 13.8782 26.1350 14.0733 26.3274C14.1259 26.3777 14.1785 26.4280 14.2326 26.4798C14.3641 26.6085 14.4921 26.7396 14.6192 26.8726C14.4521 25.6496 14.2431 24.4340 14.0293 23.2184C13.9637 22.8456 13.8994 22.4726 13.8376 22.0991C13.7774 21.7348 13.7142 21.3710 13.6490 21.0075C13.6248 20.8698 13.6016 20.7319 13.5796 20.5938C13.4821 19.8465 13.4821 19.8465 13.1255 19.2071C12.8773 19.0372 12.6418 18.9442 12.3577 18.8496C12.3416 18.8924 12.3255 18.9351 12.3090 18.9792C12.1613 19.2299 11.9554 19.3967 11.7339 19.5798C11.6881 19.6178 11.6424 19.6558 11.5952 19.6949C9.9693 21.0215 8.09107 21.3226 6.04113 21.1864C5.60477 21.1359 5.20688 21.0250 4.79341 20.8748C4.74236 20.8564 4.69130 20.8380 4.63870 20.8191C2.80578 20.1406 1.40830 18.8172 0.585191 17.0545C0.561738 17.0026 0.538284 16.9508 0.514120 16.8974C0.482031 16.8273 0.482031 16.8273 0.449293 16.7558C0.0964142 15.9293 -0.00555000 15.0822 0.00235979 14.1906C0.00306346 14.0950 0.00376713 13.9993 0.00449213 13.9008C0.0422472 11.9195 0.899173 10.2821 2.31868 8.91513C3.26236 8.06678 4.42099 7.52778 5.65122 7.24346C5.71314 7.22820 5.77506 7.21293 5.83886 7.19721C6.10966 7.15484 6.37715 7.15730 6.65037 7.16070C6.70440 7.16105 6.75843 7.16140 6.81410 7.16176C6.94636 7.16267 7.07861 7.16407 7.21087 7.16557C7.21489 7.12380 7.21891 7.08202 7.22305 7.03899C7.41273 5.72996 8.31248 4.40785 9.33498 3.60042C10.6097 2.66830 11.8323 2.33661 13.3934 2.45974C13.9105 2.48306 14.1832 2.43989 14.5723 2.08484C14.6924 1.96134 14.8120 1.83744 14.9311 1.71302C16.9776 0.0917003 20.0218 -0.444766 22.4954 0.388831ZM15.7110 4.28351C15.6177 4.38698 15.5262 4.49209 15.4380 4.59995C15.2380 4.83468 15.1505 4.92091 14.8532 4.98455C14.5202 5.00601 14.2984 5.00589 13.9789 4.90726C13.1559 4.68861 12.1748 4.73025 11.4219 5.14033C10.5975 5.65856 9.95391 6.40131 9.62833 7.32135C9.64653 7.64368 9.64653 7.64368 9.34658 7.32135ZM9.62833 7.32135C9.55780 7.65088 9.52527 7.98384 9.48972 8.31860C9.43809 8.73468 9.37014 9.02232 9.08245 9.34658C8.68175 9.63322 8.34007 9.59013 7.87372 9.54619C6.39246 9.44255 5.07853 9.77396 3.91885 10.7362C3.10529 11.4989 2.48309 12.6153 2.43535 13.7403C2.41804 14.5329 2.44502 15.2281 2.76587 15.9675C2.79713 16.0398 2.82839 16.1121 2.86060 16.1866C3.44334 17.3744 4.45547 18.1744 5.68899 18.6153C6.93630 18.9725 8.14404 18.8756 9.31640 18.3043C9.79092 18.0237 10.1900 17.6949 10.5641 17.2917C10.4590 16.9829 10.3247 16.7880 10.1011 16.5517C9.73776 16.1664 9.51693 15.8890 9.52110 15.3444C9.52020 15.2263 9.52020 15.2263 9.51927 15.1058C9.56675 14.7562 9.68604 14.5635 9.96463 14.3482C10.2063 14.2394 10.3778 14.2226 10.6421 14.2247C10.7209 14.2241 10.7997 14.2235 10.8809 14.2228C11.2134 14.2679 11.4131 14.3886 11.6333 14.6397C11.6762 14.6987 11.7190 14.7578 11.7631 14.8186C12.5444 15.8196 13.4549 16.6362 14.5412 17.2917C14.5933 17.3232 14.6453 17.3547 14.6989 17.3872C16.9963 18.7491 19.7804 19.1902 22.3819 18.5672C24.6362 17.9798 26.9834 16.7120 28.3164 14.7374C28.4989 14.4892 28.6091 14.3728 28.8900 14.2539C29.1191 14.2228 29.1191 14.2228 29.3579 14.2247C29.4367 14.2241 29.5155 14.2235 29.5967 14.2228C29.8636 14.2590 30.0031 14.3233 30.2157 14.4876C30.4806 14.8368 30.5073 15.1339 30.4978 15.5622C30.4100 16.0173 30.1240 16.3266 29.8258 16.6686C29.7478 16.7643 29.6698 16.8600 29.5918 16.9558C29.5404 17.0152 29.4889 17.0747 29.4359 17.1359C29.4359 17.1359 29.4359 17.1359 29.4359 17.1359C29.7484 17.8599 30.5352 18.2532 31.2295 18.5380C32.5287 18.9975 33.8075 18.8955 35.0506 18.3043C36.2782 17.6446 37.0141 16.6524 37.4681 15.3444C37.4681 15.3444 37.4681 15.3444 37.4681 15.3444C37.7228 14.4078 37.6150 13.2622 37.2341 12.3844C37.2029 12.3121 37.1716 12.2398 37.1394 12.1654C36.5565 10.9773 35.5439 10.1768 34.3098 9.73635C33.4918 9.50199 32.7025 9.47499 31.8623 9.56509C31.4753 9.60075 31.2381 9.57000 30.9176 9.34658C30.5835 8.96918 30.5501 8.61961 30.5033 8.13923C30.3824 7.15882 30.0358 6.30174 29.2833 5.62656C28.5762 5.10614 27.9108 4.80046 27.0233 4.80929C26.9630 4.80868 26.9028 4.80808 26.8407 4.80746C26.4570 4.80876 26.1394 4.86855 25.7707 4.98455C25.3492 5.04153 25.0452 4.96581 24.6790 4.75087C24.5126 4.58230 24.5126 4.58230 24.3573 4.39061C23.3461 3.23417 21.9643 2.59423 20.4484 2.42867C18.6106 2.32314 17.0289 3.04013 15.7110 4.28351ZM16.0229 20.6411C16.3174 22.4513 16.6361 24.2568 16.9625 26.0615C17.0191 26.3752 17.0754 26.6890 17.1312 27.0029C17.1997 27.3881 17.2690 27.7731 17.3389 28.1580C17.3651 28.3031 17.3910 28.4482 17.4166 28.5934C17.4522 28.7945 17.4888 28.9953 17.5256 29.1962C17.5358 29.2552 17.5460 29.3143 17.5566 29.3751C17.6396 29.8188 17.7869 30.1354 18.1072 30.4522C18.1680 30.5129 18.1680 30.5129 18.2301 30.5749C18.2733 30.6172 18.3164 30.6595 18.3608 30.7031C18.4279 30.7697 18.4279 30.7697 18.4962 30.8376C18.6381 30.9785 18.7805 31.1187 18.9229 31.2590C19.0195 31.3548 19.1161 31.4506 19.2127 31.5464C19.4487 31.7804 19.6852 32.0140 19.9220 32.2473C20.3856 32.0522 20.7417 31.6621 21.1023 31.3214C21.1943 31.2359 21.2879 31.1520 21.3830 31.0699C22.2588 30.3115 22.4382 29.5742 22.5998 28.4550C22.6584 28.0612 22.7311 27.6701 22.8039 27.2787C22.8179 27.2029 22.8320 27.1272 22.8465 27.0491C22.8759 26.8910 22.9053 26.7329 22.9347 26.5748C23.0100 26.1676 23.0834 25.7601 23.1569 25.3526C23.1870 25.1858 23.2171 25.0191 23.2472 24.8523C23.2697 24.7274 23.2697 24.7274 23.2927 24.6001C23.3546 24.2576 23.4167 23.9152 23.4788 23.5728C23.5386 23.2427 23.5983 22.9125 23.6580 22.5824C23.6864 22.4249 23.7150 22.2674 23.7435 22.1099C23.7830 21.8919 23.8223 21.6739 23.8616 21.4558C23.8734 21.3910 23.8852 21.3262 23.8973 21.2593C23.9558 20.9522 23.9558 20.9522 23.9771 20.6411C23.4136 20.7388 22.8552 20.8521 22.2971 20.9774C21.7900 21.0775 21.2944 21.1210 20.7780 21.1243C20.7203 21.1249 20.6626 21.1254 20.6032 21.1260C20.4184 21.1273 20.2336 21.1278 20.0487 21.1280C19.9858 21.1281 19.9228 21.1282 19.8580 21.1283C18.9484 21.1280 18.0796 21.0926 17.1926 20.8748C17.0528 20.8414 17.0528 20.8414 16.9102 20.8073C16.7514 20.7680 16.5929 20.7273 16.4350 20.6840C16.2495 20.6320 16.2495 20.6320 16.0229 20.6411ZM14.1513 29.9884C14.1506 30.0720 14.1506 30.0720 14.1499 30.1573C14.1454 30.6833 14.1398 31.2093 14.1329 31.7353C14.1329 31.7353 14.1329 31.7353 14.1329 31.7353C14.1294 32.0057 14.1264 32.2762 14.1243 32.5466C14.1219 32.8577 14.1176 33.1688 14.1132 33.4799C14.1127 33.5767 14.1122 33.6735 14.1117 33.7732C14.1102 33.8637 14.1086 33.9541 14.1070 34.0472C14.1062 34.1266 14.1053 34.2060 14.1044 34.2878C14.0682 34.5421 13.9892 34.6886 13.8394 34.8957C13.4118 35.2142 13.0280 35.2024 12.5137 35.1293C11.9419 34.9838 11.3874 34.7770 10.8322 34.5792C10.6074 34.5001 10.3826 34.4214 10.1574 34.3434C10.0181 34.2952 9.87903 34.2461 9.74028 34.1963C9.67775 34.1744 9.61521 34.1526 9.55078 34.1301C9.49594 34.1105 9.44110 34.0910 9.38459 34.0709C9.22193 34.0221 9.22193 34.0221 9.00447 34.1167C9.50065 34.9372 10.0298 35.7339 10.5690 36.5265C10.6027 36.5762 10.6364 36.6258 10.6712 36.6769C10.9803 37.1724 10.9803 37.1724 11.3439 37.6219C11.5653 37.6315 11.7849 37.6359 12.0064 37.6371C12.0767 37.6377 12.1470 37.6384 12.2195 37.6391C12.4570 37.6412 12.6945 37.6428 12.9321 37.6444C13.1017 37.6457 13.2712 37.6471 13.4408 37.6486C14.9904 37.6610 16.5400 37.6675 18.0897 37.6727C19.2357 37.6766 20.3816 37.6833 21.5276 37.6936C22.3327 37.7006 23.1378 37.7044 23.9430 37.7057C24.4242 37.7066 24.9052 37.7090 25.3863 37.7149C25.8392 37.7204 26.2920 37.7219 26.7449 37.7203C26.9110 37.7204 27.0771 37.7220 27.2432 37.7251C28.1197 37.7728 28.1197 37.7728 28.8888 37.4359C29.0501 37.2180 29.1665 37.0104 29.2799 36.7651C29.3512 36.6563 29.4241 36.5485 29.4998 36.4427C29.5656 36.3434 29.6311 36.2440 29.6963 36.1444C29.7316 36.0908 29.7669 36.0373 29.8032 35.9821C29.8764 35.8709 29.9494 35.7597 30.0224 35.6483C30.1342 35.4777 30.2466 35.3075 30.3590 35.1372C30.4306 35.0283 30.5021 34.9194 30.5736 34.8105C30.6071 34.7598 30.6406 34.7092 30.6750 34.6570C30.8089 34.4521 30.9177 34.2721 30.9955 34.0388C30.5310 34.1325 30.0897 34.2547 29.6439 34.4143C29.5226 34.4564 29.4012 34.4985 29.2798 34.5406C29.0922 34.6059 28.9048 34.6716 28.7178 34.7385C27.0162 35.3450 27.0162 35.3450 26.3450 35.0341C26.0739 34.8305 25.9436 34.6254 25.8956 34.2878C25.8947 34.2084 25.8938 34.1290 25.8930 34.0472C25.8914 33.9568 25.8899 33.8664 25.8883 33.7732C25.8875 33.6280 25.8875 33.6280 25.8868 33.4799C25.8854 33.3801 25.8840 33.2804 25.8825 33.1777C25.8788 32.9135 25.8765 32.6493 25.8745 32.3852C25.8721 32.1152 25.8685 31.8452 25.8650 31.5753C25.8584 31.0463 25.8530 30.5174 25.8487 29.9884C25.3441 30.3990 24.8912 30.8589 24.4338 31.3203C24.2884 31.4668 24.1428 31.6131 23.9970 31.7593C23.5831 32.1747 23.1695 32.5906 22.7563 33.0068C22.5027 33.2622 22.2487 33.5172 21.9945 33.7720C21.8980 33.8688 21.8017 33.9658 21.7055 34.0630C21.5712 34.1987 21.4364 34.3339 21.3014 34.4690C21.2425 34.5289 21.2425 34.5289 21.1823 34.5900C20.8206 34.9504 20.5332 35.1630 20.0146 35.1731C19.9005 35.1781 19.9005 35.1781 19.7840 35.1832C19.0139 35.0185 18.3630 34.1355 17.8265 33.5940C17.7228 33.4898 17.6189 33.3857 17.5151 33.2816C17.2434 33.0092 16.9721 32.7364 16.7010 32.4634C16.2652 32.0247 16.0229 20.6411 16.3174 22.4513 16.6361 24.2568 16.9625 26.0615 17.0191 26.3752 17.0754 26.6890 17.1312 27.0029 17.1997 27.3881 17.2690 27.7731 17.3389 28.1580C17.3651 28.3031 17.3910 28.4482 17.4166 28.5934C17.4522 28.7945 17.4888 28.9953 17.5256 29.1962C17.5358 29.2552 17.5460 29.3143 17.5566 29.3751C17.6396 29.8188 17.7869 30.1354 18.1072 30.4522C18.1680 30.5129 18.1680 30.5129 18.2301 30.5749C18.2733 30.6172 18.3164 30.6595 18.3608 30.7031C18.4279 30.7697 18.4279 30.7697 18.4962 30.8376C18.6381 30.9785 18.7805 31.1187 18.9229 31.2590C18.9229 31.2590 18.9229 31.2590 18.9229 31.2590C19.0195 31.3548 19.1161 31.4506 19.2127 31.5464C19.4487 31.7804 19.6852 32.0140 19.9220 32.2473C20.3856 32.0522 20.7417 31.6621 21.1023 31.3214C21.1943 31.2359 21.2879 31.1520 21.3830 31.0699C22.2588 30.3115 22.4382 29.5742 22.5998 28.4550C22.6584 28.0612 22.7311 27.6701 22.8039 27.2787C22.8179 27.2029 22.8320 27.1272 22.8465 27.0491C22.8759 26.8910 22.9053 26.7329 22.9347 26.5748C23.0100 26.1676 23.0834 25.7601 23.1569 25.3526C23.1870 25.1858 23.2171 25.0191 23.2472 24.8523C23.2697 24.7274 23.2697 24.7274 23.2927 24.6001C23.3546 24.2576 23.4167 23.9152 23.4788 23.5728C23.5386 23.2427 23.5983 22.9125 23.6580 22.5824C23.6864 22.4249 23.7150 22.2674 23.7435 22.1099C23.7830 21.8919 23.8223 21.6739 23.8616 21.4558C23.8734 21.3910 23.8852 21.3262 23.8973 21.2593C23.9558 20.9522 23.9558 20.9522 23.9771 20.6411C23.4136 20.7388 22.8552 20.8521 22.2971 20.9774C21.7900 21.0775 21.2944 21.1210 20.7780 21.1243C20.7203 21.1249 20.6626 21.1254 20.6032 21.1260C20.4184 21.1273 20.2336 21.1278 20.0487 21.1280C19.9858 21.1281 19.9228 21.1282 19.8580 21.1283C18.9484 21.1280 18.0796 21.0926 17.1926 20.8748C17.0528 20.8414 17.0528 20.8414 16.9102 20.8073C16.7514 20.7680 16.5929 20.7273 16.4350 20.6840C16.2495 20.6320 16.2495 20.6320 16.0229 20.6411Z" fill="#F53102" />
  <path d="M20.468 23.5247C20.8258 23.6940 21.0039 23.8703 21.1699 24.2258C21.2046 24.4716 21.2045 24.7151 21.2037 24.9630C21.2041 25.0340 21.2045 25.1049 21.2049 25.1780C21.2054 25.3278 21.2053 25.4775 21.2047 25.6272C21.2040 25.8556 21.2062 26.0839 21.2087 26.3123C21.2088 26.4581 21.2088 26.6039 21.2086 26.7497C21.2099 26.8516 21.2099 26.8516 21.2112 26.9555C21.2064 27.3817 21.1426 27.6269 20.8579 27.9646C20.4507 28.2806 20.0272 28.2586 19.5322 28.1983C19.1745 28.0291 18.9964 27.8527 18.8304 27.4973C18.8304 27.4973 18.8304 27.4973 18.8304 27.4973C18.7957 27.2515 18.7958 27.0080 18.7966 26.7600C18.7962 26.6891 18.7958 26.6181 18.7954 26.5450C18.7949 26.3953 18.7950 26.2456 18.7956 26.0958C18.7963 25.8674 18.7940 25.6391 18.7916 25.4107C18.7914 25.2649 18.7915 25.1191 18.7917 24.9734C18.7908 24.9054 18.7900 24.8375 18.7891 24.7675C18.7939 24.3413 18.8577 24.0961 19.1423 23.7584C19.5496 23.4424 19.9731 23.4644 20.4680 23.5247Z" fill="#F53102" />
</svg>
