<svg width="40" height="40" viewBox="0 0 40 40" fill="none" xmlns="http://www.w3.org/2000/svg">
  <path d="M17.3329 0.661733C17.8127 1.03779 18.1349 1.39126 18.4028 1.94108C18.4369 2.01087 18.4711 2.08066 18.5063 2.15256C18.5319 2.20555 18.5576 2.25853 18.584 2.31313C18.6684 2.31422 18.6684 2.31422 18.7544 2.31533C19.0145 2.31957 19.2745 2.32608 19.5345 2.33261C19.6671 2.33427 19.6671 2.33427 19.8024 2.33596C20.903 2.36737 21.724 2.70509 22.529 3.46064C22.7586 3.70956 22.9099 3.97504 23.0582 4.27933C23.0923 4.34912 23.1265 4.41891 23.1617 4.49082C23.1874 4.5438 23.213 4.59679 23.2394 4.65138C23.2939 4.65166 23.3484 4.65195 23.4045 4.65224C23.9215 4.65521 24.4385 4.65966 24.9555 4.66571C25.2212 4.66878 25.4869 4.67129 25.7526 4.6725C26.059 4.67392 26.3654 4.67782 26.6719 4.68183C26.8129 4.68197 26.8129 4.68197 26.9568 4.68212C27.9501 4.69907 28.7002 5.00576 29.4467 5.66462C30.0461 6.30479 30.4742 7.08597 30.4753 7.97742C30.4756 8.02798 30.4758 8.07853 30.4761 8.13061C30.4768 8.29977 30.4765 8.46892 30.4761 8.63808C30.4764 8.76068 30.4767 8.88329 30.4771 9.00589C30.4781 9.34265 30.4781 9.6794 30.4779 10.0162C30.4779 10.3794 30.4787 10.7427 30.4795 11.1059C30.4807 11.8176 30.4812 12.5293 30.4813 13.241C30.4813 13.8196 30.4816 14.3981 30.4821 14.9767C30.4835 16.6172 30.4842 18.2577 30.4841 19.8982C30.4841 19.9866 30.4841 20.0751 30.4841 20.1662C30.4841 20.2548 30.4841 20.3433 30.4841 20.4345C30.4840 21.8694 30.4855 23.3042 30.4877 24.739C30.4899 26.2124 30.491 27.6859 30.4908 29.1593C30.4908 29.9864 30.4912 30.8136 30.4929 31.6407C30.4943 32.3451 30.4946 33.0494 30.4936 33.7537C30.4931 34.113 30.4931 34.4722 30.4944 34.8314C30.4956 35.1606 30.4954 35.4898 30.4941 35.819C30.4938 35.9377 30.4941 36.0565 30.4950 36.1752C30.5025 37.2847 30.2625 38.1019 29.5242 38.9458C28.9192 39.5176 28.1429 39.9778 27.2946 39.9791C27.2072 39.9796 27.1197 39.9801 27.0296 39.9806C26.9344 39.9804 26.8391 39.9801 26.7409 39.9799C26.6391 39.9802 26.5373 39.9806 26.4324 39.9809C26.1502 39.9819 25.8681 39.9819 25.5859 39.9817C25.2814 39.9817 24.9769 39.9825 24.6724 39.9833C24.076 39.9846 23.4795 39.985 22.8831 39.9851C22.3981 39.9851 21.9131 39.9855 21.4282 39.986C20.0527 39.9873 18.6772 39.9881 17.3017 39.9879C17.2276 39.9879 17.1535 39.9879 17.0771 39.9879C16.9657 39.9879 16.9657 39.9879 16.8521 39.9879C15.6496 39.9878 14.447 39.9893 13.2444 39.9915C12.0091 39.9938 10.7738 39.9948 9.53847 39.9947C8.84515 39.9947 8.15184 39.9951 7.45852 39.9968C6.8681 39.9982 6.2777 39.9985 5.68729 39.9975C5.38624 39.997 5.08522 39.9969 4.78418 39.9983C4.50814 39.9995 4.23214 39.9993 3.95611 39.9979C3.80989 39.9976 3.66367 39.9988 3.51746 40C2.53324 39.992 1.78677 39.6753 1.04856 39.0237C0.449093 38.3836 0.0210094 37.6024 0.0199243 36.7109C0.0196522 36.6604 0.0193793 36.6098 0.0190991 36.5577C0.0183779 36.3886 0.0187584 36.2194 0.0191358 36.0503C0.0188458 35.9277 0.0184885 35.8051 0.0180702 35.6825C0.0171208 35.3457 0.0171414 35.0089 0.0173243 34.6722C0.017356 34.3089 0.0164999 33.9457 0.0157639 33.5824C0.0144748 32.8707 0.0140485 32.159 0.013962 31.4474C0.0138882 30.8688 0.0135696 30.2902 0.0130776 29.7117C0.0117108 28.0712 0.0109947 26.4307 0.011111 24.7902C0.0111172 24.7017 0.0111236 24.6133 0.01113 24.5222C0.0111363 24.4336 0.0111424 24.345 0.0111489 24.2538C0.011212 22.819 0.0097274 21.3842 0.00753911 19.9494C0.00530967 18.4759 0.00423922 17.0025 0.00437326 15.5291C0.00442477 14.7019 0.00399813 13.8748 0.00232742 13.0476C0.000913892 12.3433 0.000578126 11.639 0.00163127 10.9346C0.00213769 10.5754 0.00214739 10.2162 0.000800144 9.85695C-0.000421786 9.52775 -0.00019728 9.19857 0.00115414 8.86936C0.00139204 8.75061 0.00111177 8.63186 0.000244878 8.51312C-0.00731477 7.40364 0.232766 6.58649 0.970971 5.74257C1.58719 5.16029 2.36092 4.7158 3.22151 4.70447C3.31157 4.70292 3.40164 4.70137 3.49443 4.69978C3.59046 4.69888 3.6865 4.69798 3.78544 4.69705C3.93429 4.69479 3.93429 4.69479 4.08614 4.69248C4.34864 4.68861 4.61114 4.68539 4.87366 4.68249C5.14206 4.67936 5.41044 4.67538 5.67883 4.67147C6.20448 4.664 6.73013 4.65737 7.2558 4.65138C7.28213 4.59756 7.30847 4.54373 7.33561 4.48828C7.37032 4.41784 7.40503 4.3474 7.44079 4.27482C7.47513 4.20492 7.50947 4.13502 7.54485 4.063C7.93885 3.30188 8.66937 2.76864 9.46712 2.49611C9.95692 2.3559 10.4446 2.34741 10.951 2.33748C11.0438 2.33482 11.1365 2.33216 11.232 2.32941C11.4584 2.32305 11.6848 2.31764 11.9112 2.31313C11.9483 2.23509 11.9483 2.23509 11.9862 2.15547C12.4525 1.19346 13.1085 0.514371 14.1274 0.135626C15.2372 -0.148854 16.3921 0.00848282 17.3329 0.661733ZM14.3941 2.78078C14.1894 3.07322 14.1173 3.32727 14.0547 3.67711C13.9642 4.10212 13.8924 4.31974 13.5406 4.57344C13.2997 4.69446 13.0431 4.66689 12.7784 4.67056C12.654 4.67313 12.5297 4.67572 12.4054 4.67833C12.2096 4.68201 12.0138 4.68547 11.818 4.68854C11.6289 4.69166 11.4399 4.69567 11.2508 4.69979C11.1641 4.70077 11.1641 4.70077 11.0756 4.70178C10.6071 4.71275 10.1968 4.75661 9.83083 5.07519C9.29415 5.70672 9.42833 6.18909 9.42833 7.06758C13.2691 7.06758 17.1098 7.06758 21.0669 7.06758C21.1379 6.02134 21.1379 6.02134 20.7226 5.13365C20.2525 4.73055 19.8673 4.71878 19.2678 4.71288C19.1435 4.71069 19.0192 4.70846 18.895 4.70618C18.7004 4.70296 18.5058 4.70009 18.3111 4.69804C18.1224 4.69588 17.9338 4.69231 17.7451 4.68852C17.6872 4.68827 17.6293 4.68802 17.5697 4.68776C17.2225 4.67955 16.9986 4.63145 16.7218 4.41755C16.5071 4.1326 16.4447 3.86953 16.3824 3.52122C16.2613 2.95451 16.1095 2.78638 15.6356 2.46901C15.1436 2.39585 14.7738 2.43661 14.3941 2.78078Z" fill="#FF34C5" />
  <path d="M2.7701 7.41344C2.4029 7.84553 2.35797 8.16827 2.35762 8.72378C2.35737 8.8225 2.35712 8.92122 2.35686 9.02294C2.35697 9.13231 2.3571 9.24168 2.35722 9.35105C2.35708 9.46737 2.3569 9.5837 2.35669 9.70003C2.35622 10.0198 2.35623 10.3396 2.35632 10.6593C2.35633 11.0041 2.35591 11.349 2.35554 11.6938C2.35489 12.3694 2.35468 13.045 2.35464 13.7205C2.3546 14.2696 2.35444 14.8187 2.35419 15.3677C2.35351 16.924 2.35315 18.4803 2.35321 20.0366C2.35322 20.1624 2.35322 20.1624 2.35322 20.2909C2.35322 20.3749 2.35323 20.4589 2.35323 20.5455C2.35326 21.9074 2.35252 23.2694 2.35143 24.6313C2.35031 26.0293 2.34977 27.4274 2.34984 28.8254C2.34987 29.6105 2.34965 30.3955 2.34882 31.1806C2.34811 31.8489 2.34794 32.5173 2.34847 33.1856C2.34872 33.5266 2.34873 33.8677 2.34806 34.2087C2.34806 34.2087 2.34806 34.2087 2.34806 34.2087C2.34745 34.5209 2.34755 34.8331 2.34823 35.1453C2.34835 35.2583 2.34821 35.3712 2.34778 35.4841C2.31347 36.4154 2.31347 36.4154 2.71191 37.2164C3.11686 37.5637 3.42233 37.6304 3.94363 37.6308C4.02569 37.6311 4.10775 37.6313 4.1923 37.6316C4.32681 37.6314 4.32681 37.6314 4.46403 37.6312C4.55967 37.6314 4.6553 37.6315 4.75384 37.6317C5.01908 37.6321 5.28432 37.6322 5.54956 37.6321C5.83570 37.6321 6.12185 37.6325 6.40799 37.6329C6.96851 37.6335 7.52902 37.6338 8.08954 37.6338C8.54513 37.6338 9.00073 37.6340 9.45632 37.6342C10.7480 37.6349 12.0396 37.6353 13.3312 37.6352C13.4009 37.6352 13.4705 37.6352 13.5422 37.6352C13.6468 37.6352 13.6468 37.6352 13.7535 37.6352C14.8835 37.6352 16.0136 37.6359 17.1436 37.6370C18.3039 37.6381 19.4641 37.6387 20.6244 37.6386C21.2758 37.6386 21.9272 37.6388 22.5786 37.6396C23.1332 37.6403 23.6878 37.6405 24.2424 37.6400C24.5253 37.6397 24.8082 37.6397 25.0912 37.6404C25.3979 37.6411 25.7047 37.6406 26.0115 37.6400C26.1455 37.6406 26.1455 37.6406 26.2822 37.6413C27.0618 37.6441 27.0618 37.6441 27.7251 37.2749C28.0923 36.8428 28.1372 36.5201 28.1376 35.9646C28.1378 35.8658 28.1381 35.7671 28.1384 35.6654C28.1382 35.5560 28.1381 35.4467 28.1380 35.3373C28.1381 35.2210 28.1383 35.1046 28.1385 34.9883C28.1390 34.6686 28.1390 34.3488 28.1389 34.0290C28.1389 33.6842 28.1393 33.3394 28.1397 32.9946C28.1403 32.3190 28.1405 31.6434 28.1406 30.9678C28.1406 30.4187 28.1408 29.8697 28.1410 29.3206C28.1417 27.7643 28.1421 26.2081 28.1420 24.6518C28.1420 24.5679 28.1420 24.4839 28.1420 24.3975C28.1420 24.3135 28.1420 24.2295 28.1420 24.1429C28.1420 22.7809 28.1427 21.4190 28.1438 20.0570C28.1449 18.6590 28.1454 17.2610 28.1454 15.8629C28.1453 15.0779 28.1456 14.2928 28.1464 13.5078C28.1471 12.8394 28.1473 12.1711 28.1467 11.5027C28.1465 11.1617 28.1465 10.8207 28.1472 10.4796C28.1478 10.1674 28.1477 9.85522 28.1470 9.54300C28.1469 9.43008 28.1470 9.31715 28.1474 9.20423C28.1818 8.27291 28.1817 8.27291 27.7833 7.4719C27.3930 7.13723 27.0957 7.05733 26.5921 7.05873C26.5207 7.05873 26.4492 7.05874 26.3756 7.05875C26.2996 7.05915 26.2235 7.05955 26.1451 7.05997C26.0665 7.06008 25.9878 7.06019 25.9067 7.06030C25.6561 7.06074 25.4055 7.06171 25.1549 7.06271C24.9848 7.06310 24.8146 7.06345 24.6444 7.06377C24.2278 7.06463 23.8112 7.06593 23.3946 7.06758C23.3935 7.11512 23.3923 7.16266 23.3912 7.21164C23.3854 7.42835 23.3779 7.64496 23.3704 7.86161C23.3686 7.93641 23.3669 8.01121 23.3651 8.08828C23.3379 8.80436 23.3379 8.80436 23.0842 9.09406C22.7608 9.33965 22.4791 9.36120 22.0867 9.35758C21.9953 9.35813 21.9953 9.35813 21.9022 9.35869C21.6984 9.35962 21.4946 9.35888 21.2909 9.35815C21.1447 9.35846 20.9985 9.35888 20.8523 9.35939C20.4554 9.36045 20.0584 9.36004 19.6615 9.35930C19.2462 9.35871 18.8310 9.35926 18.4157 9.35962C17.7183 9.36005 17.0209 9.35949 16.3235 9.35837C15.5171 9.35710 14.7106 9.35751 13.9042 9.35880C13.2120 9.35986 12.5198 9.36001 11.8275 9.35940C11.4140 9.35904 11.0005 9.35899 10.5870 9.35976C10.1983 9.36043 9.80955 9.35997 9.42081 9.35861C9.27809 9.35831 9.13537 9.35839 8.99264 9.35891C8.79792 9.35955 8.60325 9.35875 8.40853 9.35758C8.35196 9.35810 8.29539 9.35863 8.23711 9.35916C7.89613 9.35520 7.68377 9.30118 7.41098 9.09406C7.09975 8.73864 7.13538 8.31130 7.12486 7.86161C7.12221 7.78530 7.11956 7.70899 7.11683 7.63037C7.11045 7.44278 7.10508 7.25522 7.10061 7.06758C6.60226 7.06361 6.10391 7.06089 5.60554 7.05901C5.43614 7.05823 5.26674 7.05717 5.09734 7.05582C4.85331 7.05392 4.60929 7.05304 4.36525 7.05235C4.28998 7.05155 4.21471 7.05075 4.13716 7.04992C3.61645 7.04983 3.17947 7.05705 2.77010 7.41344Z" fill="#FF34C5" />
  <path d="M37.9048 5.11907C38.6914 5.59796 39.2625 6.20809 39.6118 7.06762C39.6380 7.13039 39.6642 7.19315 39.6912 7.25782C39.7948 7.63715 39.7957 7.99877 39.8013 8.39057C39.8030 8.47705 39.8048 8.56353 39.8066 8.65262C39.8124 8.94285 39.8169 9.23308 39.8215 9.52332C39.8243 9.67851 39.8271 9.83371 39.8300 9.98890C39.8663 11.9689 39.8851 13.9492 39.9003 15.9295C39.9023 16.1894 39.9044 16.4493 39.9065 16.7091C39.9070 16.7737 39.9076 16.8382 39.9081 16.9048C39.9161 17.8697 39.9315 18.8344 39.9511 19.7992C39.9809 21.2934 39.9998 22.7873 39.9997 24.2818C39.9997 24.3729 39.9997 24.3729 39.9997 24.4658C39.9974 28.4853 39.8821 33.9188 37.1867 37.1783C36.8829 37.4759 36.7135 37.5690 36.2948 37.5818C35.9718 37.5752 35.7565 37.5555 35.4995 37.3529C35.3322 37.1705 35.2231 37.0040 35.1282 36.7757C34.9995 36.4725 34.8635 36.1740 34.7241 35.8756C32.9946 32.1042 32.5639 28.4350 32.5607 24.3412C32.5607 24.2806 32.5606 24.2200 32.5606 24.1576C32.5599 22.6601 32.5791 21.1630 32.6063 19.6658C32.6239 18.6986 32.6351 17.7315 32.6410 16.7642C32.6414 16.6998 32.6418 16.6354 32.6422 16.5691C32.6438 16.3101 32.6454 16.0511 32.6469 15.7921C32.6538 14.6164 32.6649 13.4407 32.6771 12.2651C32.6777 12.2060 32.6783 12.1470 32.6789 12.0862C32.6865 11.3522 32.6961 10.6183 32.7090 9.88431C32.7123 9.68093 32.7152 9.47755 32.7176 9.27416C32.7209 8.99625 32.7261 8.71845 32.7319 8.44058C32.7324 8.36081 32.7330 8.28104 32.7336 8.19885C32.7579 7.26309 33.1034 6.51956 33.7149 5.82055C34.1044 5.45249 34.5386 5.16626 35.0339 4.96319C35.1013 4.93536 35.1687 4.90753 35.2382 4.87885C36.0668 4.65194 37.1532 4.69159 37.9048 5.11907ZM35.4219 7.53527C35.1531 7.89833 35.1015 8.25106 35.1027 8.69521C35.1027 8.76852 35.1027 8.84183 35.1027 8.91736C35.1031 8.99548 35.1035 9.07360 35.1039 9.15408C35.1040 9.23484 35.1042 9.31560 35.1043 9.39881C35.1047 9.65610 35.1057 9.91339 35.1067 10.1707C35.1071 10.3454 35.1074 10.5201 35.1077 10.6948C35.1086 11.1225 35.1099 11.5502 35.1115 11.9780C35.2164 11.9590 35.2164 11.9590 35.3234 11.9396C35.5253 11.9081 35.7084 11.8900 35.9117 11.8897C35.9711 11.8896 36.0305 11.8895 36.0917 11.8894C36.1523 11.8897 36.2129 11.8900 36.2754 11.8903C36.3360 11.8900 36.3966 11.8897 36.4590 11.8894C36.5185 11.8895 36.5779 11.8896 36.6391 11.8897C36.7187 11.8898 36.7187 11.8898 36.8000 11.8899C37.0166 11.9025 37.2259 11.9394 37.4392 11.9780C37.4432 11.4662 37.4459 10.9545 37.4478 10.4428C37.4485 10.2689 37.4496 10.0949 37.4509 9.92096C37.4528 9.67041 37.4537 9.41987 37.4544 9.16931C37.4552 9.09199 37.4560 9.01468 37.4568 8.93502C37.4569 8.40773 37.4527 7.96454 37.0949 7.54988C36.7370 7.24293 36.5399 7.18878 36.0820 7.19884C35.7949 7.23523 35.6346 7.34241 35.4219 7.53527ZM35.4219 14.5500C35.1298 14.9446 35.1018 15.3248 35.1022 15.8054C35.1021 15.9010 35.1020 15.9966 35.1019 16.0952C35.1021 16.2005 35.1024 16.3058 35.1027 16.4111C35.1027 16.5225 35.1027 16.6339 35.1027 16.7453C35.1026 17.0473 35.1031 17.3492 35.1036 17.6511C35.1041 17.9668 35.1042 18.2825 35.1043 18.5982C35.1045 19.1958 35.1051 19.7934 35.1059 20.3910C35.1068 21.0715 35.1072 21.7520 35.1076 22.4324C35.1084 23.8319 35.1098 25.2315 35.1115 26.6310C35.2365 26.6120 35.2365 26.6120 35.3640 26.5927C35.6696 26.5510 35.9678 26.5416 36.2754 26.5433C36.3276 26.5430 36.3798 26.5427 36.4336 26.5424C36.7757 26.5431 37.1015 26.5797 37.4392 26.6310C37.4429 25.1669 37.4456 23.7028 37.4473 22.2387C37.4481 21.5588 37.4492 20.8790 37.4509 20.1992C37.4525 19.6065 37.4535 19.0139 37.4538 18.4213C37.4540 18.1076 37.4545 17.7939 37.4556 17.4801C37.4567 17.1846 37.4570 16.8892 37.4568 16.5937C37.4568 16.4854 37.4571 16.3772 37.4577 16.2690C37.4905 15.3523 37.4905 15.3523 37.0949 14.5646C36.7370 14.2577 36.5399 14.2035 36.0820 14.2136C35.7949 14.2500 35.6346 14.3572 35.4219 14.5500ZM35.3677 29.2322C35.3343 29.2740 35.3010 29.3159 35.2667 29.3590C35.3533 30.0157 35.6080 30.6477 35.8195 31.2734C35.8562 31.3829 35.8929 31.4923 35.9295 31.6018C36.0186 31.8676 36.1081 32.1332 36.1978 32.3987C36.2490 32.3987 36.3002 32.3987 36.3530 32.3987C36.4880 32.0052 36.6220 31.6113 36.7550 31.2170C36.8004 31.0830 36.8461 30.9490 36.8921 30.8151C36.9582 30.6227 37.0231 30.4299 37.0879 30.2370C37.1191 30.1474 37.1191 30.1474 37.1509 30.0559C37.2805 29.6685 37.2805 29.6685 37.2065 29.2810C36.8595 28.9601 36.5986 28.8679 36.1250 28.8740C35.8249 28.9065 35.5986 29.0447 35.3677 29.2322Z" fill="#FF34C5" />
  <path d="M9.32637 21.4280C9.43967 21.4966 9.55155 21.5677 9.66097 21.6424C9.76660 21.7075 9.76660 21.7075 9.87435 21.7739C10.1971 22.1071 10.4458 22.5265 10.5921 22.9674C10.5885 23.0437 10.5849 23.1201 10.5811 23.1988C10.5594 23.7177 10.5594 23.7177 10.7595 24.1833C10.9971 24.4282 11.2696 24.6270 11.5476 24.8229C11.7304 24.9530 11.9026 25.0950 12.0760 25.2374C12.1370 25.2860 12.1980 25.3345 12.2609 25.3845C12.5546 25.6199 12.8437 25.8610 13.1331 26.1018C13.2972 26.2423 13.2972 26.2423 13.4629 26.3189C13.6440 26.2615 13.6440 26.2615 13.8412 26.1727C14.6376 25.8312 15.6591 25.7714 16.4889 26.0461C16.8829 26.2125 17.1875 26.4781 17.4979 26.7695C17.7680 26.8798 17.8060 26.8628 18.0671 26.7610C18.2142 26.6931 18.3605 26.6235 18.5063 26.5527C18.6013 26.5094 18.6964 26.4664 18.7917 26.4236C19.1671 26.2549 19.5410 26.0829 19.9148 25.9106C20.0756 25.8366 20.2366 25.7629 20.3976 25.6893C20.4469 25.6664 20.4963 25.6435 20.5472 25.6199C20.8940 25.4615 20.8940 25.4615 21.0668 25.4615C21.0782 25.4181 21.0896 25.3747 21.1013 25.3300C21.3239 24.5694 21.6782 24.1457 22.3649 23.7569C22.9093 23.4849 23.6774 23.4841 24.2559 23.6670C24.4448 23.7605 24.6170 23.8618 24.7911 23.9806C24.8615 24.0240 24.9319 24.0674 25.0045 24.1122C25.5571 24.6827 25.7467 25.2888 25.7526 26.0641C25.7434 26.5613 25.6135 26.9191 25.3342 27.3321C25.2910 27.4029 25.2478 27.4736 25.2033 27.5465C24.7006 28.0378 24.1366 28.2824 23.4430 28.3015C23.3416 28.3063 23.2401 28.3110 23.1356 28.3158C22.7998 28.3032 22.5935 28.1664 22.3070 27.9974C21.9963 27.8446 21.7914 27.7675 21.4604 27.8684C21.1247 28.0006 20.8103 28.1717 20.4945 28.3454C20.3302 28.4311 20.1653 28.5157 20.0003 28.6002C19.8985 28.6528 19.7971 28.7063 19.6964 28.7610C19.3805 28.9305 19.0839 29.0373 18.7391 29.1248C18.7427 29.1936 18.7463 29.2624 18.7500 29.3333C18.7818 30.3966 18.5094 31.1289 17.8080 31.9307C17.4185 32.2988 16.9843 32.5850 16.4889 32.7881C16.4215 32.8159 16.3541 32.8437 16.2847 32.8724C15.4457 33.1022 14.3841 33.0490 13.6181 32.6322C13.5563 32.5812 13.4946 32.5302 13.4310 32.4777C13.2114 32.3004 13.0312 32.1805 12.7646 32.0866C12.3723 32.1644 12.0519 32.3552 11.7123 32.5591C11.6205 32.6108 11.5285 32.6621 11.4363 32.7130C11.2687 32.8062 11.1019 32.9011 10.9365 32.9982C10.7472 33.0998 10.7472 33.0998 10.5921 33.0998C10.5889 33.1995 10.5857 33.2992 10.5824 33.4019C10.5222 33.9277 10.2774 34.3596 9.8992 34.7256C9.20368 35.2748 8.50453 35.3743 7.64362 35.2822C7.35414 35.1894 7.11831 35.0635 6.86772 34.8925C6.79731 34.8491 6.72689 34.8057 6.65435 34.7610C6.10169 34.1904 5.91216 33.5844 5.90625 32.8090C5.91540 32.3118 6.04535 31.9540 6.32459 31.5410C6.38940 31.4349 6.38940 31.4349 6.45552 31.3267C6.97286 30.8210 7.53328 30.5914 8.24495 30.5862C8.29856 30.5846 8.35217 30.5830 8.4074 30.5813C8.69629 30.5792 8.90981 30.6032 9.1724 30.7287C9.51452 30.8769 9.68757 30.8081 10.0299 30.6842C11.0069 30.3299 11.0069 30.3299 11.7712 29.6828C11.8682 29.3621 11.8085 29.0585 11.7559 28.7351C11.7729 28.6532 11.7899 28.5713 11.8074 28.4869C11.8583 28.2667 11.8583 28.2667 11.7265 28.1155C11.6706 28.0708 11.6147 28.0261 11.5571 27.9800C11.4926 27.9272 11.4281 27.8743 11.3616 27.8199C11.2869 27.7618 11.2122 27.7037 11.1352 27.6439C11.0062 27.5420 10.8775 27.4399 10.7487 27.3378C10.6564 27.2651 10.5635 27.1932 10.4701 27.1219C10.2333 26.9398 10.0126 26.7555 9.80403 26.5411C9.32907 26.0583 9.32907 26.0583 8.69382 25.8893C8.51027 25.8907 8.32884 25.8999 8.14571 25.9121C7.62918 25.9459 7.29556 25.8422 6.86772 25.5395C6.79731 25.4961 6.72689 25.4527 6.65435 25.4079C6.10169 24.8374 5.91216 24.2313 5.90625 23.4560C5.91540 22.9588 6.04535 22.6010 6.32459 22.1880C6.36779 22.1172 6.41100 22.0465 6.45552 21.9736C7.19954 21.2464 8.36836 20.9541 9.32637 21.4280ZM14.2485 28.8228C14.1174 29.1594 14.1100 29.4698 14.1612 29.8263C14.3290 30.1697 14.5024 30.3874 14.8595 30.5277C15.2508 30.5811 15.5447 30.5725 15.9022 30.3962C16.1628 30.1600 16.3100 30.0023 16.3583 29.6445C16.3789 29.1989 16.3313 28.9220 16.0234 28.5792C15.7257 28.3153 15.4311 28.3054 15.0487 28.3180C14.6869 28.3704 14.4831 28.5557 14.2485 28.8228Z" fill="#FF34C5" />
</svg>
