<?xml version="1.0" encoding="UTF-8"?>
<svg version="1.1" xmlns="http://www.w3.org/2000/svg" width="512" height="512">
<path d="M0 0 C1.22369987 -0.00480972 1.22369987 -0.00480972 2.47212094 -0.0097166 C5.20526676 -0.01801676 7.93819345 -0.01209223 10.67134285 -0.00622082 C12.65087564 -0.00924149 14.63040727 -0.01313055 16.60993683 -0.01781338 C22.04952137 -0.02811295 27.48904014 -0.02590656 32.92863011 -0.02163279 C38.7951353 -0.01916913 44.6616245 -0.02817525 50.52812386 -0.03567028 C62.02116471 -0.04842928 73.51418221 -0.05020948 85.00722896 -0.04787002 C94.34766309 -0.04608806 103.68809074 -0.04779674 113.0285244 -0.05209446 C114.37057133 -0.05269686 115.71261826 -0.05329806 117.05466519 -0.05389806 C119.07701538 -0.05480532 121.09936558 -0.05571398 123.12171578 -0.05663041 C141.92406511 -0.06505978 160.72641186 -0.06939575 179.52876282 -0.06522369 C180.59193859 -0.06498913 180.59193859 -0.06498913 181.67659266 -0.06474983 C185.26896887 -0.06394405 188.86134507 -0.06309828 192.45372127 -0.06223653 C193.16717515 -0.06206544 193.88062904 -0.06189435 194.61570274 -0.06171808 C196.05847962 -0.06137142 197.50125651 -0.06102289 198.94403339 -0.06067249 C221.39434064 -0.05531512 243.84460861 -0.06324622 266.29490852 -0.08170605 C291.51979231 -0.10242301 316.74465176 -0.11314935 341.96954453 -0.10913056 C344.65928912 -0.10873522 347.34903371 -0.10837367 350.03877831 -0.10803318 C350.70105823 -0.10794245 351.36333815 -0.10785172 352.04568716 -0.10775824 C362.04240829 -0.10659238 372.03909661 -0.11327584 382.03581047 -0.1238451 C393.40524162 -0.13574391 404.77461496 -0.13718062 416.14404689 -0.12505493 C421.94561147 -0.11915576 427.74707024 -0.11809556 433.54862785 -0.13005733 C438.85960119 -0.14088043 444.1703799 -0.13785533 449.481344 -0.12379565 C451.40254722 -0.12113887 453.32376552 -0.12354592 455.24495398 -0.13153151 C457.85795442 -0.14163872 460.47027845 -0.13321467 463.08325195 -0.12025452 C463.82769371 -0.12756386 464.57213547 -0.13487321 465.33913606 -0.14240405 C471.51530786 -0.07898474 477.93228313 1.02966108 482.82371712 5.00838184 C483.26715462 5.60521778 483.71059212 6.20205372 484.16746712 6.81697559 C484.63152962 7.41638966 485.09559212 8.01580372 485.57371712 8.63338184 C487.96959054 12.18440852 487.81046731 15.23181322 487.80168819 19.38668919 C487.80404042 20.13346046 487.80639265 20.88023174 487.80881616 21.64963245 C487.81552812 24.17798234 487.81504728 26.7062811 487.81463814 29.23463917 C487.8179354 31.05525169 487.82166067 32.87586347 487.82577962 34.69647431 C487.83582341 39.71986866 487.83952022 44.74325105 487.84216893 49.76665401 C487.84606493 55.17646896 487.85564372 60.58627438 487.86438179 65.99608326 C487.88416587 79.07065908 487.89421475 92.14523571 487.90310958 105.21982276 C487.90748919 111.37156435 487.91285683 117.52330507 487.91809845 123.67504597 C487.93511246 144.1156277 487.94960777 164.55620888 487.95684719 184.99679661 C487.95875719 190.30404378 487.96067751 195.61129094 487.96263313 200.91853809 C487.96311687 202.23768496 487.96360061 203.55683182 487.96409901 204.91595283 C487.9722329 226.29660302 487.99774675 247.67719405 488.03021381 269.05782017 C488.06325005 290.99145429 488.08129283 312.92505998 488.08449143 334.85871911 C488.08665969 347.18072392 488.0954544 359.50264726 488.12095261 371.82462788 C488.14261269 382.31629288 488.15073319 392.80785662 488.14098582 403.29954144 C488.13642753 408.65518253 488.13841595 414.01061447 488.15774727 419.36622715 C488.17528272 424.26650111 488.17445985 429.16641187 488.15884998 434.06668916 C488.15645922 435.8419643 488.1608729 437.61726395 488.17267863 439.39250144 C488.18771161 441.80174486 488.17818579 444.20968702 488.16245174 446.61889744 C488.17267395 447.31168435 488.18289616 448.00447125 488.19342813 448.71825171 C488.10621084 454.81746055 485.62010331 458.35461336 481.35496712 462.50447559 C475.75554405 466.15061154 469.85584225 466.54722131 463.33493423 466.50895119 C462.51913432 466.51215767 461.70333441 466.51536414 460.86281329 466.51866779 C458.12966748 466.52696795 455.39674078 466.52104342 452.66359138 466.515172 C450.68405859 466.51819268 448.70452696 466.52208173 446.7249974 466.52676457 C441.28541287 466.53706414 435.8458941 466.53485775 430.40630412 466.53058398 C424.53979894 466.52812032 418.67330974 466.53712644 412.80681038 466.54462147 C401.31376953 466.55738047 389.82075202 466.55916066 378.32770528 466.5568212 C368.98727115 466.55503924 359.64684349 466.55674793 350.30640984 466.56104565 C348.96436291 466.56164805 347.62231598 466.56224925 346.28026905 466.56284925 C344.25791885 466.56375651 342.23556865 466.56466517 340.21321846 466.5655816 C321.41086912 466.57401096 302.60852237 466.57834694 283.80617142 466.57417488 C283.09738757 466.5740185 282.38860372 466.57386213 281.65834158 466.57370101 C278.06596537 466.57289523 274.47358916 466.57204946 270.88121296 466.57118771 C270.16775908 466.57101662 269.4543052 466.57084554 268.7192315 466.57066926 C267.27645461 466.57032261 265.83367773 466.56997408 264.39090084 466.56962368 C241.9405936 466.56426631 219.49032563 466.5721974 197.04002571 466.59065723 C171.81514193 466.6113742 146.59028247 466.62210054 121.3653897 466.61808175 C118.67564512 466.6176864 115.98590053 466.61732486 113.29615593 466.61698437 C112.63387601 466.61689364 111.97159609 466.6168029 111.28924708 466.61670942 C101.29252595 466.61554357 91.29583762 466.62222703 81.29912376 466.63279629 C69.92969261 466.64469509 58.56031927 466.64613181 47.19088735 466.63400612 C41.38932276 466.62810695 35.58786399 466.62704675 29.78630638 466.63900852 C24.47533304 466.64983162 19.16455433 466.64680652 13.85359024 466.63274684 C11.93238702 466.63009006 10.01116872 466.63249711 8.08998026 466.6404827 C5.47697982 466.65058991 2.86465578 466.64216586 0.25168228 466.6292057 C-0.49275948 466.63651505 -1.23720123 466.6438244 -2.00420183 466.65135524 C-8.18037362 466.58793592 -14.5973489 465.4792901 -19.48878288 461.50056934 C-19.93222038 460.90373341 -20.37565788 460.30689747 -20.83253288 459.69197559 C-21.52862663 458.7928545 -21.52862663 458.7928545 -22.23878288 457.87556934 C-24.6346563 454.32454267 -24.47553308 451.27713797 -24.46675396 447.122262 C-24.46910619 446.37549072 -24.47145842 445.62871944 -24.47388193 444.85931873 C-24.48059388 442.33096885 -24.48011305 439.80267009 -24.4797039 437.27431202 C-24.48300116 435.4536995 -24.48672643 433.63308772 -24.49084538 431.81247687 C-24.50088918 426.78908253 -24.50458599 421.76570014 -24.50723469 416.74229717 C-24.51113069 411.33248223 -24.52070948 405.92267681 -24.52944756 400.51286793 C-24.54923164 387.4382921 -24.55928051 374.36371548 -24.56817535 361.28912842 C-24.57255495 355.13738684 -24.5779226 348.98564612 -24.58316422 342.83390522 C-24.60017823 322.39332349 -24.61467353 301.9527423 -24.62191296 281.51215458 C-24.62382296 276.20490741 -24.62574328 270.89766025 -24.6276989 265.59041309 C-24.62818264 264.27126623 -24.62866638 262.95211937 -24.62916478 261.59299836 C-24.63729867 240.21234817 -24.66281251 218.83175714 -24.69527958 197.45113102 C-24.72831581 175.5174969 -24.74635859 153.58389121 -24.7495572 131.65023208 C-24.75172545 119.32822726 -24.76052016 107.00630393 -24.78601837 94.68432331 C-24.80767845 84.19265831 -24.81579896 73.70109457 -24.80605159 63.20940974 C-24.80149329 57.85376866 -24.80348171 52.49833671 -24.82281303 47.14272404 C-24.84034849 42.24245008 -24.83952561 37.34253932 -24.82391574 32.44226202 C-24.82152498 30.66698689 -24.82593866 28.89168723 -24.83774439 27.11644974 C-24.85277737 24.70720632 -24.84325155 22.29926417 -24.82751751 19.89005375 C-24.84285082 18.85087339 -24.84285082 18.85087339 -24.85849389 17.79069948 C-24.77127661 11.69149063 -22.28516907 8.15433783 -18.02003288 4.00447559 C-12.42060982 0.35833964 -6.52090802 -0.03827013 0 0 Z M10.66746712 36.25447559 C10.66746712 54.40447559 10.66746712 72.55447559 10.66746712 91.25447559 C156.52746712 91.25447559 302.38746712 91.25447559 452.66746712 91.25447559 C452.66746712 73.10447559 452.66746712 54.95447559 452.66746712 36.25447559 C306.80746712 36.25447559 160.94746712 36.25447559 10.66746712 36.25447559 Z M10.66746712 127.25447559 C10.66746712 227.24447559 10.66746712 327.23447559 10.66746712 430.25447559 C44.65746712 430.25447559 78.64746712 430.25447559 113.66746712 430.25447559 C113.66746712 330.26447559 113.66746712 230.27447559 113.66746712 127.25447559 C79.67746712 127.25447559 45.68746712 127.25447559 10.66746712 127.25447559 Z M148.66746712 127.25447559 C148.66746712 227.24447559 148.66746712 327.23447559 148.66746712 430.25447559 C248.98746712 430.25447559 349.30746712 430.25447559 452.66746712 430.25447559 C452.66746712 330.26447559 452.66746712 230.27447559 452.66746712 127.25447559 C352.34746712 127.25447559 252.02746712 127.25447559 148.66746712 127.25447559 Z " fill="#ffffff" transform="translate(24.33253288269043,22.745524406433105)"/>
<path d="M0 0 C11.46455189 9.29758489 19.82950807 24.35425069 22 39 C23.11998674 58.46935859 20.9865476 75.12714119 7.5625 90.3125 C6.38788276 91.5539835 5.20537801 92.78836029 4 94 C5.48510716 97.3433951 7.43123617 99.79877697 9.8125 102.5625 C19.81236005 114.91739955 22.47217495 128.87641114 22.3984375 144.42578125 C22.40046432 145.78574275 22.40338078 147.14570318 22.40713501 148.50566101 C22.41152235 151.33371492 22.40523979 154.16148178 22.39111328 156.98950195 C22.3739405 160.60181655 22.38393557 164.21346619 22.40183067 167.82575703 C22.41269647 170.62514722 22.40921088 173.42438083 22.4014473 176.22377586 C22.39849616 178.19901849 22.40754625 180.17426739 22.4168396 182.14949036 C22.40265488 183.9574836 22.40265488 183.9574836 22.38818359 185.80200195 C22.38579681 186.85692337 22.38341003 187.91184479 22.38095093 188.99873352 C21.78157442 193.7208342 20.06443449 196.99158838 16.625 200.25 C10.86962346 204.08691769 6.10176029 204.29726736 -0.63623047 204.29052734 C-1.60107361 204.29724457 -2.56591675 204.30396179 -3.55999756 204.31088257 C-6.74578009 204.32986194 -9.93135197 204.33378669 -13.1171875 204.3359375 C-15.33529751 204.34236523 -17.55340667 204.34909357 -19.77151489 204.35610962 C-24.42012498 204.36808207 -29.06866074 204.37179045 -33.71728516 204.37060547 C-39.66805303 204.37040223 -45.61834358 204.39770983 -51.56899834 204.43214989 C-56.15013815 204.45440839 -60.73116288 204.45844333 -65.31235123 204.45738602 C-67.50595877 204.45974334 -69.69956942 204.46857421 -71.89312363 204.48405075 C-74.96408085 204.50368982 -78.03400592 204.4978805 -81.10498047 204.48583984 C-82.00703217 204.49707886 -82.90908386 204.50831787 -83.83847046 204.51989746 C-90.86753857 204.45001617 -95.2317108 202.7682892 -100.3125 197.6875 C-104.44771754 191.10178317 -104.29568303 184.38506354 -104.265625 176.8359375 C-104.26753845 175.76687164 -104.2694519 174.69780579 -104.27142334 173.59634399 C-104.27278057 171.33880375 -104.26911651 169.08125559 -104.26074219 166.82373047 C-104.25009981 163.40704312 -104.26062067 159.99088918 -104.2734375 156.57421875 C-104.28742825 135.7678805 -103.25615066 114.01785232 -87.5625 98.25 C-86.716875 97.5075 -85.87125 96.765 -85 96 C-86.36289349 92.95353221 -87.93023645 90.88245987 -90.25 88.5 C-101.13673823 76.2977809 -104.69360545 60.18223393 -103.78515625 44.2265625 C-101.81306082 26.00815713 -93.90803558 10.93280944 -80 -1 C-55.69113948 -19.36356757 -24.11357976 -17.51811439 0 0 Z M-63.59375 32.9140625 C-68.45085157 40.11876316 -68.90591415 47.43499353 -68 56 C-66.09296926 64.17298887 -61.93435653 69.62702201 -55.07421875 74.31640625 C-47.55617524 78.37983089 -38.15888975 78.486692 -30.05859375 76.15234375 C-22.61958944 72.8019525 -17.02053813 67.34279313 -14.0625 59.6875 C-11.56593184 50.60623333 -12.40395376 42.223786 -17 34 C-21.2928083 27.40706629 -26.28250408 23.69049911 -34 22 C-46.30321046 20.51683456 -55.77691 22.99552495 -63.59375 32.9140625 Z M-61 122 C-71.80297787 135.8690115 -69 151.64786424 -69 169 C-50.52 169 -32.04 169 -13 169 C-12.9175 163.575625 -12.835 158.15125 -12.75 152.5625 C-12.69537598 150.02284546 -12.69537598 150.02284546 -12.63964844 147.43188477 C-12.50549385 136.77336068 -13.83327844 128.65538237 -21.22265625 120.5703125 C-27.17955721 115.30729231 -33.86181205 112.64191674 -41.79296875 112.7890625 C-49.24680192 113.50146425 -55.72582252 116.72582252 -61 122 Z " fill="#ffffff" transform="translate(366,206)"/>
<path d="M0 0 C0.9614241 -0.00960754 1.92284821 -0.01921509 2.91340637 -0.02911377 C3.95091537 -0.03336365 4.98842438 -0.03761353 6.05737305 -0.04199219 C7.12650436 -0.04769226 8.19563568 -0.05339233 9.29716492 -0.05926514 C11.56089284 -0.06871535 13.82463453 -0.0752492 16.08837891 -0.07910156 C19.54508588 -0.08879984 23.00119645 -0.11982062 26.45776367 -0.15136719 C28.65762993 -0.1578981 30.85750045 -0.16314823 33.05737305 -0.16699219 C34.60452751 -0.18551239 34.60452751 -0.18551239 36.18293762 -0.20440674 C43.22195758 -0.18264835 47.55015918 0.82375919 53.0065918 5.53613281 C56.9534223 10.1407684 57.67573075 14.0203036 57.4987793 19.95800781 C56.83394618 26.00584459 53.4079908 29.25831917 48.9753418 32.96191406 C45.90518006 35.10404964 43.16970254 35.29563912 39.54492188 35.33813477 C38.1124688 35.35738762 38.1124688 35.35738762 36.65107727 35.37702942 C35.10422493 35.38810982 35.10422493 35.38810982 33.52612305 35.39941406 C32.46173508 35.40748581 31.39734711 35.41555756 30.30070496 35.4238739 C28.04537584 35.43771104 25.79002582 35.44843485 23.53466797 35.45629883 C20.09977018 35.47347937 16.66584298 35.51736622 13.23120117 35.56152344 C11.03784886 35.57165349 8.84448838 35.58016862 6.65112305 35.58691406 C5.63000931 35.60442215 4.60889557 35.62193024 3.55683899 35.63996887 C-2.66015953 35.62123219 -7.62448395 34.89880613 -12.7434082 31.16113281 C-17.38333937 25.3314757 -18.40377101 20.41266404 -17.7434082 13.16113281 C-15.92944221 7.71923482 -12.36078182 4.38280032 -7.7434082 1.16113281 C-4.85983684 0.19994236 -2.99882399 0.02421128 0 0 Z " fill="#ffffff" transform="translate(66.743408203125,283.8388671875)"/>
<path d="M0 0 C0.95481766 -0.0127597 1.90963531 -0.02551941 2.89338684 -0.03866577 C3.91429916 -0.04089142 4.93521149 -0.04311707 5.98706055 -0.04541016 C7.04861862 -0.05206696 8.1101767 -0.05872375 9.2039032 -0.06558228 C11.44727856 -0.07569457 13.69068391 -0.08039974 15.93408203 -0.08007812 C19.35133958 -0.08444399 22.76729758 -0.12076 26.18432617 -0.15869141 C28.36856657 -0.16456143 30.55281307 -0.16852958 32.73706055 -0.17041016 C33.75190018 -0.18478119 34.76673981 -0.19915222 35.81233215 -0.21395874 C42.00536021 -0.17443958 46.95966704 0.57525204 52.0612793 4.29052734 C56.70121047 10.12018445 57.72164211 15.03899612 57.0612793 22.29052734 C55.26938771 27.66620209 51.72986479 31.20825692 47.0612793 34.29052734 C44.09627093 35.21296553 41.39237504 35.42605741 38.29614258 35.45166016 C37.35481476 35.4612677 36.41348694 35.47087524 35.44363403 35.48077393 C34.4331601 35.4850238 33.42268616 35.48927368 32.3815918 35.49365234 C30.81331131 35.50220245 30.81331131 35.50220245 29.21334839 35.51092529 C27.00267547 35.5203653 24.79198854 35.5269053 22.58129883 35.53076172 C19.20588579 35.54047095 15.83108083 35.57150578 12.45581055 35.60302734 C10.30607457 35.60955742 8.15633425 35.61480787 6.0065918 35.61865234 C5.00016632 35.63099915 3.99374084 35.64334595 2.95681763 35.65606689 C-4.0050136 35.63401916 -8.29411195 34.57450763 -13.6887207 29.91552734 C-17.63767127 25.30841835 -18.3462753 21.43539734 -18.1887207 15.49755859 C-17.53424033 9.71972402 -14.21823515 5.95868258 -9.9387207 2.29052734 C-6.51955211 0.66111563 -3.77357616 0.03444277 0 0 Z " fill="#ffffff" transform="translate(66.938720703125,200.70947265625)"/>
<path d="M0 0 C0.94132782 -0.00960754 1.88265564 -0.01921509 2.85250854 -0.02911377 C3.86298248 -0.03336365 4.87345642 -0.03761353 5.91455078 -0.04199219 C7.48283127 -0.0505423 7.48283127 -0.0505423 9.08279419 -0.05926514 C11.29346711 -0.06870515 13.50415404 -0.07524515 15.71484375 -0.07910156 C19.09025678 -0.08881079 22.46506174 -0.11984562 25.84033203 -0.15136719 C27.99006801 -0.15789726 30.13980833 -0.16314771 32.28955078 -0.16699219 C33.799189 -0.18551239 33.799189 -0.18551239 35.33932495 -0.20440674 C41.65698153 -0.18439907 46.26277061 0.41957982 51.09814453 4.87988281 C51.57638672 5.46769531 52.05462891 6.05550781 52.54736328 6.66113281 C53.2840625 7.54285156 53.2840625 7.54285156 54.03564453 8.44238281 C56.94054539 12.60575864 56.67747394 17.30076668 56.23486328 22.16113281 C54.42089728 27.60303081 50.8522369 30.93946531 46.23486328 34.16113281 C43.36671581 35.11718197 41.50525166 35.30317417 38.52319336 35.33813477 C37.09074028 35.35738762 37.09074028 35.35738762 35.62934875 35.37702942 C34.08249641 35.38810982 34.08249641 35.38810982 32.50439453 35.39941406 C31.44000656 35.40748581 30.37561859 35.41555756 29.27897644 35.4238739 C27.02364733 35.43771104 24.7682973 35.44843485 22.51293945 35.45629883 C19.07804167 35.47347937 15.64411447 35.51736622 12.20947266 35.56152344 C10.01612034 35.57165349 7.82275986 35.58016862 5.62939453 35.58691406 C4.60828079 35.60442215 3.58716705 35.62193024 2.53511047 35.63996887 C-3.68188805 35.62123219 -8.64621246 34.89880613 -13.76513672 31.16113281 C-18.40506789 25.3314757 -19.42549953 20.41266404 -18.76513672 13.16113281 C-16.97324514 7.78545806 -13.43372221 4.24340323 -8.76513672 1.16113281 C-5.80012835 0.23869462 -3.09623246 0.02560274 0 0 Z " fill="#ffffff" transform="translate(67.76513671875,366.8388671875)"/>
<path d="M0 0 C3.919716 0.03919716 4.96946342 0.17044207 8.25 2.5625 C11.12218724 6.6015133 12.27703994 8.8607636 12.1875 13.875 C11.07276962 18.03666007 9.53026327 19.65478168 6.25 22.375 C2.78472176 24.10763912 -0.96107028 23.8469774 -4.75 23.375 C-7.83954459 21.60015524 -9.28214578 20.14057963 -11.125 17.125 C-11.98724542 13.33112016 -11.94527425 10.09613681 -10.75 6.375 C-8.25 3.4375 -8.25 3.4375 -5.75 1.375 C-4.10843264 -0.26656736 -2.25784199 0.08684008 0 0 Z " fill="#ffffff" transform="translate(155.75,74.625)"/>
<path d="M0 0 C3.919716 0.03919716 4.96946342 0.17044207 8.25 2.5625 C11.12218724 6.6015133 12.27703994 8.8607636 12.1875 13.875 C11.07276962 18.03666007 9.53026327 19.65478168 6.25 22.375 C2.78472176 24.10763912 -0.96107028 23.8469774 -4.75 23.375 C-7.83954459 21.60015524 -9.28214578 20.14057963 -11.125 17.125 C-11.98724542 13.33112016 -11.94527425 10.09613681 -10.75 6.375 C-8.25 3.4375 -8.25 3.4375 -5.75 1.375 C-4.10843264 -0.26656736 -2.25784199 0.08684008 0 0 Z " fill="#ffffff" transform="translate(64.75,74.625)"/>
<path d="M0 0 C3.0597733 1.74387915 5.39965689 3.79931379 7 7 C7.53118173 10.79415519 7.85089348 14.46331178 5.953125 17.890625 C3.63400553 20.70085213 1.72015775 22.75917792 -1.953125 23.2734375 C-6.24672199 23.46329043 -9.09582964 23.4342668 -12.5 20.625 C-16.2696153 16.66690394 -16.53456742 13.90016917 -16.46484375 8.5546875 C-15.78045405 4.79341973 -14.194174 3.17908416 -11.1328125 1.00390625 C-7.3630645 -0.77049895 -4.03423147 -1.00306663 0 0 Z " fill="#ffffff" transform="translate(115,75)"/>
</svg>
