<?xml version="1.0" encoding="UTF-8"?>
<svg version="1.1" xmlns="http://www.w3.org/2000/svg" width="512" height="512">
<path d="M0 0 C0.87527344 0.74894531 1.75054687 1.49789063 2.65234375 2.26953125 C5.61345697 4.70596739 5.61345697 4.70596739 9.0625 6.1875 C11.88514646 5.42762302 11.88514646 5.42762302 14.875 4 C37.59506514 -5.21900648 62.38333241 -3.7666649 85 5 C108.71380252 15.10172631 126.68725326 33.99594808 136.4375 57.6875 C145.17401469 80.50114259 144.61974427 105.92836646 135.6875 128.5625 C134.83808592 130.44922884 133.96352044 132.32486419 133.0625 134.1875 C132.62164062 135.10917969 132.18078125 136.03085937 131.7265625 136.98046875 C125.46757998 149.23908368 115.41562537 161.27471565 104.0625 169.1875 C103.4025 169.1875 102.7425 169.1875 102.0625 169.1875 C102.0625 169.8475 102.0625 170.5075 102.0625 171.1875 C102.93390625 171.43371094 103.8053125 171.67992187 104.703125 171.93359375 C125.03926751 179.52417718 141.65608155 202.20046196 151.1875 221 C153.30952999 225.99301174 153.7326014 229.99500292 152.0625 235.1875 C149.80261464 239.54585033 147.69044634 242.41509502 143.0625 244.1875 C138.17196225 244.71859912 133.72412251 244.85921974 129.125 243 C125.21620271 239.56499632 122.60496359 235.54105693 120.07128906 231.02392578 C108.44885303 210.42244278 90.714707 197.62811098 67.97265625 190.94921875 C63.4048059 189.75360691 59.27605835 189.06340191 54.54296875 189.08984375 C53.52138672 189.09306641 52.49980469 189.09628906 51.44726562 189.09960938 C50.39216797 189.10798828 49.33707031 189.11636719 48.25 189.125 C47.17556641 189.12951172 46.10113281 189.13402344 44.99414062 189.13867188 C42.35020317 189.15042271 39.70638048 189.16685213 37.0625 189.1875 C37.0625 193.13148267 38.84622659 195.61215196 40.75 198.9375 C46.4686178 209.28879377 52.47764315 221.83815542 50.4375 233.875 C48.40559068 238.77005428 45.40689504 241.29123664 41.0625 244.1875 C38.3203125 244.48828125 38.3203125 244.48828125 35.1875 244.5 C34.15882813 244.51675781 33.13015625 244.53351563 32.0703125 244.55078125 C27.21849616 243.96478265 24.91469803 242.255813 21.890625 238.46484375 C19.94501802 234.97688594 18.83244698 231.57597839 17.8125 227.75 C11.68958018 206.8996941 -1.46010608 189.91368562 -20.41796875 179.15625 C-40.13437982 168.82756407 -62.8743475 165.42996623 -84.40234375 172 C-86.15224609 172.5878125 -86.15224609 172.5878125 -87.9375 173.1875 C-88.99066406 173.538125 -90.04382813 173.88875 -91.12890625 174.25 C-99.2597467 177.30304048 -106.07786234 181.97205384 -112.9375 187.1875 C-113.7521875 187.80367187 -114.566875 188.41984375 -115.40625 189.0546875 C-128.35733701 199.68005114 -136.55058289 215.43126795 -141.0625 231.3125 C-142.97157495 237.9901656 -145.19272728 240.35765152 -150.9375 244.1875 C-156.49148223 244.87673878 -161.40860145 244.9117151 -166.5 242.5 C-170.49082374 238.71383389 -172.55003111 235.27160161 -173.06640625 229.67578125 C-172.35207315 215.8869877 -164.65994034 201.92289413 -157.9375 190.1875 C-160.72768582 187.39731418 -168.98083185 188.87620985 -172.73168945 188.8684082 C-181.41059388 188.97199103 -188.73740421 190.21008427 -196.9375 193.1875 C-197.9790625 193.54972656 -199.020625 193.91195312 -200.09375 194.28515625 C-221.21683962 202.31519676 -234.78701487 217.89849795 -245.55078125 237.06640625 C-247.86920071 240.6126084 -249.88596341 242.8369878 -253.9375 244.1875 C-259.12499192 244.68426139 -263.55554673 244.79053415 -268.375 242.6875 C-272.13783829 239.01643825 -274.44345626 235.45973779 -275.23828125 230.1953125 C-274.8490443 214.32642166 -258.68512098 197.26024556 -248.0078125 186.90234375 C-244.54646734 183.75995821 -240.87290289 180.91557063 -237.125 178.125 C-236.19167847 177.42673096 -236.19167847 177.42673096 -235.23950195 176.71435547 C-231.60092343 174.09356456 -228.32316278 172.37626311 -223.9375 171.1875 C-223.9375 170.5275 -223.9375 169.8675 -223.9375 169.1875 C-224.50082031 168.94 -225.06414062 168.6925 -225.64453125 168.4375 C-243.77202252 158.55539232 -254.97586225 137.38149889 -261.12890625 118.5390625 C-268.43553776 93.42969146 -264.15929742 66.70872383 -251.75 44.0625 C-237.80688859 21.22411442 -216.21475612 6.107456 -190.375 -0.1875 C-171.50597132 -4.30359826 -150.34120333 -3.04947048 -132.8828125 5.6484375 C-130.93437668 6.37892063 -130.93437668 6.37892063 -129.015625 5.578125 C-126.3260532 3.77833635 -123.98623197 1.70733679 -121.5625 -0.4375 C-109.95844672 -10.30613366 -97.46344621 -15.71275468 -82.9375 -19.8125 C-82.00808594 -20.080625 -81.07867187 -20.34875 -80.12109375 -20.625 C-51.98925092 -27.12738422 -21.79319097 -17.96426838 0 0 Z M-108.08203125 29.42578125 C-121.33891515 44.91326894 -125.32133533 62.2567899 -123.9375 82.1875 C-123.43817145 86.16254687 -122.48262603 89.49694559 -120.9375 93.1875 C-120.69 93.78481934 -120.4425 94.38213867 -120.1875 94.99755859 C-113.28818424 111.21174916 -102.42563642 124.01787682 -85.94580078 131.03564453 C-68.89804033 137.57423147 -52.49690895 137.31356981 -35.3984375 130.80078125 C-18.60254732 122.97154576 -7.94992118 110.2143981 -0.98046875 93.20703125 C4.48815824 77.37463926 3.4433687 60.49345119 -3.2578125 45.16796875 C-11.66792783 28.73837187 -25.48853332 17.02213524 -43.01953125 11.15625 C-66.72794672 4.84180149 -91.10405005 11.70559322 -108.08203125 29.42578125 Z M-215.9375 48.1875 C-222.06761504 55.17831763 -226.69853332 62.47404453 -229.9375 71.1875 C-230.25589844 71.98929688 -230.57429688 72.79109375 -230.90234375 73.6171875 C-235.86207118 88.2906668 -234.00217984 105.99446045 -227.42529297 119.74438477 C-219.64378142 135.05161422 -207.49239282 146.09517907 -191.5625 152.625 C-174.52471279 158.04611411 -157.18789305 156.70575413 -140.9375 149.1875 C-137.42262578 147.05838559 -134.1748011 144.71246766 -130.9375 142.1875 C-129.9475 141.5275 -128.9575 140.8675 -127.9375 140.1875 C-129.44842783 136.73056042 -131.50055081 134.30802316 -134 131.5 C-150.96326794 110.93101327 -155.5198912 86.26080887 -153.9375 60.1875 C-152.77843215 50.94742412 -150.16614903 41.90485239 -146.9375 33.1875 C-148.31041868 32.70240207 -149.68596703 32.22474487 -151.0625 31.75 C-151.82820313 31.48316406 -152.59390625 31.21632813 -153.3828125 30.94140625 C-175.60401689 24.38377254 -199.79674409 32.19596526 -215.9375 48.1875 Z M25.0625 34.1875 C25.40023438 35.14269531 25.73796875 36.09789062 26.0859375 37.08203125 C26.53687683 38.38787639 26.98737348 39.69387446 27.4375 41 C27.65921875 41.62326172 27.8809375 42.24652344 28.109375 42.88867188 C31.37092984 52.4335162 32.43123924 61.88534629 32.375 71.9375 C32.37008545 72.98591064 32.3651709 74.03432129 32.36010742 75.11450195 C32.02851978 97.19823916 24.07484935 117.35236709 9.7265625 134.1015625 C8.16165616 136.06320566 7.08485822 137.90526599 6.0625 140.1875 C21.26616795 151.78758976 37.31566292 157.65893271 56.5 155.5625 C71.92826734 153.15625647 87.12903048 145.57925238 97.0625 133.1875 C108.75976993 116.96389518 113.63938574 99.98618195 110.7578125 80.08300781 C107.66264259 64.56767905 98.43952935 50.56661945 85.88671875 41.0703125 C69.54505644 30.17587096 43.07643456 22.17821029 25.0625 34.1875 Z " fill="#ffffff" transform="translate(316.9375,267.8125)"/>
<path d="M0 0 C4.36548026 0.01142985 8.73086489 -0.00620615 13.0963254 -0.01989961 C21.62331457 -0.04201383 30.15008243 -0.03738391 38.67707992 -0.0228364 C45.61345724 -0.0114973 52.54977299 -0.01003335 59.48615694 -0.01545548 C60.47722694 -0.01622165 61.46829695 -0.01698781 62.48939937 -0.0177772 C64.50338135 -0.01937599 66.51736331 -0.02099706 68.53134525 -0.02264015 C87.37123351 -0.03686304 106.21099969 -0.02055942 125.05086792 0.00636168 C141.18049189 0.02869729 157.30993587 0.02481618 173.4395566 0.00176787 C192.21673111 -0.02505147 210.9937989 -0.03549007 229.77098989 -0.02017081 C231.77714012 -0.01857823 233.78329037 -0.01700638 235.78944063 -0.01545548 C236.77624203 -0.01468411 237.76304343 -0.01391273 238.7797479 -0.01311798 C245.69957004 -0.00881935 252.6193239 -0.01604769 259.53913546 -0.02785325 C267.98389247 -0.04194517 276.42841742 -0.03793873 284.8731482 -0.01144953 C289.17337962 0.0015993 293.47322556 0.00699581 297.77345324 -0.00969529 C325.87225495 -0.10947894 350.76070427 2.23373872 372.63779879 21.65362334 C373.30811129 22.18213897 373.97842379 22.71065459 374.66904879 23.25518584 C390.49534294 36.00414502 400.94832022 56.68441611 403.63779879 76.65362334 C405.76499626 101.31144871 402.18789948 125.27478873 386.57529879 145.15362334 C385.2727967 146.66231302 383.96097118 148.16302914 382.63779879 149.65362334 C381.84502535 150.65909209 381.84502535 150.65909209 381.03623629 151.68487334 C368.4351364 167.32761802 347.506373 178.28846929 327.63779879 180.65362334 C325.04731422 180.7391775 322.47776415 180.78966637 319.88779879 180.79034209 C319.20556749 180.7941841 318.5233362 180.79802611 317.82043123 180.80198455 C314.3965659 180.81214349 310.99483234 180.75470779 307.57505465 180.58697295 C301.96094322 180.51322963 298.17034381 180.46878611 293.62266207 183.98467803 C291.07399356 186.76512847 288.83403498 189.59001881 286.63779879 192.65362334 C283.15086519 197.21025048 280.42205533 200.08736598 274.49717379 200.97393584 C269.06726321 201.2509721 264.79390365 200.31135161 260.63779879 196.65362334 C258.22847586 193.94877869 255.96693701 191.17513778 253.75108004 188.30987334 C250.20805638 183.4923658 250.20805638 183.4923658 244.99766207 181.07839751 C243.99461031 181.04505309 242.99155855 181.01170867 241.95811129 180.97735381 C240.81592134 180.93246825 239.6737314 180.88758269 238.49692965 180.84133697 C237.26466646 180.81806334 236.03240328 180.79478972 234.76279879 180.77081084 C233.48735201 180.7432672 232.21190523 180.71572356 230.89780855 180.68734527 C228.19385486 180.64076452 225.49176067 180.60495485 222.78770113 180.58282256 C220.03256543 180.55640645 217.28393499 180.48720097 214.53086519 180.37774444 C198.56892181 179.01674506 198.56892181 179.01674506 184.32651949 184.57305694 C181.62043822 187.42298493 179.55113533 190.53907687 177.62760592 193.95605254 C176.30115513 196.23098475 174.65052473 198.09080176 172.86826754 200.02081084 C172.09966402 200.90796782 172.09966402 200.90796782 171.31553316 201.81304717 C170.27216278 203.01418801 169.22780927 204.21447524 168.18272066 205.41412139 C165.90884952 208.0254563 163.64886823 210.64027316 161.43858004 213.30596709 C157.80266937 217.66748249 155.41575049 220.28075288 149.54014254 220.86065459 C144.35500947 221.09437511 141.18960123 220.35994111 136.63779879 217.65362334 C134.18076754 215.34112334 134.18076754 215.34112334 131.82529879 212.65362334 C130.96291597 211.67393584 130.10053316 210.69424834 129.21201754 209.68487334 C126.06582888 205.98010491 122.99647018 202.21892688 119.94639254 198.43487334 C116.66701383 194.48408208 113.19772667 190.72753631 109.70420504 186.96612334 C107.63779879 184.65362334 107.63779879 184.65362334 105.63779879 181.65362334 C103.18519521 181.1252897 103.18519521 181.1252897 100.27695894 181.10674834 C99.15463869 181.06501494 98.03231844 181.02328155 96.87598848 180.9802835 C95.65527651 180.95498565 94.43456453 180.9296878 93.17686129 180.90362334 C91.29274035 180.86374297 91.29274035 180.86374297 89.37055635 180.82305694 C86.7019728 180.77708501 84.03454112 180.73994687 81.36582613 180.71319366 C78.64596838 180.68229721 75.93147063 180.61315935 73.21348238 180.50811553 C57.44199193 179.17998164 57.44199193 179.17998164 43.25010347 184.47784209 C40.1359596 187.54335923 37.92529072 190.94656246 35.63779879 194.65362334 C31.14821162 199.57563242 27.5880215 200.80654196 20.89561129 201.11456084 C16.65130391 200.24807595 12.95613391 198.4227959 10.35703707 194.93487334 C9.97531343 194.30194366 9.5935898 193.66901397 9.20029879 193.01690459 C6.32898609 188.3253745 3.51430882 184.39654342 -1.36220121 181.65362334 C-9.02638139 180.01419639 -16.92354453 180.51973415 -24.71766996 180.64971709 C-44.32864018 180.95512399 -62.83834086 172.54618054 -77.36220121 159.65362334 C-78.03251371 159.12510772 -78.70282621 158.59659209 -79.39345121 158.05206084 C-95.21974537 145.30310166 -105.67272265 124.62283057 -108.36220121 104.65362334 C-110.48939869 79.99579797 -106.91230191 56.03245795 -91.29970121 36.15362334 C-89.99719912 34.64493366 -88.6853736 33.14421755 -87.36220121 31.65362334 C-86.83368559 30.98331084 -86.30516996 30.31299834 -85.76063871 29.62237334 C-64.16408137 2.81285388 -31.9144074 -0.12387404 0 0 Z M-63.45204496 51.34112334 C-75.74564731 66.22417567 -79.09575022 81.83010835 -77.36220121 100.65362334 C-75.09035795 116.23804347 -65.91383377 128.67994094 -53.92470121 138.46612334 C-41.01691101 147.99010049 -27.52335081 150.55433859 -11.81532621 150.82940459 C-11.15004911 150.84141906 -10.48477201 150.85343352 -9.799335 150.86581206 C-7.03624909 150.9143184 -4.27363095 150.96189818 -1.51015043 150.97955108 C0.53465783 150.99508187 2.5778087 151.03525326 4.62217379 151.07940459 C6.42766695 151.10127837 6.42766695 151.10127837 8.26963472 151.12359405 C13.51903608 151.94966322 16.59605641 154.44739533 20.01279879 158.40362334 C20.54904879 159.14612334 21.08529879 159.88862334 21.63779879 160.65362334 C25.34164567 159.22906685 27.5406295 156.8492261 30.17295504 153.99346709 C33.63572344 150.82618826 38.19894021 151.49206491 42.59409761 151.47662139 C43.40419786 151.47005019 44.21429811 151.46347899 45.04894686 151.45670867 C47.73090887 151.43699162 50.41281494 151.425317 53.09483004 151.41534209 C54.46957271 151.4092288 54.46957271 151.4092288 55.87208796 151.40299201 C60.72245607 151.38213867 65.57279594 151.36783342 70.42319918 151.35845733 C75.43024218 151.3473908 80.43684105 151.31298603 85.44372702 151.27328563 C89.29651381 151.24712996 93.14919455 151.23876646 97.00206232 151.23517585 C98.84762432 151.23030765 100.69318151 151.21868699 102.53865671 151.20013785 C105.12390069 151.17576711 107.70799247 151.17670735 110.29331636 151.18365264 C111.05249361 151.17084258 111.81167086 151.15803252 112.59385347 151.14483428 C117.76195624 151.19532856 120.64642341 152.41730194 124.63779879 155.65362334 C126.84092379 158.06377959 126.84092379 158.06377959 128.88779879 160.71612334 C134.7211531 168.079376 140.94647887 175.0541751 147.63779879 181.65362334 C149.57635208 179.42536574 151.51363999 177.19602674 153.45029879 174.96612334 C154.03545259 174.29363555 154.6206064 173.62114776 155.22349215 172.92828155 C158.12033842 169.59101119 160.99580767 166.2409776 163.80967379 162.83331084 C164.29847017 162.24380645 164.78726656 161.65430205 165.29087496 161.04693389 C166.21093138 159.93339947 167.12543638 158.81524814 168.03355074 157.69195342 C170.38673065 154.85078061 172.16732179 152.91596308 175.63779879 151.65362334 C178.39752718 151.45781705 181.05589993 151.37011662 183.81528902 151.37896514 C184.63689516 151.37385421 185.4585013 151.36874328 186.3050046 151.36347747 C189.01887483 151.34958607 191.73249099 151.35053787 194.44639254 151.35284209 C196.33441942 151.34895496 198.22244542 151.34462026 200.11047029 151.33985686 C204.06728116 151.33239566 208.02400279 151.33268525 211.98081636 151.33794951 C217.04952588 151.34374453 222.11787004 151.32681188 227.18651915 151.30360484 C231.08559982 151.28886795 234.98459249 151.28799573 238.88369608 151.29111457 C240.75239012 151.29060135 242.62108908 151.28536353 244.48975611 151.27530265 C247.10371646 151.26295619 249.71696493 151.26971898 252.33091402 151.28130889 C253.10146624 151.27366515 253.87201845 151.26602141 254.66592073 151.25814605 C260.17841447 151.31212704 263.36602427 152.54594992 267.36826754 156.25909209 C267.84908785 156.78116241 268.32990816 157.30323272 268.82529879 157.84112334 C269.75342379 158.76924834 270.68154879 159.69737334 271.63779879 160.65362334 C272.29779879 160.65362334 272.95779879 160.65362334 273.63779879 160.65362334 C275.20738072 158.97641294 276.58585129 157.1856822 278.00498629 155.38018584 C280.67434135 152.55756637 282.83106438 151.72888272 286.7154355 151.36651397 C287.90411226 151.34782256 289.09278902 151.32913116 290.31748629 151.30987334 C290.96670046 151.29525054 291.61591463 151.28062774 292.28480196 151.26556182 C294.36073753 151.2192388 296.43658761 151.18503715 298.51279879 151.15362334 C321.2921023 150.79990745 339.68177039 147.95732652 356.88779879 131.84112334 C369.53399936 118.57297847 373.16752613 103.48204043 372.91904879 85.75518584 C372.67949517 79.26088723 371.14893154 73.6321149 368.63779879 67.65362334 C368.31037691 66.79897491 367.98295504 65.94432647 367.64561129 65.06377959 C361.57056463 51.02909151 348.40915679 40.5347048 334.63779879 34.65362334 C323.61589657 30.516118 312.50418504 30.50559664 300.84952974 30.51991057 C299.47319294 30.51803915 298.09685666 30.51573713 296.72052121 30.51304525 C292.96201151 30.50696185 289.20352416 30.50705674 285.44501066 30.50823963 C281.38216422 30.50844451 277.31932479 30.50291654 273.25648165 30.49818206 C265.30552448 30.48989406 257.35457473 30.48712806 249.4036136 30.48656968 C242.93753312 30.48609366 236.47145509 30.48403463 230.00537539 30.48086905 C211.65264043 30.4720677 193.2999113 30.46744889 174.94717422 30.46819953 C173.95884986 30.46823948 172.9705255 30.46827944 171.95225191 30.46832061 C170.96271394 30.46836149 169.97317597 30.46840237 168.95365199 30.46844449 C152.92028342 30.46885086 136.88693835 30.45928223 120.85357657 30.44518224 C104.37082984 30.430802 87.88809455 30.42391296 71.40534139 30.42477602 C62.15948589 30.42510741 52.91365503 30.42238576 43.66780519 30.41159797 C35.79551781 30.40247129 27.92326623 30.4003355 20.05097583 30.40710739 C16.03911898 30.41036161 12.02733075 30.41046919 8.01548052 30.40175414 C4.33399717 30.39383941 0.65263628 30.39537074 -3.02884427 30.40403827 C-4.97252107 30.40627749 -6.91620183 30.39878388 -8.85986352 30.39079863 C-30.38951795 30.47434037 -48.27338964 35.38327627 -63.45204496 51.34112334 Z " fill="#ffffff" transform="translate(108.36220121383667,-0.6536233425140381)"/>
</svg>
