<?xml version="1.0" encoding="UTF-8"?>
<svg version="1.1" xmlns="http://www.w3.org/2000/svg" width="512" height="512">
<path d="M0 0 C0.83781214 -0.00583219 1.67562429 -0.01166439 2.53882468 -0.01767331 C3.91185722 -0.01200433 3.91185722 -0.01200433 5.31262779 -0.00622082 C6.7772497 -0.01195914 6.7772497 -0.01195914 8.27145994 -0.01781338 C11.55243862 -0.02815503 14.83324268 -0.02414893 18.11423302 -0.02018261 C20.46310145 -0.02452856 22.81196846 -0.02971132 25.16083336 -0.03567028 C31.54950985 -0.04908739 37.93812728 -0.04963568 44.32681513 -0.04710698 C50.33394761 -0.04590351 56.34107178 -0.05211242 62.34820096 -0.05754044 C74.97856435 -0.06842078 87.60890106 -0.06625179 100.23926596 -0.06015559 C111.78150602 -0.05499216 123.32366152 -0.0662258 134.86588486 -0.08525381 C146.7244179 -0.10465286 158.582911 -0.1128842 170.44146001 -0.10913056 C177.09616863 -0.10722086 183.75081442 -0.10994888 190.40551186 -0.1238451 C196.66817272 -0.13643228 202.93066482 -0.13447069 209.19332314 -0.12143421 C211.48863342 -0.11907044 213.78395561 -0.12179594 216.07925224 -0.13005733 C219.21990156 -0.14054364 222.35998666 -0.13240847 225.50061607 -0.11974621 C226.40258677 -0.12712049 227.30455747 -0.13449478 228.23386061 -0.14209253 C240.88410195 -0.0352748 251.38066432 4.97708614 260.60007286 13.56697559 C270.07285657 23.72125454 273.90580519 35.97586491 273.91900063 49.64068413 C273.92105326 50.36633638 273.92310589 51.09198862 273.92522073 51.83963034 C273.93087688 54.27212378 273.92943519 56.70456036 273.92801476 59.13705921 C273.93059919 60.89838776 273.93361257 62.65971571 273.93701816 64.42104286 C273.94508229 69.26226531 273.9468774 74.10347294 273.94761562 78.94470131 C273.94946721 84.16575621 273.95701511 89.38680343 273.96375084 94.60785389 C273.97733081 106.02536166 273.98335844 117.44286591 273.9877615 128.86038041 C273.99052464 135.99073343 273.99476215 143.12108509 273.99926567 150.25143719 C274.0114582 169.99646291 274.02175735 189.74148755 274.02514076 209.48651695 C274.02536033 210.75017354 274.02557989 212.01383012 274.02580611 213.31577932 C274.02602439 214.58244749 274.02624267 215.84911566 274.02646756 217.15416771 C274.02691103 219.72088818 274.02735759 222.28760864 274.02780724 224.85432911 C274.02802867 226.12750919 274.0282501 227.40068926 274.02847824 228.71245056 C274.03242542 249.33798901 274.0498771 269.96349212 274.07316676 290.58901692 C274.09688937 311.76909348 274.10934304 332.9491523 274.11050868 354.12924236 C274.11142496 366.01935497 274.11716539 377.90942153 274.13532829 389.79952145 C274.15074158 399.92526706 274.15584249 410.0509524 274.14759019 420.17670751 C274.14368799 425.34080966 274.14459236 430.50479045 274.15864754 435.6688776 C274.17141207 440.40215428 274.17016653 445.13521873 274.15805683 449.86849522 C274.15610424 451.5751328 274.15915784 453.28178554 274.16790119 454.98840184 C274.25248975 472.62472635 271.73375426 486.64022246 259.30710411 499.89119434 C248.56576329 509.9664055 237.30668796 512.71461979 222.94167137 512.64888477 C221.6804818 512.65497588 220.41929223 512.66106698 219.11988479 512.66734266 C215.64442217 512.68364758 212.16918778 512.68144374 208.69370043 512.67596769 C204.93555502 512.67328575 201.17746886 512.68785104 197.41934776 512.70006275 C190.06628595 512.72106994 182.71330307 512.72566032 175.36021479 512.72387487 C169.38038719 512.72256487 163.4005841 512.72638351 157.42076111 512.73379993 C155.69524712 512.73589923 153.96973312 512.73799683 152.24421912 512.74009275 C150.95577613 512.74165805 150.95577613 512.74165805 149.64130399 512.74325496 C133.41266093 512.76213832 117.18406311 512.76111298 100.95541362 512.75428563 C86.12731568 512.74871153 71.2993906 512.76953331 56.47133305 512.8026461 C41.22594153 512.83642517 25.98063271 512.85154619 10.73520309 512.84692907 C2.18405517 512.84468865 -6.36693302 512.84986489 -14.91804886 512.87482166 C-22.19828047 512.89588935 -29.47826473 512.89937281 -36.75850669 512.88052207 C-40.46861554 512.87139772 -44.1782639 512.8701186 -47.88833618 512.89087772 C-51.92110346 512.91319173 -55.95279704 512.89628891 -59.98557472 512.87593555 C-61.14318961 512.8884534 -62.3008045 512.90097125 -63.49349862 512.91386843 C-76.39089299 512.77495768 -87.69059165 507.94445026 -97.21242714 499.25447559 C-107.78886922 487.66558777 -110.97583582 475.07708763 -110.84061623 459.72287464 C-110.84567215 458.19387131 -110.852909 456.66487393 -110.86211437 455.13588995 C-110.88091374 450.96946163 -110.86887347 446.80362621 -110.85139143 442.63721359 C-110.8379549 438.13077896 -110.85347657 433.62442752 -110.86521339 429.11800098 C-110.88354452 420.3057847 -110.87510938 411.49379087 -110.85712517 402.68158162 C-110.84307731 395.52088584 -110.83921106 388.36025029 -110.84256744 381.19954205 C-110.84304489 380.17892745 -110.84352233 379.15831286 -110.84401424 378.10677056 C-110.84504059 376.03325187 -110.84609595 373.9597332 -110.84718 371.88621455 C-110.85573711 353.57394658 -110.83910083 335.26178583 -110.80935097 316.94954395 C-110.78048633 299.18192008 -110.77344532 281.41445048 -110.78884315 263.64680958 C-110.80559902 244.28566686 -110.8096481 224.92459728 -110.79213279 205.56345266 C-110.79028843 203.49986804 -110.7884537 201.43628342 -110.78662872 199.37269878 C-110.78571663 198.35742121 -110.78480454 197.34214363 -110.78386481 196.29610007 C-110.77825788 189.14032185 -110.78156779 181.98457935 -110.78817368 174.82880306 C-110.79589954 166.1141943 -110.78918028 157.39973745 -110.76399864 148.68515933 C-110.7514897 144.23878972 -110.74537415 139.79265684 -110.7565403 135.34627819 C-110.76656619 131.27722625 -110.75815874 127.20864687 -110.73495912 123.13965254 C-110.72979146 121.66686998 -110.73137676 120.19404521 -110.74035377 118.72128094 C-110.75153532 116.72062513 -110.73572774 114.71987287 -110.71858501 112.71925926 C-110.71739353 111.60765011 -110.71620205 110.49604097 -110.71497446 109.35074669 C-109.79005991 103.65220635 -106.00522304 99.79749526 -102.03786659 95.82594776 C-100.80140892 94.58103062 -100.80140892 94.58103062 -99.53997231 93.31096363 C-98.19641167 91.97347569 -98.19641167 91.97347569 -96.82570839 90.60896778 C-95.86568947 89.64623552 -94.90609582 88.68307902 -93.94689369 87.71953297 C-91.35242611 85.11598239 -88.75171408 82.51875604 -86.1495266 79.92292404 C-83.42310642 77.20158215 -80.70158598 74.47534717 -77.97927284 71.74989796 C-73.40986531 67.17685735 -68.83626915 62.60803774 -64.2602787 58.04158497 C-58.97145846 52.76366103 -53.68989918 47.47855323 -48.41202831 42.18968177 C-43.87547625 37.64405361 -39.33503818 33.10233467 -34.79132938 28.56386018 C-32.07957179 25.85521883 -29.36917946 23.14524848 -26.66228676 20.43174458 C-24.11903512 17.88271499 -21.57093945 15.33862897 -19.0190258 12.79827213 C-17.6376506 11.42080117 -16.26119257 10.03840461 -14.88488197 8.6558733 C-13.6484243 7.4278751 -13.6484243 7.4278751 -12.38698769 6.17506886 C-11.67318443 5.46201965 -10.95938118 4.74897045 -10.22394753 4.0143137 C-6.97436378 1.17131925 -4.31844213 0.0051835 0 0 Z M32.78757286 30.25447559 C32.77948601 31.10923481 32.77139915 31.96399403 32.76306725 32.84465504 C32.68483439 40.93554373 32.59745923 49.02627248 32.50004578 57.11695385 C32.45029165 61.27555407 32.4039614 65.43413142 32.36569786 69.5928545 C32.32857918 73.6130159 32.28215068 77.63297565 32.22950935 81.65296268 C32.21110554 83.17975895 32.19594703 84.70659821 32.1842289 86.23346043 C32.09509421 97.45529145 31.64408665 107.48089116 26.41257286 117.56697559 C25.82733849 118.71810841 25.24210411 119.86924122 24.63913536 121.05525684 C18.73368699 131.25897459 9.19539361 137.66313299 -2.13015175 140.78270435 C-10.19869393 142.61675143 -18.2727482 142.6053854 -26.50148964 142.66853809 C-28.05662461 142.6872835 -29.61174978 142.70685933 -31.1668644 142.7272234 C-35.22732147 142.77819489 -39.2878114 142.81800596 -43.34841347 142.85536671 C-47.50498788 142.89562779 -51.6614298 142.9466184 -55.81789589 142.99666309 C-63.94931523 143.09300721 -72.08080107 143.17754251 -80.21242714 143.25447559 C-80.28109977 184.12216373 -80.33395924 224.98984435 -80.36562313 265.85757866 C-80.36937523 270.68283021 -80.3732582 275.50808164 -80.37722206 280.33333302 C-80.37800899 281.29395018 -80.37879592 282.25456734 -80.3796067 283.24429411 C-80.39265918 298.79669435 -80.41631217 314.34906131 -80.44388553 329.90144181 C-80.4719441 345.86064832 -80.48860436 361.81983741 -80.49469262 377.77906758 C-80.49880812 387.62607251 -80.51180479 397.47298337 -80.53617654 407.31995935 C-80.55203929 414.07319533 -80.55682627 420.82638271 -80.55293127 427.57963597 C-80.55101057 431.47540307 -80.55394666 435.37100581 -80.57004356 439.26674366 C-80.58468664 442.83676754 -80.58535114 446.40651718 -80.57512382 449.97655392 C-80.57326434 451.87271964 -80.58616354 453.76888234 -80.59967107 455.66500086 C-80.55779387 463.65444632 -79.93763832 470.56742517 -75.08742714 477.12947559 C-67.84473175 482.48277219 -59.94041427 482.6875939 -51.21241188 482.6286974 C-50.03021995 482.6326718 -48.84802802 482.63664621 -47.63001209 482.64074105 C-44.37061404 482.6486657 -41.1115628 482.64323889 -37.85218489 482.63199055 C-34.32862806 482.62311178 -30.805106 482.6316026 -27.28154945 482.63785267 C-20.38788264 482.64732107 -13.49432081 482.64075818 -6.60066181 482.62858973 C1.43209383 482.61494086 9.4648247 482.61661011 17.49758898 482.61872306 C31.83214613 482.62191004 46.16665352 482.6102616 60.50119591 482.59065723 C74.40225299 482.57165078 88.30325177 482.56457099 102.20432091 482.57014942 C117.35301447 482.57621057 132.50168243 482.57602426 147.65037388 482.56466359 C149.26638313 482.56345633 150.88239239 482.56225035 152.49840164 482.56104565 C153.29344892 482.56044211 154.0884962 482.55983857 154.90763583 482.55921674 C160.50349286 482.55534165 166.09934034 482.55572962 171.69519806 482.55763149 C178.51623724 482.55975607 185.33722544 482.55450938 192.15825028 482.54001794 C195.63670925 482.53278674 199.11509405 482.52868603 202.59355927 482.5332613 C206.36730206 482.53648353 210.14082142 482.52739981 213.91454124 482.515172 C215.00958349 482.51895133 216.10462574 482.52273065 217.23285109 482.5266245 C224.54214655 482.48471113 230.83811835 482.20222857 237.10007286 478.06697559 C242.11369813 472.82015845 243.16218302 467.89702748 243.1678896 460.79372215 C243.17254951 460.07217157 243.17720943 459.35062099 243.18201056 458.60720524 C243.19394106 456.1945657 243.18457292 453.78249133 243.17525291 451.3698473 C243.17942668 449.62058862 243.18490444 447.87133265 243.19157273 446.1220817 C243.20604031 441.3190208 243.20177849 436.51613131 243.19440591 431.71306098 C243.18967983 426.53164372 243.20217912 421.35026384 243.21242332 416.16885853 C243.22962742 406.01968567 243.23044802 395.87057468 243.22521042 385.72139103 C243.22117061 377.47314502 243.22261003 369.22491731 243.22795868 360.97667217 C243.2287071 359.80317722 243.22945552 358.62968227 243.23022662 357.42062686 C243.23175808 355.03675544 243.23329643 352.65288403 243.23484159 350.26901262 C243.24857237 327.90912198 243.2431248 305.54926631 243.23165638 283.18937647 C243.2217226 262.72863499 243.23466618 242.26798393 243.25859057 221.80725641 C243.28296644 200.80231625 243.29259321 179.79741822 243.28593785 158.7924642 C243.28244237 146.99809289 243.28469943 135.20379113 243.30218887 123.4094305 C243.31689189 113.36954762 243.31757111 103.32978327 243.30011796 93.28990275 C243.29159011 88.16688966 243.28950203 83.0440885 243.30476952 77.92108631 C243.31857325 73.23121941 243.31390909 68.54174685 243.29453028 63.85190301 C243.2907567 62.15548163 243.2937312 60.45902899 243.30414193 58.76263536 C243.46345577 45.22294885 243.46345577 45.22294885 236.53757286 33.87947559 C230.58580972 30.36252465 224.24086475 29.95998621 217.49851036 30.01396656 C216.70354936 30.01225771 215.90858835 30.01054886 215.08953762 30.00878823 C212.44712197 30.00551503 209.80496481 30.01646094 207.16257286 30.02742481 C205.25993925 30.0279894 203.35730521 30.02767144 201.45467186 30.0265398 C196.30444498 30.02596713 191.15431169 30.03770762 186.00410652 30.05168772 C180.61625966 30.06420933 175.22841054 30.06536671 169.84055138 30.06773853 C159.64454017 30.07394909 149.44857197 30.09035419 139.25257969 30.11043751 C127.64198022 30.13280969 116.03137868 30.14379327 104.42076302 30.15382838 C80.54300914 30.17472077 56.66529341 30.20988853 32.78757286 30.25447559 Z M-2.14200783 40.05707264 C-3.07804092 40.988876 -3.07804092 40.988876 -4.03298378 41.93950367 C-4.72134315 42.62988728 -5.40970253 43.32027088 -6.11892128 44.0315752 C-6.84083153 44.75173313 -7.56274178 45.47189106 -8.30652809 46.21387196 C-10.70607906 48.60900058 -13.10192902 51.00779371 -15.49758339 53.40681934 C-17.15510576 55.06366879 -18.81277661 56.72036971 -20.47059059 58.37692738 C-23.9500508 61.85491009 -27.42768749 65.3347035 -30.90407753 68.81575489 C-35.37229068 73.28966535 -39.84497685 77.75907278 -44.31903362 82.22713852 C-47.74447937 85.64898004 -51.16755114 89.07318837 -54.58989716 92.49812984 C-56.23868141 94.14758375 -57.88821587 95.79628808 -59.53849411 97.44424725 C-61.83985969 99.74308857 -64.13802088 102.0450849 -66.43532753 104.34798145 C-67.12571114 105.03634083 -67.81609474 105.7247002 -68.52739906 106.43391895 C-69.1486013 107.05794102 -69.76980354 107.68196308 -70.40983009 108.32489491 C-70.95423272 108.86967456 -71.49863535 109.41445421 -72.05953503 109.97574234 C-73.3240299 111.09130679 -73.3240299 111.09130679 -73.21242714 112.25447559 C-65.23228907 112.32411297 -57.25227884 112.37735621 -49.27191162 112.40991211 C-45.5659388 112.4255406 -41.8601745 112.44672679 -38.15432167 112.48079395 C-34.57518539 112.51348879 -30.99624916 112.53134979 -27.41697502 112.53910732 C-26.05426956 112.54463276 -24.69157455 112.55542263 -23.3289547 112.57166576 C-21.41440783 112.59357195 -19.49965789 112.59470212 -17.58498573 112.59505177 C-16.49688606 112.6017136 -15.40878639 112.60837543 -14.287714 112.61523914 C-9.0638693 112.00242712 -5.1983592 109.80861311 -1.89992714 105.75447559 C-1.40879433 105.16666309 -0.91766151 104.57885059 -0.41164589 103.97322559 C2.01812933 100.4908116 1.90942756 97.32884446 1.90109825 93.22249317 C1.90102272 91.98143314 1.90094719 90.74037312 1.90086937 89.46170521 C1.89576277 88.10747201 1.89054677 86.75323923 1.88522911 85.39900684 C1.88336369 84.01323974 1.88194037 82.62747198 1.88094139 81.24170399 C1.87712596 77.59699649 1.86730399 73.95232894 1.85623741 70.30763721 C1.84600236 66.58744821 1.84143928 62.86725275 1.83640099 59.14705372 C1.82568084 51.84950948 1.80861611 44.55199814 1.78757286 37.25447559 C0.01573417 37.25447559 -0.94199004 38.85788535 -2.14200783 40.05707264 Z " fill="#ffffff" transform="translate(110.21242713928223,-0.25447559356689453)"/>
<path d="M0 0 C11.06982388 7.34963717 17.42415722 17.61922355 21.046875 30.2734375 C21.69395042 35.15579094 21.71576559 39.95334372 21.66833496 44.87321472 C21.67267447 46.30134294 21.67919993 47.72946588 21.68769503 49.15757543 C21.70455388 53.0459845 21.69059883 56.93374165 21.67118025 60.82211578 C21.65566217 65.03035512 21.66917915 69.23851924 21.67892456 73.44676208 C21.69341243 81.68015929 21.68125296 89.91330888 21.65981132 98.14668258 C21.63570639 107.75910537 21.63752187 117.37147253 21.64011723 126.98391882 C21.64380394 144.15851974 21.62301964 161.33300483 21.58886719 178.50756836 C21.55584558 195.11990288 21.54159805 211.73211572 21.54785156 228.34448242 C21.55464265 246.47380192 21.55207353 264.60307054 21.53249216 282.7323826 C21.53145268 283.69479899 21.53041319 284.65721538 21.5293422 285.64879591 C21.52725148 287.58108542 21.52514051 289.51337491 21.52300903 291.44566437 C21.51615887 298.12165501 21.51543663 304.79762986 21.51689148 311.47362328 C21.51834367 319.63684593 21.50841802 327.79997035 21.48494512 335.9631606 C21.47322409 340.11628339 21.46586488 344.26927068 21.47178268 348.42240906 C21.50059262 372.03803113 20.42560574 395.35716063 15.421875 418.5234375 C15.16954102 419.70832764 14.91720703 420.89321777 14.65722656 422.11401367 C9.68141386 444.6397722 2.58500106 466.27684266 -6.953125 487.2734375 C-7.26411133 487.96711426 -7.57509766 488.66079102 -7.89550781 489.37548828 C-10.51281793 495.15802292 -12.89290748 500.30732107 -17.953125 504.2734375 C-20.93536314 505.26751688 -23.14187622 505.50384728 -26.265625 505.5859375 C-27.18988281 505.62332031 -28.11414063 505.66070313 -29.06640625 505.69921875 C-32.97960274 505.12203551 -34.93190521 503.82169981 -37.953125 501.2734375 C-39.59009686 498.94306806 -40.77258374 496.48462323 -41.953125 493.8984375 C-42.25734375 493.27066406 -42.5615625 492.64289063 -42.875 491.99609375 C-43.937751 489.77041439 -44.94939812 487.52638684 -45.953125 485.2734375 C-46.41267578 484.24726318 -46.87222656 483.22108887 -47.34570312 482.16381836 C-51.17404915 473.4407467 -54.45030451 464.62129547 -57.453125 455.5859375 C-57.68990967 454.87677185 -57.92669434 454.1676062 -58.1706543 453.43695068 C-62.76840855 439.58066793 -66.24762049 425.6252177 -68.953125 411.2734375 C-69.11748047 410.438125 -69.28183594 409.6028125 -69.45117188 408.7421875 C-74.31228004 383.70643728 -74.25871456 357.91626727 -74.21457434 332.50776935 C-74.20995232 328.55028832 -74.2170801 324.59282307 -74.22253418 320.63534546 C-74.23132394 312.93196467 -74.22955478 305.22862332 -74.2237089 297.52524112 C-74.21915661 291.26315316 -74.21859472 285.00107611 -74.22075653 278.73898697 C-74.221063 277.84132436 -74.22136946 276.94366176 -74.22168522 276.01879726 C-74.22232476 274.19436279 -74.22297319 272.36992832 -74.2236304 270.54549386 C-74.22930154 253.53425054 -74.22282363 236.52302897 -74.21202967 219.51178922 C-74.20306937 204.93867551 -74.20467277 190.36559363 -74.21386719 175.79248047 C-74.2245793 158.80621987 -74.22878143 141.81997811 -74.22264266 124.8337146 C-74.22200564 123.02221116 -74.22137689 121.21070771 -74.22075653 119.39920425 C-74.22044798 118.50820678 -74.22013943 117.61720931 -74.21982153 116.69921192 C-74.21809947 110.44078543 -74.22099851 104.182371 -74.22571564 97.92394638 C-74.23133372 90.30418829 -74.22978736 82.68447139 -74.21915415 75.06471799 C-74.21391421 71.18271984 -74.21181238 67.3007903 -74.21845245 63.41879272 C-74.22444716 59.86034632 -74.22107939 56.30203163 -74.21049735 52.74359705 C-74.20723418 50.85925334 -74.21370184 48.97490037 -74.22061181 47.09056652 C-74.143988 30.34799049 -70.11044647 16.3217247 -57.953125 4.2734375 C-41.04039175 -9.76344637 -18.68237073 -10.92276172 0 0 Z M-40.328125 31.2734375 C-43.05471981 36.30715099 -43.08995981 40.66560349 -43.05078125 46.3203125 C-43.0493663 47.09151428 -43.04795135 47.86271606 -43.04649353 48.6572876 C-43.04091034 51.11271088 -43.02836095 53.56804192 -43.015625 56.0234375 C-43.01060783 57.69140493 -43.0060453 59.35937379 -43.00195312 61.02734375 C-42.99179866 65.10943886 -42.97222007 69.1913353 -42.953125 73.2734375 C-31.733125 73.2734375 -20.513125 73.2734375 -8.953125 73.2734375 C-8.89125 68.0140625 -8.829375 62.7546875 -8.765625 57.3359375 C-8.73831299 55.6950415 -8.71100098 54.05414551 -8.68286133 52.36352539 C-8.53603177 39.50351477 -8.53603177 39.50351477 -14.390625 28.3359375 C-19.07382952 24.56652899 -22.47266577 23.820842 -28.41796875 23.9609375 C-33.79503957 24.62375054 -36.95402796 27.01142019 -40.328125 31.2734375 Z M-42.953125 104.2734375 C-42.953125 184.1334375 -42.953125 263.9934375 -42.953125 346.2734375 C-31.733125 346.2734375 -20.513125 346.2734375 -8.953125 346.2734375 C-8.953125 266.4134375 -8.953125 186.5534375 -8.953125 104.2734375 C-20.173125 104.2734375 -31.393125 104.2734375 -42.953125 104.2734375 Z M-41.953125 377.2734375 C-39.2817064 402.15981082 -34.2815619 425.35674855 -26.953125 449.2734375 C-24.49327632 448.331022 -24.49327632 448.331022 -23.62109375 444.57421875 C-23.11686834 442.9146824 -22.62425737 441.2515917 -22.140625 439.5859375 C-21.87854248 438.69326172 -21.61645996 437.80058594 -21.34643555 436.88085938 C-17.42733685 423.25704365 -14.30585621 409.47234238 -12.140625 395.4609375 C-12.0166333 394.66751953 -11.8926416 393.87410156 -11.76489258 393.05664062 C-11.60089966 391.91678711 -11.60089966 391.91678711 -11.43359375 390.75390625 C-11.33973389 390.10317139 -11.24587402 389.45243652 -11.14916992 388.78198242 C-10.85023705 384.95690737 -10.953125 381.1101757 -10.953125 377.2734375 C-21.183125 377.2734375 -31.413125 377.2734375 -41.953125 377.2734375 Z " fill="#ffffff" transform="translate(490.953125,6.7265625)"/>
<path d="M0 0 C0.82320746 -0.00367669 1.64641491 -0.00735338 2.49456805 -0.01114148 C5.26279833 -0.02218582 8.03099109 -0.02602341 10.79924011 -0.02983093 C12.7800712 -0.03609494 14.76090112 -0.04274168 16.74172974 -0.04974365 C22.13020877 -0.06715734 27.51867892 -0.07770611 32.90717912 -0.08594918 C36.27234632 -0.09109784 39.63751076 -0.09717359 43.00267601 -0.10346031 C53.52762177 -0.12251217 64.0525605 -0.13674415 74.57752019 -0.14507228 C86.73433122 -0.15485009 98.89096044 -0.1811839 111.04770738 -0.22157317 C120.43971756 -0.2517084 129.83167553 -0.26653863 139.22373313 -0.26985329 C144.83545378 -0.27220644 150.44698019 -0.28120156 156.05864906 -0.30631447 C161.33721183 -0.3295552 166.61545189 -0.33384447 171.89405251 -0.32355309 C173.83145215 -0.32305667 175.76886746 -0.32940824 177.70621872 -0.34310913 C180.35149057 -0.36076988 182.99559697 -0.35375086 185.64086914 -0.34057617 C186.40731729 -0.35154542 187.17376544 -0.36251466 187.96343929 -0.37381631 C194.36836226 -0.29681377 197.84629386 2.04105799 202.32341003 6.39717102 C204.90623979 10.60622692 205.52169731 14.48518348 204.60466003 19.26435852 C202.94835861 24.48959517 200.49327773 27.06554323 196.01091003 30.14717102 C192.33317881 31.37308143 188.94099619 31.29526622 185.11120605 31.29434204 C183.89076222 31.29985707 183.89076222 31.29985707 182.64566296 31.30548352 C179.90973964 31.31652741 177.17385428 31.3203654 174.43791199 31.32417297 C172.4800301 31.33043711 170.52214941 31.33708387 168.56427002 31.34408569 C163.23763825 31.3615004 157.91101546 31.37204886 152.58436227 31.38029122 C149.25670163 31.38544065 145.92904378 31.39151642 142.60138512 31.39780235 C132.19069756 31.41685621 121.78001709 31.43108664 111.36931545 31.43941432 C99.35062465 31.44918683 87.33211802 31.47550601 75.31349212 31.51591522 C66.02505916 31.5460735 56.73667899 31.56088295 47.44819802 31.56419533 C41.9001287 31.56654623 36.35225609 31.57551188 30.80423927 31.60065651 C25.5831236 31.62393694 20.36233416 31.62817046 15.14118004 31.61789513 C13.22719615 31.61739964 11.3131962 31.62372371 9.39926147 31.63745117 C6.78096225 31.65517645 4.16383296 31.6480611 1.54553223 31.63491821 C0.79269166 31.64588746 0.03985109 31.6568567 -0.73580283 31.66815835 C-6.16258815 31.6026414 -10.49253189 30.25034331 -14.98908997 27.14717102 C-18.68007854 22.9523713 -19.59127087 18.81241679 -19.30940247 13.28779602 C-18.62260148 8.69795531 -16.85087597 5.94432307 -13.48908997 2.83467102 C-9.08592069 -0.13746824 -5.12231987 -0.00122147 0 0 Z " fill="#ffffff" transform="translate(98.98908996582031,320.8528289794922)"/>
<path d="M0 0 C1.20334948 -0.00445668 1.20334948 -0.00445668 2.43100905 -0.0090034 C5.12237189 -0.01768321 7.8136902 -0.01919805 10.50506592 -0.02069092 C12.43353877 -0.02531961 14.3620107 -0.03034434 16.29048157 -0.03573608 C21.53234987 -0.0488574 26.77420537 -0.05530455 32.01608753 -0.05974674 C35.29132319 -0.06267797 38.56655535 -0.06678289 41.84178925 -0.07125092 C52.09015901 -0.0849253 62.33852078 -0.09459218 72.58689904 -0.09845281 C84.41537533 -0.10293319 96.24373603 -0.12048046 108.07217717 -0.1494534 C117.21625863 -0.17107335 126.36030758 -0.18115726 135.50441432 -0.18249393 C140.96524037 -0.18354175 146.42595777 -0.18944481 151.8867569 -0.20731354 C157.02494928 -0.2237995 162.16295139 -0.22594711 167.30116081 -0.21717453 C169.18450111 -0.21640443 171.06785166 -0.22074325 172.95116615 -0.23063278 C175.52764686 -0.24336616 178.10345508 -0.23746806 180.67993164 -0.22705078 C181.42041724 -0.23510719 182.16090285 -0.24316359 182.92382741 -0.25146413 C189.10700958 -0.19322951 194.73247357 1.02755705 199.46893311 5.26544189 C202.37822682 10.41265385 203.41093783 15.02707708 202.53143311 20.89044189 C200.65769952 25.12670914 198.26101363 27.67376403 194.43907738 30.26044655 C190.9859388 31.55620729 187.58512728 31.42242487 183.94662476 31.40786743 C183.11847932 31.41239854 182.29033389 31.41692966 181.43709314 31.42159808 C178.65809919 31.43427298 175.87930044 31.43261972 173.10028076 31.43096924 C171.10944872 31.43695254 169.11861901 31.44375763 167.12779236 31.45132446 C161.71662953 31.46901144 156.30552993 31.47368097 150.89434099 31.47495604 C146.37885759 31.476854 141.86338896 31.48421032 137.34791124 31.49130023 C126.69553593 31.50759191 116.04319444 31.51246845 105.39080811 31.51104736 C94.39810555 31.5098456 83.40559923 31.53095269 72.41294634 31.56253469 C62.9784457 31.58867535 53.54400923 31.59941559 44.10947263 31.59813654 C38.47318654 31.59762628 32.8370748 31.60334531 27.20082474 31.62449265 C21.90007292 31.64383782 16.59966246 31.6440249 11.2988987 31.62945938 C9.35344126 31.62736559 7.40796267 31.63210601 5.46254158 31.6441803 C2.80636134 31.65959814 0.15136321 31.65034785 -2.50479126 31.63491821 C-3.27444824 31.64520534 -4.04410521 31.65549247 -4.83708513 31.66609132 C-10.00484847 31.59976367 -12.9118333 30.37817587 -16.90606689 27.14044189 C-20.65699047 22.87214955 -21.25905125 18.94523748 -21.18731689 13.42169189 C-20.60383479 8.68900369 -17.77388623 5.94317478 -14.40606689 2.82794189 C-9.83511607 -0.25744991 -5.3790106 -0.00621933 0 0 Z " fill="#ffffff" transform="translate(100.90606689453125,191.85955810546875)"/>
<path d="M0 0 C1.25090675 -0.00935994 1.25090675 -0.00935994 2.52708435 -0.01890898 C5.31391906 -0.03482936 8.09987796 -0.0222386 10.88671875 -0.00964355 C12.88770049 -0.0150651 14.88867824 -0.02218794 16.88964844 -0.03088379 C22.3193745 -0.04911614 27.74879647 -0.04204986 33.17852783 -0.02936745 C38.86121438 -0.0192394 44.54387493 -0.02863259 50.2265625 -0.03491211 C59.76957879 -0.04218906 69.31247126 -0.03259948 78.85546875 -0.0135498 C89.88799463 0.00821896 100.92022482 0.00116763 111.95274353 -0.02085543 C121.42551708 -0.03900799 130.89820162 -0.04156843 140.37098694 -0.03110075 C146.02846117 -0.02486506 151.68579642 -0.02403236 157.34326172 -0.0372467 C162.66212809 -0.0488024 167.98061328 -0.04078433 173.29943848 -0.01766968 C175.25133633 -0.01238113 177.20326628 -0.01389885 179.15515137 -0.02272034 C181.82001297 -0.0336536 184.48365366 -0.01993932 187.1484375 0 C188.30671303 -0.01338433 188.30671303 -0.01338433 189.48838806 -0.02703905 C194.65816219 0.04797688 197.58725605 1.25139369 201.57421875 4.50793457 C204.55642816 8.31282243 205.41377323 11.6945689 205.57421875 16.50793457 C204.71131974 21.06126772 203.48846873 24.51749709 200.32421875 27.94543457 C194.6041766 31.19545852 188.89498085 31.80218896 182.42800903 31.76863098 C181.63616899 31.77245653 180.84432895 31.77628208 180.02849376 31.78022355 C177.39018371 31.79049558 174.75209365 31.78657248 172.11376953 31.78259277 C170.2160319 31.78694247 168.31829602 31.79212648 166.42056274 31.79808044 C161.2758891 31.81145423 156.13128899 31.81205089 150.98660135 31.80951715 C146.68747457 31.8084463 142.3883626 31.81333374 138.089239 31.81812257 C127.94440975 31.82921224 117.79961753 31.82965824 107.65478516 31.8236084 C97.19890434 31.81756881 86.74315809 31.82988053 76.28730023 31.85117847 C67.30109683 31.86880787 58.31493621 31.87479369 49.32871616 31.87154073 C43.9657207 31.8697298 38.60282122 31.87234502 33.23984146 31.88625526 C28.19516154 31.89885066 23.15069104 31.89687324 18.10601425 31.88384438 C16.25857217 31.88148275 14.41111527 31.8841984 12.56369019 31.8924675 C-8.61148883 31.98038586 -8.61148883 31.98038586 -14.02062798 27.05601978 C-18.12749892 22.3487286 -18.78165108 19.10223026 -18.703125 13.04699707 C-18.1572468 8.0495206 -15.56876144 5.43751398 -11.80395508 2.37561798 C-7.75782369 0.13864237 -4.49995365 -0.05199874 0 0 Z " fill="#ffffff" transform="translate(98.42578125,256.4920654296875)"/>
<path d="M0 0 C0.99293564 -0.00700928 1.98587128 -0.01401855 3.00889587 -0.02124023 C6.27119416 -0.03875771 9.53261569 -0.02721925 12.79492188 -0.01367188 C15.07361008 -0.01636857 17.35229716 -0.02025247 19.63098145 -0.02526855 C24.39879346 -0.03115517 29.16630503 -0.02262732 33.93408203 -0.00390625 C40.03380501 0.01888238 46.13282389 0.00575486 52.23252106 -0.01819611 C56.93553943 -0.03267649 61.63839193 -0.02803773 66.34141541 -0.01768494 C68.59000228 -0.01502386 70.8386044 -0.01826552 73.08717346 -0.02760315 C76.2343005 -0.03780532 79.38030028 -0.02221544 82.52734375 0 C83.44913925 -0.00809692 84.37093475 -0.01619385 85.32066345 -0.02453613 C91.20811997 0.05213727 95.90283952 1.04333118 100.76367188 4.51757812 C104.44769072 8.72382427 105.3662703 12.84414894 105.08398438 18.37695312 C104.39718339 22.96679383 102.62545788 25.72042607 99.26367188 28.83007812 C95.91916232 31.08762208 93.40545831 31.64265642 89.46380615 31.66474915 C88.5863121 31.67190445 87.70881805 31.67905975 86.80473328 31.68643188 C85.84468887 31.68912079 84.88464447 31.69180969 83.89550781 31.69458008 C82.88218887 31.70115128 81.86886993 31.70772247 80.82484436 31.7144928 C77.46591113 31.73422986 74.10702263 31.74588933 70.74804688 31.75585938 C69.6011161 31.7599349 68.45418533 31.76401043 67.27249908 31.76820946 C61.20201294 31.78907189 55.13154941 31.80337291 49.06103516 31.81274414 C42.79188166 31.82380908 36.52308305 31.85820989 30.25405502 31.89791584 C25.43273255 31.92406426 20.61149487 31.93243443 15.79010773 31.93602562 C13.4792669 31.9408961 11.16842997 31.95252315 8.85765839 31.97106361 C5.62129106 31.99541653 2.38584501 31.99449667 -0.85058594 31.98754883 C-1.80253342 32.00035889 -2.7544809 32.01316895 -3.73527527 32.02636719 C-9.76615332 31.97924908 -13.28746885 31.01825823 -18.23632812 27.51757812 C-22.02329172 23.35191817 -22.60346795 19.32244083 -22.50585938 13.86523438 C-22.06102671 9.99067742 -20.78807696 7.43337681 -18.23632812 4.51757812 C-12.47983306 0.40316233 -6.88721074 -0.0604963 0 0 Z " fill="#ffffff" transform="translate(102.236328125,384.482421875)"/>
</svg>
