<?xml version="1.0" encoding="UTF-8"?>
<svg version="1.1" xmlns="http://www.w3.org/2000/svg" width="512" height="512">
<path d="M0 0 C1.00572556 -0.00744736 1.00572556 -0.00744736 2.0317688 -0.01504517 C4.24417153 -0.02961771 6.45650252 -0.03646132 8.66894531 -0.04199219 C10.21348064 -0.04774863 11.75801595 -0.0535063 13.30255127 -0.05926514 C16.5405714 -0.06976183 19.77856682 -0.07561289 23.01660156 -0.07910156 C27.15010185 -0.08457693 31.28327119 -0.10858987 35.41666794 -0.13707352 C38.60814341 -0.15577108 41.79954038 -0.16090931 44.99106598 -0.16243744 C46.51398778 -0.16544955 48.03690868 -0.17342898 49.55977631 -0.18662262 C67.65931143 -0.33221136 67.65931143 -0.33221136 73.62207031 5.47363281 C77.60673392 12.06365339 77.52768347 18.17766445 77.48757935 25.66439819 C77.49014262 27.41168132 77.49014262 27.41168132 77.49275768 29.1942631 C77.49547872 32.41881412 77.48924201 35.64320368 77.47920156 38.86773562 C77.47055425 42.34823517 77.47348812 45.82872736 77.4750061 49.30923462 C77.47605414 55.33655958 77.46978599 61.36384119 77.45853043 67.39115524 C77.44226744 76.10560325 77.4370666 84.82003032 77.43455444 93.53449185 C77.4301786 107.67355983 77.41687248 121.81260471 77.39794922 135.95166016 C77.37958757 149.68538294 77.36543246 163.41909945 77.35693359 177.15283203 C77.35640815 177.99956243 77.3558827 178.84629284 77.35534133 179.71868174 C77.35273123 183.96653413 77.35020382 188.21438656 77.34771752 192.46223903 C77.32698846 227.69522008 77.29176592 262.92817432 77.24707031 298.16113281 C77.87685791 298.14542236 78.50664551 298.12971191 79.15551758 298.11352539 C82.04010856 298.05073049 84.92455518 298.01200223 87.80957031 297.97363281 C89.29553711 297.93592773 89.29553711 297.93592773 90.81152344 297.89746094 C98.36597187 297.82216743 103.31407014 298.54693701 109.12207031 303.72363281 C112.90036298 308.05755675 112.58202207 311.56773032 112.52832031 317.17285156 C112.15253971 321.16552045 110.99542596 323.2642174 108.24707031 326.16113281 C102.73663298 330.15619988 97.82448127 330.30787524 91.18439007 330.29256058 C90.36132226 330.29461321 89.53825444 330.29666584 88.69024518 330.29878068 C85.91438748 330.30446425 83.13857919 330.30299176 80.36271667 330.30157471 C78.35959974 330.30415756 76.35648333 330.30717049 74.35336763 330.31057811 C68.83475187 330.31866064 63.31614912 330.32043838 57.79752815 330.32117558 C51.85125686 330.32302393 45.90499235 330.33057012 39.95872498 330.33731079 C26.27217985 330.35161201 12.58563568 330.35742157 -1.10091521 330.36200274 C-7.86302588 330.36433826 -14.62513571 330.36794084 -21.38724572 330.37169811 C-44.53095086 330.3845332 -67.67465552 330.39525291 -90.81836414 330.39870071 C-92.27125066 330.39892235 -93.72413717 330.39914413 -95.17702369 330.39936607 C-96.63343188 330.39958671 -98.08984007 330.39980719 -99.54624826 330.40002751 C-102.46808803 330.40047007 -105.3899278 330.40091718 -108.31176758 330.40136719 C-109.03621427 330.40147658 -109.76066096 330.40158597 -110.50706058 330.40169868 C-134.00329353 330.40533023 -157.49949564 330.4212542 -180.99571677 330.44455755 C-205.83280467 330.46914577 -230.66987493 330.48287306 -255.50697535 330.48406863 C-258.23267949 330.48424009 -260.95838362 330.48445552 -263.68408775 330.48470306 C-264.35524092 330.48475883 -265.0263941 330.4848146 -265.71788524 330.48487206 C-276.52467736 330.48602332 -287.33143787 330.49705159 -298.13821931 330.51159012 C-308.99715525 330.52594639 -319.85604865 330.5289442 -330.71499137 330.52115014 C-336.59932547 330.51723475 -342.48355305 330.51821657 -348.36787415 330.53220749 C-353.75225721 330.54489294 -359.13645311 330.54379614 -364.52083572 330.53161678 C-366.47103146 330.52965048 -368.42124021 330.53278097 -370.37141762 330.54146114 C-373.01874897 330.55250039 -375.66541354 330.54510314 -378.31272602 330.53306961 C-379.45299512 330.5444624 -379.45299512 330.5444624 -380.61629996 330.55608535 C-387.18912445 330.49142306 -391.68692889 329.00256831 -396.62792969 324.59863281 C-400.40622235 320.26470887 -400.08788145 316.75453531 -400.03417969 311.14941406 C-399.65839909 307.15674518 -398.50128533 305.05804822 -395.75292969 302.16113281 C-391.11279935 298.79703832 -387.19408373 298.03066099 -381.54980469 298.06347656 C-380.57011719 298.06669922 -379.59042969 298.06992187 -378.58105469 298.07324219 C-377.05738281 298.08581055 -377.05738281 298.08581055 -375.50292969 298.09863281 C-373.95605469 298.10540039 -373.95605469 298.10540039 -372.37792969 298.11230469 C-369.83620396 298.12407194 -367.29459649 298.1405127 -364.75292969 298.16113281 C-364.75569507 297.55521301 -364.75846045 296.94929321 -364.76130962 296.32501221 C-364.8276562 281.55957997 -364.87725241 266.79415656 -364.9083662 252.02861023 C-364.9238138 244.88799678 -364.94486279 237.74748304 -364.97924805 230.60693359 C-365.0092152 224.38087584 -365.02852 218.15489031 -365.03519517 211.92876244 C-365.03909512 208.63416819 -365.04980636 205.33982788 -365.07011986 202.04528809 C-365.09193012 198.36112267 -365.09489502 194.67738376 -365.09350586 190.99316406 C-365.10429169 189.90918839 -365.11507751 188.82521271 -365.12619019 187.70838928 C-365.09704915 180.55538673 -364.65471616 174.22412965 -359.50292969 168.78613281 C-354.23904316 165.67565441 -348.98975128 164.91072119 -342.95068359 164.88647461 C-341.63887115 164.8769426 -340.32705872 164.86741058 -338.97549438 164.85758972 C-337.56016004 164.85785121 -336.14482569 164.85878855 -334.72949219 164.86035156 C-333.25889974 164.85645805 -331.78830841 164.85212204 -330.31771851 164.84736633 C-327.24302518 164.83992857 -324.16844672 164.84017737 -321.09375 164.84545898 C-317.17450697 164.85124752 -313.25573748 164.83432598 -309.33657265 164.81111431 C-306.30117086 164.79630457 -303.2658812 164.7955151 -300.23044968 164.79862404 C-298.78651365 164.79811436 -297.34257076 164.7929438 -295.8986702 164.78281212 C-277.71551173 164.67087395 -277.71551173 164.67087395 -272.14468384 169.5776825 C-268.59700108 173.61401275 -267.6272527 176.88284322 -267.63267517 182.11552429 C-267.63061317 183.64887924 -267.63061317 183.64887924 -267.62850952 185.21321106 C-267.6321048 186.33386459 -267.63570007 187.45451813 -267.6394043 188.60913086 C-267.63925827 189.78975098 -267.63911224 190.97037109 -267.63896179 192.18676758 C-267.63953945 195.42410723 -267.64455786 198.66140376 -267.65153575 201.89873481 C-267.65778321 205.28200071 -267.65837419 208.66526743 -267.65956116 212.04853821 C-267.66267036 218.45519497 -267.67087822 224.86183468 -267.68091065 231.26848394 C-267.69208453 238.5622455 -267.69758545 245.85600787 -267.70260608 253.14977586 C-267.71306116 268.15357126 -267.73085389 283.15734969 -267.75292969 298.16113281 C-261.81292969 298.16113281 -255.87292969 298.16113281 -249.75292969 298.16113281 C-249.76181213 295.94890015 -249.77069458 293.73666748 -249.77984619 291.45739746 C-249.86158981 270.62185804 -249.92111512 249.78633977 -249.96017838 228.95067596 C-249.98079595 218.23853725 -250.00890127 207.52651627 -250.0546875 196.81445312 C-250.09457978 187.47687021 -250.12036835 178.13937256 -250.12928367 168.80170679 C-250.13449434 163.85831298 -250.14672471 158.9151631 -250.17584991 153.97184753 C-250.20305672 149.31629148 -250.21136402 144.66107921 -250.20536041 140.0054512 C-250.20645829 138.29948176 -250.21438081 136.59350049 -250.22975159 134.88759995 C-250.37233059 118.24332645 -250.37233059 118.24332645 -245.75292969 112.16113281 C-241.25993109 108.29702899 -236.98284671 107.65548212 -231.09277344 107.62768555 C-230.36172394 107.61906998 -229.63067444 107.61045441 -228.87747192 107.60157776 C-226.48142222 107.57903255 -224.08655295 107.58563419 -221.69042969 107.59472656 C-220.01326147 107.58948625 -218.33609621 107.58320827 -216.65893555 107.57594299 C-213.15203942 107.56556026 -209.64554962 107.57006996 -206.13867188 107.5847168 C-201.65619749 107.60191091 -197.17500425 107.57839146 -192.69267273 107.5432272 C-189.23180737 107.5212139 -185.77124681 107.52270393 -182.31033325 107.53099251 C-180.65819899 107.5318097 -179.00604183 107.52499075 -177.35397339 107.51022148 C-162.8682923 107.40055019 -162.8682923 107.40055019 -158.37402344 110.32543945 C-153.59789936 115.49260424 -152.37748684 119.70063184 -152.39216614 126.67819214 C-152.38960286 127.41427456 -152.38703959 128.15035698 -152.38439864 128.90874493 C-152.37947507 131.36403129 -152.39592957 133.81869651 -152.41235352 136.27392578 C-152.4132001 138.03833502 -152.41272404 139.80274531 -152.411026 141.56715393 C-152.41016584 146.3497968 -152.42779502 151.13221361 -152.44874787 155.91480398 C-152.46751116 160.91561326 -152.46926484 165.9164278 -152.4728241 170.91726685 C-152.48214557 180.38380503 -152.50676079 189.85023918 -152.53687257 199.31673157 C-152.57041334 210.09536923 -152.58690178 220.87401188 -152.60195887 231.65268874 C-152.63331022 253.82222971 -152.6866776 275.99167104 -152.75292969 298.16113281 C-146.81292969 298.16113281 -140.87292969 298.16113281 -134.75292969 298.16113281 C-134.76181213 295.22227173 -134.77069458 292.28341064 -134.77984619 289.25549316 C-134.85947028 262.29523784 -134.91917149 235.3349842 -134.95719101 208.37463966 C-134.96219373 204.83992882 -134.96737103 201.30521825 -134.97265625 197.77050781 C-134.97370549 197.06682121 -134.97475473 196.36313461 -134.97583577 195.63812417 C-134.99323314 184.24946612 -135.02476711 172.86088897 -135.06154087 161.47227889 C-135.09896896 149.78339704 -135.12116948 138.09455751 -135.12928367 126.40561819 C-135.13449963 119.84140176 -135.14676407 113.27736873 -135.17584991 106.71321106 C-135.20300674 100.53431739 -135.21137398 94.35568261 -135.20536041 88.17673492 C-135.20646051 85.90960025 -135.21441254 83.64245689 -135.22975159 81.37537384 C-135.24968312 78.27747923 -135.24485673 75.18055925 -135.23394775 72.0826416 C-135.24559912 71.18768054 -135.25725049 70.29271947 -135.26925492 69.37063837 C-135.2141793 63.57546171 -134.17957436 58.93797156 -130.75292969 54.16113281 C-126.23165492 50.34795815 -122.07800686 49.65803474 -116.16870117 49.64355469 C-115.44579895 49.63654541 -114.72289673 49.62953613 -113.97808838 49.62231445 C-111.60966568 49.60483636 -109.24245638 49.61631842 -106.87402344 49.62988281 C-105.21688103 49.62718523 -103.55974017 49.6233006 -101.90260315 49.61828613 C-98.43857677 49.61240518 -94.97496439 49.62090946 -91.51098633 49.63964844 C-87.08011963 49.66245542 -82.65022127 49.64929554 -78.21938992 49.62535858 C-74.8006109 49.61087762 -71.38206004 49.61551673 -67.963274 49.62586975 C-66.32986396 49.62852978 -64.69643291 49.62529282 -63.06304741 49.61595154 C-60.77739753 49.60574544 -58.49329856 49.62134024 -56.20776367 49.64355469 C-54.90983383 49.64673706 -53.61190399 49.64991943 -52.27464294 49.65319824 C-47.00014372 50.41393607 -43.95184936 52.8326002 -40.44042969 56.72363281 C-38.21002126 59.94533387 -37.62785207 62.38983 -37.62988186 66.21597576 C-37.62789081 67.04403026 -37.62589976 67.87208476 -37.62384838 68.72523183 C-37.62676122 69.6347571 -37.62967406 70.54428237 -37.63267517 71.48136902 C-37.63139353 72.93079147 -37.63139353 72.93079147 -37.630086 74.40949517 C-37.62843311 77.66160588 -37.63394951 80.9136655 -37.6394043 84.16577148 C-37.63968624 86.49130756 -37.6395283 88.81684373 -37.63896179 91.14237976 C-37.63867408 97.4684544 -37.64456663 103.79451019 -37.65153575 110.12058043 C-37.65714203 116.05809058 -37.6581581 121.99559998 -37.65918762 127.93311242 C-37.66137699 139.69458828 -37.66803397 151.4560572 -37.67749023 163.2175293 C-37.68666732 174.64363571 -37.69374671 186.06974025 -37.69799805 197.49584961 C-37.69839213 198.55206379 -37.69839213 198.55206379 -37.69879418 199.62961563 C-37.7000992 203.16204453 -37.70136291 206.69447344 -37.70260608 210.22690237 C-37.71297512 239.5383171 -37.73086527 268.84972457 -37.75292969 298.16113281 C-31.81292969 298.16113281 -25.87292969 298.16113281 -19.75292969 298.16113281 C-19.75569507 296.69269613 -19.75846045 295.22425945 -19.76130962 293.71132469 C-19.82626807 258.86202761 -19.87574367 224.0127403 -19.90612568 189.16339549 C-19.90987784 184.8750435 -19.91376081 180.58669164 -19.91772461 176.29833984 C-19.91851154 175.44459788 -19.91929847 174.59085592 -19.92010925 173.71124299 C-19.93316699 159.88337644 -19.95682286 146.05554727 -19.98438808 132.2277029 C-20.01243203 118.04150059 -20.02910381 103.85531786 -20.03519517 89.66908896 C-20.03931371 80.91379176 -20.05232682 72.15860021 -20.07667909 63.40333553 C-20.09252382 57.40140551 -20.09733291 51.3995302 -20.09343382 45.39758079 C-20.0915103 41.93355919 -20.0944812 38.46972233 -20.11054611 35.00573349 C-20.12542599 31.25044915 -20.12189926 27.49562036 -20.11369324 23.74032593 C-20.12243176 22.64499176 -20.13117029 21.5496576 -20.14017361 20.42113149 C-20.10288676 14.12754437 -19.65507114 9.41927028 -15.28808594 4.51660156 C-10.03488011 0.3502659 -6.6084369 0.03727492 0 0 Z M11.24707031 32.16113281 C11.24707031 119.94113281 11.24707031 207.72113281 11.24707031 298.16113281 C22.46707031 298.16113281 33.68707031 298.16113281 45.24707031 298.16113281 C45.24707031 210.38113281 45.24707031 122.60113281 45.24707031 32.16113281 C34.02707031 32.16113281 22.80707031 32.16113281 11.24707031 32.16113281 Z M-103.75292969 81.16113281 C-103.75292969 152.77113281 -103.75292969 224.38113281 -103.75292969 298.16113281 C-92.53292969 298.16113281 -81.31292969 298.16113281 -69.75292969 298.16113281 C-69.75292969 226.55113281 -69.75292969 154.94113281 -69.75292969 81.16113281 C-80.97292969 81.16113281 -92.19292969 81.16113281 -103.75292969 81.16113281 Z M-217.75292969 139.16113281 C-217.75292969 191.63113281 -217.75292969 244.10113281 -217.75292969 298.16113281 C-206.53292969 298.16113281 -195.31292969 298.16113281 -183.75292969 298.16113281 C-183.75292969 245.69113281 -183.75292969 193.22113281 -183.75292969 139.16113281 C-194.97292969 139.16113281 -206.19292969 139.16113281 -217.75292969 139.16113281 Z M-332.75292969 197.16113281 C-332.75292969 230.49113281 -332.75292969 263.82113281 -332.75292969 298.16113281 C-321.53292969 298.16113281 -310.31292969 298.16113281 -298.75292969 298.16113281 C-298.75292969 264.83113281 -298.75292969 231.50113281 -298.75292969 197.16113281 C-309.97292969 197.16113281 -321.19292969 197.16113281 -332.75292969 197.16113281 Z " fill="#ffffff" transform="translate(399.7529296875,140.8388671875)"/>
<path d="M0 0 C1.63794273 -0.01441132 1.63794273 -0.01441132 3.30897522 -0.02911377 C4.4953508 -0.03336365 5.68172638 -0.03761353 6.90405273 -0.04199219 C8.12285629 -0.04769226 9.34165985 -0.05339233 10.59739685 -0.05926514 C13.184063 -0.06872871 15.77074128 -0.07525448 18.35742188 -0.07910156 C22.29701156 -0.08876749 26.23607085 -0.11976257 30.17553711 -0.15136719 C32.68920589 -0.15790112 35.2028784 -0.16315005 37.71655273 -0.16699219 C38.8887587 -0.17933899 40.06096466 -0.19168579 41.26869202 -0.20440674 C56.07188723 -0.16452813 56.07188723 -0.16452813 61.3921051 4.61322021 C64.69619301 8.46049829 65.90001104 10.94949502 65.90454102 15.91113281 C65.90769318 16.89976318 65.91084534 17.88839355 65.91409302 18.90698242 C65.91105667 20.51778687 65.91105667 20.51778687 65.90795898 22.16113281 C65.90939407 23.8193103 65.90939407 23.8193103 65.91085815 25.51098633 C65.91154001 27.85807349 65.90968533 30.20516253 65.90551758 32.55224609 C65.90020988 36.11853373 65.90544128 39.68469308 65.91186523 43.25097656 C65.91120366 45.53352892 65.90992086 47.8160812 65.90795898 50.09863281 C65.90998322 51.15630859 65.91200745 52.21398437 65.91409302 53.30371094 C65.85426242 72.5473731 65.85426242 72.5473731 60.77514648 78.16113281 C56.19352037 81.57489344 52.71252149 82.84851952 46.98217773 82.53613281 C42.50411909 81.77525913 39.32610874 80.12222794 36.48999023 76.53613281 C33.16282382 70.81197555 32.99152273 64.65242027 32.77514648 58.16113281 C32.24147461 58.71800781 31.70780273 59.27488281 31.15795898 59.84863281 C25.68606377 65.45306528 19.96038919 70.36974762 13.77514648 75.16113281 C12.72431763 76.00059189 11.67490613 76.84182742 10.62670898 77.68457031 C-9.38736081 93.71562476 -30.83946836 107.68345177 -53.22485352 120.16113281 C-54.03374023 120.61488281 -54.84262695 121.06863281 -55.67602539 121.53613281 C-95.32882771 143.60377932 -140.07454673 156.10451912 -184.72485352 163.16113281 C-185.3901709 163.26745026 -186.05548828 163.3737677 -186.7409668 163.48330688 C-208.17996071 166.85772802 -208.17996071 166.85772802 -215.22485352 162.16113281 C-218.83868551 159.24999038 -220.28113032 156.70816274 -221.22485352 152.16113281 C-221.56913919 147.00641124 -220.62263126 143.01335928 -217.59985352 138.78613281 C-212.83911597 133.95861137 -207.05440128 133.36995538 -200.61987305 132.49414062 C-195.97426849 131.84820743 -191.35150067 131.05445823 -186.72485352 130.28613281 C-185.18583374 130.03295288 -185.18583374 130.03295288 -183.61572266 129.7746582 C-164.42038812 126.5741924 -145.80325529 121.93162537 -127.22485352 116.16113281 C-125.87544678 115.74758545 -125.87544678 115.74758545 -124.4987793 115.32568359 C-95.41905935 106.34462923 -68.62077961 92.82109068 -43.22485352 76.16113281 C-41.94124369 75.33132765 -40.65740195 74.50188106 -39.37329102 73.67285156 C-25.27024207 64.4941718 -11.4663419 54.73406534 0.77514648 43.16113281 C2.83487054 41.35030711 4.90849814 39.5568617 6.98608398 37.76660156 C8.99070132 35.96769824 10.88554347 34.07987068 12.77514648 32.16113281 C11.71295898 32.13535156 10.65077148 32.10957031 9.55639648 32.08300781 C-6.18025781 31.52869068 -6.18025781 31.52869068 -11.22485352 27.16113281 C-14.3809816 23.66943938 -15.46587495 20.26696356 -15.66235352 15.59863281 C-15.45331014 11.50138264 -14.55039994 8.60935681 -12.22485352 5.16113281 C-8.00945056 1.35698868 -5.61315166 0.03978898 0 0 Z " fill="#ffffff" transform="translate(283.224853515625,40.8388671875)"/>
</svg>
