<?xml version="1.0" encoding="UTF-8"?>
<svg version="1.1" xmlns="http://www.w3.org/2000/svg" width="512" height="512">
<path d="M0 0 C1.81221678 -0.00576172 1.81221678 -0.00576172 3.661044 -0.01163983 C5.008639 -0.01085955 6.35623394 -0.00998076 7.70382881 -0.00901413 C9.13003626 -0.0115971 10.55624298 -0.01461007 11.9824487 -0.01801753 C15.91096575 -0.02609866 19.83946454 -0.02787772 23.76798892 -0.028615 C28.0012052 -0.03046359 32.23441196 -0.03800989 36.46762276 -0.04475021 C45.72781477 -0.05834141 54.98800247 -0.06435933 64.2482028 -0.06876087 C70.02751158 -0.07152166 75.80681868 -0.07575868 81.58612633 -0.08026505 C97.57972992 -0.09245816 113.57333217 -0.10275777 129.56694031 -0.10614014 C131.10283579 -0.10646949 131.10283579 -0.10646949 132.66975946 -0.10680549 C133.69616987 -0.10702377 134.72258027 -0.10724204 135.78009403 -0.10746694 C137.86006983 -0.10791041 139.94004564 -0.10835697 142.02002144 -0.10880661 C143.05176609 -0.10902804 144.08351075 -0.10924947 145.14652039 -0.10947761 C161.8718759 -0.11342729 178.59718788 -0.13088632 195.32252656 -0.15416613 C212.48414575 -0.17786092 229.64574307 -0.19034111 246.80737889 -0.19150805 C256.44709971 -0.19242581 266.08676381 -0.19820344 275.72646904 -0.21632767 C283.93333133 -0.23170332 292.14011936 -0.23686411 300.34699331 -0.22858956 C304.53594074 -0.22467419 308.72473852 -0.22565573 312.91366768 -0.23964691 C316.7467401 -0.25233274 320.57954961 -0.2512355 324.41262139 -0.2390562 C325.8009047 -0.23708994 327.18920629 -0.24022028 328.57746385 -0.24890056 C330.46186011 -0.25993913 332.3463426 -0.25074335 334.23074341 -0.24050903 C335.27828446 -0.24110612 336.32582552 -0.24170321 337.40511024 -0.24231839 C341.96590292 0.35871019 344.50188372 2.28941404 347.49121284 5.69392776 C350.49081707 9.87194793 350.38492003 13.04213876 350.37543392 18.04450989 C350.37778615 18.87569985 350.38013838 19.70688981 350.38256189 20.56326735 C350.3892764 23.37878598 350.38879293 26.19425872 350.38838387 29.0097847 C350.39168096 31.03663715 350.3954062 33.06348895 350.39952534 35.0903399 C350.40957095 40.68381282 350.41326624 46.27727501 350.41591465 51.87075567 C350.41981012 57.89407275 350.42938894 63.91738127 350.43812752 69.9406929 C350.45697758 83.81013092 350.46715101 97.67956813 350.4755882 111.54901526 C350.47979237 118.40001709 350.48501466 125.25101804 350.49027273 132.10201912 C350.50816405 155.54511746 350.52316102 178.98821604 350.53059292 202.43132019 C350.53106768 203.90352738 350.53154357 205.37573458 350.53202058 206.84794177 C350.53225696 207.57803785 350.53249333 208.30813394 350.53273687 209.06035415 C350.53393809 212.75950109 350.53515354 216.45864802 350.53637886 220.15779495 C350.53661901 220.89190723 350.53685916 221.62601951 350.53710659 222.38237761 C350.54500146 246.18998692 350.56843659 269.99754645 350.6009348 293.80513401 C350.63521603 318.96476565 350.65494247 344.12436814 350.65823716 369.28402352 C350.65865471 372.04484702 350.65913428 374.80567051 350.65966034 377.56649399 C350.65978353 378.24630649 350.65990672 378.92611898 350.66003365 379.62653186 C350.66236779 390.5768377 350.67803966 401.52708582 350.69850219 412.47737107 C350.71873652 423.47992293 350.72391484 434.48241472 350.71473155 445.48498318 C350.71017194 451.44819613 350.7121693 457.41122126 350.731493 463.37440872 C350.74901902 468.82979738 350.74821325 474.28485972 350.7325957 479.74025133 C350.7302035 481.71740894 350.73462589 483.69458852 350.74642435 485.67171237 C350.76143927 488.35320257 350.75194329 491.03352089 350.73619747 493.71498108 C350.75153078 494.87448735 350.75153078 494.87448735 350.76717386 496.05741799 C350.683975 502.52057555 348.36181572 506.0484762 343.85517406 510.47510242 C338.19556916 513.06897282 332.54914056 512.67867147 326.41783333 512.63263321 C324.9890319 512.63652721 323.56023435 512.64216845 322.13144594 512.64940411 C318.20957251 512.66416256 314.28810043 512.65397543 310.36623991 512.63966739 C306.13510624 512.62856374 301.90402916 512.64049814 297.67289925 512.64950943 C289.38613649 512.66344769 281.09952605 512.65588157 272.81277054 512.64083385 C263.16524076 512.62398128 253.517749 512.62718303 243.87020905 512.63092793 C226.65880386 512.6368075 209.44747181 512.62263069 192.23608589 512.5979805 C175.52935228 512.57405571 158.82271637 512.56697757 142.1159687 512.57747269 C123.92830915 512.58887762 105.7406948 512.5908175 87.5530358 512.57637459 C85.61433797 512.57484873 83.67564013 512.57332837 81.73694229 512.57181358 C80.78303363 512.57105577 79.82912496 512.57029795 78.84630997 512.56951718 C72.11895345 512.56477135 65.39161709 512.56662787 58.66426086 512.57087898 C50.46843362 512.57580161 42.27269883 512.56983921 34.07689279 512.54998469 C29.89401183 512.54010176 25.71127176 512.53501835 21.52838326 512.5428772 C17.70096226 512.54992117 13.87382586 512.54315971 10.04644246 512.52527357 C8.66027557 512.52122073 7.27408284 512.52224293 5.8879255 512.52879243 C4.00639343 512.53692317 2.12480632 512.52485193 0.24330235 512.5117445 C-1.32556991 512.5102008 -1.32556991 512.5102008 -2.92613655 512.50862592 C-7.4831014 511.90181662 -10.02111557 509.97155373 -13.00878716 506.56892776 C-16.00839138 502.3909076 -15.90249434 499.22071677 -15.89300823 494.21834564 C-15.89536046 493.38715568 -15.89771269 492.55596572 -15.9001362 491.69958818 C-15.90685071 488.88406955 -15.90636724 486.06859681 -15.90595818 483.25307083 C-15.90925527 481.22621838 -15.91298051 479.19936658 -15.91709965 477.17251563 C-15.92714526 471.57904271 -15.93084055 465.98558052 -15.93348897 460.39209986 C-15.93738443 454.36878278 -15.94696325 448.34547426 -15.95570183 442.32216263 C-15.97455189 428.45272461 -15.98472532 414.5832874 -15.99316251 400.71384027 C-15.99736669 393.86283844 -16.00258897 387.01183749 -16.00784704 380.16083641 C-16.02573836 356.71773807 -16.04073533 333.27463949 -16.04816723 309.83153534 C-16.04864199 308.35932815 -16.04911788 306.88712095 -16.04959489 305.41491376 C-16.04983127 304.68481767 -16.05006764 303.95472159 -16.05031118 303.20250138 C-16.0515124 299.50335444 -16.05272785 295.80420751 -16.05395317 292.10506058 C-16.05419332 291.3709483 -16.05443347 290.63683602 -16.0546809 289.88047792 C-16.06257577 266.07286861 -16.0860109 242.26530908 -16.11850911 218.45772152 C-16.15279034 193.29808988 -16.17251678 168.13848739 -16.17581147 142.97883201 C-16.17622902 140.21800851 -16.17670859 137.45718502 -16.17723465 134.69636154 C-16.17735784 134.01654904 -16.17748103 133.33673655 -16.17760796 132.63632367 C-16.1799421 121.68601783 -16.19561397 110.73576971 -16.2160765 99.78548446 C-16.23631083 88.7829326 -16.24148915 77.78044081 -16.23230586 66.77787235 C-16.22774625 60.8146594 -16.22974361 54.85163427 -16.24906731 48.88844681 C-16.26659333 43.43305815 -16.26578756 37.97799581 -16.25017001 32.5226042 C-16.24777781 30.54544659 -16.2522002 28.56826701 -16.26399866 26.59114316 C-16.27901358 23.90965296 -16.2695176 21.22933464 -16.25377178 18.54787445 C-16.26399399 17.77487027 -16.2742162 17.00186609 -16.28474817 16.20543754 C-16.20631504 10.11249718 -14.06975449 6.81214987 -10.19628716 2.31892776 C-7.09782385 -0.24067235 -3.82359585 0.00455121 0 0 Z M93.24121284 30.13142776 C93.24121284 43.99142776 93.24121284 57.85142776 93.24121284 72.13142776 C139.11121284 72.13142776 184.98121284 72.13142776 232.24121284 72.13142776 C232.24121284 58.27142776 232.24121284 44.41142776 232.24121284 30.13142776 C186.37121284 30.13142776 140.50121284 30.13142776 93.24121284 30.13142776 Z M15.24121284 30.13142776 C15.24121284 179.29142776 15.24121284 328.45142776 15.24121284 482.13142776 C115.56121284 482.13142776 215.88121284 482.13142776 319.24121284 482.13142776 C319.24121284 332.97142776 319.24121284 183.81142776 319.24121284 30.13142776 C300.76121284 30.13142776 282.28121284 30.13142776 263.24121284 30.13142776 C263.20383003 34.46525589 263.16644722 38.79908401 263.12793159 43.26424026 C263.08980021 46.72929747 263.0487276 50.19429216 263.00567055 53.65929031 C262.9610884 57.3117652 262.92163729 60.96412746 262.8947773 64.61677933 C262.86868473 68.13777013 262.82824143 71.6583354 262.77802658 75.17906189 C262.75332926 77.16968778 262.74332838 79.16047851 262.73356819 81.15123367 C262.70387695 82.9824527 262.70387695 82.9824527 262.67358589 84.85066605 C262.6569313 86.45616821 262.6569313 86.45616821 262.63994026 88.09410477 C262.17917773 91.60398286 260.9105049 94.03479961 259.24121284 97.13142776 C259.24121284 97.79142776 259.24121284 98.45142776 259.24121284 99.13142776 C253.9307161 101.28433185 249.97163841 102.25861173 244.20121956 102.27186966 C243.48010091 102.27484078 242.75898226 102.2778119 242.01601154 102.28087306 C239.59326423 102.28956297 237.17056631 102.29106855 234.74780464 102.29256058 C233.01327598 102.29718854 231.27874833 102.30221317 229.54422188 102.30760574 C224.82720534 102.32073375 220.11020303 102.32717547 215.39317107 102.3316164 C212.44677777 102.33454645 209.50038838 102.33865113 206.55399704 102.34312057 C197.3371923 102.3567965 188.12039646 102.36646272 178.90358227 102.37032247 C168.26081101 102.37480373 157.61816814 102.39235441 146.97543591 102.42132306 C138.75114322 102.44293257 130.52688666 102.45302636 122.30256587 102.45436358 C117.38951898 102.45541213 112.47659277 102.46133044 107.56357574 102.4791832 C102.94166436 102.49565125 98.31996454 102.49782554 93.69803429 102.48904419 C92.00252338 102.48827314 90.30700117 102.4926255 88.61151886 102.50250244 C86.29481285 102.51520581 83.97885797 102.50935436 81.66215706 102.49892044 C80.36632541 102.500387 79.07049376 102.50185356 77.73539448 102.50336456 C73.89700258 102.09478844 71.51159872 101.15256633 68.24121284 99.13142776 C63.84027126 93.65998688 63.14036742 89.09027787 63.03589058 82.23958206 C63.00597275 80.49834312 63.00597275 80.49834312 62.97545052 78.72192764 C62.95873802 77.47905487 62.94202553 76.2361821 62.92480659 74.95564651 C62.9040255 73.67535065 62.8832444 72.39505478 62.86183357 71.07596207 C62.80683712 67.68453047 62.75732972 64.29304041 62.70898628 60.90150833 C62.65860669 57.43577806 62.603057 53.97013087 62.54785347 50.50447464 C62.44006059 43.71352334 62.34086363 36.92252296 62.24121284 30.13142776 C46.73121284 30.13142776 31.22121284 30.13142776 15.24121284 30.13142776 Z " fill="#ffffff" transform="translate(88.75878715515137,-0.13142776489257813)"/>
<path d="M0 0 C0.97004974 -0.0071553 1.94009949 -0.01431061 2.93954468 -0.02168274 C4.0024472 -0.02437164 5.06534973 -0.02706055 6.16046143 -0.02983093 C7.84137375 -0.03968773 7.84137375 -0.03968773 9.5562439 -0.04974365 C13.27229883 -0.06948745 16.98831333 -0.08114151 20.70440674 -0.09111023 C21.97269569 -0.09518576 23.24098465 -0.09926128 24.5477066 -0.10346031 C30.56783997 -0.1221735 36.58794882 -0.13673834 42.60810351 -0.14507228 C49.54826963 -0.15483942 56.48811635 -0.18114703 63.42816997 -0.22157317 C69.44616199 -0.2554204 75.46399946 -0.26722125 81.48209381 -0.27127647 C84.03854793 -0.27614959 86.59499847 -0.28778407 89.15139008 -0.30631447 C92.73019365 -0.33064409 96.30816309 -0.32975163 99.88702393 -0.32279968 C100.94182953 -0.33560974 101.99663513 -0.3484198 103.08340454 -0.36161804 C109.37016761 -0.31713334 113.16133065 0.41833515 118.28253174 4.14717102 C121.3211619 7.89481488 122.122757 11.35392883 122.28253174 16.14717102 C121.43099967 20.95874057 120.07594863 24.87078207 116.34503174 28.14717102 C112.29704292 30.79075555 109.33709707 31.26945062 104.56542969 31.29434204 C103.14832451 31.305075 103.14832451 31.305075 101.70259094 31.31602478 C100.15806496 31.32005814 100.15806496 31.32005814 98.58233643 31.32417297 C96.94750557 31.33402977 96.94750557 31.33402977 95.27964783 31.34408569 C91.67123343 31.36380354 88.0628606 31.37547762 84.45440674 31.38545227 C83.22138069 31.3895278 81.98835464 31.39360332 80.71796417 31.39780235 C74.86495781 31.41650688 69.01196777 31.43107447 63.15893722 31.43941432 C56.41744866 31.4491805 49.67628899 31.4754889 42.93491626 31.51591522 C37.08405813 31.54978939 31.23330972 31.56156544 25.38236237 31.56561852 C22.89930236 31.57048695 20.41624593 31.58210815 17.93325043 31.60065651 C14.45533625 31.62502345 10.97827872 31.62408691 7.50030518 31.61714172 C6.47871811 31.62995178 5.45713104 31.64276184 4.40458679 31.65596008 C-1.7340373 31.61137351 -6.66657022 30.84041341 -11.71746826 27.14717102 C-15.39718637 22.93393512 -16.32032296 18.82562316 -16.03778076 13.28779602 C-15.35097978 8.69795531 -13.57925426 5.94432307 -10.21746826 2.83467102 C-6.72152 0.47490594 -4.11700054 0.02085659 0 0 Z " fill="#ffffff" transform="translate(257.71746826171875,372.8528289794922)"/>
<path d="M0 0 C0.97708923 -0.0071553 1.95417847 -0.01431061 2.96087646 -0.02168274 C4.57464928 -0.02571609 4.57464928 -0.02571609 6.22102356 -0.02983093 C7.35123932 -0.03640213 8.48145508 -0.04297333 9.6459198 -0.04974365 C13.39987753 -0.06951295 17.15379517 -0.08114795 20.90779114 -0.09111023 C22.82814902 -0.09722352 22.82814902 -0.09722352 24.78730202 -0.10346031 C30.8651019 -0.12218292 36.94288164 -0.13674423 43.02070445 -0.14507228 C50.02992993 -0.15483555 57.03883884 -0.18112916 64.04795283 -0.22157317 C70.12307105 -0.25542077 76.19805666 -0.26722144 82.27326393 -0.27127647 C84.85483762 -0.27615033 87.43640774 -0.28778689 90.01791954 -0.30631447 C93.63275228 -0.33064342 97.24675913 -0.32975158 100.86164856 -0.32279968 C101.92737595 -0.33560974 102.99310333 -0.3484198 104.09112549 -0.36161804 C110.40439636 -0.31739012 114.22501936 0.3961017 119.36482239 4.14717102 C122.40345255 7.89481488 123.20504765 11.35392883 123.36482239 16.14717102 C122.4956404 20.7336581 121.28878177 24.17326789 118.05232239 27.58467102 C111.63660791 31.31473758 105.83713261 31.43964991 98.6053009 31.42182922 C96.99688324 31.42949562 96.99688324 31.42949562 95.35597229 31.43731689 C91.81850065 31.45119423 88.28122423 31.45025756 84.74372864 31.44795227 C82.28042529 31.45184004 79.81712261 31.45617488 77.3538208 31.4609375 C72.193322 31.46839559 67.03289162 31.46811124 61.87239075 31.46284485 C55.26371087 31.45704901 48.65531115 31.47398628 42.04667759 31.49718952 C36.96028001 31.51192991 31.87394987 31.51279815 26.78753471 31.50967979 C24.35111371 31.51019279 21.91468891 31.51542642 19.47828865 31.52549171 C16.0699206 31.53784514 12.6620979 31.5310706 9.2537384 31.51948547 C7.74873024 31.53095108 7.74873024 31.53095108 6.21331787 31.54264832 C-0.12341691 31.49510659 -5.38432045 30.94611531 -10.37736511 26.64717102 C-14.22580437 21.55130662 -15.29773975 17.495721 -14.63517761 11.14717102 C-12.07825948 4.14928982 -7.45055003 0.03737666 0 0 Z " fill="#ffffff" transform="translate(256.6351776123047,289.8528289794922)"/>
<path d="M0 0 C0.98694855 -0.0071553 1.97389709 -0.01431061 2.99075317 -0.02168274 C4.0775235 -0.02437164 5.16429382 -0.02706055 6.28399658 -0.02983093 C7.4255722 -0.03640213 8.56714783 -0.04297333 9.74331665 -0.04974365 C13.5345465 -0.06951166 17.32573669 -0.08114705 21.11700439 -0.09111023 C22.4095237 -0.09518576 23.702043 -0.09926128 25.03372955 -0.10346031 C31.16865853 -0.12218159 37.30356755 -0.13674385 43.43851924 -0.14507228 C50.51680381 -0.15484018 57.59477528 -0.18114664 64.67294955 -0.22157317 C70.8057362 -0.25539601 76.93839143 -0.26721934 83.07126617 -0.27127647 C85.67878594 -0.27615385 88.28630208 -0.28780033 90.89376068 -0.30631447 C94.54232309 -0.33061051 98.19006587 -0.32975775 101.83868408 -0.32279968 C102.91735748 -0.33560974 103.99603088 -0.3484198 105.10739136 -0.36161804 C111.16659068 -0.31946938 114.71685876 0.08293844 119.32012939 4.14717102 C122.3023388 7.95205888 123.15968387 11.33380535 123.32012939 16.14717102 C122.45723039 20.70050417 121.23437938 24.15673354 118.07012939 27.58467102 C111.47091982 31.33422192 105.16845496 31.4407543 97.75421143 31.42182922 C96.71426025 31.42694016 95.67430908 31.43205109 94.60284424 31.43731689 C91.17781764 31.45117445 87.75299314 31.45025893 84.32794189 31.44795227 C81.93811977 31.45184138 79.54829833 31.4561765 77.15847778 31.4609375 C72.15358233 31.46839153 67.14875744 31.46811438 62.14385986 31.46284485 C55.74278775 31.4570523 49.34200518 31.47398031 42.94098091 31.49718952 C38.00634077 31.51194985 33.07176998 31.51279539 28.13711166 31.50967979 C25.77770286 31.51019188 23.41829006 31.51540832 21.05890274 31.52549171 C17.75402477 31.53788268 14.44970602 31.53104799 11.14483643 31.51948547 C9.69504898 31.53095108 9.69504898 31.53095108 8.2159729 31.54264832 C1.8457947 31.49359982 -5.28291421 31.10705465 -10.30555534 26.73065662 C-14.03486802 22.43374376 -14.9877996 18.84259366 -14.89471436 13.20576477 C-14.41794086 8.63740785 -12.45424175 5.84599376 -9.11737061 2.83467102 C-5.74353532 0.4989389 -4.05376748 0.02013129 0 0 Z " fill="#ffffff" transform="translate(256.67987060546875,206.8528289794922)"/>
<path d="M0 0 C4.29120604 1.62369958 7.66812911 3.98400014 10 8 C10.88951276 10.66853827 11.22066937 12.48541469 11.3125 15.25 C11.36857422 16.34054688 11.36857422 16.34054688 11.42578125 17.453125 C10.25298747 24.46836855 4.95994581 29.51841069 0.14453125 34.359375 C-0.51654129 35.03043274 -1.17761383 35.70149048 -1.85871887 36.3928833 C-3.25253178 37.80180899 -4.65037022 39.20676258 -6.05200195 40.60791016 C-8.17974809 42.74222416 -10.2823255 44.89938406 -12.38476562 47.05859375 C-13.74852446 48.43115516 -15.11371312 49.80229769 -16.48046875 51.171875 C-17.09955612 51.81251892 -17.71864349 52.45316284 -18.35649109 53.11322021 C-22.71475804 57.40522222 -26.927546 59.88709892 -33 61 C-41.56206562 60.93297447 -46.23993978 55.78510396 -52 50 C-53.06313975 48.9810194 -54.12832313 47.96416765 -55.1953125 46.94921875 C-56.27728058 45.90492793 -57.35802758 44.85937036 -58.4375 43.8125 C-58.94579346 43.32604004 -59.45408691 42.83958008 -59.9777832 42.33837891 C-63.73126292 38.61574281 -66.49822067 34.9516431 -67.3984375 29.65625 C-67.34469987 24.71238781 -66.84571167 21.21950352 -64 17 C-59.37312827 12.72014365 -55.57673522 11.58821594 -49.4140625 11.6484375 C-43.55523399 12.50166495 -38.83013311 16.69110025 -35 21 C-31.91908567 19.63454214 -29.8896382 18.10110195 -27.57421875 15.6640625 C-26.94193359 15.01179687 -26.30964844 14.35953125 -25.65820312 13.6875 C-24.35389431 12.32243547 -23.05177481 10.95527538 -21.75195312 9.5859375 C-15.41285455 3.06058375 -9.52373478 -1.68263865 0 0 Z " fill="#ffffff" transform="translate(195,177)"/>
<path d="M0 0 C4.13640499 2.29711034 6.3996439 4.9056974 7.8125 9.4375 C8.71253571 15.37566662 7.81961321 19.2084728 4.8125 24.4375 C2.61916963 27.07616822 0.22553213 29.4924772 -2.19921875 31.91796875 C-2.88627396 32.61263748 -3.57332916 33.30730621 -4.28120422 34.02302551 C-5.73234719 35.48493999 -7.18744785 36.94293531 -8.64624023 38.3972168 C-10.86442312 40.61442775 -13.06042601 42.85208586 -15.25585938 45.09179688 C-16.67317552 46.5143209 -18.09175494 47.93558762 -19.51171875 49.35546875 C-20.48560799 50.35395088 -20.48560799 50.35395088 -21.47917175 51.37260437 C-26.03981355 55.86592343 -30.5659324 59.22807873 -37.24394226 59.53068542 C-46.49232307 58.83462649 -52.21651301 51.74596058 -58.375 45.5625 C-59.18130859 44.77230469 -59.98761719 43.98210937 -60.81835938 43.16796875 C-69.49755751 34.49598525 -69.49755751 34.49598525 -70.5859375 28.09375 C-70.53219987 23.14988781 -70.03321167 19.65700352 -67.1875 15.4375 C-62.80860696 11.38702394 -59.38452099 10.06096943 -53.3671875 10.16015625 C-47.83625807 10.8639125 -43.54372538 13.99086791 -39.44140625 17.5859375 C-38.82724854 18.12138184 -38.21309082 18.65682617 -37.58032227 19.20849609 C-36.89087524 19.81685303 -36.89087524 19.81685303 -36.1875 20.4375 C-35.31798706 19.54442139 -35.31798706 19.54442139 -34.4309082 18.63330078 C-32.265805 16.41691027 -30.09390174 14.20747344 -27.91723633 12.00244141 C-26.51827515 10.58106793 -25.12724164 9.15190589 -23.73632812 7.72265625 C-22.85009766 6.82675781 -21.96386719 5.93085938 -21.05078125 5.0078125 C-20.23907471 4.18039551 -19.42736816 3.35297852 -18.59106445 2.50048828 C-12.99239526 -2.30487024 -6.73576573 -2.91716248 0 0 Z " fill="#ffffff" transform="translate(198.1875,261.5625)"/>
<path d="M0 0 C4.13640499 2.29711034 6.3996439 4.9056974 7.8125 9.4375 C8.71236832 15.37456223 7.8219207 19.21046994 4.8125 24.4375 C2.60790106 27.07725625 0.2018139 29.49257468 -2.234375 31.91796875 C-2.92380188 32.61263748 -3.61322876 33.30730621 -4.32354736 34.02302551 C-5.77897846 35.48485955 -7.23827257 36.94285644 -8.70117188 38.3972168 C-10.92852219 40.61605649 -13.13657867 42.85290483 -15.34375 45.09179688 C-16.76449316 46.51415229 -18.18633269 47.93541359 -19.609375 49.35546875 C-20.26379578 50.0211235 -20.91821655 50.68677826 -21.59246826 51.37260437 C-26.0268331 55.74098712 -30.19201339 59.08589718 -36.62890625 59.65234375 C-37.67884766 59.51505859 -37.67884766 59.51505859 -38.75 59.375 C-39.45253906 59.30152344 -40.15507812 59.22804688 -40.87890625 59.15234375 C-48.32840552 56.84564601 -53.6001533 50.35765624 -58.9375 45 C-60.23107422 43.7305957 -60.23107422 43.7305957 -61.55078125 42.43554688 C-62.37449219 41.61248047 -63.19820312 40.78941406 -64.046875 39.94140625 C-64.79420898 39.19705322 -65.54154297 38.4527002 -66.31152344 37.68579102 C-69.91434047 33.36794327 -70.65603765 29.18561807 -70.4921875 23.71484375 C-69.98789886 19.94560942 -68.77333848 17.23339259 -66.1875 14.4375 C-61.48655049 10.99081685 -57.03334681 9.67970504 -51.1875 10.4375 C-45.61730198 12.41027846 -42.11641176 16.19474026 -38.1875 20.4375 C-34.75666005 18.96679627 -32.60955931 17.05793906 -30.03515625 14.375 C-29.25849609 13.57835937 -28.48183594 12.78171875 -27.68164062 11.9609375 C-26.06242648 10.2805964 -24.44523192 8.59830681 -22.83007812 6.9140625 C-22.05212891 6.11742187 -21.27417969 5.32078125 -20.47265625 4.5 C-19.77019775 3.76910156 -19.06773926 3.03820312 -18.34399414 2.28515625 C-12.86403106 -2.41000515 -6.52880643 -2.82753141 0 0 Z " fill="#ffffff" transform="translate(198.1875,344.5625)"/>
</svg>
