<svg width="52" height="52" viewBox="0 0 52 52" fill="none" xmlns="http://www.w3.org/2000/svg">
<g clip-path="url(#clip0_4441_3706)">
<path d="M25.9608 -0.0322704C26.0642 -0.0320515 26.1676 -0.0318326 26.2741 -0.0316071C27.7578 -0.0265624 29.2134 -0.00108074 30.6708 0.304155C30.7698 0.324333 30.8688 0.344512 30.9708 0.365301C35.8504 1.38602 40.3389 3.57942 43.9247 7.06791C44.1343 7.26394 44.3606 7.43768 44.5848 7.61666C44.6964 7.73393 44.8045 7.85457 44.9086 7.97847C45.108 8.21308 45.3086 8.44268 45.5207 8.666C49.1093 12.4523 51.2397 17.6214 51.8973 22.7495C51.9106 22.8514 51.9106 22.8514 51.9241 22.9554C51.9936 23.5296 52.0181 24.0967 52.0231 24.6748C52.0241 24.7695 52.0251 24.8643 52.0261 24.9619C52.0437 27.0668 52.0272 29.1102 51.5927 31.1792C51.5714 31.2823 51.5502 31.3854 51.5283 31.4916C51.1204 33.4115 50.4856 35.2877 49.663 37.0698C49.7162 37.0984 49.7695 37.1271 49.8243 37.1566C50.0672 37.2877 50.3094 37.4199 50.5516 37.5522C50.6354 37.5972 50.7192 37.6423 50.8055 37.6887C51.814 38.2417 51.814 38.2417 51.9989 38.7963C52.0161 38.9757 52.0259 39.1558 52.0306 39.3359C52.0344 39.4298 52.0382 39.5236 52.0421 39.6203C51.9405 40.3097 51.4096 40.7143 50.9008 41.1323C50.8407 41.1826 50.7807 41.2328 50.7189 41.2846C50.5982 41.3857 50.4773 41.4864 50.3562 41.5869C50.0547 41.8385 49.7573 42.0947 49.4598 42.351C49.5299 42.4334 49.5999 42.5157 49.6721 42.6006C52.053 45.4039 52.053 45.4039 52.0318 46.2945C51.9055 47.1408 51.1681 47.6217 50.5378 48.1113C50.2388 48.3491 49.9517 48.6009 49.663 48.851C49.157 49.2873 48.6447 49.7141 48.1252 50.1344C47.9054 50.3161 47.6893 50.4999 47.4746 50.6875C47.4122 50.7418 47.3498 50.7962 47.2856 50.8521C47.1646 50.9578 47.0441 51.064 46.9242 51.1707C46.3944 51.6331 45.8736 52.0588 45.1371 52.0502C45.0469 52.0513 44.9567 52.0523 44.8637 52.0534C44.1966 51.9244 43.7962 51.4259 43.3851 50.9267C43.3328 50.8645 43.2806 50.8023 43.2267 50.7382C43.069 50.55 42.9127 50.3609 42.7567 50.1713C42.71 50.1146 42.6633 50.0579 42.6152 49.9994C42.4157 49.7565 42.2171 49.5129 42.0196 49.2684C41.8449 49.05 41.8449 49.05 41.6395 48.851C41.4887 48.9834 41.4887 48.9834 41.3348 49.1184C39.2705 50.9233 39.2705 50.9233 38.3495 50.9101C37.9203 50.865 37.7167 50.7434 37.3739 50.476C37.2072 50.2451 37.092 50.0237 36.9677 49.7651C36.5885 49.8853 36.2178 50.0213 35.8477 50.1666C33.1024 51.2388 30.1982 51.997 27.2343 52.0237C27.142 52.0247 27.0497 52.0257 26.9545 52.0267C20.5721 52.0813 14.799 50.3641 9.7489 46.4135C9.69415 46.371 9.63939 46.3284 9.58297 46.2845C7.93359 44.9883 6.40297 43.4454 5.17859 41.7417C5.09087 41.6228 5.00306 41.5041 4.91516 41.3854C3.37717 39.2906 2.15008 36.9943 1.31922 34.5307C1.27726 34.4066 1.27726 34.4066 1.23446 34.2799C0.905597 33.2875 0.64841 32.2839 0.430544 31.2617C0.410358 31.1678 0.390172 31.0739 0.369374 30.9771C0.0349592 29.3311 -0.0392132 27.7128 -0.0328348 26.0376C-0.0326159 25.9341 -0.032397 25.8307 -0.0321715 25.7242C-0.0271243 24.2391 0.00391942 22.7869 0.303591 21.3276C0.323769 21.2248 0.343947 21.1219 0.364737 21.016C1.11325 17.2729 2.61585 13.7465 4.8739 10.6635C4.91616 10.6053 4.95841 10.5471 5.00195 10.4872C5.56302 9.71921 6.17411 9.01451 6.82779 8.32482C7.01877 8.12271 7.19933 7.91567 7.37528 7.70037C7.56995 7.46849 7.75349 7.2766 7.98425 7.08345C8.21671 6.88629 8.44396 6.688 8.66504 6.47804C10.0179 5.19571 11.5892 4.17393 13.202 3.24947C13.278 3.20589 13.354 3.16231 13.4323 3.11741C15.7115 1.82792 18.1813 0.976776 20.7367 0.431109C20.8306 0.410914 20.9246 0.39072 21.0213 0.369913C22.6673 0.0355821 24.2856 -0.0386494 25.9608 -0.0322704ZM27.5223 3.35103C27.5223 6.30041 27.5223 9.24978 27.5223 12.2885C29.8014 12.2885 32.0805 12.2885 34.4286 12.2885C33.9222 10.9227 33.9222 10.9227 33.3368 9.59712C33.2723 9.46292 33.2723 9.46292 33.2065 9.32601C32.5723 8.03226 31.8184 6.87815 30.8739 5.78853C30.8234 5.72451 30.7728 5.66049 30.7208 5.59453C29.9033 4.56915 28.7605 3.76376 27.5223 3.35103ZM22.2411 4.67134C22.1364 4.75304 22.0316 4.83473 21.9237 4.9189C19.7874 6.82299 18.5105 9.65283 17.5692 12.2885C19.8483 12.2885 22.1273 12.2885 24.4755 12.2885C24.4755 9.33916 24.4755 6.38978 24.4755 3.35103C23.7201 3.35103 22.7908 4.20741 22.2411 4.67134ZM34.0223 4.56978C34.1609 4.85852 34.316 5.1251 34.4913 5.39299C35.8309 7.47358 36.818 9.63782 37.6025 11.9827C37.6613 12.1837 37.6613 12.1837 37.7802 12.2885C37.9827 12.2981 38.1856 12.3005 38.3884 12.3001C38.5836 12.3 38.5836 12.3 38.7827 12.3C38.9258 12.2995 39.0689 12.299 39.2119 12.2984C39.3575 12.2983 39.5031 12.2981 39.6487 12.298C40.0326 12.2976 40.4164 12.2966 40.8003 12.2955C41.1917 12.2945 41.5831 12.294 41.9746 12.2935C42.7431 12.2924 43.5116 12.2907 44.2802 12.2885C43.9832 11.8366 43.6739 11.4213 43.3217 11.0127C43.2688 10.9514 43.216 10.8901 43.1616 10.8269C42.264 9.79801 41.3031 8.85364 40.2177 8.02291C40.1609 7.97921 40.1041 7.93552 40.0456 7.8905C39.1265 7.18709 38.179 6.55957 37.1708 5.99166C37.1074 5.95591 37.044 5.92017 36.9787 5.88335C35.5638 5.00207 35.5638 5.00207 34.0223 4.56978ZM17.8739 4.56978C14.0524 6.12315 9.89782 8.65493 7.71765 12.2885C9.86265 12.2885 12.0077 12.2885 14.2177 12.2885C14.5352 11.4961 14.5352 11.4961 14.8429 10.7004C15.5689 8.81416 16.3946 6.97453 17.5748 5.32391C17.8229 4.98285 17.8229 4.98285 17.8739 4.56978ZM5.6864 15.3354C5.05197 16.6494 5.05197 16.6494 4.50574 17.9951C4.47729 18.0741 4.44884 18.1531 4.41953 18.2345C3.72183 20.219 3.14734 22.3613 3.14734 24.476C6.16375 24.476 9.18015 24.476 12.288 24.476C12.3885 23.1354 12.4891 21.7948 12.5927 20.4135C12.8122 18.6997 13.0955 17.0385 13.4052 15.3354C10.858 15.3354 8.31078 15.3354 5.6864 15.3354ZM16.6552 15.3354C16.3961 16.3067 16.156 17.2442 15.9886 18.2299C15.9674 18.3544 15.9462 18.4788 15.9243 18.6071C15.7685 19.5576 15.6511 20.5089 15.557 21.4672C15.5444 21.5931 15.5319 21.719 15.5189 21.8487C15.4382 22.7346 15.4364 23.5786 15.4364 24.476C18.4193 24.476 21.4022 24.476 24.4755 24.476C24.4755 21.4596 24.4755 18.4432 24.4755 15.3354C21.8948 15.3354 19.3141 15.3354 16.6552 15.3354ZM27.5223 15.3354C27.5223 18.3518 27.5223 21.3682 27.5223 24.476C30.5052 24.476 33.4881 24.476 36.5614 24.476C36.5614 23.4551 36.5417 22.4775 36.4408 21.4672C36.4343 21.4007 36.4277 21.3342 36.421 21.2657C36.3197 20.2474 36.1813 19.239 36.0092 18.2299C35.9896 18.1145 35.97 17.9991 35.9498 17.8802C35.7938 17.0111 35.5721 16.1958 35.3427 15.3354C32.762 15.3354 30.1812 15.3354 27.5223 15.3354ZM38.5927 15.3354C38.7602 16.2738 38.9278 17.2123 39.1005 18.1792C39.1806 18.7173 39.2574 19.2519 39.3226 19.7915C39.338 19.9081 39.3534 20.0248 39.3693 20.1449C39.5481 21.5867 39.6128 23.0208 39.7098 24.476C42.7262 24.476 45.7427 24.476 48.8505 24.476C48.7616 23.2185 48.7616 23.2185 48.5775 21.9814C48.56 21.8872 48.5425 21.793 48.5245 21.6959C48.0869 19.4391 47.291 17.417 46.3114 15.3354C43.7642 15.3354 41.217 15.3354 38.5927 15.3354ZM3.14734 27.5229C3.21124 28.4813 3.2768 29.3566 3.47107 30.2841C3.49348 30.3928 3.5159 30.5014 3.53899 30.6133C3.99089 32.737 4.7155 34.7217 5.6864 36.6635C8.23359 36.6635 10.7808 36.6635 13.4052 36.6635C13.2376 35.7251 13.07 34.7867 12.8973 33.8198C12.8172 33.2816 12.7404 32.7471 12.6752 32.2075C12.6598 32.0908 12.6444 31.9742 12.6286 31.854C12.4497 30.4122 12.385 28.9782 12.288 27.5229C9.27156 27.5229 6.25515 27.5229 3.14734 27.5229ZM15.4364 27.5229C15.4364 28.5438 15.4561 29.5214 15.557 30.5317C15.5635 30.5982 15.5701 30.6647 15.5768 30.7332C15.6781 31.7516 15.8165 32.76 15.9886 33.769C16.0082 33.8844 16.0278 33.9998 16.048 34.1188C16.204 34.9879 16.4257 35.8031 16.6552 36.6635C19.2359 36.6635 21.8166 36.6635 24.4755 36.6635C24.4755 33.6471 24.4755 30.6307 24.4755 27.5229C21.4926 27.5229 18.5097 27.5229 15.4364 27.5229ZM27.5223 27.5229C27.5223 30.5393 27.5223 33.5557 27.5223 36.6635C29.5333 36.6635 31.5442 36.6635 33.6161 36.6635C33.538 36.004 33.538 36.004 33.3988 35.3724C33.3761 35.288 33.3535 35.2036 33.3301 35.1166C33.3059 35.0281 33.2816 34.9396 33.2567 34.8485C33.2055 34.6563 33.1545 34.4641 33.1035 34.2719C33.0235 33.9724 32.943 33.6731 32.8614 33.374C32.7822 33.083 32.7051 32.7915 32.6282 32.4999C32.6036 32.4116 32.579 32.3233 32.5536 32.2324C32.396 31.6266 32.2777 30.9565 32.6043 30.3855C32.8838 30.0297 33.1677 29.8009 33.6149 29.7214C34.2941 29.7043 34.7966 29.9196 35.3998 30.2143C35.4925 30.2579 35.5853 30.3015 35.6809 30.3464C35.9075 30.4532 36.1332 30.5615 36.3583 30.6713C36.3934 30.4324 36.427 30.1933 36.4598 29.9541C36.4695 29.8893 36.4792 29.8246 36.4892 29.7579C36.5909 28.999 36.5614 28.3118 36.5614 27.5229C33.5785 27.5229 30.5956 27.5229 27.5223 27.5229ZM39.7098 27.5229C39.4977 29.8565 39.4977 29.8565 39.4052 32.1948C40.7716 32.8834 42.1402 33.5649 43.5227 34.2209C44.5614 34.7151 45.5892 35.2311 46.6161 35.7495C46.8648 35.5268 46.9873 35.334 47.1068 35.0235C47.1394 34.9392 47.172 34.8548 47.2056 34.768C47.2394 34.6771 47.2732 34.5863 47.308 34.4926C47.3434 34.3983 47.3789 34.304 47.4154 34.2068C48.1961 32.086 48.8505 29.7989 48.8505 27.5229C45.8341 27.5229 42.8177 27.5229 39.7098 27.5229ZM36.3583 34.226C36.4205 34.8113 36.5281 35.3637 36.6761 35.9328C36.698 36.0183 36.7198 36.1038 36.7423 36.1919C36.8141 36.4732 36.8867 36.7542 36.9593 37.0353C37.0101 37.2334 37.0609 37.4316 37.1116 37.6298C37.2454 38.1518 37.3797 38.6736 37.5141 39.1954C37.6488 39.7183 37.7828 40.2413 37.9168 40.7643C38.4088 42.6823 38.9022 44.5999 39.4052 46.5151C39.5349 46.418 39.6647 46.3208 39.7944 46.2236C39.8666 46.1695 39.9389 46.1154 40.0133 46.0597C40.3261 45.824 40.6331 45.5814 40.9405 45.3388C41.2602 45.098 41.4712 45.0718 41.868 45.0615C41.9628 45.0577 42.0576 45.0539 42.1553 45.05C42.8117 45.1456 43.2031 45.6229 43.601 46.1152C43.6485 46.1727 43.6961 46.2302 43.7452 46.2895C43.8905 46.4656 44.0347 46.6425 44.1786 46.8198C44.2668 46.9278 44.355 47.0359 44.4432 47.1439C44.5967 47.332 44.7498 47.5204 44.9022 47.7092C45.0598 47.8977 45.22 48.072 45.3973 48.2417C45.4797 48.1716 45.562 48.1016 45.6469 48.0294C46.2947 47.4794 46.9458 46.9346 47.6071 46.4008C47.7956 46.2432 47.9699 46.0831 48.1395 45.9057C47.9676 45.4856 47.6684 45.1745 47.3715 44.8393C45.6564 42.8731 45.6564 42.8731 45.6758 41.9027C45.7464 41.1953 46.1534 40.8722 46.6732 40.4404C46.9538 40.2192 47.2329 40.0102 47.5302 39.812C47.5302 39.7449 47.5302 39.6779 47.5302 39.6088C46.2333 38.9548 44.933 38.31 43.621 37.687C42.8634 37.3263 42.1129 36.9527 41.3635 36.5753C40.588 36.1859 39.8062 35.8106 39.0222 35.4385C38.3557 35.1216 37.6941 34.7963 37.0381 34.458C36.7148 34.2825 36.7148 34.2825 36.3583 34.226ZM7.71765 39.7104C8.01458 40.1623 8.32393 40.5776 8.67615 40.9863C8.72897 41.0476 8.78179 41.1089 8.8362 41.172C9.73376 42.2009 10.6947 43.1453 11.7802 43.976C11.8369 44.0197 11.8937 44.0634 11.9522 44.1084C12.8717 44.8121 13.8197 45.4372 14.827 46.0073C14.9205 46.0609 14.9205 46.0609 15.0158 46.1156C15.9687 46.6591 16.9397 47.0698 17.9755 47.4292C17.8369 47.1404 17.6818 46.8738 17.5065 46.6059C16.1669 44.5254 15.1798 42.3611 14.3953 40.0163C14.3366 39.8152 14.3366 39.8152 14.2177 39.7104C14.0151 39.7009 13.8122 39.6985 13.6094 39.6989C13.4143 39.6989 13.4143 39.6989 13.2151 39.6989C13.072 39.6994 12.9289 39.6999 12.7859 39.7005C12.6403 39.7007 12.4947 39.7008 12.3491 39.7009C11.9652 39.7013 11.5814 39.7023 11.1975 39.7034C10.8061 39.7045 10.4147 39.7049 10.0232 39.7054C9.25471 39.7065 8.48618 39.7083 7.71765 39.7104ZM17.5692 39.7104C18.0756 41.0762 18.0756 41.0762 18.661 42.4018C18.704 42.4913 18.747 42.5807 18.7913 42.6729C19.42 43.9554 20.1622 45.1495 21.1239 46.2104C21.1719 46.2634 21.2199 46.3164 21.2694 46.371C22.19 47.3736 23.1642 48.2108 24.4755 48.6479C24.4755 45.6985 24.4755 42.7492 24.4755 39.7104C22.1964 39.7104 19.9173 39.7104 17.5692 39.7104ZM27.5223 39.7104C27.5223 42.6598 27.5223 45.6092 27.5223 48.6479C28.3994 48.2971 28.9432 47.9975 29.6552 47.4292C29.7712 47.3384 29.7712 47.3384 29.8896 47.2459C32.0728 45.4324 33.5132 42.4324 34.4286 39.812C34.4286 39.7785 34.4286 39.7449 34.4286 39.7104C32.1495 39.7104 29.8705 39.7104 27.5223 39.7104ZM35.6473 44.687C35.573 44.8008 35.5038 44.9179 35.4367 45.0361C35.3942 45.1099 35.3518 45.1838 35.3081 45.2598C35.2629 45.3389 35.2178 45.418 35.1713 45.4995C34.889 45.9886 34.6106 46.468 34.2636 46.915C34.0016 47.1872 34.0016 47.1872 34.0223 47.4292C34.7784 47.2024 35.4564 46.8804 36.1552 46.5151C36.0496 45.8944 35.9361 45.2885 35.7489 44.687C35.7154 44.687 35.6819 44.687 35.6473 44.687Z" fill="url(#paint0_linear_4441_3706)"/>
</g>
<defs>
<linearGradient id="paint0_linear_4441_3706" x1="26.0045" y1="-0.0326385" x2="26.0045" y2="52.0534" gradientUnits="userSpaceOnUse">
<stop stop-color="#027DF0"/>
<stop offset="0.7" stop-color="#AB47FF"/>
</linearGradient>
<clipPath id="clip0_4441_3706">
<rect width="52" height="52" fill="white"/>
</clipPath>
</defs>
</svg>
