<svg width="36" height="36" viewBox="0 0 36 36" fill="none" xmlns="http://www.w3.org/2000/svg">
<rect width="36" height="36" rx="10" fill="#027DF0"/>
<path d="M18 28C23.5228 28 28 23.5228 28 18C28 12.4772 23.5228 8 18 8C12.4772 8 8 12.4772 8 18C8 23.5228 12.4772 28 18 28Z" stroke="white" stroke-width="1.97531" stroke-linecap="round" stroke-linejoin="round"/>
<path d="M18 24C21.3137 24 24 21.3137 24 18C24 14.6863 21.3137 12 18 12C14.6863 12 12 14.6863 12 18C12 21.3137 14.6863 24 18 24Z" stroke="white" stroke-width="1.97531" stroke-linecap="round" stroke-linejoin="round"/>
<path d="M18 19.9922C19.1046 19.9922 20 19.0968 20 17.9922C20 16.8876 19.1046 15.9922 18 15.9922C16.8954 15.9922 16 16.8876 16 17.9922C16 19.0968 16.8954 19.9922 18 19.9922Z" stroke="white" stroke-width="1.97531" stroke-linecap="round" stroke-linejoin="round"/>
</svg>
