<svg width="36" height="36" viewBox="0 0 36 36" fill="none" xmlns="http://www.w3.org/2000/svg">
<rect width="36" height="36" rx="10" fill="#FF34C5"/>
<path d="M15.4263 8.802C15.4708 8.83494 15.4708 8.83494 15.5162 8.86854C16.1694 9.37353 16.6727 10.2325 16.7562 11.0238C16.8295 12.0992 16.6252 12.9901 15.8834 13.8302C15.8532 13.8667 15.8532 13.8667 15.8224 13.9039C15.7054 14.0431 15.5737 14.1496 15.4263 14.259C15.5321 14.337 15.6321 14.4093 15.7587 14.4539C15.9011 14.4331 16.009 14.3747 16.1328 14.3077C17.013 13.8518 18.0317 13.7118 19.0148 13.9532C19.3591 14.048 19.6796 14.1863 19.9773 14.3735C20.0934 14.4444 20.0934 14.4444 20.2318 14.4539C20.351 14.4068 20.4659 14.3551 20.5799 14.2979C20.4971 14.1972 20.4135 14.1029 20.3176 14.0129C19.8659 13.5893 19.5726 13.1135 19.3746 12.5439C19.3547 12.4901 19.3547 12.4901 19.3344 12.4352C19.0586 11.5466 19.2468 10.572 19.7043 9.7718C19.8133 9.59195 19.9417 9.42951 20.0812 9.26974C20.1046 9.24191 20.128 9.21407 20.1521 9.18539C20.6906 8.57278 21.6065 8.10079 22.4502 8.02244C23.5616 7.95582 24.5235 8.12801 25.4011 8.802C25.4308 8.82396 25.4605 8.84592 25.491 8.86854C26.1443 9.37353 26.6475 10.2325 26.7311 11.0238C26.7982 12.0092 26.6555 12.9823 25.9349 13.7519C25.9096 13.7778 25.8843 13.8036 25.8583 13.8302C25.814 13.8805 25.7699 13.9308 25.7258 13.9812C25.6297 14.0896 25.5196 14.1727 25.4011 14.259C25.4383 14.2807 25.4755 14.3024 25.5138 14.3247C25.8245 14.508 26.1175 14.6993 26.3986 14.9216C26.4261 14.9417 26.4535 14.9618 26.4819 14.9825C27.0488 15.4122 27.4691 16.0623 27.7234 16.6951C27.7348 16.7233 27.7462 16.7514 27.7579 16.7804C27.9837 17.3777 27.9971 17.9589 27.996 18.5857C27.9961 18.6752 27.9964 18.7647 27.9966 18.8542C27.997 19.0405 27.9969 19.2269 27.9965 19.4133C27.996 19.652 27.9968 19.8906 27.998 20.1293C27.9988 20.3136 27.9988 20.4978 27.9986 20.6821C27.9986 20.7702 27.9988 20.8582 27.9993 20.9462C27.9999 21.069 27.9995 21.1917 27.9988 21.3144C27.9992 21.3506 27.9996 21.3867 28 21.424C27.9974 21.6396 27.9707 21.7701 27.8117 21.9377C27.6652 22.0347 27.5651 22.0693 27.3864 22.0702C27.322 22.0709 27.322 22.0709 27.2562 22.0716C27.1862 22.0716 27.1862 22.0716 27.1148 22.0715C27.0653 22.0719 27.0158 22.0723 26.9649 22.0727C26.8295 22.0737 26.6942 22.0741 26.5589 22.0744C26.4174 22.0747 26.2758 22.0757 26.1342 22.0767C25.8664 22.0784 25.5985 22.0795 25.3306 22.0804C25.0255 22.0815 24.7205 22.0832 24.4154 22.0849C23.7881 22.0886 23.1607 22.0914 22.5333 22.0936C22.5506 22.1336 22.568 22.1737 22.5858 22.2149C22.6086 22.2681 22.6315 22.3212 22.6543 22.3743C22.6657 22.4006 22.6771 22.4269 22.6888 22.454C22.7682 22.639 22.8309 22.8199 22.8788 23.0145C22.8885 23.0527 22.8885 23.0527 22.8984 23.0917C22.9159 23.1616 22.9325 23.2318 22.9489 23.3019C22.9563 23.3332 22.9637 23.3644 22.9713 23.3966C22.9896 23.492 22.9961 23.5788 22.9966 23.6755C22.9971 23.7276 22.9971 23.7276 22.9975 23.7807C22.9976 23.8182 22.9978 23.8558 22.9979 23.8945C22.9981 23.9345 22.9984 23.9744 22.9987 24.0156C22.9995 24.1475 23 24.2795 23.0004 24.4114C23.0006 24.4566 23.0008 24.5017 23.0009 24.5481C23.0018 24.7867 23.0024 25.0253 23.0028 25.2639C23.0032 25.5104 23.0047 25.7568 23.0063 26.0033C23.0074 26.1929 23.0078 26.3824 23.0079 26.572C23.0081 26.6628 23.0086 26.7537 23.0094 26.8446C23.0104 26.9717 23.0103 27.0987 23.01 27.2258C23.0108 27.282 23.0108 27.282 23.0117 27.3394C23.0098 27.5585 22.9869 27.6926 22.8243 27.8624C22.6366 28.0007 22.4713 27.996 22.2429 27.9944C22.2052 27.9946 22.1675 27.9949 22.1287 27.9951C22.0024 27.9956 21.8761 27.9954 21.7498 27.9951C21.6593 27.9953 21.5688 27.9956 21.4782 27.9959C21.2323 27.9966 20.9864 27.9965 20.7404 27.9963C20.5352 27.9962 20.33 27.9964 20.1247 27.9967C19.6406 27.9972 19.1565 27.9972 18.6724 27.9967C18.1728 27.9963 17.6731 27.9968 17.1735 27.9979C16.7447 27.9987 16.3159 27.999 15.887 27.9988C15.6308 27.9986 15.3747 27.9987 15.1185 27.9994C14.8776 28 14.6367 27.9998 14.3959 27.9991C14.3074 27.999 14.219 27.9991 14.1306 27.9995C14.0099 28 13.8893 27.9996 13.7686 27.9989C13.716 27.9994 13.716 27.9994 13.6624 28C13.4411 27.9974 13.3167 27.9599 13.1404 27.8234C12.9782 27.6488 12.9978 27.4583 12.9989 27.2383C12.9986 27.1991 12.9983 27.1599 12.998 27.1195C12.9972 26.9898 12.9974 26.8601 12.9976 26.7303C12.9975 26.6397 12.9972 26.549 12.997 26.4583C12.9966 26.2679 12.9967 26.0775 12.9971 25.8871C12.9976 25.6449 12.9968 25.4027 12.9956 25.1605C12.9948 24.9729 12.9948 24.7853 12.995 24.5977C12.995 24.5086 12.9948 24.4194 12.9943 24.3302C12.9906 23.5978 13.0823 22.9661 13.3897 22.2885C13.4175 22.2236 13.4452 22.1586 13.4728 22.0936C13.4471 22.0935 13.4214 22.0934 13.3949 22.0933C12.7688 22.091 12.1426 22.0881 11.5165 22.0844C11.2137 22.0827 10.9109 22.0811 10.6082 22.0801C10.3442 22.0792 10.0803 22.0779 9.81638 22.0761C9.67664 22.0752 9.53692 22.0745 9.39718 22.0742C9.24114 22.0738 9.08513 22.0727 8.9291 22.0715C8.88282 22.0715 8.83654 22.0716 8.78886 22.0716C8.74626 22.0712 8.70366 22.0707 8.65977 22.0702C8.62288 22.07 8.58598 22.0698 8.54797 22.0696C8.34606 22.0405 8.19347 21.9247 8.06895 21.7756C7.98701 21.6311 7.99985 21.4763 8.00201 21.3163C8.00172 21.2778 8.00142 21.2394 8.00111 21.1998C8.00041 21.0728 8.00122 20.9459 8.0021 20.8189C8.00207 20.73 8.00197 20.6412 8.0018 20.5523C8.00168 20.3658 8.00229 20.1793 8.00343 19.9928C8.00484 19.7556 8.0046 19.5184 8.00382 19.2812C8.00338 19.0974 8.00376 18.9136 8.00438 18.7298C8.00459 18.6425 8.00458 18.5552 8.00431 18.4678C8.00209 17.2787 8.3163 16.263 9.15041 15.3504C9.18256 15.3118 9.18256 15.3118 9.21535 15.2724C9.58382 14.8439 10.1108 14.5443 10.6051 14.259C10.5446 14.2143 10.5446 14.2143 10.483 14.1688C10.1523 13.902 9.89468 13.5662 9.69072 13.2066C9.66934 13.169 9.64796 13.1315 9.62594 13.0928C9.21299 12.3154 9.11823 11.3523 9.38355 10.5154C9.54723 10.0577 9.77974 9.64375 10.1063 9.26974C10.1297 9.24191 10.1532 9.21407 10.1773 9.18539C11.4638 7.72167 13.9091 7.63675 15.4263 8.802ZM11.1035 10.0581C10.6219 10.6115 10.4981 11.222 10.5635 11.9203C10.6583 12.5278 11.0393 13.0126 11.5376 13.3941C12.1271 13.8013 12.8004 13.9168 13.5191 13.8182C14.1638 13.6989 14.6871 13.3186 15.0718 12.8288C15.4615 12.2764 15.5757 11.6325 15.4391 10.9828C15.261 10.3435 14.807 9.82404 14.2042 9.48671C13.1192 8.94498 11.9089 9.22047 11.1035 10.0581ZM21.0783 10.0581C20.5967 10.6115 20.4729 11.222 20.5384 11.9203C20.6332 12.5278 21.0141 13.0126 21.5125 13.3941C22.102 13.8013 22.7753 13.9168 23.4939 13.8182C24.1387 13.6989 24.662 13.3186 25.0467 12.8288C25.4363 12.2764 25.5505 11.6325 25.4139 10.9828C25.2359 10.3435 24.7818 9.82404 24.1791 9.48671C23.0941 8.94498 21.8838 9.22047 21.0783 10.0581ZM10.231 16.052C10.2003 16.0804 10.1695 16.1088 10.1378 16.1381C9.65161 16.6154 9.38996 17.2331 9.31165 17.8831C9.30816 17.9116 9.30468 17.9402 9.30109 17.9696C9.2668 18.273 9.26453 18.5745 9.26698 18.8793C9.26714 18.9377 9.26725 18.9962 9.26734 19.0547C9.26765 19.2061 9.26846 19.3575 9.26939 19.5089C9.27025 19.6644 9.27062 19.8199 9.27104 19.9755C9.27192 20.2787 9.27333 20.582 9.2751 20.8853C9.94529 20.8926 10.6155 20.8981 11.2857 20.9014C11.5969 20.903 11.9081 20.9052 12.2193 20.9088C12.4907 20.9119 12.7621 20.9139 13.0335 20.9146C13.1771 20.915 13.3207 20.916 13.4643 20.9182C13.6249 20.9208 13.7855 20.9208 13.9462 20.9207C13.9933 20.9218 14.0404 20.9229 14.0889 20.9241C14.4521 20.9206 14.6255 20.8004 14.8859 20.5735C14.9779 20.5129 15.072 20.4613 15.1691 20.4078C15.3349 20.3161 15.4863 20.2215 15.6341 20.1057C15.5938 20.076 15.5535 20.0462 15.512 20.0156C15.1813 19.7488 14.9237 19.413 14.7197 19.0533C14.6876 18.997 14.6876 18.997 14.6549 18.9396C14.2356 18.1501 14.1492 17.1838 14.4203 16.3367C14.4949 16.1445 14.5789 15.9611 14.6781 15.7791C14.7076 15.7233 14.7076 15.7233 14.7376 15.6663C14.7864 15.5737 14.8359 15.4814 14.8859 15.3893C13.3507 14.733 11.4329 14.9117 10.231 16.052ZM21.1202 15.3893C21.1328 15.4125 21.1454 15.4357 21.1584 15.4595C21.2156 15.5657 21.2718 15.6724 21.328 15.7791C21.3459 15.8119 21.3638 15.8447 21.3823 15.8785C21.7845 16.6506 21.8671 17.6459 21.5684 18.4651C21.3892 18.9133 21.1761 19.3216 20.8293 19.6769C20.7927 19.7198 20.7563 19.7629 20.7202 19.8061C20.6121 19.9208 20.5 20.0109 20.3721 20.1057C20.4997 20.2094 20.6319 20.292 20.7773 20.3713C21.0169 20.5033 21.2355 20.658 21.4444 20.8299C21.5564 20.8977 21.6205 20.8997 21.7531 20.8993C21.797 20.8995 21.841 20.8997 21.8862 20.8998C21.9342 20.8994 21.9822 20.899 22.0316 20.8986C22.0823 20.8986 22.133 20.8986 22.1852 20.8986C22.3241 20.8985 22.4629 20.898 22.6018 20.8971C22.7469 20.8964 22.8921 20.8963 23.0373 20.8962C23.3121 20.8958 23.5869 20.8949 23.8617 20.8937C24.1746 20.8924 24.4875 20.8917 24.8004 20.8912C25.4439 20.8899 26.0875 20.8879 26.7311 20.8853C26.733 20.5511 26.7345 20.217 26.7354 19.8829C26.7358 19.7276 26.7364 19.5724 26.7373 19.4172C26.7383 19.2668 26.7387 19.1164 26.739 18.966C26.7391 18.9092 26.7394 18.8525 26.7399 18.7957C26.7422 18.4892 26.7317 18.1878 26.6945 17.8831C26.6913 17.8567 26.6882 17.8302 26.6849 17.803C26.5837 17.0502 26.217 16.4602 25.6505 15.935C25.6201 15.9062 25.5898 15.8774 25.5586 15.8476C24.8166 15.1828 23.817 15.0165 22.826 15.0312C22.2265 15.0532 21.6683 15.1503 21.1202 15.3893ZM16.0909 15.9049C15.6093 16.4582 15.4855 17.0688 15.5509 17.767C15.6457 18.3745 16.0267 18.8594 16.525 19.2409C17.1145 19.6481 17.7878 19.7635 18.5065 19.6649C19.1512 19.5457 19.6746 19.1654 20.0593 18.6755C20.4489 18.1232 20.5631 17.4792 20.4265 16.8296C20.2484 16.1903 19.7944 15.6708 19.1917 15.3335C18.1067 14.7917 16.8964 15.0672 16.0909 15.9049ZM15.2184 21.8987C15.1877 21.9272 15.1569 21.9556 15.1253 21.9849C13.856 23.2308 14.2625 25.317 14.2625 26.81C16.7313 26.81 19.2001 26.81 21.7437 26.81C21.9424 24.1452 21.9424 24.1452 20.7757 21.8862C20.7385 21.8518 20.7014 21.8173 20.663 21.7818C20.6176 21.7385 20.6176 21.7385 20.5712 21.6944C19.8294 21.0298 18.8289 20.8626 17.8381 20.8781C16.7958 20.9165 15.9573 21.1977 15.2184 21.8987Z" fill="white"/>
</svg>
