<svg width="23" height="19" viewBox="0 0 23 19" fill="none" xmlns="http://www.w3.org/2000/svg">
<path d="M1.01427 0.00482189C1.05571 0.00323066 1.09715 0.00163944 1.13985 0C1.55792 0.0623944 1.84567 0.304109 2.13299 0.57181C2.17173 0.607103 2.21048 0.642395 2.2504 0.678757C2.35705 0.775931 2.46301 0.873708 2.56887 0.971603C2.68347 1.07736 2.7987 1.18254 2.91386 1.28779C3.11299 1.46996 3.31173 1.65248 3.5102 1.83526C3.79714 2.09952 4.08469 2.36323 4.37239 2.62681C4.8392 3.05452 5.30552 3.48267 5.77154 3.9111C6.22409 4.32715 6.67686 4.74298 7.12995 5.15853C7.1579 5.18417 7.18585 5.20981 7.21466 5.23623C7.3549 5.36486 7.49516 5.49348 7.63541 5.6221C8.79792 6.68821 9.95964 7.75504 11.1208 8.82234C11.2607 8.76599 11.3538 8.69853 11.4613 8.59964C11.4939 8.56976 11.5266 8.53988 11.5603 8.50909C11.5959 8.47612 11.6315 8.44315 11.6682 8.40918C11.7253 8.35681 11.7253 8.35681 11.7836 8.30338C11.8893 8.2064 11.9947 8.10924 12.1001 8.01201C12.2138 7.90719 12.3277 7.80261 12.4416 7.698C12.6391 7.51667 12.8363 7.3352 13.0335 7.15365C13.3453 6.86663 13.6574 6.58 13.9697 6.29342C14.0765 6.19536 14.1834 6.09729 14.2902 5.99922C14.3169 5.97471 14.3436 5.9502 14.3711 5.92495C14.6751 5.64594 14.9789 5.36684 15.2827 5.08771C15.3105 5.0622 15.3382 5.03668 15.3668 5.01039C15.8167 4.59701 16.2664 4.1834 16.7159 3.76974C17.1776 3.34496 17.6397 2.92058 18.1021 2.49651C18.3873 2.23498 18.6721 1.97314 18.9565 1.71088C19.1514 1.53111 19.3468 1.3517 19.5425 1.17257C19.6554 1.06925 19.768 0.965777 19.8802 0.861861C20.002 0.749082 20.1246 0.637088 20.2473 0.525154C20.3 0.475965 20.3 0.475965 20.3537 0.425782C20.5989 0.203912 20.8352 0.0531211 21.18 0.00108881C21.5148 0.00446084 21.7485 0.0414473 21.9957 0.256027C22.2626 0.521338 22.3229 0.729506 22.3145 1.08897C22.2624 1.59819 21.6894 1.98208 21.3179 2.32177C21.2776 2.35871 21.2374 2.39566 21.1959 2.43373C21.0855 2.53514 20.9749 2.63643 20.8643 2.73769C20.7446 2.84736 20.625 2.95714 20.5053 3.06691C20.2444 3.30625 19.9834 3.54544 19.7223 3.78459C19.5591 3.93405 19.396 4.08354 19.2328 4.23304C18.7806 4.64743 18.3284 5.06179 17.876 5.47601C17.8326 5.51568 17.8326 5.51568 17.7884 5.55614C17.7595 5.58265 17.7306 5.60915 17.7007 5.63646C17.6421 5.69015 17.5834 5.74385 17.5248 5.79755C17.4957 5.82419 17.4666 5.85082 17.4366 5.87826C16.9646 6.31048 16.4929 6.74296 16.0212 7.17555C15.5364 7.62031 15.0512 8.06484 14.5659 8.50915C14.2936 8.75838 14.0215 9.00771 13.7496 9.25728C13.5183 9.4696 13.2868 9.68171 13.055 9.89356C12.9368 10.0016 12.8187 10.1097 12.7009 10.2181C12.5731 10.3357 12.4448 10.4528 12.3164 10.5699C12.2609 10.6211 12.2609 10.6211 12.2044 10.6734C11.8979 10.9516 11.6214 11.1738 11.1752 11.1816C11.1405 11.1827 11.1057 11.1837 11.0699 11.1848C10.7776 11.1537 10.5653 11.0465 10.354 10.8601C10.3306 10.8396 10.3071 10.8191 10.283 10.798C10.1991 10.7241 10.1161 10.6493 10.0332 10.5744C10.0005 10.5449 9.9677 10.5155 9.93394 10.4851C9.67027 10.2478 9.40844 10.0088 9.14692 9.76952C9.02826 9.66099 8.90948 9.55257 8.79071 9.44413C8.53211 9.20797 8.27367 8.97166 8.01527 8.73532C7.85372 8.58756 7.69214 8.43984 7.53055 8.29211C7.08239 7.8824 6.63427 7.47265 6.18631 7.06276C6.14347 7.02356 6.14347 7.02356 6.09976 6.98357C6.07113 6.95737 6.04251 6.93118 6.01301 6.9042C5.95502 6.85113 5.89703 6.79807 5.83903 6.745C5.79588 6.70552 5.79588 6.70552 5.75186 6.66524C5.28472 6.23783 4.8173 5.81069 4.34974 5.38366C3.86874 4.94434 3.38798 4.5048 2.90747 4.06503C2.63805 3.81847 2.36852 3.572 2.09873 3.32578C1.86931 3.11641 1.64012 2.90683 1.41121 2.69699C1.29452 2.59002 1.17772 2.48315 1.06063 2.37654C0.933597 2.26087 0.807078 2.14473 0.6806 2.02855C0.643703 1.9951 0.606805 1.96165 0.568789 1.92718C0.257715 1.64006 0.0238218 1.38753 0.0136719 0.970444C0.01747 0.685693 0.0676681 0.5093 0.282684 0.302223C0.50958 0.110642 0.699831 0.0113542 1.01427 0.00482189Z" fill="#CCCCCC"/>
<path d="M1.49904 7.49828C1.85064 7.68344 2.14128 8.00383 2.42605 8.26545C2.46355 8.29974 2.50105 8.33403 2.53969 8.36936C2.64245 8.46337 2.74512 8.55746 2.84774 8.65159C2.95893 8.75353 3.07023 8.85535 3.18152 8.95719C3.37389 9.13324 3.56619 9.30937 3.75842 9.48555C4.03636 9.74027 4.31441 9.99488 4.5925 10.2495C5.04377 10.6626 5.49495 11.0758 5.94606 11.4891C6.38404 11.8903 6.82206 12.2916 7.26015 12.6927C7.28719 12.7175 7.31424 12.7422 7.3421 12.7677C7.47779 12.892 7.61348 13.0162 7.74917 13.1405C8.87323 14.1698 9.99714 15.1992 11.1209 16.2287C11.2604 16.1724 11.3536 16.1052 11.4609 16.0066C11.5098 15.962 11.5098 15.962 11.5597 15.9165C11.5952 15.8837 11.6307 15.8508 11.6673 15.817C11.7052 15.7823 11.7432 15.7475 11.7823 15.7117C11.8876 15.6152 11.9927 15.5185 12.0978 15.4217C12.2111 15.3174 12.3247 15.2133 12.4383 15.1092C12.635 14.9287 12.8317 14.7481 13.0282 14.5674C13.3126 14.3059 13.5973 14.0446 13.8822 13.7835C14.3446 13.3595 14.8068 12.9353 15.269 12.5111C15.2966 12.4857 15.3243 12.4603 15.3528 12.4341C15.6614 12.1508 15.9699 11.8675 16.2784 11.5841C16.3902 11.4814 16.502 11.3787 16.6138 11.276C16.6414 11.2507 16.669 11.2253 16.6974 11.1992C17.1576 10.7766 17.618 10.3542 18.0786 9.93195C18.3627 9.67151 18.6466 9.41088 18.9301 9.14999C19.1245 8.97119 19.3191 8.7926 19.5139 8.61419C19.6263 8.51125 19.7386 8.40822 19.8505 8.30493C19.972 8.19289 20.094 8.08132 20.216 7.96979C20.2688 7.92084 20.2688 7.92084 20.3227 7.87089C20.6089 7.61052 20.8703 7.4297 21.2846 7.41364C21.578 7.41721 21.8188 7.51585 22.0357 7.69596C22.2333 7.89652 22.3144 8.07947 22.3206 8.35189C22.3223 8.39352 22.324 8.43515 22.3258 8.47804C22.2586 8.87928 21.9775 9.14757 21.6726 9.42315C21.6306 9.46191 21.5885 9.50071 21.5465 9.53955C21.4318 9.6454 21.3163 9.75064 21.2008 9.85577C21.076 9.96955 20.9518 10.0839 20.8276 10.1982C20.5844 10.4217 20.3406 10.6446 20.0966 10.8674C19.8983 11.0485 19.7001 11.2298 19.5021 11.4112C19.4598 11.45 19.4598 11.45 19.4166 11.4896C19.3593 11.5421 19.3019 11.5946 19.2446 11.6472C18.7075 12.1394 18.1697 12.631 17.6316 13.1224C17.1703 13.5437 16.7096 13.9656 16.2493 14.3878C15.7143 14.8785 15.179 15.369 14.643 15.8589C14.5859 15.9112 14.5287 15.9634 14.4715 16.0157C14.4434 16.0414 14.4152 16.0672 14.3862 16.0937C14.1884 16.2746 13.9907 16.4558 13.7932 16.6371C13.5524 16.8581 13.3111 17.0787 13.0694 17.2989C12.9461 17.4112 12.8231 17.5236 12.7005 17.6365C12.5881 17.74 12.4752 17.8429 12.3619 17.9456C12.302 18.0001 12.2426 18.0551 12.1832 18.1102C11.9202 18.3471 11.6521 18.5356 11.2841 18.6045C11.2249 18.6037 11.2249 18.6037 11.1644 18.6029C11.125 18.6034 11.0855 18.6039 11.0448 18.6045C10.6164 18.5243 10.3281 18.2793 10.0294 18.0024C9.98705 17.9639 9.94466 17.9254 9.90223 17.887C9.78658 17.7819 9.67161 17.6763 9.55674 17.5705C9.43244 17.4563 9.3075 17.3427 9.18265 17.2289C8.93849 17.0063 8.69491 16.7832 8.45155 16.5599C8.25369 16.3783 8.05561 16.1969 7.85739 16.0157C7.82913 15.9899 7.80088 15.9641 7.77177 15.9375C7.71437 15.885 7.65697 15.8325 7.59957 15.78C7.0618 15.2884 6.5247 14.7961 5.98782 14.3036C5.52751 13.8814 5.06664 13.4597 4.60534 13.0384C4.06917 12.5488 3.53336 12.0587 2.99811 11.5682C2.94099 11.5159 2.88388 11.4635 2.82676 11.4112C2.78461 11.3726 2.78461 11.3726 2.74161 11.3332C2.54392 11.152 2.34597 10.9712 2.14793 10.7904C1.90647 10.5699 1.6654 10.3491 1.42482 10.1278C1.30215 10.015 1.17932 9.9024 1.056 9.79019C0.942967 9.68732 0.830451 9.584 0.718318 9.48031C0.658744 9.42546 0.598638 9.37109 0.538511 9.31674C0.276351 9.07298 0.06667 8.82563 0 8.48224C0.00722196 8.17505 0.0377707 7.9493 0.270032 7.71882C0.611891 7.42988 1.0616 7.32024 1.49904 7.49828Z" fill="#CCCCCC"/>
</svg>
