<svg width="32" height="32" viewBox="0 0 32 32" fill="none" xmlns="http://www.w3.org/2000/svg">
<path d="M21.3337 4C20.6264 4 19.9481 4.28095 19.448 4.78105C18.9479 5.28115 18.667 5.95942 18.667 6.66667V14.6667C18.667 15.3739 18.9479 16.0522 19.448 16.5523C19.9481 17.0524 20.6264 17.3333 21.3337 17.3333C21.6873 17.3333 22.0264 17.4738 22.2765 17.7239C22.5265 17.9739 22.667 18.313 22.667 18.6667V20C22.667 20.7072 22.386 21.3855 21.8859 21.8856C21.3858 22.3857 20.7076 22.6667 20.0003 22.6667C19.6467 22.6667 19.3076 22.8071 19.0575 23.0572C18.8075 23.3072 18.667 23.6464 18.667 24V26.6667C18.667 27.0203 18.8075 27.3594 19.0575 27.6095C19.3076 27.8595 19.6467 28 20.0003 28C22.1221 28 24.1569 27.1571 25.6572 25.6569C27.1575 24.1566 28.0003 22.1217 28.0003 20V6.66667C28.0003 5.95942 27.7194 5.28115 27.2193 4.78105C26.7192 4.28095 26.0409 4 25.3337 4H21.3337Z" stroke="url(#paint0_linear_5476_865)" stroke-width="2.66667" stroke-linecap="round" stroke-linejoin="round"/>
<path d="M6.66667 4C5.95942 4 5.28115 4.28095 4.78105 4.78105C4.28095 5.28115 4 5.95942 4 6.66667V14.6667C4 15.3739 4.28095 16.0522 4.78105 16.5523C5.28115 17.0524 5.95942 17.3333 6.66667 17.3333C7.02029 17.3333 7.35943 17.4738 7.60948 17.7239C7.85952 17.9739 8 18.313 8 18.6667V20C8 20.7072 7.71905 21.3855 7.21895 21.8856C6.71885 22.3857 6.04058 22.6667 5.33333 22.6667C4.97971 22.6667 4.64057 22.8071 4.39052 23.0572C4.14048 23.3072 4 23.6464 4 24V26.6667C4 27.0203 4.14048 27.3594 4.39052 27.6095C4.64057 27.8595 4.97971 28 5.33333 28C7.45507 28 9.4899 27.1571 10.9902 25.6569C12.4905 24.1566 13.3333 22.1217 13.3333 20V6.66667C13.3333 5.95942 13.0524 5.28115 12.5523 4.78105C12.0522 4.28095 11.3739 4 10.6667 4H6.66667Z" stroke="url(#paint1_linear_5476_865)" stroke-width="2.66667" stroke-linecap="round" stroke-linejoin="round"/>
<defs>
<linearGradient id="paint0_linear_5476_865" x1="23.3337" y1="4" x2="23.3337" y2="28" gradientUnits="userSpaceOnUse">
<stop stop-color="#027DF0"/>
<stop offset="1" stop-color="#AB47FF"/>
</linearGradient>
<linearGradient id="paint1_linear_5476_865" x1="8.66667" y1="4" x2="8.66667" y2="28" gradientUnits="userSpaceOnUse">
<stop stop-color="#027DF0"/>
<stop offset="1" stop-color="#AB47FF"/>
</linearGradient>
</defs>
</svg>
