<?xml version="1.0" encoding="UTF-8"?>
<svg version="1.1" xmlns="http://www.w3.org/2000/svg" width="512" height="512">
<path d="M0 0 C1.01790619 0.00215515 2.03581238 0.0043103 3.08456421 0.00653076 C17.69363523 0.05620146 32.02575853 0.30709809 46.375 3.3125 C47.34985352 3.51117676 48.32470703 3.70985352 49.32910156 3.91455078 C97.37402273 13.96468706 141.56847595 35.56129574 176.87475586 69.90942383 C178.93859956 71.83959628 181.16756034 73.55032168 183.375 75.3125 C184.47309154 76.46716769 185.5374861 77.65499631 186.5625 78.875 C188.5262211 81.18501171 190.50144722 83.44563755 192.58984375 85.64453125 C227.92334533 122.92509775 248.89949109 173.82031937 255.375 224.3125 C255.50538162 225.31636749 255.50538162 225.31636749 255.63839722 226.34051514 C256.32285735 231.99415419 256.56375037 237.57749557 256.61328125 243.26953125 C256.6230751 244.20225357 256.63286896 245.13497589 256.64295959 246.09596252 C256.81566965 266.82192122 256.65385844 286.94119923 252.375 307.3125 C252.16601074 308.32779785 251.95702148 309.3430957 251.74169922 310.38916016 C247.72511811 329.29266509 241.47503088 347.76608918 233.375 365.3125 C233.89932617 365.59448242 234.42365234 365.87646484 234.96386719 366.16699219 C237.35492047 367.45822441 239.73994219 368.76022917 242.125 370.0625 C242.95 370.5059375 243.775 370.949375 244.625 371.40625 C254.5546875 376.8515625 254.5546875 376.8515625 256.375 382.3125 C256.54409702 384.07831641 256.64089922 385.8517178 256.6875 387.625 C256.72488281 388.54925781 256.76226563 389.47351563 256.80078125 390.42578125 C255.79965445 397.21323726 250.57278611 401.19709922 245.5625 405.3125 C244.97146484 405.8075 244.38042969 406.3025 243.77148438 406.8125 C242.58351662 407.80743919 241.39326671 408.79966021 240.20068359 409.7890625 C237.23235756 412.26597537 234.30383832 414.78912431 231.375 417.3125 C232.06464844 418.12332031 232.75429688 418.93414062 233.46484375 419.76953125 C256.90725071 447.37127781 256.90725071 447.37127781 256.69921875 456.140625 C255.45524157 464.47377337 248.19478347 469.20871137 241.98876953 474.02929688 C239.04432555 476.37059757 236.21773206 478.8496007 233.375 481.3125 C228.39299575 485.60837608 223.34864784 489.81089442 218.234375 493.94921875 C216.07016354 495.73794544 213.94204805 497.54795729 211.828125 499.39453125 C211.21388672 499.92949219 210.59964844 500.46445312 209.96679688 501.015625 C208.77609635 502.05606745 207.58958412 503.1013313 206.40820312 504.15234375 C201.19196533 508.7051394 196.06453162 512.89694869 188.8125 512.8125 C187.92433594 512.8228125 187.03617187 512.833125 186.12109375 512.84375 C179.55226379 511.5729664 175.6100243 506.6649467 171.5625 501.75 C171.04768066 501.13737305 170.53286133 500.52474609 170.00244141 499.89355469 C168.45029364 498.04097572 166.91034079 496.17902216 165.375 494.3125 C164.91528809 493.75385254 164.45557617 493.19520508 163.98193359 492.61962891 C162.01776567 490.22773806 160.06190126 487.82961584 158.1171875 485.421875 C156.39722481 483.27145522 156.39722481 483.27145522 154.375 481.3125 C152.89 482.61574219 152.89 482.61574219 151.375 483.9453125 C131.04893059 501.71679554 131.04893059 501.71679554 121.98046875 501.5859375 C117.75443963 501.1424262 115.75012814 499.94509995 112.375 497.3125 C110.73387834 495.0383047 109.59893955 492.85829427 108.375 490.3125 C104.64136421 491.49618217 100.99201335 492.83551837 97.34765625 494.265625 C70.31721092 504.82291633 41.72151293 512.28870462 12.5390625 512.55078125 C11.62999649 512.5605751 10.72093048 512.57036896 9.78431702 512.58045959 C-53.05823802 513.11783268 -109.90140301 496.21023283 -159.625 457.3125 C-160.16415039 456.89339355 -160.70330078 456.47428711 -161.25878906 456.04248047 C-177.49886305 443.27946125 -192.56962343 428.08823511 -204.625 411.3125 C-205.4887527 410.14261544 -206.35335469 408.9733575 -207.21875 407.8046875 C-222.36207742 387.1786757 -234.4442165 364.56952873 -242.625 340.3125 C-243.03806396 339.08998535 -243.03806396 339.08998535 -243.45947266 337.84277344 C-246.69755506 328.07192323 -249.22985473 318.19031263 -251.375 308.125 C-251.57375732 307.20033936 -251.77251465 306.27567871 -251.97729492 305.32299805 C-255.26999027 289.11638823 -256.00030278 273.1821298 -255.9375 256.6875 C-255.93534485 255.66926147 -255.9331897 254.65102295 -255.93096924 253.60192871 C-255.88127396 238.98002576 -255.57561242 224.68116068 -252.625 210.3125 C-252.42632324 209.29994141 -252.22764648 208.28738281 -252.02294922 207.24414062 C-244.65299943 170.38887112 -229.85817801 135.66776148 -207.625 105.3125 C-207.20895508 104.73951172 -206.79291016 104.16652344 -206.36425781 103.57617188 C-200.8398153 96.01456381 -194.82292517 89.07595048 -188.38671875 82.28515625 C-186.50631657 80.29518423 -184.72849377 78.25664656 -182.99609375 76.13671875 C-181.07929393 73.85361122 -179.27211124 71.96426711 -177 70.0625 C-174.71117944 68.12124108 -172.47365787 66.16877576 -170.296875 64.1015625 C-156.97621697 51.47554002 -141.50555353 41.41485161 -125.625 32.3125 C-124.87669922 31.88340332 -124.12839844 31.45430664 -123.35742188 31.01220703 C-100.91630054 18.31576285 -76.59869762 9.93522499 -51.4375 4.5625 C-50.51267822 4.36366211 -49.58785645 4.16482422 -48.63500977 3.95996094 C-32.42831484 0.66808631 -16.49462105 -0.0628085 0 0 Z M15.375 33.3125 C15.375 62.3525 15.375 91.3925 15.375 121.3125 C37.815 121.3125 60.255 121.3125 83.375 121.3125 C78.3888774 107.86480245 78.3888774 107.86480245 72.625 94.8125 C71.9899353 93.49113037 71.9899353 93.49113037 71.34204102 92.14306641 C65.09733216 79.40464425 57.67432885 68.04110312 48.375 57.3125 C47.87742187 56.68214844 47.37984375 56.05179688 46.8671875 55.40234375 C38.81792002 45.30626253 27.56642714 37.37630905 15.375 33.3125 Z M-36.625 46.3125 C-37.65625 47.116875 -38.6875 47.92125 -39.75 48.75 C-60.78430796 67.49797013 -73.35662219 95.36104213 -82.625 121.3125 C-60.185 121.3125 -37.745 121.3125 -14.625 121.3125 C-14.625 92.2725 -14.625 63.2325 -14.625 33.3125 C-22.06256526 33.3125 -31.21276111 41.74457038 -36.625 46.3125 Z M79.375 45.3125 C80.73895371 48.15546364 82.26652425 50.78027333 83.9921875 53.41796875 C97.18212602 73.90377133 106.90108152 95.21319635 114.62573242 118.30078125 C115.20427328 120.28038584 115.20427328 120.28038584 116.375 121.3125 C118.3693173 121.40655142 120.36699543 121.42993249 122.36352539 121.42602539 C124.28540428 121.42591209 124.28540428 121.42591209 126.24610901 121.42579651 C127.65495848 121.42068909 129.06380756 121.41547309 130.47265625 121.41015625 C131.90612234 121.40829202 133.33958907 121.40686814 134.77305603 121.40586853 C138.55259957 121.40204372 142.3321049 121.39221377 146.1116333 121.38116455 C149.96569298 121.37094963 153.81975882 121.36637074 157.67382812 121.36132812 C165.24090287 121.35059146 172.80794609 121.33351549 180.375 121.3125 C177.45145245 116.86298243 174.40553888 112.77402334 170.9375 108.75 C170.41744385 108.14647705 169.8973877 107.5429541 169.36157227 106.92114258 C160.5240612 96.79040158 151.06259041 87.49206919 140.375 79.3125 C139.81586914 78.88227539 139.25673828 78.45205078 138.68066406 78.00878906 C129.63136009 71.08295022 120.3025047 64.90429792 110.375 59.3125 C109.75093262 58.96058594 109.12686523 58.60867187 108.48388672 58.24609375 C94.5519883 49.5688871 94.5519883 49.5688871 79.375 45.3125 Z M-79.625 45.3125 C-117.25200238 60.60721075 -158.15877992 85.53546653 -179.625 121.3125 C-158.505 121.3125 -137.385 121.3125 -115.625 121.3125 C-112.49837658 113.51050554 -112.49837658 113.51050554 -109.46875 105.67578125 C-102.3200918 87.10334692 -94.19089429 68.99008119 -82.5703125 52.73779297 C-80.12674149 49.37967314 -80.12674149 49.37967314 -79.625 45.3125 Z M-199.625 151.3125 C-205.87172548 164.25061906 -205.87172548 164.25061906 -211.25 177.5 C-211.53012939 178.27786865 -211.81025879 179.0557373 -212.09887695 179.85717773 C-218.96845638 199.39684136 -224.625 220.49005581 -224.625 241.3125 C-194.925 241.3125 -165.225 241.3125 -134.625 241.3125 C-133.635 228.1125 -132.645 214.9125 -131.625 201.3125 C-129.46341088 184.43815914 -126.67392181 168.08156994 -123.625 151.3125 C-148.705 151.3125 -173.785 151.3125 -199.625 151.3125 Z M-91.625 151.3125 C-94.17525728 160.87596479 -96.53962731 170.10690825 -98.1875 179.8125 C-98.39656982 181.03791504 -98.60563965 182.26333008 -98.82104492 183.52587891 C-100.35481743 192.88491252 -101.51078922 202.2511604 -102.4375 211.6875 C-102.56133057 212.92693359 -102.68516113 214.16636719 -102.81274414 215.44335938 C-103.60729624 224.16647731 -103.625 232.47650497 -103.625 241.3125 C-74.255 241.3125 -44.885 241.3125 -14.625 241.3125 C-14.625 211.6125 -14.625 181.9125 -14.625 151.3125 C-40.035 151.3125 -65.445 151.3125 -91.625 151.3125 Z M15.375 151.3125 C15.375 181.0125 15.375 210.7125 15.375 241.3125 C44.745 241.3125 74.115 241.3125 104.375 241.3125 C104.375 231.26057732 104.18130401 221.63459232 103.1875 211.6875 C103.12319794 211.03273682 103.05889587 210.37797363 102.99264526 209.70336914 C101.99528675 199.67641065 100.63254976 189.74764714 98.9375 179.8125 C98.74454346 178.67603027 98.55158691 177.53956055 98.3527832 176.36865234 C96.81723868 167.81141891 94.63415124 159.78431714 92.375 151.3125 C66.965 151.3125 41.555 151.3125 15.375 151.3125 Z M124.375 151.3125 C126.025 160.5525 127.675 169.7925 129.375 179.3125 C130.16433769 184.61131676 130.91985392 189.87456421 131.5625 195.1875 C131.71396484 196.33605469 131.86542969 197.48460937 132.02148438 198.66796875 C133.78285888 212.86389771 134.41975349 226.98380239 135.375 241.3125 C165.075 241.3125 194.775 241.3125 225.375 241.3125 C224.50027426 228.93111681 224.50027426 228.93111681 222.6875 216.75 C222.51524902 215.8223584 222.34299805 214.8947168 222.16552734 213.93896484 C217.85655979 191.71791595 210.01990802 171.80792955 200.375 151.3125 C175.295 151.3125 150.215 151.3125 124.375 151.3125 Z M-224.625 271.3125 C-223.9958732 280.74940196 -223.35033207 289.36736147 -221.4375 298.5 C-221.21682861 299.56951904 -220.99615723 300.63903809 -220.76879883 301.7409668 C-216.31927654 322.65107766 -209.18467489 342.19315022 -199.625 361.3125 C-174.545 361.3125 -149.465 361.3125 -123.625 361.3125 C-125.275 352.0725 -126.925 342.8325 -128.625 333.3125 C-129.41433769 328.01368324 -130.16985392 322.75043579 -130.8125 317.4375 C-130.96396484 316.28894531 -131.11542969 315.14039063 -131.27148438 313.95703125 C-133.03285888 299.76110229 -133.66975349 285.64119761 -134.625 271.3125 C-164.325 271.3125 -194.025 271.3125 -224.625 271.3125 Z M-103.625 271.3125 C-103.625 281.36442268 -103.43130401 290.99040768 -102.4375 300.9375 C-102.37319794 301.59226318 -102.30889587 302.24702637 -102.24264526 302.92163086 C-101.24528675 312.94858935 -99.88254976 322.87735286 -98.1875 332.8125 C-97.99454346 333.94896973 -97.80158691 335.08543945 -97.6027832 336.25634766 C-96.06723868 344.81358109 -93.88415124 352.84068286 -91.625 361.3125 C-66.215 361.3125 -40.805 361.3125 -14.625 361.3125 C-14.625 331.6125 -14.625 301.9125 -14.625 271.3125 C-43.995 271.3125 -73.365 271.3125 -103.625 271.3125 Z M15.375 271.3125 C15.375 301.0125 15.375 330.7125 15.375 361.3125 C35.175 361.3125 54.975 361.3125 75.375 361.3125 C74.60650745 354.8182385 74.60650745 354.8182385 73.23583984 348.59985352 C73.01245941 347.76861465 72.78907898 346.93737579 72.55892944 346.08094788 C72.3203421 345.20989914 72.08175476 344.3388504 71.8359375 343.44140625 C71.33271236 341.54899314 70.83012769 339.65640963 70.328125 337.76367188 C69.54044277 334.8150198 68.74806342 331.86790567 67.94433594 328.92358398 C67.1647827 326.05812803 66.40527909 323.187932 65.6484375 320.31640625 C65.4058017 319.44738174 65.16316589 318.57835724 64.91317749 317.68299866 C63.36130304 311.7179475 62.19731862 305.12063984 65.41244507 299.49830627 C68.16435266 295.99477969 70.9605262 293.74184521 75.36303711 292.95898438 C82.05047864 292.79119632 86.99825658 294.91041921 92.9375 297.8125 C93.85080078 298.24175781 94.76410156 298.67101562 95.70507812 299.11328125 C97.93614153 300.16456767 100.15849897 301.23093699 102.375 302.3125 C102.72127947 299.95965465 103.05183433 297.60605245 103.375 295.25 C103.47039062 294.61255859 103.56578125 293.97511719 103.6640625 293.31835938 C104.66504334 285.84675238 104.375 279.08005682 104.375 271.3125 C75.005 271.3125 45.635 271.3125 15.375 271.3125 Z M135.375 271.3125 C133.28574435 294.28986975 133.28574435 294.28986975 132.375 317.3125 C145.82924819 324.09242727 159.30498257 330.80286517 172.91650391 337.26220703 C183.14445716 342.12831463 193.2640932 347.20855841 203.375 352.3125 C205.82346731 350.11988134 207.02967971 348.22160162 208.20703125 345.1640625 C208.52776611 344.33398682 208.84850098 343.50391113 209.17895508 342.64868164 C209.5117749 341.7539917 209.84459473 340.85930176 210.1875 339.9375 C210.53643311 339.0086499 210.88536621 338.0797998 211.24487305 337.12280273 C218.93175192 316.24184364 225.375 293.72200128 225.375 271.3125 C195.675 271.3125 165.975 271.3125 135.375 271.3125 Z M102.375 337.3125 C102.98785395 343.07475441 104.04696893 348.51409465 105.50463867 354.11743164 C105.71947906 354.95947647 105.93431946 355.8015213 106.15567017 356.66908264 C106.86342779 359.43816208 107.57813606 362.20539559 108.29296875 364.97265625 C108.79324633 366.92383878 109.2931014 368.87512967 109.79255676 370.82652283 C111.1092836 375.96606622 112.43197388 381.10405692 113.75585938 386.24176025 C115.08125934 391.3900205 116.40063997 396.53982244 117.72070312 401.68945312 C122.56428419 420.57448536 127.42260368 439.45566145 132.375 458.3125 C133.65272464 457.35616702 134.93017894 456.39947284 136.20751953 455.44262695 C136.91893097 454.90990677 137.63034241 454.37718658 138.36331177 453.82832336 C141.44250765 451.50812435 144.46583993 449.11885804 147.4921875 446.73046875 C150.64023495 444.35963634 152.71791542 444.1014134 156.625 444 C157.55828125 443.96261719 158.4915625 443.92523438 159.453125 443.88671875 C165.91607012 444.82851155 169.770424 449.52754655 173.6875 454.375 C174.15607422 454.94138184 174.62464844 455.50776367 175.10742188 456.09130859 C176.53846697 457.82492581 177.95799918 459.56739336 179.375 461.3125 C180.24323477 462.37651007 181.11171352 463.4403211 181.98046875 464.50390625 C183.49178945 466.35545902 184.99888543 468.21047569 186.5 470.0703125 C188.05187856 471.92610061 189.62852597 473.64243421 191.375 475.3125 C192.18582031 474.62285156 192.99664062 473.93320312 193.83203125 473.22265625 C200.21067554 467.80671655 206.62104629 462.44328757 213.1328125 457.1875 C214.98860061 455.63562144 216.70493421 454.05897403 218.375 452.3125 C216.68187213 448.17599598 213.73624145 445.11275301 210.8125 441.8125 C193.92554425 422.45322234 193.92554425 422.45322234 194.1171875 412.8984375 C194.8116313 405.93295579 198.81930101 402.75162562 203.9375 398.5 C206.69990083 396.32231359 209.44792471 394.26388353 212.375 392.3125 C212.375 391.6525 212.375 390.9925 212.375 390.3125 C199.60597042 383.87286588 186.80327963 377.52353049 173.88452148 371.3894043 C166.42513498 367.83825511 159.03570195 364.15959802 151.65722656 360.44384766 C144.02142977 356.60954583 136.32354928 352.91454877 128.60473633 349.25073242 C122.04221189 346.13011917 115.52755215 342.92751465 109.06884766 339.59692383 C105.88494743 337.86852983 105.88494743 337.86852983 102.375 337.3125 Z M-179.625 391.3125 C-176.70145245 395.76201757 -173.65553888 399.85097666 -170.1875 403.875 C-169.66744385 404.47852295 -169.1473877 405.0820459 -168.61157227 405.70385742 C-159.7740612 415.83459842 -150.31259041 425.13293081 -139.625 433.3125 C-139.06586914 433.74272461 -138.50673828 434.17294922 -137.93066406 434.61621094 C-128.87793921 441.54466793 -119.54353718 447.69950376 -109.625 453.3125 C-108.70485107 453.84037109 -108.70485107 453.84037109 -107.76611328 454.37890625 C-98.38410976 459.73017792 -88.8233929 463.77455555 -78.625 467.3125 C-79.98895371 464.46953636 -81.51652425 461.84472667 -83.2421875 459.20703125 C-96.43212602 438.72122867 -106.15108152 417.41180365 -113.87573242 394.32421875 C-114.45427328 392.34461416 -114.45427328 392.34461416 -115.625 391.3125 C-117.6193173 391.21844858 -119.61699543 391.19506751 -121.61352539 391.19897461 C-123.53540428 391.19908791 -123.53540428 391.19908791 -125.49610901 391.19920349 C-126.90495848 391.20431091 -128.31380756 391.20952691 -129.72265625 391.21484375 C-131.15612234 391.21670798 -132.58958907 391.21813186 -134.02305603 391.21913147 C-137.80259957 391.22295628 -141.5821049 391.23278623 -145.3616333 391.24383545 C-149.21569298 391.25405037 -153.06975882 391.25862926 -156.92382812 391.26367188 C-164.49090287 391.27440854 -172.05794609 391.29148451 -179.625 391.3125 Z M-82.625 391.3125 C-77.6388774 404.76019755 -77.6388774 404.76019755 -71.875 417.8125 C-71.45162354 418.69341309 -71.02824707 419.57432617 -70.59204102 420.48193359 C-64.40170786 433.10943616 -57.09422359 444.86629303 -47.625 455.3125 C-47.15223633 455.83440918 -46.67947266 456.35631836 -46.19238281 456.89404297 C-37.12847744 466.76588113 -27.5363361 475.0087213 -14.625 479.3125 C-14.625 450.2725 -14.625 421.2325 -14.625 391.3125 C-37.065 391.3125 -59.505 391.3125 -82.625 391.3125 Z M15.375 391.3125 C15.375 420.3525 15.375 449.3925 15.375 479.3125 C24.0106186 475.85825256 29.36482774 472.90824869 36.375 467.3125 C37.51775391 466.41917969 37.51775391 466.41917969 38.68359375 465.5078125 C60.17966431 447.65189649 74.36194074 418.11324216 83.375 392.3125 C83.375 391.9825 83.375 391.6525 83.375 391.3125 C60.935 391.3125 38.495 391.3125 15.375 391.3125 Z M95.375 440.3125 C94.64321674 441.43297753 93.96161849 442.5862686 93.30078125 443.75 C92.88296387 444.47695068 92.46514648 445.20390137 92.03466797 445.95288086 C91.59010254 446.73155518 91.14553711 447.51022949 90.6875 448.3125 C87.9082533 453.1286328 85.16741288 457.84915895 81.75 462.25 C79.17072549 464.92998927 79.17072549 464.92998927 79.375 467.3125 C86.81879088 465.07936274 93.49476695 461.90977921 100.375 458.3125 C99.3361908 452.2012076 98.21769722 446.23545536 96.375 440.3125 C96.045 440.3125 95.715 440.3125 95.375 440.3125 Z " fill="#000000" transform="translate(255.625,-0.3125)"/>
</svg>
