<svg width="20" height="18" viewBox="0 0 20 18" fill="none" xmlns="http://www.w3.org/2000/svg">
  <path d="M8.79434 1.1166C8.96064 1.2442 9.12002 1.37597 9.27775 1.51395C9.37013 1.59034 9.46261 1.66662 9.5552 1.74275C9.61784 1.79576 9.68049 1.84878 9.74503 1.9034C9.8125 1.82789 9.87996 1.75239 9.94947 1.6746C11.0421 0.586329 12.5681 0.0194508 14.0918 0C15.5644 0.00901075 16.8443 0.49071 17.9225 1.51395C18.9234 2.5373 19.4503 3.8795 19.4412 5.30614C19.4408 5.38749 19.4404 5.46883 19.44 5.55264C19.4242 6.26382 19.2936 6.86067 19.0129 7.51135C18.9809 7.58656 18.9488 7.66176 18.9158 7.73924C18.6197 8.34643 18.1698 8.82881 17.7246 9.32922C17.5634 9.51279 17.4094 9.70188 17.2557 9.89182C16.9657 10.2491 16.6695 10.6007 16.3714 10.9514C16.1472 11.2157 15.9263 11.4823 15.7078 11.7514C15.3996 12.1302 15.0826 12.5008 14.7638 12.8707C14.5278 13.1452 14.2956 13.4223 14.0674 13.7035C13.8001 14.0328 13.5265 14.3558 13.2497 14.6771C12.9137 15.0671 12.5846 15.4616 12.26 15.8612C11.9858 16.1957 11.7056 16.525 11.4256 16.8546C11.3234 16.9752 11.2213 17.0959 11.1223 17.2191C10.7847 17.6373 10.5038 17.8388 9.96347 17.8976C9.38342 17.9128 8.99604 17.8718 8.55248 17.4762C8.48341 17.4007 8.41434 17.3252 8.34317 17.2474C8.29187 17.1919 8.24057 17.1363 8.18772 17.0791C7.8214 16.6785 7.4735 16.2661 7.13206 15.8442C6.91654 15.5815 6.69588 15.3238 6.47403 15.0665C6.13915 14.6779 5.81166 14.2843 5.48835 13.886C5.2752 13.6274 5.05729 13.3732 4.83853 13.1193C4.50195 12.7286 4.17227 12.3333 3.84706 11.933C3.50792 11.5191 3.16013 11.1125 2.81362 10.7048C1.15666 8.7551 -0.126134 7.21801 0.00990025 4.5516C0.140866 3.33219 0.828704 2.04937 1.76511 1.25686C3.86741 -0.397475 6.61925 -0.361984 8.79434 1.1166ZM2.9563 3.58225C2.43394 4.27954 2.36095 5.02607 2.42421 5.8757C2.5583 6.50581 2.86437 6.95493 3.28091 7.43347C3.35379 7.5187 3.42659 7.60399 3.49934 7.68934C3.66015 7.87763 3.82159 8.06535 3.98336 8.25281C4.24101 8.55239 4.49049 8.8583 4.73965 9.16496C5.07879 9.57885 5.42659 9.9855 5.7731 10.3932C6.23746 10.9396 6.69839 11.4881 7.15123 12.0441C7.52814 12.5028 7.9141 12.954 8.29895 13.4061C8.76415 13.9526 9.22295 14.5026 9.66715 15.0665C10.2443 14.5079 10.7628 13.8977 11.2677 13.2739C11.4832 13.0112 11.7039 12.7535 11.9257 12.4962C12.2025 12.175 12.4762 11.8519 12.7435 11.5226C13.0107 11.1933 13.2844 10.8703 13.5612 10.549C13.8978 10.1583 14.2275 9.76297 14.5527 9.36272C14.7488 9.12331 14.948 8.88661 15.148 8.65047C15.1837 8.60821 15.2194 8.56594 15.2561 8.5224C15.4402 8.30473 15.6258 8.08882 15.8146 7.87524C16.6556 6.91667 17.0616 6.13964 17.0026 4.8595C16.9343 4.15008 16.4766 3.5296 15.9807 3.04647C15.2463 2.45088 14.4696 2.39763 13.5612 2.44861C12.7209 2.59285 11.9406 3.0565 11.3805 3.69483C11.109 4.0919 10.8732 4.52276 10.6793 4.96264C10.526 5.22774 10.2626 5.32346 9.97868 5.40837C9.58548 5.43983 9.29121 5.38143 8.94675 5.18931C8.73941 4.98945 8.63551 4.75664 8.51354 4.49805C8.07822 3.57632 7.37171 2.94008 6.42535 2.57518C5.08223 2.16793 3.86006 2.53497 2.9563 3.58225Z" fill="#00B53F" />
</svg>
