<svg width="30" height="28" viewBox="0 0 30 28" fill="none" xmlns="http://www.w3.org/2000/svg">
<path d="M13.3862 1.91698C13.9868 2.42694 14.5209 3.00324 15.0381 3.59633C15.0991 3.51712 15.0991 3.51712 15.1613 3.4363C16.5866 1.63392 18.6644 0.393596 20.9571 0.0913606C21.337 0.066587 21.7154 0.061646 22.0961 0.0621525C22.1475 0.062169 22.1988 0.0621854 22.2518 0.0622024C23.085 0.0648637 23.8288 0.137398 24.6175 0.402914C24.7491 0.445234 24.7491 0.445234 24.8834 0.488408C26.8155 1.16862 28.3078 2.5556 29.2179 4.37746C30.1455 6.34442 30.2471 8.53448 29.5483 10.5819C29.1908 11.5676 28.6544 12.3859 27.9664 13.1766C27.898 13.2573 27.8297 13.3381 27.7616 13.4191C27.5086 13.7199 27.254 14.0194 26.9994 14.3189C26.6304 14.7533 26.2625 15.1881 25.9025 15.6301C25.4709 16.16 25.0277 16.68 24.5851 17.2008C24.2175 17.6334 23.8511 18.0665 23.4931 18.5071C23.1849 18.8859 22.8679 19.2563 22.5493 19.6262C22.2537 19.97 21.9654 20.3192 21.6796 20.6712C21.4443 20.9582 21.2039 21.2408 20.9636 21.5236C20.7394 21.7879 20.5184 22.0545 20.3 22.3236C19.9917 22.7024 19.6747 23.073 19.356 23.4429C19.1199 23.7175 18.8878 23.9945 18.6596 24.2757C18.3535 24.6527 18.0385 25.0213 17.7213 25.389C17.4756 25.6743 17.2359 25.9636 16.9997 26.257C16.1261 27.3259 16.1261 27.3259 15.5833 27.4302C14.4108 27.535 14.4108 27.535 13.949 27.2519C13.3394 26.7344 12.8329 26.0892 12.3339 25.4683C12.1356 25.2234 11.9324 24.983 11.7282 24.743C11.4669 24.4356 11.2085 24.1264 10.9542 23.8132C10.646 23.4344 10.329 23.0638 10.0102 22.6939C9.71624 22.352 9.43011 22.0044 9.14592 21.6543C8.93278 21.3956 8.71486 21.1414 8.4961 20.8875C8.15971 20.4971 7.83014 20.102 7.50525 19.7019C7.30592 19.4588 7.10313 19.2188 6.89954 18.9793C6.63829 18.6719 6.3799 18.3627 6.1256 18.0495C5.81737 17.6707 5.50037 17.3001 5.18161 16.9302C4.88761 16.5883 4.60148 16.2406 4.31729 15.8905C4.10415 15.6319 3.88623 15.3777 3.66747 15.1238C3.33511 14.7377 3.00715 14.3488 2.68696 13.9524C2.54473 13.7777 2.40096 13.6049 2.25557 13.4328C1.38339 12.3931 0.726618 11.3613 0.318587 10.0611C0.292083 9.98044 0.26558 9.89982 0.238272 9.81675C-0.307407 7.80311 0.123995 5.59636 1.1266 3.80566C2.13412 2.16005 3.55829 1.00884 5.38086 0.402914C5.43325 0.385431 5.48564 0.367949 5.53962 0.349936C8.1634 -0.476531 11.26 0.206728 13.3862 1.91698ZM5.84814 2.81745C5.76713 2.85139 5.68611 2.88532 5.60264 2.92029C4.27357 3.53376 3.32282 4.61321 2.7831 5.96341C2.29463 7.39544 2.35726 8.92414 3.00548 10.2899C3.29692 10.87 3.6744 11.3378 4.10951 11.8153C4.26567 11.9896 4.41159 12.1716 4.55824 12.3539C4.86646 12.7327 5.18346 13.1033 5.50222 13.4732C5.79622 13.8151 6.08235 14.1628 6.36654 14.5129C6.57968 14.7715 6.7976 15.0257 7.01636 15.2796C7.35294 15.6703 7.68262 16.0656 8.00782 16.4659C8.34696 16.8798 8.69476 17.2864 9.04127 17.6941C9.50563 18.2405 9.96656 18.789 10.4194 19.345C10.7599 19.7594 11.1082 20.1673 11.4556 20.576C11.86 21.0518 12.2641 21.5274 12.6579 22.0121C12.9657 22.3904 13.2821 22.7606 13.6007 23.1298C13.9044 23.4828 14.1994 23.8417 14.4902 24.2054C14.6627 24.4091 14.8471 24.5956 15.0381 24.782C15.4869 24.2975 15.9199 23.8069 16.335 23.293C16.5356 23.0466 16.7404 22.8041 16.9462 22.5621C17.2075 22.2548 17.4658 21.9455 17.7201 21.6323C18.0284 21.2535 18.3454 20.883 18.6641 20.513C18.9002 20.2385 19.1323 19.9614 19.3605 19.6803C19.6278 19.351 19.9014 19.0279 20.1783 18.7067C20.5148 18.316 20.8445 17.9206 21.1697 17.5204C21.5448 17.0626 21.9302 16.6133 22.3135 16.1624C22.6825 15.728 23.0504 15.2931 23.4103 14.8512C23.8419 14.3212 24.2852 13.8013 24.7278 13.2805C26.9787 10.6978 26.9787 10.6978 27.577 7.41286C27.3787 5.85678 26.6842 4.52633 25.4742 3.51845C24.1447 2.57736 22.6037 2.31909 21.0043 2.53054C20.666 2.59541 20.3454 2.69916 20.0225 2.81745C19.9424 2.84476 19.8623 2.87207 19.7797 2.90021C19.1437 3.13813 18.6141 3.50367 18.0755 3.90789C17.9988 3.96271 17.9988 3.96271 17.9206 4.01864C17.1785 4.59254 16.6437 5.43913 16.2628 6.28299C16.1034 6.63213 15.9265 6.89952 15.6612 7.1792C15.4289 7.25662 15.2571 7.27503 15.0138 7.28143C14.9058 7.28579 14.9058 7.28579 14.7956 7.29025C14.4828 7.24409 14.3428 7.15527 14.1035 6.94553C13.9429 6.69493 13.8175 6.43034 13.6898 6.16178C13.3675 5.5181 13.0521 4.97146 12.5459 4.45311C12.4832 4.38734 12.4204 4.32158 12.3558 4.25382C11.0705 2.99522 9.45611 2.48349 7.69046 2.48122C7.02371 2.48901 6.4682 2.55712 5.84814 2.81745Z" fill="#00B53F"/>
</svg>
