<svg width="25" height="24" viewBox="0 0 25 24" fill="none" xmlns="http://www.w3.org/2000/svg">
<path opacity="0.815686" d="M10.2051 0.9375L14.1191 0.960938L10.2051 0.984375V0.9375Z" fill="white" stroke="white" stroke-width="0.3"/>
<path opacity="0.815686" d="M9.54883 0.984375L9.80664 1.00781L9.54883 1.03125V0.984375Z" fill="white" stroke="white" stroke-width="0.3"/>
<path opacity="0.815686" d="M14.5176 0.984375L14.7754 1.00781L14.5176 1.03125V0.984375Z" fill="white" stroke="white" stroke-width="0.3"/>
<path opacity="0.815686" d="M9.17383 1.03125L9.33789 1.05469L9.17383 1.07813V1.03125Z" fill="white" stroke="white" stroke-width="0.3"/>
<path opacity="0.815686" d="M14.9863 1.03125L15.1504 1.05469L14.9863 1.07813V1.03125Z" fill="white" stroke="white" stroke-width="0.3"/>
<path opacity="0.815686" d="M15.3145 1.07812L15.4316 1.10156L15.3145 1.125V1.07812Z" fill="white" stroke="white" stroke-width="0.3"/>
<path opacity="0.815686" d="M15.7832 1.17188L15.9004 1.19531L15.7832 1.21875V1.17188Z" fill="white" stroke="white" stroke-width="0.3"/>
<path opacity="0.815686" d="M6.64258 1.78125L6.71289 1.80469L6.45508 1.92188V1.875L6.64258 1.78125Z" fill="white" stroke="white" stroke-width="0.3"/>
<path opacity="0.815686" d="M18.127 2.01562L18.1738 2.10938" stroke="white" stroke-width="0.3"/>
<path opacity="0.815686" d="M18.4551 2.20312L18.502 2.29688" stroke="white" stroke-width="0.3"/>
<path opacity="0.815686" d="M5.61133 2.34375L5.56445 2.4375" stroke="white" stroke-width="0.3"/>
<path opacity="0.815686" d="M9.9707 2.34375L10.5098 2.36719L9.9707 2.39063V2.34375Z" fill="white" stroke="white" stroke-width="0.3"/>
<path opacity="0.815686" d="M13.8145 2.34375L14.3535 2.36719L13.8145 2.39063V2.34375Z" fill="white" stroke="white" stroke-width="0.3"/>
<path opacity="0.815686" d="M18.6895 2.34375L18.7363 2.4375" stroke="white" stroke-width="0.3"/>
<path opacity="0.815686" d="M9.50195 2.39062L9.66602 2.41406L9.50195 2.4375V2.39062Z" fill="white" stroke="white" stroke-width="0.3"/>
<path opacity="0.815686" d="M14.6582 2.39062L14.8223 2.41406L14.6582 2.4375V2.39062Z" fill="white" stroke="white" stroke-width="0.3"/>
<path opacity="0.815686" d="M5.4707 2.4375L5.42383 2.53125" stroke="white" stroke-width="0.3"/>
<path opacity="0.815686" d="M9.2207 2.4375L9.33789 2.46094L9.2207 2.48438V2.4375Z" fill="white" stroke="white" stroke-width="0.3"/>
<path opacity="0.815686" d="M14.9863 2.4375L15.1035 2.46094L14.9863 2.48438V2.4375Z" fill="white" stroke="white" stroke-width="0.3"/>
<path opacity="0.815686" d="M18.8301 2.4375L18.877 2.53125" stroke="white" stroke-width="0.3"/>
<path opacity="0.815686" d="M8.93945 2.48438L9.05664 2.50781L8.93945 2.53125V2.48438Z" fill="white" stroke="white" stroke-width="0.3"/>
<path opacity="0.815686" d="M15.2676 2.48438L15.3848 2.50781L15.2676 2.53125V2.48438Z" fill="white" stroke="white" stroke-width="0.3"/>
<path opacity="0.815686" d="M5.33008 2.53125L5.2832 2.625" stroke="white" stroke-width="0.3"/>
<path opacity="0.815686" d="M18.9707 2.53125L19.0176 2.625" stroke="white" stroke-width="0.3"/>
<path opacity="0.815686" d="M5.18945 2.625L5.14258 2.71875" stroke="white" stroke-width="0.3"/>
<path opacity="0.815686" d="M19.1113 2.625L19.1582 2.71875" stroke="white" stroke-width="0.3"/>
<path opacity="0.815686" d="M19.252 2.71875L19.3457 2.85938" stroke="white" stroke-width="0.3"/>
<path opacity="0.815686" d="M5.00195 2.76562L4.95508 2.85938" stroke="white" stroke-width="0.3"/>
<path opacity="0.815686" d="M19.4395 2.85938L19.5332 3" stroke="white" stroke-width="0.3"/>
<path opacity="0.815686" d="M19.6738 3.04688L19.8145 3.23438" stroke="white" stroke-width="0.3"/>
<path opacity="0.815686" d="M20.002 3.32812L20.752 4.125" stroke="white" stroke-width="0.3"/>
<path opacity="0.815686" d="M6.5957 3.375L6.54883 3.46875" stroke="white" stroke-width="0.3"/>
<path opacity="0.815686" d="M6.36133 3.51562L6.31445 3.60938" stroke="white" stroke-width="0.3"/>
<path opacity="0.815686" d="M17.9395 3.51562L17.9863 3.60938" stroke="white" stroke-width="0.3"/>
<path opacity="0.815686" d="M6.2207 3.60938L6.17383 3.70313" stroke="white" stroke-width="0.3"/>
<path opacity="0.815686" d="M18.2207 3.70312L18.2676 3.79688" stroke="white" stroke-width="0.3"/>
<path opacity="0.815686" d="M5.93945 3.79688L5.89258 3.89063" stroke="white" stroke-width="0.3"/>
<path opacity="0.815686" d="M18.3613 3.79688L18.4082 3.89063" stroke="white" stroke-width="0.3"/>
<path opacity="0.815686" d="M5.75195 3.9375L5.70508 4.03125" stroke="white" stroke-width="0.3"/>
<path opacity="0.815686" d="M18.5488 3.9375L18.5957 4.03125" stroke="white" stroke-width="0.3"/>
<path opacity="0.815686" d="M5.56445 4.07812L5.4707 4.21875" stroke="white" stroke-width="0.3"/>
<path opacity="0.815686" d="M18.7363 4.07812L18.8301 4.21875" stroke="white" stroke-width="0.3"/>
<path opacity="0.815686" d="M20.8457 4.21875L20.9863 4.40625" stroke="white" stroke-width="0.3"/>
<path opacity="0.815686" d="M5.2832 4.3125L4.58008 5.0625" stroke="white" stroke-width="0.3"/>
<path opacity="0.815686" d="M19.0176 4.3125L19.7207 5.0625" stroke="white" stroke-width="0.3"/>
<path opacity="0.815686" d="M21.0801 4.5L21.1738 4.64063" stroke="white" stroke-width="0.3"/>
<path opacity="0.815686" d="M21.2676 4.73438L21.3145 4.82813" stroke="white" stroke-width="0.3"/>
<path opacity="0.815686" d="M21.3613 4.875L21.4082 4.96875" stroke="white" stroke-width="0.3"/>
<path opacity="0.815686" d="M21.502 5.0625L21.5488 5.15625" stroke="white" stroke-width="0.3"/>
<path opacity="0.815686" d="M19.8613 5.20312L19.9551 5.34375" stroke="white" stroke-width="0.3"/>
<path opacity="0.815686" d="M20.0488 5.4375L20.1426 5.57813" stroke="white" stroke-width="0.3"/>
<path opacity="0.815686" d="M21.7363 5.4375L21.7832 5.53125" stroke="white" stroke-width="0.3"/>
<path opacity="0.815686" d="M20.1895 5.625L20.2363 5.71875" stroke="white" stroke-width="0.3"/>
<path opacity="0.815686" d="M21.9238 5.76562L21.9707 5.85938" stroke="white" stroke-width="0.3"/>
<path opacity="0.815686" d="M20.3301 5.8125L20.377 5.90625" stroke="white" stroke-width="0.3"/>
<path opacity="0.815686" d="M20.5645 6.1875L20.6113 6.28125" stroke="white" stroke-width="0.3"/>
<path opacity="0.815686" d="M20.7988 6.60938L20.8457 6.70313" stroke="white" stroke-width="0.3"/>
<path opacity="0.815686" d="M5.6582 6.9375L5.91602 6.96094L5.6582 6.98438V6.9375Z" fill="white" stroke="white" stroke-width="0.3"/>
<path opacity="0.815686" d="M18.4082 6.9375L18.666 6.96094L18.4082 6.98438V6.9375Z" fill="white" stroke="white" stroke-width="0.3"/>
<path opacity="0.815686" d="M19.2051 7.125L19.3223 7.19531L19.252 7.17188L19.2051 7.125Z" fill="white" stroke="white" stroke-width="0.3"/>
<path opacity="0.815686" d="M19.5332 7.3125L19.627 7.45313" stroke="white" stroke-width="0.3"/>
<path opacity="0.815686" d="M19.8613 7.64062L19.9082 7.73438" stroke="white" stroke-width="0.3"/>
<path opacity="0.815686" d="M20.2832 8.57812L20.3066 8.83594H20.2598L20.2832 8.57812Z" fill="white" stroke="white" stroke-width="0.3"/>
<path opacity="0.815686" d="M22.9551 8.57812L22.9785 8.69531H22.9316L22.9551 8.57812Z" fill="white" stroke="white" stroke-width="0.3"/>
<path opacity="0.815686" d="M21.5488 8.625L21.5723 8.74219H21.5254L21.5488 8.625Z" fill="white" stroke="white" stroke-width="0.3"/>
<path opacity="0.815686" d="M21.5957 8.85938L21.6191 8.97656H21.5723L21.5957 8.85938Z" fill="white" stroke="white" stroke-width="0.3"/>
<path opacity="0.815686" d="M23.002 8.85938L23.0254 8.97656H22.9785L23.002 8.85938Z" fill="white" stroke="white" stroke-width="0.3"/>
<path opacity="0.815686" d="M21.6426 9.14062L21.666 9.30469H21.6191L21.6426 9.14062Z" fill="white" stroke="white" stroke-width="0.3"/>
<path opacity="0.815686" d="M23.0488 9.1875L23.0723 9.35156H23.0254L23.0488 9.1875Z" fill="white" stroke="white" stroke-width="0.3"/>
<path opacity="0.815686" d="M23.0957 9.65625L23.166 9.77344L23.0723 9.72656L23.0957 9.65625Z" fill="white" stroke="white" stroke-width="0.3"/>
<path opacity="0.815686" d="M23.2363 9.79688L23.2832 9.89063" stroke="white" stroke-width="0.3"/>
<path opacity="0.815686" d="M23.5176 9.98438L23.752 10.2656" stroke="white" stroke-width="0.3"/>
<path opacity="0.815686" d="M23.8926 10.4531L23.9395 10.5469" stroke="white" stroke-width="0.3"/>
<path opacity="0.815686" d="M9.17383 10.9219L9.43164 10.9453L9.17383 10.9688V10.9219Z" fill="white" stroke="white" stroke-width="0.3"/>
<path opacity="0.815686" d="M14.6113 10.9219L14.8691 10.9453L14.6113 10.9688V10.9219Z" fill="white" stroke="white" stroke-width="0.3"/>
<path opacity="0.815686" d="M9.64258 11.0156L9.68945 11.1094" stroke="white" stroke-width="0.3"/>
<path opacity="0.815686" d="M15.0801 11.0156L15.127 11.1094" stroke="white" stroke-width="0.3"/>
<path opacity="0.815686" d="M14.2832 11.0625L14.1895 11.2031" stroke="white" stroke-width="0.3"/>
<path opacity="0.815686" d="M22.627 11.0625L22.6738 11.1563" stroke="white" stroke-width="0.3"/>
<path opacity="0.815686" d="M24.127 11.0625L24.1504 11.2266H24.1035L24.127 11.0625Z" fill="white" stroke="white" stroke-width="0.3"/>
<path opacity="0.815686" d="M8.79883 11.1094L8.75195 11.2031" stroke="white" stroke-width="0.3"/>
<path opacity="0.815686" d="M9.83008 11.2031L9.87695 11.2969" stroke="white" stroke-width="0.3"/>
<path opacity="0.815686" d="M15.2676 11.2031L15.3145 11.2969" stroke="white" stroke-width="0.3"/>
<path opacity="0.815686" d="M9.9707 11.4844L9.99414 11.7891H9.94727L9.9707 11.4844Z" fill="white" stroke="white" stroke-width="0.3"/>
<path opacity="0.815686" d="M15.4082 11.4844L15.4316 11.7891H15.3848L15.4082 11.4844Z" fill="white" stroke="white" stroke-width="0.3"/>
<path opacity="0.815686" d="M8.70508 12L8.75195 12.0938" stroke="white" stroke-width="0.3"/>
<path opacity="0.815686" d="M14.1426 12L14.1895 12.0938" stroke="white" stroke-width="0.3"/>
<path opacity="0.815686" d="M9.83008 12.0469L9.73633 12.1875" stroke="white" stroke-width="0.3"/>
<path opacity="0.815686" d="M15.2676 12.0469L15.1738 12.1875" stroke="white" stroke-width="0.3"/>
<path opacity="0.815686" d="M8.8457 12.1406L8.89258 12.2344" stroke="white" stroke-width="0.3"/>
<path opacity="0.815686" d="M14.2832 12.1406L14.3301 12.2344" stroke="white" stroke-width="0.3"/>
<path opacity="0.815686" d="M8.93945 13.9688L9.05664 13.9922L8.93945 14.0156V13.9688Z" fill="white" stroke="white" stroke-width="0.3"/>
<path opacity="0.815686" d="M9.17383 13.9688L9.29102 13.9922L9.17383 14.0156V13.9688Z" fill="white" stroke="white" stroke-width="0.3"/>
<path opacity="0.815686" d="M15.0332 13.9688L15.1504 13.9922L15.0332 14.0156V13.9688Z" fill="white" stroke="white" stroke-width="0.3"/>
<path opacity="0.815686" d="M15.2676 13.9688L15.3848 13.9922L15.2676 14.0156V13.9688Z" fill="white" stroke="white" stroke-width="0.3"/>
<path opacity="0.815686" d="M9.50195 14.0625L9.5957 14.2031" stroke="white" stroke-width="0.3"/>
<path opacity="0.815686" d="M14.7988 14.0625L14.7051 14.2031" stroke="white" stroke-width="0.3"/>
<path opacity="0.815686" d="M8.6582 14.1094L8.61133 14.2031" stroke="white" stroke-width="0.3"/>
<path opacity="0.815686" d="M15.6426 14.1094L15.6895 14.2031" stroke="white" stroke-width="0.3"/>
<path opacity="0.815686" d="M9.7832 14.2969L9.87695 14.4375" stroke="white" stroke-width="0.3"/>
<path opacity="0.815686" d="M14.5176 14.2969L14.4238 14.4375" stroke="white" stroke-width="0.3"/>
<path opacity="0.815686" d="M9.9707 14.4375L10.0176 14.5313" stroke="white" stroke-width="0.3"/>
<path opacity="0.815686" d="M14.3301 14.4375L14.2832 14.5313" stroke="white" stroke-width="0.3"/>
<path opacity="0.815686" d="M8.42383 14.5312L8.44727 14.7891H8.40039L8.42383 14.5312Z" fill="white" stroke="white" stroke-width="0.3"/>
<path opacity="0.815686" d="M10.1113 14.5312L10.1582 14.625" stroke="white" stroke-width="0.3"/>
<path opacity="0.815686" d="M15.877 14.5312L15.9004 14.7891H15.8535L15.877 14.5312Z" fill="white" stroke="white" stroke-width="0.3"/>
<path opacity="0.815686" d="M10.252 14.625L10.2988 14.7188" stroke="white" stroke-width="0.3"/>
<path opacity="0.815686" d="M14.0488 14.625L14.002 14.7188" stroke="white" stroke-width="0.3"/>
<path opacity="0.815686" d="M24.127 15.0469L24.1504 15.2578H24.1035L24.127 15.0469Z" fill="white" stroke="white" stroke-width="0.3"/>
<path opacity="0.815686" d="M8.61133 15.1406L8.6582 15.2344" stroke="white" stroke-width="0.3"/>
<path opacity="0.815686" d="M15.6895 15.1406L15.6426 15.2344" stroke="white" stroke-width="0.3"/>
<path opacity="0.815686" d="M11.7051 15.1875L11.8691 15.2109L11.7051 15.2344V15.1875Z" fill="white" stroke="white" stroke-width="0.3"/>
<path opacity="0.815686" d="M12.4551 15.1875L12.6191 15.2109L12.4551 15.2344V15.1875Z" fill="white" stroke="white" stroke-width="0.3"/>
<path opacity="0.815686" d="M8.79883 15.2812L8.89258 15.4219" stroke="white" stroke-width="0.3"/>
<path opacity="0.815686" d="M15.502 15.2812L15.3613 15.4688" stroke="white" stroke-width="0.3"/>
<path opacity="0.815686" d="M20.3301 15.2812L22.5098 15.3047L20.3301 15.3281V15.2812Z" fill="white" stroke="white" stroke-width="0.3"/>
<path opacity="0.815686" d="M9.0332 15.4688L9.12695 15.6094" stroke="white" stroke-width="0.3"/>
<path opacity="0.815686" d="M15.2207 15.5156L15.1738 15.6094" stroke="white" stroke-width="0.3"/>
<path opacity="0.815686" d="M9.2207 15.6094L9.26758 15.7031" stroke="white" stroke-width="0.3"/>
<path opacity="0.815686" d="M15.0801 15.6094L15.0332 15.7031" stroke="white" stroke-width="0.3"/>
<path opacity="0.815686" d="M9.36133 15.7031L9.4082 15.7969" stroke="white" stroke-width="0.3"/>
<path opacity="0.815686" d="M9.50195 15.7969L9.54883 15.8906" stroke="white" stroke-width="0.3"/>
<path opacity="0.815686" d="M14.7988 15.7969L14.752 15.8906" stroke="white" stroke-width="0.3"/>
<path opacity="0.815686" d="M14.5645 15.9375L14.5176 16.0313" stroke="white" stroke-width="0.3"/>
<path opacity="0.815686" d="M23.7988 15.9844L23.752 16.0781" stroke="white" stroke-width="0.3"/>
<path opacity="0.815686" d="M23.5176 16.2656L23.4238 16.4063" stroke="white" stroke-width="0.3"/>
<path opacity="0.815686" d="M23.3301 16.4062L23.2832 16.5" stroke="white" stroke-width="0.3"/>
<path opacity="0.815686" d="M11.377 16.5469L11.4941 16.5703L11.377 16.5938V16.5469Z" fill="white" stroke="white" stroke-width="0.3"/>
<path opacity="0.815686" d="M12.8301 16.5469L12.9473 16.5703L12.8301 16.5938V16.5469Z" fill="white" stroke="white" stroke-width="0.3"/>
<path opacity="0.815686" d="M11.7051 16.5938L12.6191 16.6172L11.7051 16.6406V16.5938Z" fill="white" stroke="white" stroke-width="0.3"/>
<path opacity="0.815686" d="M22.7207 16.6406L22.8379 16.6641L22.7207 16.6875V16.6406Z" fill="white" stroke="white" stroke-width="0.3"/>
<path opacity="0.815686" d="M20.3301 16.6875L22.5098 16.7109L20.3301 16.7344V16.6875Z" fill="white" stroke="white" stroke-width="0.3"/>
<path opacity="0.815686" d="M20.2832 18.0938L20.3066 18.3516H20.2598L20.2832 18.0938Z" fill="white" stroke="white" stroke-width="0.3"/>
<path opacity="0.815686" d="M5.51758 18.4219L5.56445 18.5156" stroke="white" stroke-width="0.3"/>
<path opacity="0.815686" d="M5.93945 18.6094L9.75977 18.6328L5.93945 18.6563V18.6094Z" fill="white" stroke="white" stroke-width="0.3"/>
<path opacity="0.815686" d="M14.5645 18.6094L18.3848 18.6328L14.5645 18.6563V18.6094Z" fill="white" stroke="white" stroke-width="0.3"/>
<path opacity="0.815686" d="M9.9707 18.7031L10.0176 18.7969" stroke="white" stroke-width="0.3"/>
<path opacity="0.815686" d="M14.3301 18.7031L14.2832 18.7969" stroke="white" stroke-width="0.3"/>
<path opacity="0.815686" d="M10.1113 18.8438L10.2988 19.0781" stroke="white" stroke-width="0.3"/>
<path opacity="0.815686" d="M14.1895 18.8438L14.0488 19.0313" stroke="white" stroke-width="0.3"/>
<path opacity="0.815686" d="M10.3926 19.1719L10.5332 19.3594" stroke="white" stroke-width="0.3"/>
<path opacity="0.815686" d="M13.9082 19.1719L13.7676 19.3594" stroke="white" stroke-width="0.3"/>
<path opacity="0.815686" d="M19.9551 19.1719L19.9082 19.2656" stroke="white" stroke-width="0.3"/>
<path opacity="0.815686" d="M10.627 19.4531L10.7676 19.6406" stroke="white" stroke-width="0.3"/>
<path opacity="0.815686" d="M13.6738 19.4531L13.5332 19.6406" stroke="white" stroke-width="0.3"/>
<path opacity="0.815686" d="M19.5332 19.5938L19.4863 19.6875" stroke="white" stroke-width="0.3"/>
<path opacity="0.815686" d="M4.9082 19.6875L4.95508 19.7813" stroke="white" stroke-width="0.3"/>
<path opacity="0.815686" d="M19.3926 19.6875L19.3457 19.7813" stroke="white" stroke-width="0.3"/>
<path opacity="0.815686" d="M10.9082 19.7812L11.0488 19.9688" stroke="white" stroke-width="0.3"/>
<path opacity="0.815686" d="M13.3926 19.7812L13.252 19.9688" stroke="white" stroke-width="0.3"/>
<path opacity="0.815686" d="M5.61133 19.9688L5.72852 19.9922L5.61133 20.0156V19.9688Z" fill="white" stroke="white" stroke-width="0.3"/>
<path opacity="0.815686" d="M18.5957 19.9688L18.7129 19.9922L18.5957 20.0156V19.9688Z" fill="white" stroke="white" stroke-width="0.3"/>
<path opacity="0.815686" d="M11.1426 20.0625L11.2832 20.25" stroke="white" stroke-width="0.3"/>
<path opacity="0.815686" d="M13.1582 20.0625L13.0176 20.25" stroke="white" stroke-width="0.3"/>
<path opacity="0.815686" d="M9.36133 20.1094L9.50195 20.2969" stroke="white" stroke-width="0.3"/>
<path opacity="0.815686" d="M14.9395 20.1094L14.7988 20.2969" stroke="white" stroke-width="0.3"/>
<path opacity="0.815686" d="M11.4238 20.3906L11.5645 20.5781" stroke="white" stroke-width="0.3"/>
<path opacity="0.815686" d="M12.877 20.3906L12.7363 20.5781" stroke="white" stroke-width="0.3"/>
<path opacity="0.815686" d="M9.64258 20.4375L9.7832 20.625" stroke="white" stroke-width="0.3"/>
<path opacity="0.815686" d="M14.6582 20.4375L14.5176 20.625" stroke="white" stroke-width="0.3"/>
<path opacity="0.815686" d="M11.6582 20.6719L11.7988 20.8594" stroke="white" stroke-width="0.3"/>
<path opacity="0.815686" d="M12.6426 20.6719L12.502 20.8594" stroke="white" stroke-width="0.3"/>
<path opacity="0.815686" d="M9.87695 20.7188L10.0176 20.9063" stroke="white" stroke-width="0.3"/>
<path opacity="0.815686" d="M14.4238 20.7188L14.2832 20.9063" stroke="white" stroke-width="0.3"/>
<path opacity="0.815686" d="M11.9395 21L12.0801 21.1875" stroke="white" stroke-width="0.3"/>
<path opacity="0.815686" d="M12.3613 21L12.2207 21.1875" stroke="white" stroke-width="0.3"/>
<path opacity="0.815686" d="M10.1582 21.0469L10.2988 21.2344" stroke="white" stroke-width="0.3"/>
<path opacity="0.815686" d="M14.1426 21.0469L14.002 21.2344" stroke="white" stroke-width="0.3"/>
<path opacity="0.815686" d="M10.3926 21.3281L10.5332 21.5156" stroke="white" stroke-width="0.3"/>
<path opacity="0.815686" d="M13.9082 21.3281L13.7676 21.5156" stroke="white" stroke-width="0.3"/>
<path opacity="0.815686" d="M10.6738 21.6562L10.8145 21.8438" stroke="white" stroke-width="0.3"/>
<path opacity="0.815686" d="M13.627 21.6562L13.4863 21.8438" stroke="white" stroke-width="0.3"/>
<path opacity="0.815686" d="M10.9082 21.9375L11.0488 22.125" stroke="white" stroke-width="0.3"/>
<path opacity="0.815686" d="M13.3926 21.9375L13.252 22.125" stroke="white" stroke-width="0.3"/>
<path opacity="0.815686" d="M13.1582 22.2188L13.0176 22.4063" stroke="white" stroke-width="0.3"/>
<path opacity="0.815686" d="M11.1895 22.2656L11.2832 22.4063" stroke="white" stroke-width="0.3"/>
<path opacity="0.815686" d="M11.4238 22.5469L11.5645 22.7344" stroke="white" stroke-width="0.3"/>
<path opacity="0.815686" d="M12.877 22.5469L12.7363 22.7344" stroke="white" stroke-width="0.3"/>
<path opacity="0.815686" d="M11.752 22.875L11.7988 22.9688" stroke="white" stroke-width="0.3"/>
<path opacity="0.815686" d="M12.5488 22.875L12.502 22.9688" stroke="white" stroke-width="0.3"/>
<path opacity="0.815686" d="M12.0801 23.0156L12.2441 23.0391L12.0801 23.0625V23.0156Z" fill="white" stroke="white" stroke-width="0.3"/>
<path d="M9.83008 0.984375H14.4707L14.5176 1.03125H14.9395L14.9863 1.07813L15.5488 1.125L16.4863 1.35938C18.2801 1.95625 19.7254 2.90156 20.8223 4.19531C21.4754 4.93281 22.0066 5.79219 22.416 6.77344L22.8379 8.03907L23.0254 9.02344L23.0723 9.72657L23.1426 9.79688C23.4363 9.90938 23.6629 10.0891 23.8223 10.3359L24.0098 10.6641L24.1504 11.2734V15.0234L24.0566 15.5391C23.9473 15.8359 23.7832 16.0781 23.5645 16.2656C23.3426 16.4813 23.0457 16.6219 22.6738 16.6875H20.3066V18.0703L20.2598 18.1172L20.2129 18.6797C20.0785 19.0609 19.8676 19.3656 19.5801 19.5938L19.1113 19.875L18.5488 20.0156H15.0332L14.7754 20.2734L12.5957 22.875C12.477 23.0063 12.2738 23.0531 11.9863 23.0156L11.5879 22.7578L9.26758 20.0156H5.75195L5.00195 19.7813L4.46289 19.3359C4.25977 19.1172 4.11914 18.8359 4.04102 18.4922L3.99414 16.6875H1.62695C1.16758 16.6 0.816016 16.4047 0.572266 16.1016L0.244141 15.5391L0.150391 15.0234V11.2734L0.337891 10.5703L0.830078 9.98438L1.22852 9.72657L1.27539 9.02344L1.46289 8.03907L2.02539 6.44532C2.62227 5.16719 3.42695 4.09688 4.43945 3.23438C5.15195 2.60313 5.98008 2.0875 6.92383 1.6875L8.33008 1.21875L9.36133 1.03125H9.7832L9.83008 0.984375ZM9.99414 2.34375L9.94727 2.39063H9.52539L9.19727 2.48438H8.96289L7.46289 2.95313C6.61914 3.29688 5.90039 3.75 5.30664 4.3125C4.52539 4.96875 3.90039 5.76563 3.43164 6.70313L2.86914 8.10938L2.58789 9.60938H3.99414L4.04102 8.48438C4.13477 8.10938 4.29102 7.8125 4.50977 7.59375C4.69727 7.375 4.94727 7.20313 5.25977 7.07813L5.96289 6.9375H18.3848L19.0879 7.07813L19.6973 7.45313C19.9785 7.70313 20.166 8.04688 20.2598 8.48438L20.3066 9.60938H21.7129L21.666 9.5625V9.1875L21.5723 8.67188L21.1504 7.3125C20.7754 6.4375 20.3066 5.6875 19.7441 5.0625C18.7754 3.9375 17.5098 3.125 15.9473 2.625L15.3848 2.48438L14.8691 2.4375L14.8223 2.39063H14.4004L14.3535 2.34375H9.99414ZM5.77539 8.34375L5.68164 8.39063L5.40039 8.71875V18.2813L5.49414 18.4688L5.96289 18.6563H9.85352L10.0879 18.7969L11.916 21.0469L12.1973 21.2344L14.2129 18.7969L14.4941 18.6563H18.3848L18.7598 18.5156L18.9004 18.2813V8.71875L18.8535 8.625L18.5723 8.34375H5.77539ZM1.79102 11.0156L1.69727 11.0625L1.55664 11.25V15.1406L1.83789 15.3281H3.99414V11.0156H1.79102ZM20.3066 11.0156V15.3281H22.5098L22.7441 15.1406V11.25L22.6973 11.1563L22.5566 11.0156H20.3066Z" fill="white" stroke="white" stroke-width="0.3"/>
<path d="M9.08008 10.9688H9.50195L9.80664 11.1797C9.95352 11.2984 10.0004 11.5172 9.94727 11.8359L9.64258 12.2344C9.53945 12.3188 9.3832 12.35 9.17383 12.3281L8.77539 12.1406L8.58789 11.7422V11.5078C8.63477 11.3047 8.73633 11.1563 8.89258 11.0625L9.08008 10.9688Z" fill="white" stroke="white" stroke-width="0.3"/>
<path d="M14.5176 10.9688H14.9395L15.2441 11.1797C15.391 11.2984 15.4379 11.5172 15.3848 11.8359L15.0801 12.2344C14.977 12.3188 14.8207 12.35 14.6113 12.3281L14.2129 12.1406L14.0254 11.7422V11.5078C14.0723 11.3047 14.1738 11.1563 14.3301 11.0625L14.5176 10.9688Z" fill="white" stroke="white" stroke-width="0.3"/>
<path d="M9.07969 13.9688L9.45469 14.0625C9.83906 14.4594 10.3078 14.7719 10.8609 15L11.7047 15.2344H12.5953L13.4391 15C13.9891 14.7688 14.4578 14.4563 14.8453 14.0625L15.2203 13.9688C15.4641 14.0063 15.6438 14.1078 15.7594 14.2734C15.8688 14.3984 15.9 14.6016 15.8531 14.8828L15.5484 15.2813C14.9766 15.8031 14.2734 16.1938 13.4391 16.4531L12.7828 16.5938H11.5172L10.8609 16.4531L9.82969 16.0313C9.34844 15.7625 8.91875 15.4422 8.54063 15.0703C8.43125 14.9453 8.4 14.7422 8.44688 14.4609L8.70469 14.1094L9.07969 13.9688Z" fill="white" stroke="white" stroke-width="0.3"/>
</svg>
